<svg width="256" height="80" viewBox="0 0 256 80" fill="none" xmlns="http://www.w3.org/2000/svg">
<g clip-path="url(#clip0_691_20843)">
<path fill-rule="evenodd" clip-rule="evenodd" d="M36.8571 0.903378C43.5033 0.587752 51.3669 2.00356 52.8278 6.69287C55.2266 14.3761 43.0614 25.5763 32.4564 31.0773C29.8592 32.4299 28.2901 32.7907 27.6318 32.7005C27.0006 32.6103 26.9104 31.9881 27.1088 31.5642C27.4875 30.7526 29.2009 29.1114 31.4825 27.3258C43.4221 18.0013 47.2998 11.1567 45.0454 8.38823C43.6025 6.61171 37.5605 5.37625 31.275 5.37625C29.5616 5.37625 25.0797 5.77304 24.6198 4.20393C24.2591 2.89633 30.265 1.20999 36.8571 0.903378ZM22.8072 36.1273C28.5065 35.7936 35.4233 36.7946 39.31 39.7705C40.4003 40.6062 41.2198 41.7451 41.6657 43.0444C42.1117 44.3438 42.1643 45.7459 41.817 47.075C39.5625 55.9216 31.1939 66.6258 12.599 74.8501C6.67422 77.4653 2.03001 78.4663 1.05607 77.7629C0.000980973 77.0144 3.04903 71.1798 3.96885 69.241C6.94476 62.9645 10.6421 56.8504 14.2673 51.2593C15.6019 49.2032 17.658 45.6321 19.5157 45.9117C21.184 46.1732 19.2362 49.9697 17.9466 52.3775C15.7823 56.4266 9.84852 67.6719 11.8144 68.3392C16.143 69.8362 36.4874 54.3615 33.4844 45.7404C32.0957 41.7364 23.2581 41.3577 17.7031 41.3577C15.1781 41.3577 9.64111 41.9528 9.3345 40.014C9.00986 38.2284 17.7302 36.4249 22.8072 36.1273Z" fill="#005386"/>
<path fill-rule="evenodd" clip-rule="evenodd" d="M66.8057 26.6489C70.2235 27.2711 73.01 27.7491 73.6503 29.1919C74.3717 30.8242 70.6383 30.9234 68.7626 30.9685C59.7718 31.1398 54.343 31.3202 54.0725 34.3772C53.7208 38.309 57.9231 42.2679 62.0623 47.8139C65.8498 52.891 70.1514 57.8959 68.9159 62.5581C67.3648 68.3747 60.2407 69.5921 53.4593 69.6011C46.9664 69.6011 40.8071 68.5641 38.219 68.05C34.9996 67.4188 35.4776 65.8226 36.3343 65.3086C37.2992 64.7405 42.773 64.7224 46.5786 64.497C49.7078 64.3166 58.8069 64.3166 60.2227 61.99C61.9631 59.1404 57.6977 54.2527 53.7929 49.1395C48.9233 42.7639 43.5576 36.1718 46.3982 31.3652C50.0685 25.1429 60.7998 25.5667 66.8057 26.6489ZM206.998 44.0985C214.212 44.0985 217.008 41.6276 218.144 35.9193L219.857 27.0186C219.975 26.4234 219.614 26.2431 219.163 26.2431H215.673L214.708 31.3652L214.167 34.0886L213.707 36.4513C213.067 39.6797 210.975 41.1316 207.44 41.1316C203.544 41.1316 202.507 39.7158 203.111 36.4513L203.319 35.3962L204.121 31.3652L205.086 26.2431H201.587C201.136 26.2431 200.712 26.4234 200.595 27.0186L198.882 35.9193C197.709 42.1867 200.83 44.0985 206.998 44.0985ZM84.2914 53.7477C83.7684 56.2095 85.6892 57.3909 89.594 59.8167C93.8684 62.468 94.8424 62.6664 94.4456 64.0641C94.139 65.1914 93.0117 65.2365 91.0909 65.2365H83.4888C82.6231 65.2365 82.1181 65.5972 81.9648 66.3637L81.6672 67.9238H91.2533C95.645 67.9238 98.3954 67.6533 99.3964 64.9659C99.6872 64.3051 99.7755 63.5729 99.6503 62.8618C99.5251 62.1508 99.192 61.4928 98.693 60.971C97.8968 60.1735 96.9772 59.5097 95.9696 59.0051C90.4867 55.9029 89.0529 55.5422 89.4046 54.0452C89.594 53.1976 90.1801 53.1705 92.2452 53.1705H98.675C99.5407 53.1705 100.046 52.8098 100.19 52.0433L100.506 50.4201H92.3715C87.7633 50.4201 84.9948 50.4291 84.2914 53.7477ZM126.585 53.7477C126.071 56.2095 127.992 57.3909 131.897 59.8167C136.171 62.468 137.145 62.6664 136.749 64.0641C136.433 65.1914 135.306 65.2365 133.394 65.2365H125.783C124.917 65.2365 124.421 65.5972 124.268 66.3637L123.961 67.9238H133.556C137.948 67.9238 140.698 67.6533 141.69 64.9659C141.985 64.3064 142.076 63.5741 141.952 62.8626C141.828 62.1511 141.496 61.4925 140.996 60.971C140.197 60.1733 139.274 59.5095 138.264 59.0051C132.79 55.9029 131.356 55.5422 131.699 54.0452C131.897 53.1976 132.474 53.1705 134.539 53.1705H140.978C141.835 53.1705 142.34 52.8098 142.493 52.0433L142.809 50.4201H134.674C130.057 50.4201 127.298 50.4381 126.594 53.7567L126.585 53.7477ZM233.79 53.7477C233.267 56.2095 235.188 57.3909 239.093 59.8167C243.367 62.468 244.341 62.6664 243.944 64.0641C243.629 65.1914 242.51 65.2365 240.59 65.2365H232.978C232.122 65.2365 231.617 65.5972 231.463 66.3637L231.166 67.9238H240.752C245.144 67.9238 247.894 67.6533 248.895 64.9659C249.187 64.3053 249.276 63.5728 249.151 62.8615C249.026 62.1502 248.692 61.4922 248.192 60.971C247.393 60.1726 246.47 59.5087 245.459 59.0051C239.985 55.9029 238.552 55.5422 238.903 54.0452C239.084 53.1976 239.679 53.1705 241.744 53.1705H248.174C249.039 53.1705 249.535 52.8098 249.689 52.0433L250.004 50.4201H241.87C237.262 50.4201 234.493 50.4291 233.79 53.7477ZM170.484 40.7619C170.78 40.101 170.871 39.3672 170.747 38.6541C170.624 37.941 170.29 37.2809 169.79 36.7579C168.992 35.9542 168.069 35.2843 167.058 34.774C161.584 31.6809 160.15 31.3292 160.493 29.8322C160.691 28.9845 161.277 28.9485 163.342 28.9485H169.772C170.638 28.9485 171.134 28.5968 171.287 27.8302L171.603 26.189H163.469C158.86 26.189 156.092 26.216 155.379 29.5256C154.865 31.9875 156.786 33.1778 160.691 35.6037C164.965 38.2549 165.939 38.4533 165.543 39.8511C165.227 40.9783 164.109 41.0234 162.188 41.0234H154.586C153.711 41.0234 153.215 41.3841 153.062 42.1506L152.764 43.7107H162.35C166.742 43.7107 169.492 43.4402 170.493 40.7529L170.484 40.7619ZM150.059 40.7619C150.352 40.0999 150.441 39.3659 150.316 38.653C150.191 37.9401 149.856 37.2805 149.356 36.7579C148.559 35.9563 147.639 35.2866 146.632 34.774C141.14 31.6809 139.715 31.3292 140.067 29.8322C140.247 28.9845 140.834 28.9485 142.908 28.9485H149.328C150.203 28.9485 150.699 28.5968 150.853 27.8302L151.168 26.189H143.034C138.417 26.189 135.657 26.216 134.954 29.5256C134.431 31.9875 136.352 33.1778 140.256 35.6037C144.522 38.2549 145.505 38.4533 145.108 39.8511C144.802 40.9783 143.674 41.0234 141.753 41.0234H134.151C133.277 41.0234 132.781 41.3841 132.618 42.1506L132.321 43.7107H141.916C146.307 43.7107 149.058 43.4492 150.059 40.7619ZM239.264 26.2431C238.398 26.2431 237.911 26.5407 237.785 27.19L237.442 28.9575H244.314L241.446 43.7107H244.53C245.396 43.7107 245.901 43.35 246.072 42.4663L248.706 28.9575H254.441C255.253 28.9575 255.541 28.5968 255.686 27.8843L256.001 26.2431H239.264ZM89.4226 31.1037C88.9898 31.1037 88.6561 31.3923 88.611 31.6899L86.2663 43.7107H96.6099C102.408 43.7107 106.421 41.5555 107.675 34.8732C108.613 29.8863 106.448 26.2431 100.551 26.2431H88.0339L87.9797 26.4685C87.7002 27.6409 87.8445 28.9394 89.8284 28.9394H98.9185C103.301 28.9394 103.923 31.1308 103.049 34.9814C102.192 38.7689 100.695 40.7168 97.4034 41.0144H91.1811L93.1019 31.0947L89.4226 31.1037ZM236.811 42.0785C236.964 41.312 236.694 41.0144 235.999 41.0144H226.621L229.38 26.8383C229.434 26.5407 229.218 26.2431 228.839 26.2431H225.106L221.715 43.7107H236.495L236.811 42.0785ZM208.91 50.4651H204.96L197.295 57.2737L192.281 50.4651H188.331C187.682 50.4651 187.33 50.8709 187.195 51.5834L184.011 67.9238H187.375C188.078 67.9238 188.466 67.5631 188.592 66.9228L190.973 54.6945L194.833 60.1954C194.922 60.3612 195.055 60.4993 195.217 60.5947C195.379 60.6901 195.564 60.7392 195.753 60.7365H197.493C197.707 60.7253 197.917 60.6718 198.111 60.5789C198.304 60.486 198.478 60.3557 198.62 60.1954L204.626 54.6945L202.245 66.9228C202.119 67.5721 202.372 67.9238 203.084 67.9238H206.439L209.613 51.5834C209.748 50.8709 209.568 50.4651 208.91 50.4651ZM167.067 51.5834L163.892 67.9238H180.034L180.368 66.1743C180.512 65.4619 180.332 65.2274 179.52 65.2274H168.798L169.709 60.5381H179.187C179.457 60.5381 179.656 60.3578 179.701 60.1233L180.061 58.2656C180.107 58.0312 179.98 57.8508 179.71 57.8508H170.241L171.143 53.1705H181.486C181.973 53.1705 182.46 53.1705 182.596 52.5212L182.992 50.4651H168.419C167.662 50.4651 167.211 50.8168 167.067 51.5834ZM214.988 51.5834L211.804 67.9238H227.946L228.289 66.1743C228.424 65.4619 228.253 65.2274 227.441 65.2274H216.719L217.63 60.5381H227.108C227.378 60.5381 227.577 60.3578 227.622 60.1233L227.983 58.2656C228.028 58.0312 227.892 57.8508 227.631 57.8508H218.153L219.055 53.1705H229.407C229.894 53.1705 230.381 53.1705 230.508 52.5212L230.904 50.4651H216.34C215.583 50.4651 215.141 50.8168 214.988 51.5834ZM118.19 51.0513L116.648 59.0051C113.942 59.8347 106.926 61.3497 108.018 55.7316L109.046 50.4651H105.357C104.924 50.4651 104.6 50.7537 104.546 51.0513L103.608 55.8488C101.84 64.9659 110.47 63.7215 116.061 62.008L114.907 67.9238H117.991C118.866 67.9238 119.362 67.5631 119.542 66.6883L122.69 50.4561H118.956C118.577 50.4561 118.244 50.7537 118.19 51.0513ZM164.298 52.0974L164.614 50.4651H147.895C147.029 50.4651 146.542 50.7537 146.407 51.412L146.064 53.1705H152.936L150.077 67.9238H153.161C154.027 67.9238 154.523 67.5631 154.703 66.6883L157.327 53.1615H163.072C163.883 53.1615 164.163 52.8098 164.298 52.0974ZM116.17 33.5836C116.828 30.1839 118.812 28.9485 122.347 28.9485C126.089 28.9485 127.072 30.3552 126.459 33.5836L126.261 34.6387C126.18 34.9995 126.017 35.9373 125.043 35.9373H115.71L116.161 33.5927L116.17 33.5836ZM110.894 43.7107H114.204L115.16 38.6337H125.449L124.493 43.7107H127.794C128.227 43.7107 128.641 43.5304 128.759 42.9442L130.472 34.1247C131.735 27.4334 127.956 26.0086 122.861 26.0086C116.765 26.0086 113.275 27.5417 111.949 34.1247L110.236 42.9442C110.119 43.5304 110.461 43.7107 110.894 43.7107ZM180.35 33.5836C181.008 30.1839 182.992 28.9485 186.527 28.9485C190.27 28.9485 191.253 30.3552 190.648 33.5836L190.441 34.6387C190.36 34.9995 190.198 35.9373 189.233 35.9373H179.89L180.35 33.5927V33.5836ZM175.084 43.7107H178.384L179.349 38.6337H189.629L188.674 43.7107H191.974C192.407 43.7107 192.822 43.5304 192.939 42.9442L194.652 34.1247C195.915 27.4334 192.136 26.0086 187.041 26.0086C180.945 26.0086 177.464 27.5417 176.13 34.1247L174.416 42.9442C174.299 43.5304 174.642 43.7107 175.084 43.7107Z" fill="#005386"/>
</g>
<defs>
<clipPath id="clip0_691_20843">
<rect width="256" height="79.0528" fill="white"/>
</clipPath>
</defs>
</svg>
