<svg width="300" height="40" viewBox="0 0 300 40" fill="none" xmlns="http://www.w3.org/2000/svg">
<path fill-rule="evenodd" clip-rule="evenodd" d="M65.7605 27.4122H58.6825C58.6825 25.1048 58.0604 25.1384 57.4735 25.1384C56.8866 25.1384 56.63 25.8713 56.63 26.5319V29.3188C56.63 30.7508 57.1817 31.5205 58.5014 31.5205H65.4318C67.0818 31.5205 67.9621 30.1992 67.9621 28.5475V23.9278H76.2123V39.5493H54.7603C52.5603 39.5493 50.7996 38.4717 50.1406 37.0751C49.4799 38.4717 47.7209 39.5493 45.5208 39.5493H39.2494V31.692H41.8888C43.5389 31.692 44.2412 30.4702 44.2412 29.2868V24.9139C44.2412 22.9753 43.2085 21.4696 41.0085 21.0398C43.2101 20.6069 44.2412 19.1012 44.2412 17.1641V12.7897C44.2412 11.6063 43.5389 10.3828 41.8888 10.3828H39.2494V2.52716H45.5208C47.7209 2.52716 49.4815 3.60312 50.1406 5.0014C50.8012 3.60152 52.5603 2.52716 54.7603 2.52716H76.2123V18.1487H67.9621V13.5289C67.9621 11.8789 67.0818 10.5592 65.4318 10.5592H58.5014C57.1817 10.5592 56.63 11.3289 56.63 12.7592V15.5462C56.63 16.2068 56.8882 16.9396 57.4735 16.9396C58.0604 16.9396 58.6825 16.9765 58.6825 14.6658H65.7605V27.4122ZM195.906 27.4122H188.828C188.828 25.1048 188.204 25.1384 187.615 25.1384C187.03 25.1384 186.774 25.8713 186.774 26.5319V29.3188C186.774 30.7508 187.325 31.5205 188.643 31.5205H195.574C197.224 31.5205 198.104 30.1992 198.104 28.5475V23.9278H206.356V39.5493H184.902C182.704 39.5493 180.943 38.4717 180.283 37.0751C179.622 38.4717 177.861 39.5493 175.663 39.5493H169.39V31.692H172.029C173.679 31.692 174.382 30.4702 174.382 29.2868V24.9139C174.382 22.9753 173.351 21.4696 171.149 21.0398C173.351 20.6069 174.382 19.1012 174.382 17.1641V12.7897C174.382 11.6063 173.679 10.3828 172.029 10.3828H169.39V2.52716H175.663C177.861 2.52716 179.622 3.60312 180.283 5.0014C180.943 3.60152 182.704 2.52716 184.902 2.52716H206.356V18.1487H198.104V13.5289C198.104 11.8789 197.224 10.5592 195.574 10.5592H188.643C187.325 10.5592 186.774 11.3289 186.774 12.7592V15.5462C186.774 16.2068 187.03 16.9396 187.615 16.9396C188.204 16.9396 188.828 16.9765 188.828 14.6658H195.906V27.4122ZM36.9644 18.1503V2.52876H15.5125C13.3125 2.52876 11.5518 3.60473 10.8911 5.003C10.2305 3.60312 8.47141 2.52876 6.27138 2.52876H0V10.3844H2.6394C4.28943 10.3844 4.99177 11.6079 4.99177 12.7913V17.1657C4.99177 19.1028 3.9607 20.6085 1.75907 21.0414C3.9607 21.4712 4.99177 22.9769 4.99177 24.9156V29.2884C4.99177 30.4718 4.28943 31.6936 2.6394 31.6936H0V39.5509H6.27138C8.47141 39.5509 10.2305 38.4733 10.8911 37.0767C11.5518 38.4733 13.3125 39.5509 15.5125 39.5509H23.6167V31.5205H19.2519C17.9322 31.5205 17.3822 30.7508 17.3822 29.3188V26.5319C17.3822 25.8713 17.6388 25.1384 18.2256 25.1384C18.8125 25.1384 19.4347 25.1048 19.4347 27.4122H26.5127V14.6674H19.4347C19.4347 16.9781 18.8109 16.9412 18.2256 16.9412C17.6388 16.9412 17.3822 16.2068 17.3822 15.5478V12.7608C17.3822 11.3305 17.9322 10.5608 19.2519 10.5608H26.1823C27.8324 10.5608 28.7127 11.8805 28.7127 13.5305V18.1503H36.9644ZM98.2816 12.8955C98.2816 11.377 98.8316 10.5592 100.151 10.5592H103.451C106.238 10.5592 107.999 11.454 107.999 13.9458C107.999 16.4377 106.238 17.3325 103.451 17.3325H100.151C98.8316 17.3325 98.2816 16.5147 98.2816 14.9962V12.8955ZM96.4102 2.53036C94.2102 2.53036 92.4495 3.60633 91.7889 5.0046C91.1298 3.60472 89.3692 2.53036 87.1691 2.53036H80.8978V10.386H83.5388C85.1872 10.386 85.8895 11.6095 85.8895 12.7929V17.1673C85.8895 19.1044 84.8569 20.6101 82.6568 21.043C84.8569 21.4728 85.8895 22.9785 85.8895 24.9172V29.29C85.8895 30.4734 85.1872 31.6952 83.5388 31.6952H80.8978V39.5525H87.1691C89.3692 39.5525 91.1298 38.4749 91.7889 37.0783C92.4495 38.4749 94.2102 39.5525 96.4102 39.5525H104.514V31.5221H100.15C98.83 31.5221 98.28 30.7524 98.28 29.3204V26.5335C98.28 25.8729 98.5365 25.14 99.1234 25.14H103.45C105.906 25.14 106.896 26.9536 106.896 30.0356V32.566C106.896 36.0857 108.987 39.2751 114.597 39.2751H122.628V30.8069H121.308C119.658 30.8069 118.888 30.3659 118.888 28.3856V27.0643C118.888 24.6462 117.238 21.6748 114.817 21.1264C117.678 19.9142 120.098 18.2641 120.098 12.4353C120.098 6.38524 116.247 2.53357 111.406 2.53357L96.4102 2.53036ZM142.435 12.8955C142.435 11.377 142.985 10.5592 144.306 10.5592H147.606C150.393 10.5592 152.154 11.454 152.154 13.9458C152.154 16.4377 150.393 17.3325 147.606 17.3325H144.306C142.986 17.3325 142.435 16.5147 142.435 14.9962V12.8955ZM140.565 2.53036C138.365 2.53036 136.604 3.60633 135.945 5.0046C135.284 3.60472 133.525 2.53036 131.325 2.53036H125.052V10.386H127.693C129.343 10.386 130.046 11.6095 130.046 12.7929V17.1673C130.046 19.1044 129.013 20.6101 126.813 21.043C129.013 21.4728 130.046 22.9785 130.046 24.9172V29.29C130.046 30.4734 129.343 31.6952 127.693 31.6952H125.052V39.5525H131.324C133.524 39.5525 135.284 38.4749 135.944 37.0783C136.604 38.4749 138.363 39.5525 140.563 39.5525H148.667V31.5221H144.304C142.985 31.5221 142.433 30.7524 142.433 29.3204V26.5335C142.433 25.8729 142.691 25.14 143.276 25.14H147.603C150.059 25.14 151.049 26.9536 151.049 30.0356V32.566C151.049 36.0857 153.141 39.2751 158.75 39.2751H166.784V30.8069H165.463C163.813 30.8069 163.041 30.3659 163.041 28.3856V27.0643C163.041 24.6462 161.391 21.6748 158.973 21.1264C161.832 19.9142 164.254 18.2641 164.254 12.4353C164.254 6.38524 160.402 2.53357 155.563 2.53357C150.722 2.53036 140.565 2.53036 140.565 2.53036ZM228.909 12.8955C228.909 11.377 229.458 10.5592 230.779 10.5592H234.078C236.864 10.5592 238.625 11.454 238.625 13.9458C238.625 16.4377 236.864 17.3325 234.078 17.3325H230.779C229.458 17.3325 228.909 16.5147 228.909 14.9962V12.8955ZM227.036 2.53036C224.838 2.53036 223.077 3.60633 222.417 5.0046C221.756 3.60472 219.995 2.53036 217.797 2.53036H211.527V10.386H214.167C215.813 10.386 216.519 11.6095 216.519 12.7929V17.1673C216.519 19.1044 215.485 20.6101 213.286 21.043C215.485 21.4728 216.519 22.9785 216.519 24.9172V29.29C216.519 30.4734 215.815 31.6952 214.167 31.6952H211.527V39.5525H217.797C219.995 39.5525 221.756 38.4749 222.417 37.0783C223.077 38.4749 224.838 39.5525 227.036 39.5525H235.142V31.5221H230.779C229.458 31.5221 228.909 30.7524 228.909 29.3204V26.5335C228.909 25.8729 229.163 25.14 229.751 25.14H234.076C236.534 25.14 237.524 26.9536 237.524 30.0356V32.566C237.524 36.0857 239.613 39.2751 245.225 39.2751H253.256V30.8069H251.938C250.288 30.8069 249.516 30.3659 249.516 28.3856V27.0643C249.516 24.6462 247.866 21.6748 245.445 21.1264C248.304 19.9142 250.725 18.2641 250.725 12.4353C250.725 6.38524 246.877 2.53357 242.034 2.53357C237.196 2.53036 227.036 2.53036 227.036 2.53036ZM296.806 14.4478C297.466 17.557 298.347 18.5752 300 19.6624C298.347 20.748 297.466 21.7678 296.806 24.8755C294.053 37.4776 283.37 39.3264 276.653 39.3264C269.936 39.3264 259.254 37.4792 256.503 24.8755C255.842 21.7678 254.959 20.748 253.309 19.6624C254.959 18.5752 255.842 17.557 256.503 14.4478C259.256 1.84726 269.936 0 276.653 0C283.37 0 294.053 1.84566 296.806 14.4478ZM276.651 8.68949C273.463 8.68949 269.977 10.9633 269.977 15.3634C269.977 17.3806 270.933 18.7003 272.583 19.4716C270.933 20.2397 269.977 21.561 269.977 23.5782C269.977 27.9783 273.463 30.2521 276.651 30.2521C279.842 30.2521 283.325 27.9783 283.325 23.5782C283.325 21.561 282.372 20.2397 280.722 19.4716C282.372 18.7003 283.325 17.3806 283.325 15.3634C283.325 10.9633 279.844 8.68949 276.651 8.68949Z" fill="#5A4330"/>
</svg>
