<svg width="217" height="59" viewBox="0 0 217 59" fill="none" xmlns="http://www.w3.org/2000/svg">
<g clip-path="url(#clip0_691_20839)">
<path d="M0 0.0117188V58.1323H33.756C35.3906 52.9071 37.1009 47.617 38.7066 42.3341C38.8231 42.2178 38.8231 41.9126 38.7066 41.8248H20.1662V37.02H40.3084C42.0302 31.6792 43.5652 26.4131 45.2592 21.2458H20.4088V16.7078L46.6177 16.635L49.5298 7.24336C49.5587 7.24336 49.554 7.31106 49.554 7.34037C50.1665 4.85929 50.9888 2.43475 51.6896 0.0117188H0ZM80.0341 0.084525L80.0097 16.7806L97.0214 16.8292V58.2295H124.201C119.56 55.1058 115.471 49.4818 113.281 43.936C110.275 36.7847 110.163 26.704 113.111 19.5228C113.228 19.3772 113.13 19.0665 113.305 19.0378C113.452 18.371 113.813 17.6051 114.13 16.9994C115.532 13.934 117.459 11.0306 119.59 8.72426C119.941 8.25735 120.259 7.90864 120.755 7.70478L120.633 7.68058C121.246 7.00887 121.792 6.4962 122.405 6.03024C122.58 5.88368 122.675 5.72445 122.939 5.66621V5.56882C123.698 4.95649 124.343 4.44496 125.22 3.91848C125.596 3.65835 125.994 3.43102 126.409 3.23902C128.511 1.86837 131.028 0.857784 133.714 0.156764L80.0341 0.084525ZM160.505 0.133125V58.2295H177.954L178.051 22.0469C179.276 26.1041 180.592 30.2783 181.788 34.2775C181.817 34.5101 181.865 34.8212 181.982 34.9088C183.178 38.9661 184.288 43.0869 185.574 47.1151C185.952 48.574 186.462 50.0001 186.811 51.4591H186.86C187.473 53.7365 188.182 55.9573 188.826 58.2056H217L216.951 0.133315H199.406L199.333 36.3647C198.398 33.4738 197.51 30.392 196.664 27.3857L196.615 27.4099C193.872 18.1864 191.128 9.29877 188.413 0.133315L160.505 0.133125ZM70.2058 11.2719C69.8274 12.3513 69.4838 13.5803 69.1621 14.718C69.1341 14.718 69.1377 14.6985 69.1377 14.6694C67.7351 19.6611 66.0491 24.7276 64.6483 29.8369H75.4959C74.9416 27.8515 74.3658 25.7598 73.8698 23.8914H73.8212C72.5956 19.7169 71.4609 15.5041 70.2058 11.2719ZM143.324 19.4014C141.813 19.4147 140.263 19.7704 139.004 20.2993C136.201 21.7292 134.169 23.5637 132.913 26.5119L132.889 26.4391C132.799 26.8477 132.641 27.0981 132.525 27.5068C132.408 27.7989 132.268 28.1075 132.209 28.4288C131.508 30.9389 131.677 34.151 132.67 36.4854H132.719C132.777 36.6312 132.855 36.8592 132.913 36.9466C134.286 39.8944 136.56 41.9303 139.684 42.8917C144.208 44.2647 148.938 42.5988 151.477 39.5916C151.824 39.1883 152.199 38.6794 152.545 38.3295H152.569V38.1839H152.545C155.172 34.5935 154.851 28.4614 152.545 24.8125C152.34 24.6949 152.274 24.4445 152.157 24.1815H152.108C150.562 22.1091 148.605 20.4665 145.92 19.7649C145.132 19.514 144.23 19.3935 143.324 19.4014ZM60.6688 42.7955C60.2312 44.2836 59.8252 45.6739 59.3583 47.1639L59.3097 47.0911C58.2293 50.7979 57.1274 54.5271 55.9608 58.2055H83.7952C82.3288 53.0625 80.8405 47.9258 79.3302 42.7955H60.6688Z" fill="#0067CD"/>
</g>
<defs>
<clipPath id="clip0_691_20839">
<rect width="217" height="58.2428" fill="white"/>
</clipPath>
</defs>
</svg>
