<svg width="295" height="40" viewBox="0 0 295 40" fill="none" xmlns="http://www.w3.org/2000/svg">
<g clip-path="url(#clip0_774_55)">
<path d="M255.202 33.4455L256.042 0.00195312H245.88V0.780845C246.739 1.13227 247.516 1.6585 248.161 2.32639C248.951 3.304 249.384 4.52264 249.388 5.7793V38.6525H272.319V33.4455H255.202Z" fill="#231F20"/>
<path d="M287.941 0.0175781H284.445V0.79647C285.306 1.14851 286.085 1.67474 286.732 2.34201C287.519 3.32146 287.951 4.53888 287.959 5.79493V38.6681H293.657L294.626 0.0298375L287.941 0.0175781Z" fill="#231F20"/>
<path d="M33.2902 19.0485C33.2902 23.276 31.9244 26.77 29.1933 29.5298C28.3593 30.3701 27.4141 31.0925 26.3844 31.6764C25.1811 32.3284 23.8932 32.8116 22.5574 33.1115C20.4378 33.5482 18.2747 33.7396 16.1115 33.6819H9.30998L9.96622 7.71456V7.6839C9.96622 6.18007 11.2039 4.94242 12.7077 4.94242H15.9275C17.8601 4.90194 19.7932 5.00252 21.711 5.24294C23.0278 5.47967 24.3065 5.89243 25.5135 6.46955C26.8278 7.08469 28.033 7.90898 29.083 8.91051C31.8876 11.5275 33.2902 14.9105 33.2902 19.0607M39.178 19.3674C39.2043 15.8445 38.2672 12.3806 36.4672 9.35209C34.7511 6.38062 32.2151 3.96543 29.1627 2.39721C26.1041 0.814878 21.9398 0.0218713 16.6696 0.0175781H0V0.79647C0.859241 1.14789 1.6363 1.67412 2.2815 2.34201C3.07144 3.31962 3.50443 4.53826 3.50811 5.79493V38.6068H15.8969C18.225 38.662 20.5549 38.5638 22.8702 38.3124C24.2452 38.0787 25.5902 37.6942 26.8812 37.1655C34.2685 34.3823 39.1878 27.2741 39.1902 19.3796" fill="#231F20"/>
<path d="M77.2828 33.5163H60.6806L60.975 21.747H76.2095V16.632H61.1038L61.3246 7.80043C61.3577 6.31316 62.5905 5.10739 64.0784 5.10801H76.7738V0.0175781H51.3584V0.796469C52.2176 1.14789 52.9947 1.67412 53.6399 2.34201C54.4262 3.32146 54.8585 4.53888 54.8665 5.79492V38.6006H77.2951L77.2828 33.5163Z" fill="#231F20"/>
<path d="M98.5154 5.84457C98.9037 3.71456 99.831 1.71947 101.208 0.0488281H94.5596C89.8862 3.80226 94.2959 13.3453 95.6145 17.755C96.7497 21.5047 97.4759 25.3667 97.7795 29.2729C98.0248 32.3394 96.9944 34.0812 96.0745 35.0011C95.0288 35.9205 93.9291 36.7766 92.781 37.5647V38.6442H95.1729C99.4109 38.6442 99.7175 37.0434 99.7175 37.0434C101.453 30.5976 99.0613 14.2039 98.8589 12.824C98.6565 11.4441 98.1658 8.06474 98.5338 5.84457" fill="#A46D33"/>
<path d="M125.372 0.0175781H121.876V0.79647C122.738 1.14728 123.517 1.67351 124.164 2.34201C124.954 3.31962 125.387 4.53826 125.39 5.79493V30.0328L101.306 2.33587C100.607 3.47171 100.132 4.73144 99.9075 6.04636C99.7916 6.99453 99.7604 7.95068 99.8155 8.90437L125.636 38.6068H130.769L131.738 0.0175781H125.372Z" fill="#231F20"/>
<path d="M184.329 38.5945L163.513 18.3554L180.275 0.0175781H173.197L157.294 17.3005L157.73 0.0175781H151.063H147.567V0.79647C148.428 1.14851 149.207 1.67474 149.855 2.34201C150.641 3.32146 151.074 4.53888 151.082 5.79493V38.6068H156.779L157.104 25.525C157.104 22.3174 159.036 21.5017 161.281 23.7525L176.614 38.5945H184.329Z" fill="#231F20"/>
<path d="M208.634 22.287L214.393 8.29748L220.631 22.2992L208.634 22.287ZM216.669 0.0117188H207.653V0.692498C207.653 0.692498 211.652 0.772229 210.352 4.48886L195.755 38.6071H201.606L204.905 30.7874C205.928 28.6819 207.964 27.2437 210.29 26.9849L222.47 26.2735L228.027 38.5948H233.847L216.669 0.0117188Z" fill="#231F20"/>
</g>
<defs>
<clipPath id="clip0_774_55">
<rect width="295" height="39.2516" fill="white"/>
</clipPath>
</defs>
</svg>
