<svg width="157" height="193" viewBox="0 0 157 193" fill="none" xmlns="http://www.w3.org/2000/svg">
<g clip-path="url(#clip0_768_23)">
<path fill-rule="evenodd" clip-rule="evenodd" d="M0.327637 163.871H157.001V166.815H0.327637V163.871ZM0.327637 94.5293H157.001V97.473H0.327637V94.5293Z" fill="black"/>
<path fill-rule="evenodd" clip-rule="evenodd" d="M0.327637 190.033H157.001V192.65H0.327637V190.033Z" fill="black"/>
<path fill-rule="evenodd" clip-rule="evenodd" d="M146.533 115.787C154.056 116.114 157 121.674 157 126.907C157 127.234 156.673 127.562 155.692 127.562H140.319C140.646 135.739 147.188 137.047 150.131 136.393C150.785 136.393 151.44 136.175 152.094 135.739C152.53 135.521 152.857 135.412 153.075 135.412C153.402 135.084 153.729 135.084 154.056 135.412C154.274 135.63 154.383 135.848 154.383 136.066C154.383 136.284 154.274 136.502 154.056 136.72C154.056 136.938 153.947 137.156 153.729 137.374C151.44 138.682 149.15 139.337 146.86 139.009C140.646 138.682 135.413 134.43 135.413 127.562C135.413 120.693 140.646 115.459 146.533 115.787ZM150.458 125.599C151.113 125.599 151.44 125.599 151.767 124.945C151.767 124.509 151.767 124.182 151.767 123.964C151.767 122.873 151.549 121.783 151.113 120.693C150.785 119.712 150.131 118.73 149.15 118.076C148.278 117.64 147.406 117.422 146.533 117.422C145.661 117.422 144.898 117.531 144.244 117.749C142.281 118.403 140.973 120.366 140.646 124.945V125.272L150.458 125.599ZM17.9896 103.684C21.2604 104.339 24.2042 105.974 26.8208 108.591C31.0729 113.17 31.7271 121.02 26.1667 125.272C23.9861 126.798 21.5875 127.78 18.9708 128.216C15.7 128.652 12.4292 128.761 9.15833 128.543H8.83125C8.50417 128.543 8.50417 128.543 8.50417 129.197V135.412C8.50417 135.848 8.61319 136.175 8.83125 136.393C9.26736 136.829 9.59444 137.156 9.8125 137.374C10.2486 137.374 10.4667 137.483 10.4667 137.701C11.1208 137.919 11.4479 138.137 11.4479 138.355C11.4479 138.573 11.4479 138.682 11.4479 138.682C11.4479 138.9 11.4479 139.009 11.4479 139.009C11.2299 139.228 11.1208 139.337 11.1208 139.337C10.9028 139.337 10.6847 139.337 10.4667 139.337H1.30833C0.327083 139.337 0 139.337 0 138.682C0 138.246 0.327083 137.919 0.98125 137.701L1.63542 137.374C1.9625 137.047 1.9625 137.047 2.28958 136.72C2.28958 136.284 2.28958 135.957 2.28958 135.739C2.28958 135.084 2.61667 132.468 2.61667 130.832V112.516C2.61667 107.937 2.94375 106.628 1.9625 105.974C1.30833 105.32 0.327083 105.647 0.327083 104.339C0.654167 103.684 1.9625 103.357 2.61667 103.357C4.14306 103.357 5.66944 103.357 7.19583 103.357C10.6847 102.921 14.2826 103.03 17.9896 103.684ZM10.1396 126.253C11.4479 126.689 12.6472 126.907 13.7375 126.907C21.5875 126.58 23.55 121.02 23.55 116.441C23.55 111.534 19.9521 105.32 12.7563 104.993C11.775 104.993 10.1396 104.993 9.48542 105.647C9.26736 105.865 9.04931 106.192 8.83125 106.628C8.83125 106.846 8.83125 107.064 8.83125 107.282V123.964C8.83125 124.618 8.94028 125.163 9.15833 125.599C9.48542 125.926 9.8125 126.253 10.1396 126.253ZM47.4271 116.768C47.7542 116.768 48.0812 116.768 48.0812 117.422C48.4083 118.403 47.4271 120.366 47.1 121.674C46.7729 122.328 46.4458 122.328 45.7917 122.001C45.1375 121.674 45.4646 120.693 44.1562 120.039C44.1562 120.039 40.5583 118.403 37.9417 122.655C37.2875 124.182 37.0694 125.817 37.2875 127.562L37.6146 135.412C37.6146 135.848 37.6146 136.175 37.6146 136.393C37.9417 137.047 38.9229 137.374 39.25 137.701C39.4681 137.701 39.5771 137.81 39.5771 138.028C39.5771 138.246 39.5771 138.355 39.5771 138.355C39.5771 139.009 38.9229 139.337 38.5958 139.337H31.0729C30.6368 139.337 30.3097 139.228 30.0917 139.009C30.0917 139.009 30.0917 138.9 30.0917 138.682C29.8736 138.682 29.8736 138.573 30.0917 138.355C30.0917 138.355 30.0917 138.246 30.0917 138.028C30.7458 137.701 31.4 137.374 32.0542 137.047C32.3812 136.066 32.3812 134.757 32.3812 132.795V123.309C32.3812 121.674 32.3813 120.693 31.4 120.366C31.1819 120.366 30.9639 120.257 30.7458 120.039C30.7458 120.039 30.7458 119.93 30.7458 119.712C30.7458 119.493 30.7458 119.384 30.7458 119.384C30.7458 119.166 30.8549 118.948 31.0729 118.73C31.7271 118.294 32.4903 117.858 33.3625 117.422L34.9979 116.441C36.3062 115.787 36.9604 116.114 36.9604 116.441C37.1785 116.877 37.2875 117.422 37.2875 118.076C37.2875 119.057 37.2875 120.039 37.2875 120.039L38.2687 119.057C42.1937 116.114 45.1375 116.114 46.7729 116.441C46.991 116.441 47.209 116.55 47.4271 116.768ZM58.5479 115.787C66.0708 116.114 69.0146 122.001 69.0146 126.907C69.0146 127.562 68.6875 127.562 67.7063 127.562H52.3333C52.6604 136.066 58.875 137.047 62.1458 136.72C62.8 136.502 63.4542 136.284 64.1083 136.066C64.5444 135.848 64.8715 135.63 65.0896 135.412C65.4167 135.412 65.7438 135.084 66.0708 135.412C66.2889 135.63 66.3979 135.848 66.3979 136.066C66.3979 136.502 66.2889 136.829 66.0708 137.047C65.8528 137.265 65.6347 137.374 65.4167 137.374C63.4542 138.682 61.1646 139.337 58.875 139.009C52.6604 139.009 47.1 134.43 47.1 127.562C47.1 121.02 52.6604 115.787 58.5479 116.114V115.787ZM62.4729 125.272C62.8 125.272 63.4542 125.599 63.7812 124.618C63.7812 124.4 63.7812 124.182 63.7812 123.964C63.7812 122.655 63.5632 121.456 63.1271 120.366C62.8 119.384 62.1458 118.403 60.8375 117.749C60.1833 117.531 59.4201 117.422 58.5479 117.422C57.6757 117.422 56.9125 117.531 56.2583 117.749C54.2958 118.403 52.9875 120.366 52.6604 124.945V125.272H62.4729ZM86.35 125.599C87.2222 125.817 88.0944 126.362 88.9667 127.234C89.9479 128.216 90.6021 129.851 90.6021 131.487C90.9292 132.795 90.275 134.43 89.2937 135.412C86.35 139.664 80.4625 138.682 78.5 138.028C78.1729 138.028 78.1729 138.028 77.8458 137.701C77.4097 137.701 77.0826 137.81 76.8646 138.028C76.6465 138.028 76.5375 138.137 76.5375 138.355C76.5375 138.573 76.4285 138.682 76.2104 138.682C75.9924 138.9 75.8833 139.009 75.8833 139.009C75.6653 139.009 75.4472 138.9 75.2292 138.682C75.2292 138.682 75.2292 138.573 75.2292 138.355C75.2292 138.355 71.9583 135.084 70.65 133.449L69.9958 132.468C69.9958 132.468 69.6687 132.141 69.6687 131.814C69.8868 131.596 69.9958 131.487 69.9958 131.487C70.2139 131.268 70.4319 131.159 70.65 131.159C71.0861 131.378 71.4132 131.596 71.6312 131.814C75.5562 135.739 78.8271 136.393 80.7896 136.393C82.425 136.72 86.0229 136.066 86.0229 132.795C86.35 129.197 80.7896 128.543 80.1354 128.216C79.1542 127.889 74.2479 126.907 72.9396 125.926C72.0674 125.272 71.4132 124.4 70.9771 123.309C70.759 122.219 70.759 121.129 70.9771 120.039C71.4132 119.166 71.8493 118.512 72.2854 118.076C73.2667 117.095 74.575 116.114 76.2104 115.787C77.7368 115.568 79.2632 115.787 80.7896 116.441C81.4437 116.768 82.7521 115.787 82.7521 115.787C82.7521 115.787 82.8611 115.678 83.0792 115.459C83.2972 115.459 83.5153 115.459 83.7333 115.459C83.7333 115.459 83.8424 115.568 84.0604 115.787C84.2785 115.787 84.3875 115.787 84.3875 115.787C85.6958 118.076 86.35 119.057 86.6771 119.712C87.0042 120.039 87.9854 121.347 87.0042 121.674C87.0042 121.892 86.8951 121.892 86.6771 121.674C86.459 121.674 86.241 121.674 86.0229 121.674C85.8049 121.456 85.4778 121.129 85.0417 120.693C84.3875 120.366 83.4062 119.384 82.0979 118.73C80.1354 117.422 75.8833 116.768 74.9021 119.057C73.5938 121.674 75.8833 122.982 79.8083 123.637C81.9889 124.073 84.0604 124.727 86.0229 125.599H86.35ZM101.396 135.739C101.723 135.412 102.05 135.084 102.377 135.412C102.595 135.412 102.813 135.412 103.031 135.412C103.031 135.63 103.031 135.848 103.031 136.066C103.031 136.066 103.031 136.175 103.031 136.393C102.704 137.374 101.723 138.682 99.1062 139.009C98.016 139.228 97.0347 139.228 96.1625 139.009C92.8917 138.682 91.9104 136.393 91.9104 133.449V120.039C91.9104 120.039 91.9104 119.384 91.5833 119.384H90.275C90.0569 119.166 89.9479 119.057 89.9479 119.057C89.9479 119.057 89.9479 118.948 89.9479 118.73C89.9479 118.73 89.9479 118.621 89.9479 118.403C90.166 117.967 90.384 117.64 90.6021 117.422C91.2562 116.768 91.9104 116.114 92.2375 115.459C92.8917 114.587 93.3278 113.606 93.5458 112.516C93.8729 111.207 94.2 109.572 95.1813 109.899C96.1625 109.899 96.4896 110.553 96.4896 111.207C96.4896 112.189 96.1625 113.17 96.4896 114.151V117.095H102.05V119.384H96.4896V134.103C96.4896 134.103 96.4896 136.066 98.125 136.393C99.2153 136.611 100.306 136.393 101.396 135.739ZM105.648 109.572C105.648 108.591 106.629 107.282 108.265 106.955C108.701 106.737 109.137 106.737 109.573 106.955C110.009 107.173 110.336 107.5 110.554 107.937C110.772 108.155 110.881 108.373 110.881 108.591C110.881 109.027 110.772 109.354 110.554 109.572C110.336 110.008 110.009 110.335 109.573 110.553C108.265 111.534 105.648 111.862 105.648 109.572ZM110.881 136.393C111.535 136.72 112.19 137.047 112.517 137.374C112.735 137.592 112.844 137.81 112.844 138.028C112.844 138.246 112.844 138.355 112.844 138.355C112.626 138.573 112.517 138.791 112.517 139.009C112.299 139.009 112.081 139.009 111.863 139.009H104.667C104.667 139.009 104.558 139.009 104.34 139.009C104.34 138.791 104.231 138.682 104.012 138.682C104.012 138.682 104.012 138.573 104.012 138.355C104.012 138.355 104.012 138.246 104.012 138.028C104.012 138.028 104.012 137.919 104.012 137.701C104.012 137.701 104.122 137.701 104.34 137.701C104.667 137.047 105.648 137.047 105.975 136.066C105.975 135.63 105.975 135.084 105.975 134.43V122.001C105.975 121.783 105.975 121.456 105.975 121.02C105.757 120.802 105.539 120.693 105.321 120.693C104.994 120.366 104.012 120.039 104.34 119.057C104.558 118.839 104.776 118.621 104.994 118.403C106.302 117.749 107.61 117.095 108.919 116.441C108.919 116.441 110.227 115.459 110.227 117.422V134.43C110.227 135.084 110.554 136.066 110.881 136.393ZM132.469 132.468C138.356 133.449 139.01 137.374 137.375 140.318C135.412 144.57 129.198 144.897 125.273 144.897C121.675 144.897 117.75 144.243 115.787 142.607C111.208 139.337 117.096 135.412 117.096 135.412C116.224 135.412 115.678 135.084 115.46 134.43C115.133 133.776 114.806 133.122 114.806 132.468C114.588 131.814 114.697 131.159 115.133 130.505C115.46 129.197 116.442 128.216 117.423 127.562C116.769 126.907 116.115 126.144 115.46 125.272C113.825 121.674 115.46 118.076 118.404 116.114C120.694 115.132 122.983 114.478 125.273 114.478C125.6 114.478 125.927 113.824 125.927 113.824C126.145 112.952 126.581 112.189 127.235 111.534C128.871 108.918 131.488 108.918 132.469 109.572C133.777 110.553 133.45 113.17 131.488 112.843C130.615 112.843 129.852 112.843 129.198 112.843C127.89 113.17 127.89 114.805 127.89 114.805C129.198 115.132 130.833 115.787 131.815 117.095C132.905 118.185 133.559 119.493 133.777 121.02C134.104 122.655 133.777 124.618 132.796 126.253C132.142 127.125 131.378 127.78 130.506 128.216C129.525 128.87 128.217 129.197 127.235 129.524C124.946 129.851 122.656 129.524 120.367 129.197C118.731 130.178 118.731 131.159 119.712 131.487C120.367 131.705 121.021 131.814 121.675 131.814C121.893 131.814 123.201 131.923 125.6 132.141C127.781 132.141 130.07 132.25 132.469 132.468ZM126.581 116.768C125.709 116.332 124.837 116.223 123.965 116.441C123.092 116.441 122.22 116.659 121.348 117.095C120.367 118.076 119.058 119.712 119.058 122.655C119.058 123.309 119.167 123.964 119.385 124.618C119.822 125.272 120.258 125.817 120.694 126.253C121.13 126.907 121.675 127.343 122.329 127.562C122.983 127.78 123.637 127.889 124.292 127.889C125.382 128.107 126.254 127.998 126.908 127.562C127.781 126.907 128.435 126.144 128.871 125.272C129.198 124.618 129.525 123.637 129.525 122.655C129.743 121.565 129.634 120.584 129.198 119.712C128.871 118.403 127.89 117.422 126.581 116.768ZM123.965 142.607C126.363 142.825 128.762 142.607 131.16 141.953C131.815 141.735 132.36 141.299 132.796 140.645C133.014 140.427 133.232 140.209 133.45 139.991C133.45 139.555 133.45 139.228 133.45 139.009C133.45 138.573 133.232 138.137 132.796 137.701C132.578 137.265 132.251 137.047 131.815 137.047C130.942 136.829 130.179 136.72 129.525 136.72C126.908 136.72 120.367 136.393 120.04 136.393C120.04 136.393 116.769 139.664 121.021 141.626C121.893 142.062 122.874 142.389 123.965 142.607ZM100.742 143.589C100.742 143.916 100.742 144.243 100.742 144.57C101.069 146.532 101.723 150.784 102.05 153.728C102.05 156.999 99.4333 158.962 95.1813 158.962C94.5271 158.962 93.7639 158.743 92.8917 158.307C92.0194 158.089 91.2562 157.544 90.6021 156.672C89.9479 156.018 89.5118 155.255 89.2937 154.382C89.2937 153.51 89.2937 152.747 89.2937 152.093C89.2937 149.803 89.6208 143.916 89.6208 143.916C89.6208 142.934 89.6208 143.262 89.2937 142.934C89.2937 142.716 89.2937 142.607 89.2937 142.607C89.2937 142.389 89.4028 142.28 89.6208 142.28C89.8389 142.28 90.0569 142.28 90.275 142.28H92.8917C93.1097 142.28 93.3278 142.28 93.5458 142.28C93.5458 142.498 93.5458 142.607 93.5458 142.607C93.7639 142.825 93.7639 143.043 93.5458 143.262C93.3278 143.48 93.2188 143.589 93.2188 143.589C93.0007 143.589 92.8917 143.698 92.8917 143.916C92.8917 143.916 92.8917 144.025 92.8917 144.243L92.2375 153.401C92.2375 154.709 92.5646 156.672 95.5083 157.326C96.5986 157.544 97.6889 157.326 98.7792 156.672C99.1062 156.345 99.7604 156.018 100.088 155.364C100.088 154.709 100.415 154.055 100.415 153.728C100.197 153.074 100.088 152.529 100.088 152.093C100.088 150.13 99.4333 144.57 99.4333 143.916C99.4333 143.698 99.3243 143.589 99.1062 143.589C99.1062 143.371 98.9972 143.153 98.7792 142.934C98.4521 142.934 98.125 142.934 98.125 142.607C98.125 142.389 98.125 142.28 98.125 142.28C98.125 142.28 98.234 142.28 98.4521 142.28C98.4521 142.062 98.4521 141.953 98.4521 141.953C99.4333 141.953 100.415 141.953 101.069 141.953C101.287 141.953 101.396 141.953 101.396 141.953C101.614 141.953 101.723 142.062 101.723 142.28C102.05 142.607 101.723 142.607 101.396 142.934C101.069 142.934 100.742 142.934 100.742 143.589ZM71.9583 156.345C72.1764 156.563 72.3944 156.672 72.6125 156.672C72.8306 156.89 72.9396 156.999 72.9396 156.999C73.1576 157.217 73.2667 157.326 73.2667 157.326C73.2667 157.544 73.2667 157.653 73.2667 157.653C73.2667 157.871 73.1576 158.089 72.9396 158.307C72.9396 158.307 72.8306 158.307 72.6125 158.307H69.6687C68.6875 158.307 68.0333 158.634 67.7063 158.307C67.3792 157.98 67.3792 156.999 67.7063 156.999C68.0333 156.672 68.0333 156.018 67.7063 155.691L65.0896 152.747H61.4917V156.672C61.4917 156.999 61.8187 156.999 62.1458 157.326C62.3639 157.544 62.4729 157.653 62.4729 157.653C62.4729 157.871 62.4729 157.98 62.4729 157.98C62.4729 158.198 62.4729 158.307 62.4729 158.307C62.4729 158.307 62.3639 158.416 62.1458 158.634C62.1458 158.634 62.0368 158.634 61.8187 158.634H57.8937C57.8937 158.634 57.7847 158.634 57.5667 158.634C57.5667 158.634 57.4576 158.525 57.2396 158.307C57.2396 158.307 57.2396 158.198 57.2396 157.98C57.2396 157.98 57.2396 157.871 57.2396 157.653C57.2396 157.326 57.5667 157.326 57.8937 156.999C58.2208 156.999 58.2208 156.018 58.2208 156.018V144.897C58.2208 144.679 58.1118 144.461 57.8937 144.243C57.8937 143.807 57.7847 143.589 57.5667 143.589C57.2396 143.262 57.2396 143.262 57.2396 142.934C57.2396 142.607 57.2396 142.28 57.8937 141.953C58.3299 141.953 58.766 141.953 59.2021 141.953C62.1458 141.299 65.0896 141.626 67.7063 142.28C70.3229 143.262 71.9583 145.224 71.6312 147.841C71.6312 150.784 68.6875 152.093 68.6875 152.093C69.5597 153.619 70.65 155.037 71.9583 156.345ZM68.3604 148.822C68.6875 148.168 68.6875 147.514 68.6875 146.859C68.6875 145.987 68.3604 145.333 67.7063 144.897C66.725 143.262 63.7812 142.607 62.1458 142.934C61.9278 142.934 61.7097 142.934 61.4917 142.934C61.4917 143.153 61.3826 143.262 61.1646 143.262C61.1646 143.48 61.1646 143.698 61.1646 143.916C61.1646 143.916 61.1646 144.025 61.1646 144.243V150.784C61.1646 151.439 61.1646 151.766 61.8187 151.766C63.1271 152.093 67.3792 152.093 68.3604 148.822ZM55.9313 155.691C55.9313 156.345 56.2583 156.672 56.5854 157.326C56.5854 157.326 56.6944 157.435 56.9125 157.653C56.9125 157.871 56.8035 157.98 56.5854 157.98C56.5854 158.198 56.5854 158.307 56.5854 158.307C56.3674 158.525 56.2583 158.634 56.2583 158.634C55.6042 158.634 55.1681 158.634 54.95 158.634C51.8972 158.853 48.9535 158.634 46.1188 157.98C41.5396 156.999 39.5771 150.784 42.1937 145.878C43.284 144.352 44.5924 143.262 46.1188 142.607C47.7542 141.953 49.3896 141.626 51.025 142.28C51.6792 142.498 52.3333 142.498 52.9875 142.28C53.2056 142.062 53.4236 142.062 53.6417 142.28C53.8597 142.28 54.0778 142.389 54.2958 142.607C54.5139 143.262 54.7319 143.916 54.95 144.57C55.1681 144.788 55.2771 145.115 55.2771 145.551C55.2771 145.987 55.1681 146.205 54.95 146.205C54.5139 145.987 54.1868 145.769 53.9688 145.551C53.6417 145.224 53.3146 144.897 52.9875 144.57C52.3333 144.134 51.6792 143.807 51.025 143.589C50.3708 143.262 49.7167 143.262 49.0625 143.262C48.1903 143.262 47.4271 143.48 46.7729 143.916C44.8104 144.897 43.8292 147.841 44.4833 152.093C45.1375 157.653 51.025 156.999 52.0062 156.999C52.2243 156.999 52.4424 156.89 52.6604 156.672C52.8785 156.672 52.9875 156.563 52.9875 156.345C52.9875 156.127 52.9875 155.8 52.9875 155.364C53.3146 155.037 52.9875 154.709 52.9875 154.382V153.074C52.9875 151.766 52.6604 151.766 52.6604 151.766C52.4424 151.548 52.3333 151.33 52.3333 151.112C52.1153 151.112 52.0062 151.112 52.0062 151.112C52.0062 150.893 52.0062 150.784 52.0062 150.784C52.0062 150.566 52.0062 150.457 52.0062 150.457C52.2243 150.239 52.3333 150.13 52.3333 150.13H56.5854C56.9125 150.457 56.5854 150.784 56.2583 151.112C56.2583 151.33 56.1493 151.548 55.9313 151.766C55.9313 151.984 55.9313 152.093 55.9313 152.093V155.691ZM80.1354 141.626C82.0979 141.626 83.7333 141.953 85.0417 142.934C86.6771 143.589 87.6583 144.897 88.3125 146.532C88.9667 148.168 89.2937 149.803 88.9667 151.439C88.7486 153.183 87.9854 154.709 86.6771 156.018C85.6958 157.326 84.0604 157.98 82.425 158.307C80.6806 158.743 78.9361 158.634 77.1917 157.98C75.8833 157.326 74.575 156.345 73.5938 154.709C72.6125 153.401 71.9583 151.766 71.9583 150.13C71.9583 147.841 72.9396 145.551 74.2479 144.243C75.8833 142.607 78.1729 141.626 80.1354 141.626ZM85.3688 150.13C85.3688 146.205 83.0792 142.934 80.1354 142.934C77.5187 142.934 75.2292 146.205 75.2292 150.13C75.2292 154.055 77.5187 157.326 80.1354 157.326C83.0792 157.326 85.3688 154.055 85.3688 150.13ZM111.863 142.28C113.498 142.607 114.806 143.262 115.787 144.57C117.75 146.532 118.077 150.13 115.787 152.093C114.697 152.747 113.498 153.183 112.19 153.401C110.881 153.619 109.464 153.619 107.938 153.401H107.61C107.61 153.401 107.61 153.728 107.61 154.055V156.672C107.61 156.89 107.61 156.999 107.61 156.999C107.828 157.217 108.047 157.435 108.265 157.653C108.265 157.653 108.265 157.653 108.592 157.653C108.81 157.871 108.919 157.98 108.919 157.98C108.919 157.98 108.919 158.089 108.919 158.307C108.919 158.307 108.701 158.307 108.265 158.307H104.34C104.012 158.307 103.685 158.307 103.685 158.307C103.685 158.089 103.903 157.871 104.34 157.653V157.326C104.667 157.326 104.667 157.326 104.667 156.999C104.667 156.999 104.667 156.89 104.667 156.672C104.667 156.345 104.994 155.364 104.994 154.382V146.205C104.994 144.243 104.994 143.589 104.667 143.262C104.34 142.934 104.012 142.934 104.012 142.607C104.012 142.28 104.667 142.28 104.994 141.953C105.648 141.953 106.302 141.953 106.956 141.953C108.701 141.953 110.336 142.062 111.863 142.28ZM108.265 152.42C108.919 152.638 109.573 152.747 110.227 152.747C110.663 152.747 111.208 152.638 111.863 152.42C112.299 152.202 112.844 151.875 113.498 151.439C113.934 151.003 114.152 150.457 114.152 149.803C114.37 149.367 114.479 148.822 114.479 148.168C114.479 146.859 114.152 145.551 113.171 144.57C112.19 143.589 110.881 142.934 109.573 142.934C109.137 142.934 108.592 143.043 107.938 143.262C107.938 143.262 107.938 143.371 107.938 143.589C107.719 143.589 107.61 143.698 107.61 143.916V151.439C107.61 151.657 107.719 151.875 107.938 152.093C108.156 152.311 108.265 152.42 108.265 152.42Z" fill="black"/>
<path fill-rule="evenodd" clip-rule="evenodd" d="M102.705 69.6656C102.378 77.8427 100.088 85.6927 95.509 92.5615C90.9299 99.1031 84.7153 104.336 76.8653 107.607C69.3424 110.878 61.1653 111.532 53.3153 109.897C45.1382 108.261 37.9424 104.336 32.0549 98.776C26.1674 92.8885 22.2424 85.6927 20.934 77.5156C19.2986 69.6656 19.9528 61.4885 23.2236 53.6385C26.1674 46.1156 31.4007 39.901 38.2694 35.3219C45.1382 30.7427 52.9882 28.4531 61.1653 28.4531C66.7257 28.4531 71.959 29.4344 76.8653 31.3969C82.0986 33.6865 86.6778 36.6302 90.6028 40.5552C94.2007 44.1531 97.4715 48.7323 99.434 53.6385C101.397 58.8719 102.705 64.1052 102.705 69.6656Z" fill="black"/>
<path fill-rule="evenodd" clip-rule="evenodd" d="M59.53 23.8771C60.1842 23.55 61.8196 21.5875 61.8196 21.5875C62.4738 21.2604 63.7821 22.8958 63.1279 23.8771C62.8009 24.2042 60.5113 26.4938 60.5113 26.4938C61.3835 25.6215 62.3648 24.7493 63.455 23.8771C63.7821 24.2042 64.1092 24.2042 64.4363 24.8583C64.4363 25.1854 64.4363 25.5125 64.4363 25.8396C64.0002 26.9299 63.237 27.9111 62.1467 28.7833C62.4738 28.7833 63.7821 27.475 64.1092 27.475C64.1092 27.475 64.7634 28.1292 64.7634 28.4562C64.7634 28.7833 64.7634 28.7833 64.7634 28.7833C64.7634 28.7833 64.8724 28.7833 65.0904 28.7833C65.4175 28.7833 66.0717 29.4375 65.7446 30.0917V30.4188C65.7446 30.0917 66.0717 30.0917 66.3988 30.4188C66.3988 30.6368 66.5078 30.8549 66.7259 31.0729C66.7259 31.0729 66.3988 31.4 66.3988 31.7271C66.7259 31.4 67.0529 32.0542 66.7259 32.7083C66.7259 32.9264 66.6168 33.1444 66.3988 33.3625C66.8349 32.9264 67.38 32.5993 68.0342 32.3812C69.5606 31.509 71.196 30.6368 72.9404 29.7646C74.4668 29.1104 75.8842 28.3472 77.1925 27.475C78.1738 26.4937 79.155 26.4937 78.8279 27.475C78.5009 28.7833 77.5196 29.7646 77.5196 30.0917C77.8467 30.4187 78.5009 29.7646 79.8092 28.7833C81.1175 27.6931 82.5349 26.6028 84.0613 25.5125C85.6967 24.5312 87.9863 24.2042 88.6404 23.8771C90.1668 23.0049 91.8023 22.3507 93.5467 21.9146C95.5092 21.2604 101.724 19.625 102.705 19.2979C103.359 18.9708 103.686 18.9708 104.013 19.2979C104.34 19.9521 104.013 21.2604 103.032 21.9146C101.724 22.8958 99.7613 23.2229 98.78 23.8771C99.4342 23.55 101.397 22.8958 102.705 22.8958C102.923 22.8958 103.032 22.8958 103.032 22.8958C103.032 22.8958 103.141 23.0049 103.359 23.2229C103.359 23.8771 102.705 24.8583 102.051 25.8396C100.415 27.1479 97.1446 28.1292 94.855 28.1292C96.8175 28.1292 99.7613 27.1479 98.78 29.7646C98.1259 30.4188 97.4717 31.4 96.8175 31.7271C96.1634 31.9451 95.5092 32.0542 94.855 32.0542C94.528 32.3812 90.2759 33.0354 89.9488 33.0354C89.9488 33.0354 92.5655 32.7083 93.8738 32.3812C94.0918 32.3812 94.3099 32.3812 94.5279 32.3812C94.746 32.5993 94.855 32.7083 94.855 32.7083C95.8363 33.6896 96.1634 34.3438 94.5279 35.325C93.6557 35.7611 92.7835 35.9792 91.9113 35.9792C91.5842 35.9792 87.005 36.3063 86.3509 36.3063C86.3509 36.3063 91.2571 35.9792 91.5842 36.3063C92.0203 36.3063 92.3474 36.4153 92.5654 36.6333C92.8925 36.9604 92.8925 37.6146 91.5842 37.9417C90.712 38.1597 89.7307 38.2687 88.6404 38.2687C88.3134 38.5958 84.7154 38.2687 84.3884 38.2687C84.3884 38.5958 88.3134 38.5958 88.6404 38.5958C89.2946 38.5958 89.9488 38.5958 89.9488 39.25C89.9488 40.8854 89.6217 41.2125 88.9675 41.2125C88.7495 41.4306 88.5314 41.5396 88.3134 41.5396C87.005 41.2125 82.753 40.8854 82.4259 40.8854C82.753 40.8854 88.3134 41.5396 88.6404 41.5396C88.9675 43.5021 87.3321 44.1562 85.6967 44.1562C85.6967 44.1562 83.08 43.8292 82.7529 43.8292C82.7529 43.8292 84.3884 44.1562 85.0425 44.1562C85.3696 44.4833 85.6967 44.4833 85.6967 44.8104C85.6967 44.8104 85.6967 45.0285 85.6967 45.4646C85.6967 45.6826 85.5877 45.7917 85.3696 45.7917C85.3696 46.0097 85.2606 46.1188 85.0425 46.1188C84.6064 46.1188 84.0613 46.2278 83.4071 46.4458C83.7342 46.4458 85.0425 46.1187 85.0425 46.4458C85.6967 46.7729 85.3696 47.4271 84.7154 47.7542C84.4974 47.7542 84.2793 47.7542 84.0613 47.7542C84.0613 47.7542 84.7155 47.7542 85.0425 48.4083C85.0425 49.0625 84.3884 49.3896 84.0613 49.3896C83.7342 49.3896 83.08 49.3896 82.7529 49.3896C82.7529 49.3896 83.7342 49.3896 84.0613 49.3896C84.0613 49.7167 84.3884 49.7167 84.0613 50.0438C84.0613 50.2618 83.9523 50.3708 83.7342 50.3708C83.2981 50.5889 82.753 50.6979 82.0988 50.6979C82.5349 50.6979 83.08 50.6979 83.7342 50.6979C84.0613 50.6979 85.0425 51.3521 84.3884 51.6792C84.0613 52.6604 82.4259 52.3333 82.4259 52.3333C82.4259 52.3333 85.3696 53.6417 85.0425 53.9688C85.0425 53.9688 84.3884 53.9687 81.4446 53.6417C81.4446 53.6417 83.7342 54.95 83.4071 55.2771C83.08 55.6042 82.0988 55.6042 81.1175 55.2771C80.8995 55.2771 80.5724 55.1681 80.1363 54.95C81.0085 55.3861 81.6627 56.0403 82.0988 56.9125C82.753 57.5667 82.7529 58.5479 81.7717 57.8937C80.7905 57.2396 80.1363 56.5854 80.1363 56.5854C80.1363 56.5854 81.7717 57.8937 81.7717 58.2208C81.7717 58.5479 80.7905 58.5479 80.7905 58.5479C81.4446 58.5479 81.9898 58.5479 82.4259 58.5479C82.753 58.875 82.7529 59.2021 82.7529 59.2021C82.4259 59.8563 80.7905 60.1833 80.7905 60.1833C80.7905 60.1833 82.0988 60.1833 81.4446 60.5104C81.2266 60.9465 80.8995 61.1646 80.4634 61.1646C80.4634 61.1646 82.0988 61.1646 82.4259 61.1646C82.753 61.4917 82.4259 62.4729 81.1175 62.8C82.4259 63.4542 81.1175 63.4542 80.1363 63.7812C80.1363 63.7812 81.1175 63.4542 81.1175 64.1083C81.1175 65.0896 80.1363 64.7625 80.1363 64.7625C80.1363 64.7625 81.1175 65.0896 81.1175 65.7438C80.7904 66.3979 78.8279 65.7438 78.8279 65.7438C78.8279 65.7438 81.1175 66.725 81.4446 67.3792C81.4446 67.7063 81.7717 68.3604 82.4259 68.3604C83.5161 68.7965 84.3884 69.4507 85.0425 70.3229C86.3509 71.4132 87.7682 72.2854 89.2946 72.9396C91.6932 74.0299 93.9828 75.3382 96.1634 76.8646C97.4717 77.8458 98.1259 78.5 97.4717 78.5C96.3814 78.5 95.2911 78.5 94.2009 78.5C96.1634 79.8083 98.1259 80.7896 100.088 81.4437C101.397 81.6618 102.705 82.0979 104.013 82.7521C104.34 83.0792 104.995 83.0792 105.649 83.7333C105.431 83.7333 105.213 83.7333 104.995 83.7333C104.777 83.5153 104.668 83.5153 104.668 83.7333C104.995 83.7333 104.995 84.0604 104.995 84.0604C104.777 84.0604 104.668 84.0604 104.668 84.0604C104.449 83.8424 104.231 83.6243 104.013 83.4062L104.34 84.3875C104.013 84.0604 104.013 84.0604 103.686 83.4062V84.0604C103.032 83.7333 103.032 83.4062 102.378 83.0792C101.397 83.0792 101.724 83.0792 101.07 83.0792C100.743 83.0792 102.051 83.4062 102.051 83.4062C101.724 83.7333 102.051 84.0604 101.724 84.0604C99.7613 83.0792 98.78 82.425 96.4904 81.7708C95.8363 81.3347 95.1821 80.8986 94.5279 80.4625C93.5467 79.8083 93.5467 81.1167 94.2009 81.1167C94.2009 81.1167 95.8363 82.425 95.5092 82.425C94.855 82.2069 94.3099 82.0979 93.8738 82.0979C93.2196 82.0979 92.5654 81.9889 91.9113 81.7708C91.5842 81.1167 91.2571 80.4625 90.603 79.4812C89.9488 78.609 89.2946 77.8458 88.6404 77.1917C87.6592 75.8833 87.3321 76.8646 87.3321 76.8646C87.3321 76.8646 89.2946 78.8271 89.2946 79.8083C89.6217 81.1167 89.6217 82.425 89.2946 81.7708C89.2946 81.4437 88.3134 80.4625 87.3321 78.5C86.0238 76.2104 85.3696 75.5562 84.3884 74.9021C83.08 73.9208 81.1175 73.5937 79.8092 72.9396C78.5009 72.6125 76.8654 72.6125 75.23 71.3042C73.9217 70.4319 73.2675 69.9958 73.2675 69.9958C73.4856 70.4319 73.5946 70.9771 73.5946 71.6312C73.5946 72.0674 73.5946 72.5035 73.5946 72.9396C73.5946 72.9396 72.9404 72.2854 72.9404 71.9583C72.7224 71.3042 72.6134 70.9771 72.6134 70.9771C72.6134 71.3042 72.2863 71.9583 72.2863 72.2854C72.2863 72.5035 72.3953 72.7215 72.6134 72.9396C72.2863 72.9396 72.2863 72.6125 71.9592 72.6125C71.7411 72.1764 71.6321 71.7403 71.6321 71.3042C71.6321 71.3042 71.6321 73.9208 71.305 73.2667C71.087 72.8306 70.8689 72.3944 70.6509 71.9583C70.6509 72.6125 70.6509 73.1576 70.6509 73.5938C70.9779 73.9208 69.9967 72.6125 69.9967 72.6125C69.9967 72.8306 69.8877 73.1576 69.6696 73.5938C69.6696 73.9208 69.6696 73.5938 69.6696 74.2479C69.6696 74.2479 69.6696 73.9208 69.3425 73.5938C69.1245 73.3757 69.0154 73.1576 69.0154 72.9396C69.0154 72.9396 68.3613 73.2667 68.3613 73.5938C68.5793 74.466 68.5793 75.2292 68.3613 75.8833C67.9252 76.7556 67.8161 77.6278 68.0342 78.5C68.3613 79.1542 68.6884 79.4812 68.3613 79.4812C68.1432 79.4812 68.0342 79.3722 68.0342 79.1542C67.38 79.1542 67.38 79.1542 67.0529 78.8271C67.271 79.2632 67.38 79.6993 67.38 80.1354C67.7071 80.4625 68.3613 81.1167 68.0342 80.7896C67.38 80.7896 66.7259 81.1167 66.3988 80.4625C66.3988 80.8986 66.5078 81.3347 66.7259 81.7708C66.7259 82.2069 66.7259 82.534 66.7259 82.7521C66.5078 82.7521 66.2898 82.6431 66.0717 82.425C65.8536 82.2069 65.7446 81.9889 65.7446 81.7708C65.5266 82.425 65.5266 83.0792 65.7446 83.7333C65.7446 84.3875 66.0717 84.7146 65.7446 84.3875C65.0905 84.3875 64.1092 84.3875 64.1092 83.7333C63.8911 83.2972 63.6731 82.8611 63.455 82.425C63.455 82.425 63.128 83.7333 62.8009 84.3875C62.8009 85.0417 62.1467 84.7146 61.4925 85.3688C61.2745 85.5868 61.1655 85.9139 61.1655 86.35C61.1655 86.6771 62.1467 87.0042 62.8009 87.9854C63.0189 88.6396 63.237 89.4028 63.455 90.275C63.7821 91.9104 62.8009 93.2188 62.8009 92.8917C62.8009 91.5833 62.4738 91.5833 62.4738 90.6021V90.275C62.2557 90.275 62.0377 90.275 61.8196 90.275C61.6016 90.275 61.3835 90.166 61.1655 89.9479C60.9474 89.9479 60.7293 89.8389 60.5113 89.6208C60.5113 89.4028 60.5113 89.1847 60.5113 88.9667C60.2932 88.5306 59.9661 88.0944 59.53 87.6583C59.312 88.0944 59.0939 88.4215 58.8759 88.6396C58.6578 88.8576 58.4398 88.9667 58.2217 88.9667C56.9134 89.2937 56.2592 88.9667 55.605 89.6208C55.1689 90.0569 54.9509 90.7111 54.9509 91.5833C54.7328 91.1472 54.6238 90.6021 54.6238 89.9479C54.6238 89.5118 54.7328 89.0757 54.9509 88.6396C55.387 88.4215 55.7141 88.2035 55.9321 87.9854C56.1502 87.5493 56.3682 87.2222 56.5863 87.0042C56.8043 87.0042 57.1314 86.8951 57.5675 86.6771C58.8759 86.6771 58.5488 85.6958 58.5488 85.6958C57.5675 85.6958 56.2592 85.6958 56.2592 84.3875C56.2592 84.1694 55.8231 84.2785 54.9509 84.7146C54.2967 84.7146 54.2967 86.0229 54.2967 86.0229C54.2967 86.0229 53.6425 84.3875 54.2967 84.0604C55.278 83.0792 55.9321 83.0792 56.5863 83.4062C57.0224 83.6243 57.4585 83.9514 57.8946 84.3875C58.3307 84.6056 58.7668 84.7146 59.2029 84.7146C59.421 84.7146 59.7481 84.6056 60.1842 84.3875C60.8384 83.9514 61.3835 83.4062 61.8196 82.7521C61.8196 82.316 61.9286 81.9889 62.1467 81.7708C62.1467 80.4625 62.1467 79.1542 62.1467 78.1729C62.1467 76.8646 63.1279 74.575 62.1467 73.5938C61.1654 72.9396 60.8384 72.6125 60.5113 72.9396C60.5113 72.9396 59.2029 73.5938 59.2029 74.2479C58.8759 74.9021 59.2029 74.9021 59.8571 75.2292C60.1842 75.5563 60.1842 75.8833 60.8384 76.2104C61.1655 76.5375 61.8196 76.5375 61.8196 77.8458C62.0377 78.2819 62.0377 78.8271 61.8196 79.4812C61.4925 80.1354 60.8384 80.1354 60.8384 80.1354C60.8384 79.6993 60.8384 79.3722 60.8384 79.1542C61.0564 78.5 61.0564 78.1729 60.8384 78.1729C59.53 77.5187 60.5113 76.8646 58.8759 76.2104C58.8759 76.2104 58.7668 76.2104 58.5488 76.2104C58.5488 75.9924 58.4398 75.8833 58.2217 75.8833C58.4398 76.1014 58.5488 76.4285 58.5488 76.8646C58.5488 77.1917 58.2217 76.8646 58.2217 77.1917C58.2217 78.1729 58.2217 77.8458 58.2217 78.5C58.2217 78.1729 57.8946 78.5 57.8946 77.5188C57.5675 76.8646 57.5675 77.1917 57.2404 76.8646C57.0224 76.6465 57.0224 76.3194 57.2404 75.8833C57.0224 76.3194 56.6953 76.7556 56.2592 77.1917C56.2592 77.1917 55.9321 77.1917 55.605 77.5188C54.9509 78.1729 54.2967 78.8271 54.6238 79.4812C54.6238 79.4812 53.9696 78.8271 53.9696 78.1729C54.2967 77.5187 54.6238 77.5188 54.9509 77.1917C54.9509 76.7556 55.0599 76.3194 55.2779 75.8833C55.9321 75.2292 55.9321 75.2292 56.5863 74.9021L56.9134 74.575C56.5863 74.9021 55.9321 74.9021 55.605 74.575C54.9509 74.575 54.9509 73.9208 54.6238 73.9208C53.6425 73.9208 53.3154 74.9021 53.9696 75.5563C52.6613 74.9021 52.9884 72.9396 54.6238 72.9396C55.278 72.9396 55.278 72.9396 55.9321 73.2667C56.3682 73.2667 56.8043 73.2667 57.2404 73.2667C57.8946 73.2667 59.53 72.6125 58.8759 72.2854C58.2217 72.2854 57.8946 71.6312 56.9134 70.9771C56.2592 69.9958 56.5863 69.9958 55.605 69.0146C54.6238 68.0333 54.2967 68.0333 54.2967 68.0333L54.9509 66.3979C54.9509 66.3979 54.9509 66.3979 54.6238 66.3979C54.2967 66.3979 53.6425 66.3979 53.6425 66.3979C53.6425 66.3979 53.6425 66.0708 53.9696 65.7438C54.1877 65.5257 54.4057 65.3076 54.6238 65.0896C53.9696 65.0896 53.4245 65.0896 52.9884 65.0896C52.9884 65.4167 52.9884 65.0896 53.3154 64.4354C53.3154 64.4354 53.6425 64.1083 54.2967 63.7812C55.278 63.4542 56.5863 65.0896 57.2404 63.7812C57.5675 63.1271 57.2404 63.4542 57.2404 63.4542C55.9321 63.7812 55.2779 62.8 53.9696 62.8C53.9696 63.0181 53.8606 63.2361 53.6425 63.4542C53.4245 63.6722 53.2064 63.8903 52.9884 64.1083C52.0071 64.4354 51.68 64.7625 51.3529 65.4167C51.1349 66.2889 50.9168 67.1611 50.6988 68.0333C50.9168 68.6875 51.2439 69.2326 51.68 69.6687C51.68 69.6687 49.7175 69.6687 48.7363 68.6875C48.0821 68.0333 47.755 67.0521 47.755 66.0708C47.428 65.0896 47.4279 65.0896 47.4279 65.0896C47.4279 65.0896 46.4467 64.7625 46.7738 62.8C46.9918 61.2736 47.537 59.8562 48.4092 58.5479C49.7175 56.9125 51.0259 55.6042 52.6613 54.95C53.9696 54.2958 55.1689 53.6417 56.2592 52.9875C56.6953 52.7694 57.0224 52.4424 57.2404 52.0062C56.9134 49.3896 56.2592 47.1 54.9509 44.8104C52.9884 41.5396 49.3904 37.6146 48.7363 36.3063C47.755 34.6708 48.0821 34.9979 48.0821 34.3438C48.0821 33.9076 48.0821 33.3625 48.0821 32.7083C48.3002 32.9264 48.5182 33.1444 48.7363 33.3625C49.0634 33.6896 50.0446 34.6708 50.0446 34.6708L50.3717 34.3438C49.3904 33.6896 49.0634 32.7083 48.4092 31.7271C47.755 30.4187 47.755 28.4562 48.0821 26.8208C48.3002 25.2944 48.5182 23.659 48.7363 21.9146C48.7363 20.6062 48.7363 19.625 49.0634 19.625C49.3904 19.625 50.0446 19.9521 50.3717 20.9333C50.6988 21.5875 50.6988 22.2417 50.6988 21.9146C50.9168 20.8243 51.0259 19.734 51.0259 18.6437C50.5898 17.3354 50.3717 16.0271 50.3717 14.7188C50.5898 14.0646 50.9168 13.4104 51.3529 12.7563C51.571 10.7937 52.0071 8.72222 52.6613 6.54167C53.3155 4.90625 54.6238 2.28958 54.6238 0.98125C54.9509 0 55.2779 0 55.2779 0C55.605 0 56.2592 0.327083 56.2592 0.98125C56.6953 1.63542 56.9134 2.39861 56.9134 3.27083C56.6953 4.14306 56.3682 5.01528 55.9321 5.8875C56.2592 4.90625 56.9134 4.25208 57.8946 3.925C58.2217 3.925 58.5488 3.925 58.8759 4.90625C58.8759 5.77847 58.8759 6.65069 58.8759 7.52292C58.5488 9.48542 57.2404 11.1208 56.5863 12.7563C56.5863 12.4292 57.2404 11.4479 57.5675 10.7937C57.7856 10.5757 58.1127 10.3576 58.5488 10.1396C58.7668 10.1396 58.9849 10.1396 59.2029 10.1396C59.421 10.1396 59.6391 10.2486 59.8571 10.4667C60.0752 10.6847 60.1842 10.9028 60.1842 11.1208C60.4023 11.3389 60.5113 11.5569 60.5113 11.775C60.1842 13.4104 57.8946 17.6625 57.8946 17.6625C58.2217 17.6625 59.53 15.0458 59.8571 14.3917C60.1842 14.0646 60.1842 14.0646 60.5113 14.3917C61.1654 14.3917 62.1467 14.7188 61.8196 16.0271C61.1654 17.7715 60.4023 19.4069 59.53 20.9333C59.9661 20.0611 60.5113 19.1889 61.1655 18.3167C61.3835 18.3167 61.6016 18.3167 61.8196 18.3167C62.0377 18.3167 62.2557 18.3167 62.4738 18.3167C62.8009 18.6437 62.8009 18.9708 62.1467 19.9521C61.4925 21.4785 60.5113 22.7868 59.2029 23.8771H59.53Z" fill="black"/>
<path fill-rule="evenodd" clip-rule="evenodd" d="M80.1349 60.1865C80.1349 60.5135 81.1161 60.1865 81.1161 60.5135C81.1161 60.8406 80.789 60.8406 80.1349 61.1677V61.8219C80.789 61.6038 81.4432 61.4948 82.0974 61.4948C82.4245 61.8219 81.7703 62.476 80.1349 62.476V62.8031C81.1161 62.8031 82.0974 63.1302 79.4807 63.4573L79.1536 63.7844C79.5897 63.7844 80.0259 63.8934 80.462 64.1115C80.7891 64.4385 80.1349 64.4385 79.4807 64.4385H79.1536C79.5897 64.8747 80.0259 65.2017 80.462 65.4198C81.1161 66.074 79.4807 65.4198 78.4995 65.4198C78.1724 65.4198 78.1724 65.7469 78.1724 65.7469C79.0446 66.183 79.9168 66.7281 80.7891 67.3823C81.1161 67.7094 81.1161 68.0365 81.7703 68.3635C82.0974 69.0177 83.0786 69.0177 83.7328 69.3448C84.387 69.999 84.7141 70.6531 85.6953 71.3073C86.6766 71.9615 87.9849 72.6156 88.9661 73.2698C90.2745 74.251 91.9099 74.9052 93.2182 75.5594C94.0904 75.9955 94.8536 76.4316 95.5078 76.8677C95.9439 77.3038 96.38 77.6309 96.8161 77.849C95.7259 77.849 94.6356 77.958 93.5453 78.176C96.162 80.1385 99.1057 81.4469 102.377 82.4281L104.339 83.4094L104.012 83.0823V83.4094L103.358 83.0823V83.4094C103.14 83.1913 102.922 83.0823 102.704 83.0823C101.395 82.7552 101.722 82.4281 100.741 82.7552C100.523 82.7552 100.523 82.7552 100.741 82.7552C101.068 83.0823 101.722 83.4094 101.722 83.4094C101.722 83.4094 101.722 83.5184 101.722 83.7365C101.722 83.7365 101.395 83.7365 101.395 83.4094C100.741 83.0823 98.7786 82.101 98.7786 82.101C97.7974 81.4469 97.1432 81.4469 96.489 81.1198C94.8536 80.1385 94.5265 79.8115 94.1995 79.8115C93.5453 79.8115 93.5453 80.1385 93.2182 80.4656C93.2182 80.7927 93.2182 81.1198 94.5265 81.774C93.2182 81.4469 92.8911 82.101 92.237 81.4469C91.5828 80.5747 90.9286 79.5934 90.2745 78.5031C89.6203 77.6309 88.9661 76.8677 88.312 76.2135C87.9849 75.8865 86.6766 76.2135 87.3307 76.8677C87.6578 77.849 89.2932 80.1385 89.2932 80.7927C87.9849 79.1573 86.3495 75.8865 85.3682 74.9052C84.2779 74.251 83.1877 73.7059 82.0974 73.2698C81.0071 73.0517 80.1349 72.8337 79.4807 72.6156C78.3904 72.3976 77.3002 72.0705 76.2099 71.6344C75.1196 70.9802 74.0293 70.217 72.939 69.3448C72.612 69.999 73.2661 70.6531 73.2661 71.6344C72.939 71.3073 72.612 70.326 72.2849 70.326C72.2849 70.6531 72.2849 71.3073 71.9578 71.6344C71.9578 71.1983 71.7397 70.8712 71.3036 70.6531C71.3036 71.3073 71.3036 71.8524 71.3036 72.2885C71.0856 71.8524 70.7585 71.4163 70.3224 70.9802C70.3224 71.6344 70.3224 72.2885 70.6495 72.9427C70.3224 72.6156 69.9953 71.9615 69.6682 71.9615C69.6682 72.2885 69.6682 72.9427 69.6682 73.2698C69.3411 72.9427 69.3411 72.2885 69.0141 72.2885C68.687 72.6156 68.3599 72.9427 68.0328 73.2698C68.2509 74.3601 68.1418 75.3413 67.7057 76.2135C67.4877 77.0858 67.5967 77.958 68.0328 78.8302C67.7057 78.8302 66.7245 78.5031 66.7245 78.5031C66.7245 79.1573 66.9425 79.8115 67.3786 80.4656C66.7245 80.4656 66.3974 80.1385 66.0703 79.8115C65.8522 80.6837 65.9613 81.4469 66.3974 82.101C65.9613 81.6649 65.6342 81.2288 65.4161 80.7927C65.0891 81.774 64.762 83.0823 65.4161 84.0635C64.1078 84.0635 64.1078 83.4094 63.7807 82.7552C63.7807 82.3191 63.5627 81.992 63.1265 81.774C63.1265 82.4281 62.7995 83.7365 62.4724 84.3906C62.1453 84.7177 61.8182 85.0448 61.1641 85.3719C60.837 85.699 60.837 86.3531 60.837 86.6802C61.2731 87.1163 61.7092 87.6615 62.1453 88.3156C62.5814 88.9698 62.7995 89.5149 62.7995 89.951C63.0175 90.6052 63.1265 91.2594 63.1265 91.9135C62.7995 91.2594 62.7995 91.2594 62.7995 90.9323C62.4724 90.2781 62.4724 89.951 62.4724 89.951C62.1453 90.2781 60.837 89.951 60.837 89.2969C60.6189 88.6427 60.1828 87.9885 59.5286 87.3344C59.2016 87.9885 58.8745 88.9698 57.8932 88.9698C57.2391 88.9698 56.6939 89.0788 56.2578 89.2969C55.8217 89.2969 55.4946 89.4059 55.2765 89.624C55.0585 90.0601 54.9495 90.4962 54.9495 90.9323C54.9495 90.4962 54.9495 90.0601 54.9495 89.624C55.1675 89.4059 55.3856 89.1879 55.6036 88.9698C55.9307 88.6427 56.2578 87.9885 56.5849 87.9885C56.8029 87.7705 57.021 87.5524 57.2391 87.3344C58.5474 87.3344 58.8745 87.0073 58.8745 85.699C58.2203 85.3719 56.912 85.699 56.912 85.3719C56.5849 84.3906 56.5849 84.0635 56.2578 84.0635C55.8217 84.0635 55.3856 84.1726 54.9495 84.3906C54.7314 84.6087 54.5134 84.8267 54.2953 85.0448C54.2953 84.0635 55.6036 83.7365 56.2578 83.7365C56.6939 83.9545 57.021 84.1726 57.2391 84.3906C57.5661 84.7177 58.2203 85.0448 58.5474 85.0448C58.9835 85.2628 59.5286 85.2628 60.1828 85.0448C60.837 84.7177 61.4911 84.3906 61.8182 84.0635C62.2543 83.4094 62.4724 82.7552 62.4724 82.101C62.4724 80.4656 62.4724 79.4844 62.4724 78.176C62.7995 77.5219 63.1265 76.5406 63.1265 75.2323C63.1265 75.0142 63.1265 74.6872 63.1265 74.251C62.4724 73.2698 61.1641 72.6156 60.5099 72.9427C59.2016 73.5969 58.5474 74.251 59.2016 75.5594C59.6377 75.7774 60.0738 76.1045 60.5099 76.5406C60.837 76.8677 61.164 76.8677 61.4911 77.1948C61.4911 77.4128 61.4911 77.7399 61.4911 78.176C61.7092 78.3941 61.8182 78.7212 61.8182 79.1573C61.6002 79.3754 61.3821 79.5934 61.1641 79.8115C61.4911 78.8302 61.4911 78.5031 61.1641 77.849C60.837 77.849 60.5099 77.849 60.5099 77.5219C60.1828 77.1948 60.1828 76.8677 59.8557 76.8677C58.5474 75.8865 58.5474 75.5594 58.2203 75.2323C58.2203 75.8865 58.2203 75.8865 58.2203 76.5406C58.2203 76.8677 58.5474 76.8677 58.2203 77.1948C58.0022 77.4128 58.0022 77.6309 58.2203 77.849C57.8932 77.1948 57.5661 77.1948 57.5661 76.8677C57.5661 75.8865 57.5661 75.8865 57.2391 75.5594C57.021 76.2135 56.8029 76.7587 56.5849 77.1948C56.1488 77.4128 55.7127 77.6309 55.2765 77.849C55.0585 78.067 54.8404 78.2851 54.6224 78.5031C54.6224 78.7212 54.5134 78.9392 54.2953 79.1573C54.2953 78.5031 54.2953 78.176 54.9495 77.5219C55.2765 77.5219 54.9495 76.8677 55.6036 76.2135C55.6036 76.2135 56.5849 75.8865 56.5849 75.5594C56.912 75.2323 57.2391 74.9052 57.5661 74.5781C57.2391 74.5781 56.912 74.5781 56.2578 74.9052C56.0397 74.9052 55.8217 74.7962 55.6036 74.5781C55.3856 74.5781 55.1675 74.4691 54.9495 74.251C54.9495 73.924 53.9682 73.2698 53.314 74.9052C53.314 73.2698 54.6224 73.2698 55.2765 73.5969C55.7127 73.8149 56.1488 73.924 56.5849 73.924C57.021 73.924 57.4571 73.924 57.8932 73.924C58.8745 73.5969 59.2015 73.2698 59.8557 72.6156C59.4196 72.6156 59.0925 72.5066 58.8745 72.2885C58.4384 72.0705 58.2203 71.8524 58.2203 71.6344C57.7842 71.1983 57.3481 70.7622 56.912 70.326C56.6939 70.108 56.3668 69.7809 55.9307 69.3448C55.4946 68.6906 55.1675 68.2545 54.9495 68.0365C54.9495 67.3823 55.1675 66.7281 55.6036 66.074C55.1675 66.292 54.7314 66.401 54.2953 66.401C54.6224 66.074 54.9495 65.7469 55.2765 65.4198C54.6224 65.2017 53.9682 65.0927 53.314 65.0927C53.9682 64.1115 55.9307 65.4198 56.912 65.0927C57.5661 64.4385 57.5661 64.1115 57.8932 63.4573C55.6036 63.7844 54.9495 62.476 53.6411 62.476C53.6411 63.1302 53.4231 63.5663 52.987 63.7844C52.6599 64.1115 51.6786 64.4385 51.3516 65.0927C51.1335 65.3108 51.0245 65.5288 51.0245 65.7469C51.0245 65.0927 51.3516 64.4385 51.6786 63.7844C51.6786 63.7844 52.3328 62.149 51.6786 62.8031C51.0245 64.1115 50.3703 65.4198 50.3703 67.0552C50.0432 68.0365 50.0432 69.0177 51.0245 69.3448C50.3703 69.3448 49.8252 69.2358 49.3891 69.0177C49.171 69.0177 48.9529 68.7997 48.7349 68.3635C48.5168 68.1455 48.2988 67.8184 48.0807 67.3823C47.8627 66.7281 47.7536 65.9649 47.7536 65.0927C47.7536 65.0927 46.7724 65.0927 47.0995 63.1302C47.3175 61.3858 47.9717 59.8594 49.062 58.551C49.4981 58.1149 49.9342 57.6788 50.3703 57.2427C52.3328 55.6073 54.6224 54.9531 56.2578 53.9719C56.912 53.3177 57.2391 52.9906 57.5661 52.3365C57.5661 50.374 57.13 48.5205 56.2578 46.776C54.9495 44.3774 53.4231 42.0878 51.6786 39.9073C50.5884 38.817 49.7161 37.6177 49.062 36.3094C48.0807 35.001 48.4078 35.3281 48.4078 34.674C48.4078 34.2378 48.4078 33.9108 48.4078 33.6927C48.8439 34.3469 49.3891 34.892 50.0432 35.3281C50.4793 35.3281 50.8064 35.3281 51.0245 35.3281C51.0245 35.3281 50.6974 34.674 50.3703 34.3469C49.9342 33.9108 49.4981 33.4747 49.062 33.0385C48.4078 31.7302 48.0807 30.4219 48.0807 29.1135C48.0807 27.4781 48.7349 25.5156 48.7349 24.2073C48.7349 22.2448 48.7349 20.9365 48.7349 20.9365C49.062 19.9552 49.062 20.2823 49.3891 20.9365C49.6071 21.3726 49.8252 21.8087 50.0432 22.2448C50.6974 23.226 51.0245 23.5531 51.0245 22.2448C51.3516 19.9552 50.6974 17.9927 50.6974 16.0302C50.6974 15.158 50.9154 14.2858 51.3516 13.4135C51.5696 11.233 52.0057 9.16146 52.6599 7.19896C53.5321 5.23646 54.2953 3.16493 54.9495 0.984375C56.2578 1.31146 56.5849 3.60104 55.6036 6.87187C56.5849 4.90937 57.2391 4.90937 57.5661 4.58229C58.5474 4.90937 58.2203 6.87188 57.8932 8.83437C57.5661 10.4698 56.912 11.7781 55.9307 13.0865L56.2578 13.4135C56.912 12.1052 58.2203 10.7969 58.5474 10.7969C59.2015 10.7969 59.8557 11.451 59.8557 11.7781C59.4196 13.9587 58.6564 16.0302 57.5661 17.9927H57.8932C58.8745 16.6844 59.8557 14.7219 60.1828 14.7219C60.4009 14.7219 60.6189 14.8309 60.837 15.049C60.837 15.049 60.946 15.158 61.1641 15.376C61.1641 15.376 61.1641 15.4851 61.1641 15.7031C61.1641 15.9212 61.1641 16.0302 61.1641 16.0302C60.7279 17.7747 60.0738 19.4101 59.2016 20.9365V21.2635C59.8557 20.3913 60.5099 19.7372 61.1641 19.301C61.3821 19.083 61.6002 18.974 61.8182 18.974C62.4724 18.974 61.8182 19.9552 60.837 21.2635C60.5099 22.2448 59.5286 23.5531 58.8745 24.2073H59.2016C60.1828 23.5531 61.8182 21.9177 62.1453 21.9177C62.3634 21.9177 62.5814 22.0267 62.7995 22.2448C62.7995 22.4628 62.7995 22.6809 62.7995 22.899C62.7995 23.3351 62.6904 23.7712 62.4724 24.2073C61.8182 24.8615 60.837 25.5156 59.8557 26.4969L60.1828 26.824C61.4911 25.5156 63.1265 24.2073 63.4536 24.5344C64.4349 25.1885 64.1078 26.1698 63.4536 26.824C63.0175 27.4781 62.5814 28.1323 62.1453 28.7865C62.7995 28.7865 62.7995 28.4594 63.7807 28.1323C63.7807 28.1323 64.1078 28.1323 64.4349 28.4594C64.4349 28.7865 64.1078 29.1135 63.7807 29.4406L64.1078 29.7677C64.4349 29.4406 64.762 29.4406 64.762 29.4406C65.1981 29.6587 65.3071 29.8767 65.0891 30.0948C65.0891 30.5309 64.98 30.858 64.762 31.076C65.089 31.4031 65.0891 31.4031 65.0891 31.4031C65.4161 31.076 65.7432 30.749 65.7432 30.749C66.0703 30.749 66.0703 30.749 66.0703 31.076C66.3974 31.076 66.0703 31.7302 65.7432 32.0573C65.5252 32.2753 65.4161 32.4934 65.4161 32.7115C65.7432 32.7115 66.0703 32.3844 66.3974 32.0573V32.3844C66.3974 32.7115 66.0703 33.3656 65.7432 34.0198C65.4161 34.3469 66.7245 33.3656 66.7245 33.6927C65.8522 34.5649 65.1981 35.4372 64.762 36.3094C64.4349 34.3469 62.7995 35.001 62.1453 37.2906C61.4911 39.2531 60.837 42.524 60.5099 45.7948C59.8557 47.9753 59.0925 50.0469 58.2203 52.0094C58.5474 52.0094 58.5474 52.0094 58.8745 52.0094C59.5286 50.2649 60.1828 48.4115 60.837 46.449C61.1641 43.5052 62.1453 35.9823 63.7807 35.6552C64.762 35.3281 63.7807 38.599 64.762 37.2906C65.4161 35.9823 66.1793 34.783 67.0515 33.6927C68.3599 32.6024 69.6682 31.7302 70.9766 31.076C72.0668 30.4219 73.1571 29.8767 74.2474 29.4406C75.5557 29.0045 76.646 28.3503 77.5182 27.4781C78.1724 27.151 78.4995 27.151 77.8453 28.1323C77.5182 29.1135 76.2099 31.076 77.8453 30.749C80.789 28.7865 82.0974 27.151 84.387 25.8427C86.0224 24.8615 87.0036 24.8615 88.639 24.2073C89.9474 23.5531 91.3647 23.008 92.8911 22.5719C96.162 21.5906 99.4328 20.6094 102.704 19.6281C103.685 19.301 103.685 20.6094 103.031 21.5906C101.722 22.5719 99.7599 23.226 98.4515 23.5531C98.1245 23.5531 98.4515 24.2073 98.4515 24.2073C98.7786 24.2073 101.395 23.226 102.377 23.226C103.031 23.226 102.704 23.8802 102.377 24.5344C101.286 25.8427 99.9779 26.6059 98.4515 26.824C97.1432 27.4781 95.7259 27.9142 94.1995 28.1323C93.8724 28.1323 92.564 28.4594 91.9099 28.4594V28.7865C93.8724 28.5684 95.8349 28.4594 97.7974 28.4594C98.4515 28.4594 98.4515 28.7865 98.1245 29.4406C97.9064 29.8767 97.4703 30.3128 96.8161 30.749C96.38 31.1851 95.8349 31.4031 95.1807 31.4031C92.8911 32.0573 89.9474 32.3844 88.639 32.7115C88.639 33.0385 88.639 33.3656 88.9661 33.3656C89.9474 33.3656 93.8724 33.0385 94.1995 33.0385C94.4175 33.0385 94.6356 33.1476 94.8536 33.3656C94.8536 33.6927 95.1807 34.0198 94.8536 34.3469C94.8536 34.674 94.5266 34.674 93.8724 35.001C92.7821 35.4371 91.8008 35.6552 90.9286 35.6552C88.9661 35.9823 87.0036 35.9823 86.3495 35.9823C85.6953 36.3094 86.0224 36.6365 86.3495 36.6365C87.9849 36.9635 90.6015 36.3094 91.5828 36.6365C92.237 36.6365 92.5641 36.9635 92.237 36.9635C92.0189 37.3997 91.5828 37.6177 90.9286 37.6177C90.0564 37.8358 89.0752 37.9448 87.9849 37.9448C86.3495 38.2719 84.7141 37.9448 83.7328 37.9448C83.4057 37.9448 83.4057 38.599 83.7328 38.599C85.6953 38.926 88.639 38.926 89.2932 39.2531C89.6203 39.5802 89.6203 40.8885 88.312 40.8885C86.3495 40.8885 84.387 40.7795 82.4245 40.5615C82.0974 40.5615 82.0974 41.2156 82.4245 41.2156C84.387 41.5427 88.312 41.8698 88.312 42.1969C87.9849 44.1594 84.7141 43.8323 82.4245 43.5052C81.7703 43.5052 81.7703 44.1594 82.4245 44.1594C83.2967 44.1594 84.1689 44.3774 85.0411 44.8135C85.3682 44.8135 85.3682 45.4677 84.714 45.7948C84.2779 46.0128 83.7328 46.1219 83.0786 46.1219C82.4245 46.1219 82.4245 46.776 83.4057 46.449C84.7141 46.449 84.714 46.776 84.714 47.1031C84.714 47.4302 84.387 47.4302 83.7328 47.4302C83.0786 47.4302 83.4057 47.7573 83.7328 47.7573C84.387 48.0844 84.387 48.7385 84.0599 48.7385C83.6238 48.7385 83.1877 48.8476 82.7515 49.0656C82.0974 49.0656 82.0974 49.3927 82.7515 49.3927C83.4057 49.7198 84.7141 50.0469 82.0974 50.374C81.4432 50.374 81.4432 50.374 81.7703 50.374C82.4245 50.592 83.1877 50.9191 84.0599 51.3552C85.0411 52.0094 82.4245 52.0094 81.7703 52.0094C82.0974 52.3365 84.0599 52.9906 84.0599 53.3177C82.9696 53.3177 81.8793 53.3177 80.7891 53.3177C81.1161 53.6448 82.0974 54.299 82.7515 54.626C83.0786 55.2802 82.7516 55.2802 82.4245 55.2802C81.3342 55.0622 80.3529 54.7351 79.4807 54.299C80.462 55.6073 82.7515 57.2427 82.0974 57.5698C81.4432 56.9156 80.68 56.4795 79.8078 56.2615L79.4807 56.5885C80.462 57.2427 81.7703 58.224 81.1161 58.224C80.462 58.224 78.8265 57.8969 78.1724 57.8969C77.1911 58.224 79.1536 58.551 80.7891 58.551C81.7703 58.8781 82.4245 58.8781 82.4245 58.8781C82.7516 59.5323 80.462 59.8594 80.1349 59.8594V60.1865ZM50.3703 61.1677C49.389 61.8219 49.3891 62.8031 49.7161 62.8031V63.1302C49.7161 63.1302 50.3703 63.4573 49.7161 64.1115C49.062 64.4385 50.0432 63.7844 50.6974 63.1302L51.0245 63.7844C51.0245 63.5663 51.0245 63.2392 51.0245 62.8031C51.0245 62.476 51.0245 62.476 51.0245 61.4948C51.2425 60.6226 51.5696 59.8594 52.0057 59.2052C51.5696 59.8594 51.0245 60.5135 50.3703 61.1677ZM48.7349 65.4198C48.7349 65.4198 48.7349 65.5288 48.7349 65.7469C48.7349 65.9649 48.8439 66.074 49.062 66.074C49.062 66.074 49.062 65.4198 49.3891 65.4198C49.7161 65.4198 48.7349 65.0927 48.7349 65.4198Z" fill="#A88944"/>
<path fill-rule="evenodd" clip-rule="evenodd" d="M50.3708 175.973V176.3H50.0438C49.8257 176.3 49.6076 176.3 49.3896 176.3C49.1715 176.518 49.0625 176.627 49.0625 176.627C48.6264 177.281 48.4083 177.826 48.4083 178.262H50.3708V178.589H48.4083C48.4083 179.462 48.6264 180.334 49.0625 181.206C49.2806 181.642 49.7167 181.86 50.3708 181.86V182.841C49.9347 182.841 49.4986 182.732 49.0625 182.514C48.8444 182.514 48.5174 182.296 48.0812 181.86C47.4271 181.206 47.1 180.552 47.1 179.571C47.1 178.589 47.4271 177.608 48.0812 176.954C48.2993 176.518 48.6264 176.191 49.0625 175.973C49.4986 175.973 49.9347 175.973 50.3708 175.973ZM1.63542 180.879L5.8875 171.393C6.10556 171.393 6.21458 171.393 6.21458 171.393C6.21458 171.393 6.32361 171.393 6.54167 171.393L10.1396 180.879C10.1396 181.097 10.2486 181.424 10.4667 181.86C10.6847 182.078 10.9028 182.187 11.1208 182.187C11.3389 182.187 11.5569 182.187 11.775 182.187C11.9931 182.187 11.9931 182.296 11.775 182.514C11.775 182.732 11.775 182.841 11.775 182.841C11.775 182.841 11.5569 182.732 11.1208 182.514C10.6847 182.514 10.2486 182.514 9.8125 182.514C9.37639 182.514 8.94028 182.623 8.50417 182.841C8.50417 182.841 8.39514 182.841 8.17708 182.841C8.17708 182.623 8.17708 182.514 8.17708 182.514C8.17708 182.514 8.28611 182.405 8.50417 182.187C8.72222 182.187 8.94028 182.187 9.15833 182.187C9.15833 181.969 9.15833 181.751 9.15833 181.533C9.15833 181.315 9.04931 181.206 8.83125 181.206L8.17708 178.916C8.17708 178.698 8.06806 178.589 7.85 178.589C7.85 178.589 7.74097 178.589 7.52292 178.589H3.925C3.70694 178.589 3.59792 178.589 3.59792 178.589C3.37986 178.589 3.27083 178.698 3.27083 178.916L2.28958 180.879C2.28958 180.879 2.18056 180.988 1.9625 181.206C1.9625 181.424 1.9625 181.533 1.9625 181.533C1.9625 181.751 2.07153 181.86 2.28958 181.86C2.28958 182.078 2.39861 182.187 2.61667 182.187H2.94375C3.16181 182.405 3.27083 182.514 3.27083 182.514C3.27083 182.732 3.27083 182.841 3.27083 182.841C3.27083 182.841 3.16181 182.841 2.94375 182.841C2.94375 182.841 2.72569 182.841 2.28958 182.841C1.85347 182.623 1.52639 182.514 1.30833 182.514C1.09028 182.514 0.872222 182.623 0.654167 182.841C0.436111 182.841 0.327083 182.841 0.327083 182.841C0.109028 182.841 0 182.732 0 182.514C0 182.514 0 182.187 0.327083 182.187C0.545139 182.187 0.654167 182.187 0.654167 182.187C0.872222 181.969 0.98125 181.751 0.98125 181.533C1.19931 181.315 1.41736 181.097 1.63542 180.879ZM4.25208 177.935H7.52292C7.52292 177.717 7.52292 177.608 7.52292 177.608V177.281L5.8875 173.683C5.66944 173.683 5.56042 173.683 5.56042 173.683L3.925 177.281C3.925 177.499 3.925 177.608 3.925 177.608C3.925 177.826 3.925 177.935 3.925 177.935C3.925 177.935 3.925 177.935 4.25208 177.935ZM17.3354 181.86C17.1174 182.078 16.7903 182.296 16.3542 182.514C15.9181 182.732 15.4819 182.841 15.0458 182.841C14.6097 182.841 14.2826 182.841 14.0646 182.841C13.6285 182.623 13.3014 182.296 13.0833 181.86C12.4292 181.206 12.1021 180.552 12.4292 179.571C12.4292 178.698 12.7562 177.826 13.4104 176.954C13.7375 176.627 14.0646 175.973 14.7188 175.973C15.3729 175.755 16.0271 175.755 16.6812 175.973C16.8993 176.191 17.1174 176.409 17.3354 176.627V173.356C17.5535 172.92 17.5535 172.593 17.3354 172.375C17.3354 172.157 17.2264 172.048 17.0083 172.048C17.0083 172.048 16.8993 172.048 16.6812 172.048H16.3542C16.3542 171.83 16.3542 171.721 16.3542 171.721C16.3542 171.721 16.4632 171.721 16.6812 171.721L17.0083 171.393C17.2264 171.393 17.3354 171.393 17.3354 171.393C17.5535 171.393 17.7715 171.284 17.9896 171.066C18.2076 171.066 18.4257 171.066 18.6437 171.066V171.393C18.6437 172.048 18.6437 172.811 18.6437 173.683V180.879C18.6437 181.097 18.6437 181.424 18.6437 181.86C18.8618 181.86 18.9708 181.969 18.9708 182.187C18.9708 182.187 19.0799 182.187 19.2979 182.187C19.516 182.187 19.625 182.187 19.625 182.187C19.625 182.405 19.516 182.514 19.2979 182.514C19.0799 182.514 18.9708 182.514 18.9708 182.514C18.7528 182.732 18.4257 182.841 17.9896 182.841C17.9896 182.841 17.8806 182.841 17.6625 182.841V181.86H17.3354ZM17.3354 180.552V177.935C17.3354 177.717 17.2264 177.499 17.0083 177.281C17.0083 177.063 16.8993 176.954 16.6812 176.954C16.4632 176.736 16.2451 176.518 16.0271 176.3C15.591 176.3 15.2639 176.3 15.0458 176.3C14.8278 176.3 14.5007 176.3 14.0646 176.3C13.8465 176.518 13.6285 176.736 13.4104 176.954C12.9743 177.608 12.8653 178.262 13.0833 178.916C12.8653 179.789 13.0833 180.552 13.7375 181.206C13.9556 181.424 14.1736 181.642 14.3917 181.86C14.8278 182.078 15.1549 182.187 15.3729 182.187C16.0271 182.187 16.4632 182.078 16.6812 181.86C16.8993 181.642 17.0083 181.424 17.0083 181.206C17.2264 180.988 17.3354 180.77 17.3354 180.552ZM25.5125 181.86C25.0764 182.078 24.6403 182.296 24.2042 182.514C23.7681 182.732 23.3319 182.841 22.8958 182.841C22.6778 182.841 22.3507 182.841 21.9146 182.841C21.4785 182.623 21.1514 182.296 20.9333 181.86C20.6062 181.206 20.2792 180.552 20.2792 179.571C20.2792 178.589 20.6062 177.608 21.2604 176.954C21.6965 176.518 22.2417 176.191 22.8958 175.973C23.3319 175.755 23.8771 175.755 24.5312 175.973C24.9674 176.191 25.2944 176.409 25.5125 176.627V173.356C25.5125 172.92 25.4035 172.593 25.1854 172.375C25.1854 172.157 25.1854 172.048 25.1854 172.048C24.9674 172.048 24.8583 172.048 24.8583 172.048C24.5312 172.048 24.5312 172.048 24.2042 172.048C24.2042 171.83 24.2042 171.721 24.2042 171.721C24.2042 171.721 24.3132 171.721 24.5312 171.721L25.1854 171.393C25.1854 171.393 25.2944 171.393 25.5125 171.393C25.7306 171.393 25.9486 171.284 26.1667 171.066C26.1667 171.066 26.2757 171.066 26.4938 171.066C26.7118 171.066 26.8208 171.066 26.8208 171.066V171.393C26.6028 172.048 26.4938 172.811 26.4938 173.683V180.879C26.4938 181.097 26.6028 181.424 26.8208 181.86C26.8208 181.86 26.8208 181.969 26.8208 182.187C27.0389 182.187 27.1479 182.187 27.1479 182.187H27.475C27.475 182.405 27.366 182.514 27.1479 182.514C26.9299 182.514 26.8208 182.514 26.8208 182.514C26.6028 182.732 26.3847 182.841 26.1667 182.841C25.9486 182.841 25.7306 182.841 25.5125 182.841V181.86ZM25.5125 180.552V177.935C25.5125 177.717 25.4035 177.499 25.1854 177.281C25.1854 177.063 25.1854 176.954 25.1854 176.954C24.9674 176.736 24.6403 176.518 24.2042 176.3C23.9861 176.3 23.659 176.3 23.2229 176.3C23.0049 176.3 22.7868 176.3 22.5688 176.3C22.3507 176.518 22.1326 176.736 21.9146 176.954C21.4785 177.608 21.2604 178.262 21.2604 178.916C21.2604 179.789 21.4785 180.552 21.9146 181.206C22.1326 181.424 22.4597 181.642 22.8958 181.86C23.1139 182.078 23.441 182.187 23.8771 182.187C24.0951 182.187 24.3132 182.187 24.5312 182.187C24.7493 182.187 24.9674 182.078 25.1854 181.86C25.1854 181.642 25.1854 181.424 25.1854 181.206C25.4035 180.988 25.5125 180.77 25.5125 180.552ZM34.0167 180.552V173.683C34.0167 173.465 33.9076 173.138 33.6896 172.702C33.6896 172.484 33.5806 172.266 33.3625 172.048C33.3625 172.048 33.2535 172.048 33.0354 172.048C32.8174 172.048 32.7083 172.048 32.7083 172.048C32.7083 171.83 32.7083 171.721 32.7083 171.721C32.7083 171.503 32.7083 171.393 32.7083 171.393C32.9264 171.393 33.1444 171.503 33.3625 171.721C33.7986 171.721 34.1257 171.721 34.3438 171.721C34.5618 171.721 34.8889 171.721 35.325 171.721C35.7611 171.503 36.1972 171.393 36.6333 171.393C37.5056 171.393 38.3778 171.721 39.25 172.375C39.6861 172.593 40.0132 172.92 40.2313 173.356C40.4493 173.792 40.5583 174.228 40.5583 174.664C40.5583 175.1 40.4493 175.537 40.2313 175.973C40.0132 176.191 39.6861 176.518 39.25 176.954C38.5958 177.39 37.8326 177.608 36.9604 177.608C36.5243 177.608 36.1972 177.608 35.9792 177.608C35.7611 177.608 35.5431 177.499 35.325 177.281C35.5431 177.281 35.6521 177.281 35.6521 177.281C35.6521 177.281 35.7611 177.281 35.9792 177.281C36.1972 177.281 36.4153 177.281 36.6333 177.281C37.2875 177.281 37.9417 177.063 38.5958 176.627C38.8139 176.409 38.9229 176.191 38.9229 175.973C39.141 175.755 39.25 175.428 39.25 174.991C39.25 174.555 39.141 174.228 38.9229 174.01C38.9229 173.574 38.7049 173.247 38.2687 173.029C37.6146 172.375 36.6333 172.048 35.9792 172.048C35.7611 172.048 35.5431 172.157 35.325 172.375C35.1069 172.375 34.9979 172.375 34.9979 172.375C34.9979 172.593 34.9979 172.702 34.9979 172.702V180.552C34.9979 180.988 35.1069 181.424 35.325 181.86C35.325 182.078 35.434 182.187 35.6521 182.187C35.8701 182.187 36.0882 182.296 36.3063 182.514C36.3063 182.514 36.4153 182.514 36.6333 182.514C36.6333 182.732 36.6333 182.841 36.6333 182.841C36.6333 182.841 36.5243 182.841 36.3063 182.841C36.0882 182.841 35.7611 182.841 35.325 182.841C34.8889 182.841 34.5618 182.841 34.3438 182.841C33.9076 182.841 33.4715 182.841 33.0354 182.841H32.7083C32.7083 182.623 32.7083 182.514 32.7083 182.514C32.7083 182.514 32.8174 182.405 33.0354 182.187C33.2535 182.187 33.3625 182.078 33.3625 181.86C33.5806 181.86 33.6896 181.751 33.6896 181.533C33.9076 181.097 34.0167 180.77 34.0167 180.552ZM42.5208 180.879V177.281C42.3028 177.063 42.1937 176.954 42.1937 176.954C42.1937 176.954 42.0847 176.845 41.8667 176.627C41.8667 176.627 41.7576 176.627 41.5396 176.627C41.3215 176.627 41.2125 176.627 41.2125 176.627C41.2125 176.409 41.2125 176.3 41.2125 176.3C41.4306 176.3 41.5396 176.3 41.5396 176.3C41.5396 176.3 41.5396 176.3 41.8667 176.3C42.0847 176.3 42.3028 176.191 42.5208 175.973C42.5208 175.973 42.6299 175.973 42.8479 175.973C43.066 175.755 43.175 175.646 43.175 175.646C43.3931 175.646 43.5021 175.646 43.5021 175.646C43.5021 175.864 43.5021 175.973 43.5021 175.973V176.954C43.7201 176.736 44.0472 176.409 44.4833 175.973C44.7014 175.973 44.9194 175.973 45.1375 175.973C45.3556 175.973 45.5736 175.973 45.7917 175.973C45.7917 176.191 45.9007 176.3 46.1188 176.3C46.1188 176.518 46.1188 176.627 46.1188 176.627C46.1188 176.845 46.0097 176.954 45.7917 176.954C45.7917 177.172 45.6826 177.281 45.4646 177.281C45.4646 177.281 45.3556 177.172 45.1375 176.954C44.9194 176.954 44.7014 176.954 44.4833 176.954C44.4833 176.954 44.3743 176.954 44.1562 176.954C44.1562 176.954 44.0472 177.063 43.8292 177.281C43.6111 177.499 43.5021 177.826 43.5021 178.262V180.879C43.5021 181.097 43.5021 181.424 43.5021 181.86C43.7201 181.86 43.8292 181.969 43.8292 182.187C43.8292 182.187 43.9382 182.187 44.1562 182.187C44.3743 182.187 44.4833 182.296 44.4833 182.514C44.7014 182.296 44.8104 182.296 44.8104 182.514C44.8104 182.732 44.8104 182.841 44.8104 182.841C44.5924 182.841 44.3743 182.841 44.1562 182.841C43.7201 182.841 43.3931 182.841 43.175 182.841C42.7389 182.841 42.3028 182.841 41.8667 182.841C41.6486 182.841 41.5396 182.841 41.5396 182.841C41.5396 182.841 41.5396 182.732 41.5396 182.514C41.5396 182.514 41.6486 182.514 41.8667 182.514C41.8667 182.296 41.8667 182.187 41.8667 182.187C42.0847 182.187 42.1937 182.187 42.1937 182.187C42.1937 181.969 42.1937 181.751 42.1937 181.533C42.4118 181.315 42.5208 181.097 42.5208 180.879Z" fill="black"/>
<path fill-rule="evenodd" clip-rule="evenodd" d="M50.3706 175.974C50.8067 175.974 51.1338 175.974 51.3519 175.974C51.788 176.192 52.2241 176.519 52.6602 176.955C52.8782 177.173 52.9873 177.391 52.9873 177.609C52.9873 177.827 52.9873 178.045 52.9873 178.264C52.9873 178.482 52.9873 178.591 52.9873 178.591C52.9873 178.591 52.8782 178.591 52.6602 178.591H50.3706V178.264H50.6977C50.9157 178.264 51.2428 178.264 51.6789 178.264C51.6789 178.045 51.6789 177.936 51.6789 177.936C51.6789 177.718 51.6789 177.5 51.6789 177.282C51.4609 177.064 51.3519 176.846 51.3519 176.628C51.0248 176.628 50.6977 176.301 50.3706 176.301V175.974ZM50.3706 182.189C50.5887 182.189 50.8067 182.189 51.0248 182.189C51.6789 182.189 52.2241 181.97 52.6602 181.534C52.8782 181.534 52.9873 181.425 52.9873 181.207C52.9873 181.425 52.9873 181.534 52.9873 181.534C53.2053 181.534 53.3144 181.534 53.3144 181.534C53.3144 181.534 53.2053 181.643 52.9873 181.861C52.9873 181.861 52.9873 181.97 52.9873 182.189C52.5512 182.407 52.1151 182.625 51.6789 182.843C51.2428 183.061 50.8067 183.17 50.3706 183.17V182.189ZM54.6227 182.189C54.6227 182.189 54.6227 180.88 54.6227 180.553C54.6227 180.553 54.7317 180.553 54.9498 180.553C54.9498 180.553 54.9498 180.662 54.9498 180.88C54.9498 181.207 54.9498 181.207 54.9498 181.207C55.1678 181.643 55.3859 181.97 55.6039 182.189C55.931 182.516 56.2581 182.516 56.5852 182.516C57.0213 182.516 57.3484 182.407 57.5664 182.189C57.7845 182.189 57.8935 182.08 57.8935 181.861C58.1116 181.643 58.2206 181.425 58.2206 181.207C58.2206 180.771 57.6755 180.335 56.5852 179.899C56.5852 179.899 56.4762 179.79 56.2581 179.572C55.822 179.572 55.3859 179.354 54.9498 178.918C54.7317 178.482 54.6227 178.155 54.6227 177.936C54.6227 177.718 54.7317 177.5 54.9498 177.282C54.9498 177.064 55.0588 176.846 55.2769 176.628C55.713 176.192 56.2581 175.974 56.9123 175.974C57.3484 175.974 57.6755 176.083 57.8935 176.301C58.3296 176.301 58.5477 176.41 58.5477 176.628V177.609C58.5477 177.609 58.4387 177.718 58.2206 177.936C58.2206 177.936 58.2206 177.827 58.2206 177.609C58.2206 177.391 58.1116 177.282 57.8935 177.282C57.8935 177.064 57.6755 176.846 57.2394 176.628C57.0213 176.41 56.8032 176.301 56.5852 176.301C56.3671 176.301 56.1491 176.41 55.931 176.628C55.713 176.846 55.6039 176.955 55.6039 176.955C55.6039 177.173 55.6039 177.282 55.6039 177.282C55.6039 177.936 56.1491 178.482 57.2394 178.918C57.4574 178.918 57.5664 178.918 57.5664 178.918C58.0026 179.136 58.3296 179.354 58.5477 179.572C58.7657 180.008 58.8748 180.444 58.8748 180.88C58.8748 181.098 58.8748 181.425 58.8748 181.861C58.6567 182.08 58.4387 182.298 58.2206 182.516C58.0025 182.734 57.7845 182.843 57.5664 182.843C57.1303 183.061 56.8032 183.17 56.5852 183.17C56.1491 183.17 55.713 183.061 55.2769 182.843C55.0588 182.625 54.9498 182.516 54.9498 182.516C54.7317 182.516 54.6227 182.516 54.6227 182.516C54.6227 182.298 54.6227 182.189 54.6227 182.189ZM60.5102 176.955C60.2921 176.955 60.1831 176.846 60.1831 176.628C60.1831 176.628 60.2921 176.519 60.5102 176.301C60.7282 176.083 60.9463 175.865 61.1644 175.647C61.3824 175.429 61.4914 175.211 61.4914 174.993C61.7095 174.775 61.8185 174.666 61.8185 174.666C62.0366 174.666 62.1456 174.666 62.1456 174.666C62.1456 174.666 62.1456 175.974 62.1456 176.301H63.4539C63.672 176.301 63.9991 176.192 64.4352 175.974C64.4352 176.192 64.4352 176.41 64.4352 176.628C64.2171 176.628 64.1081 176.737 64.1081 176.955H62.1456V181.207C62.1456 181.425 62.1456 181.643 62.1456 181.861C62.1456 181.861 62.2546 181.97 62.4727 182.189C62.4727 182.189 62.5817 182.298 62.7998 182.516C62.7998 182.516 62.9088 182.516 63.1269 182.516C63.563 182.516 63.8901 182.407 64.1081 182.189C64.3262 182.189 64.4352 182.189 64.4352 182.189C64.6532 182.189 64.7623 182.189 64.7623 182.189C64.7623 182.407 64.5442 182.625 64.1081 182.843C63.672 183.061 63.2359 183.17 62.7998 183.17C62.5817 183.17 62.3637 183.061 62.1456 182.843C61.7095 182.843 61.4914 182.734 61.4914 182.516C61.1644 182.189 60.8373 181.534 60.8373 180.88V176.955H60.5102ZM66.7248 173.03C66.9428 172.812 67.1609 172.703 67.3789 172.703C67.3789 172.703 67.488 172.812 67.706 173.03C67.706 173.03 67.815 173.03 68.0331 173.03C68.0331 173.248 68.0331 173.357 68.0331 173.357C68.0331 173.575 68.0331 173.684 68.0331 173.684C67.815 173.902 67.706 174.011 67.706 174.011C67.488 174.23 67.3789 174.339 67.3789 174.339C67.1609 174.339 67.0519 174.339 67.0519 174.339C66.8338 174.12 66.7248 174.011 66.7248 174.011C66.7248 173.793 66.6157 173.684 66.3977 173.684C66.6157 173.466 66.7248 173.248 66.7248 173.03ZM66.7248 178.264C66.7248 177.827 66.6157 177.5 66.3977 177.282C66.3977 177.064 66.3977 176.955 66.3977 176.955C66.1796 176.955 66.0706 176.955 66.0706 176.955C65.8526 176.955 65.7435 176.955 65.7435 176.955C65.7435 176.955 65.7435 176.846 65.7435 176.628C65.7435 176.628 65.8526 176.628 66.0706 176.628C66.0706 176.41 66.1796 176.301 66.3977 176.301C66.3977 176.301 66.5067 176.301 66.7248 176.301C66.9428 176.083 67.1609 175.974 67.3789 175.974C67.3789 175.974 67.488 175.865 67.706 175.647C67.706 175.647 67.815 175.756 68.0331 175.974C68.0331 176.955 68.0331 180.226 68.0331 181.207C68.0331 181.425 68.0331 181.643 68.0331 181.861C68.0331 182.08 68.1421 182.189 68.3602 182.189C68.3602 182.189 68.4692 182.189 68.6873 182.189C68.6873 182.407 68.7963 182.516 69.0144 182.516C69.2324 182.516 69.3414 182.516 69.3414 182.516C69.3414 182.516 69.3414 182.625 69.3414 182.843C69.3414 182.843 69.2324 182.843 69.0144 182.843C69.0144 182.843 68.7963 182.843 68.3602 182.843C68.1421 182.843 67.8151 182.843 67.3789 182.843C66.9428 182.843 66.5067 182.843 66.0706 182.843C66.0706 182.843 65.9616 182.843 65.7435 182.843C65.7435 182.625 65.7435 182.516 65.7435 182.516C65.7435 182.516 65.8526 182.516 66.0706 182.516C66.0706 182.516 66.0706 182.407 66.0706 182.189C66.2887 182.189 66.3977 182.189 66.3977 182.189C66.3977 181.97 66.3977 181.861 66.3977 181.861C66.6157 181.643 66.7248 181.425 66.7248 181.207V178.264ZM70.9769 182.843C70.7588 182.625 70.5407 182.516 70.3227 182.516C70.3227 182.298 70.3227 182.08 70.3227 181.861C70.3227 181.643 70.4317 181.425 70.6498 181.207C70.6498 180.771 70.8678 180.444 71.3039 180.226C70.8678 180.008 70.5407 179.79 70.3227 179.572C70.3227 179.136 70.3227 178.7 70.3227 178.264C70.3227 178.045 70.3227 177.718 70.3227 177.282C70.5407 177.064 70.7588 176.846 70.9769 176.628C71.1949 176.41 71.413 176.192 71.631 175.974C72.0671 175.756 72.3942 175.756 72.6123 175.974C73.2664 175.974 73.8116 176.083 74.2477 176.301C74.4657 176.301 74.6838 176.41 74.9019 176.628C75.1199 176.628 75.2289 176.519 75.2289 176.301C75.447 176.301 75.6651 176.192 75.8831 175.974C75.8831 175.756 75.8831 175.647 75.8831 175.647C76.1012 175.647 76.2102 175.647 76.2102 175.647C76.2102 175.647 76.2102 175.756 76.2102 175.974C76.2102 176.192 76.1012 176.41 75.8831 176.628C75.8831 176.955 75.556 177.282 75.2289 177.282C75.2289 177.5 75.2289 177.718 75.2289 177.936C75.447 177.936 75.556 178.045 75.556 178.264C75.556 178.482 75.447 178.809 75.2289 179.245C75.0109 179.463 74.7928 179.681 74.5748 179.899C74.1387 180.553 73.4845 180.771 72.6123 180.553C72.3942 180.553 72.1762 180.553 71.9581 180.553C71.7401 180.553 71.631 180.553 71.631 180.553C71.413 180.553 71.3039 180.662 71.3039 180.88C71.0859 181.098 70.9769 181.316 70.9769 181.534C70.9769 181.534 70.9769 181.643 70.9769 181.861C71.1949 181.861 71.3039 181.861 71.3039 181.861C72.1762 182.08 73.0484 182.189 73.9206 182.189C74.2477 182.189 74.9019 182.189 75.2289 182.516C75.447 182.734 75.6651 182.952 75.8831 183.17C75.8831 183.388 75.8831 183.606 75.8831 183.824C75.8831 184.042 75.7741 184.26 75.556 184.478C75.338 184.914 75.1199 185.132 74.9019 185.132C74.2477 185.786 73.3755 186.005 72.2852 185.786C71.631 185.786 70.9769 185.677 70.3227 185.459C70.1046 185.241 69.9956 185.023 69.9956 184.805C69.7775 184.587 69.6685 184.369 69.6685 184.151C69.6685 183.933 69.7775 183.715 69.9956 183.497C70.2137 183.279 70.5407 183.061 70.9769 182.843ZM71.631 179.572C71.8491 179.79 72.0671 180.008 72.2852 180.226C72.5032 180.226 72.7213 180.226 72.9394 180.226C73.1574 180.226 73.3755 180.226 73.5935 180.226C73.8116 180.008 73.9206 179.899 73.9206 179.899C74.1387 179.463 74.2477 178.918 74.2477 178.264C74.2477 177.827 74.1387 177.282 73.9206 176.628C73.9206 176.628 73.8116 176.519 73.5935 176.301C73.3755 176.301 73.1574 176.301 72.9394 176.301C72.5032 176.301 72.2852 176.301 72.2852 176.301C72.0671 176.301 71.8491 176.41 71.631 176.628C71.413 177.064 71.3039 177.5 71.3039 177.936C71.3039 178.591 71.3039 179.245 71.631 179.572ZM71.3039 182.843C71.0859 183.061 70.8678 183.279 70.6498 183.497C70.6498 183.715 70.6498 183.933 70.6498 184.151C70.6498 184.369 70.6498 184.587 70.6498 184.805C70.6498 184.805 70.7588 184.914 70.9769 185.132C71.413 185.35 71.9581 185.459 72.6123 185.459C73.2664 185.459 73.9206 185.35 74.5748 185.132C74.7928 184.914 74.9019 184.696 74.9019 184.478C75.1199 184.26 75.2289 184.042 75.2289 183.824C75.0109 183.606 74.9019 183.497 74.9019 183.497C74.6838 183.279 74.4657 183.17 74.2477 183.17C74.0296 183.17 73.7025 183.17 73.2664 183.17C72.6123 183.17 71.9581 183.061 71.3039 182.843ZM78.1727 178.918C78.1727 178.7 78.1727 178.591 78.1727 178.591V178.918ZM78.8269 181.534C79.0449 181.752 79.372 181.97 79.8081 182.189C80.0262 182.189 80.3532 182.189 80.7894 182.189C81.4435 182.189 81.9887 182.08 82.4248 181.861C82.6428 181.643 82.7519 181.534 82.7519 181.534C82.7519 181.534 82.8609 181.534 83.0789 181.534C83.0789 181.534 83.0789 181.643 83.0789 181.861C82.7519 181.861 82.7519 182.189 82.7519 182.189C82.3157 182.625 81.8796 182.843 81.4435 182.843C81.0074 183.061 80.5713 183.17 80.1352 183.17C79.6991 183.17 79.263 183.061 78.8269 182.843C78.3907 182.843 78.0637 182.625 77.8456 182.189C77.4095 181.534 77.1914 180.771 77.1914 179.899C77.1914 178.809 77.4095 177.936 77.8456 177.282C78.0637 176.846 78.3907 176.519 78.8269 176.301C79.263 176.301 79.6991 176.301 80.1352 176.301C80.5713 176.301 81.0074 176.301 81.4435 176.301C81.8796 176.519 82.2067 176.846 82.4248 177.282C82.4248 177.5 82.5338 177.718 82.7519 177.936C82.7519 178.155 82.7519 178.373 82.7519 178.591C82.7519 178.809 82.7519 178.918 82.7519 178.918C82.7519 178.918 82.6428 178.918 82.4248 178.918H78.1727C78.1727 179.79 78.3907 180.662 78.8269 181.534ZM78.1727 178.591H80.4623C80.6803 178.591 81.0074 178.591 81.4435 178.591C81.4435 178.373 81.4435 178.264 81.4435 178.264C81.6616 178.264 81.6616 178.264 81.4435 178.264C81.4435 178.045 81.4435 177.827 81.4435 177.609C81.4435 177.391 81.3345 177.173 81.1164 176.955C80.6803 176.737 80.2442 176.628 79.8081 176.628C79.59 176.628 79.372 176.628 79.1539 176.628C78.9359 176.846 78.8269 176.955 78.8269 176.955C78.3907 177.391 78.1727 177.936 78.1727 178.591ZM88.6394 176.955C88.4213 176.955 88.3123 176.955 88.3123 176.955C88.3123 176.737 88.4213 176.519 88.6394 176.301C88.8574 176.083 89.0755 175.865 89.2935 175.647C89.5116 175.429 89.7296 175.211 89.9477 174.993C89.9477 174.775 89.9477 174.666 89.9477 174.666C90.1657 174.666 90.2748 174.666 90.2748 174.666C90.2748 174.666 90.2748 174.775 90.2748 174.993V176.301H91.5831C91.8012 176.301 92.1282 176.192 92.5644 175.974V176.301C92.5644 176.519 92.5644 176.628 92.5644 176.628C92.3463 176.846 92.2373 176.955 92.2373 176.955C92.0192 176.955 91.9102 176.955 91.9102 176.955H90.2748V181.534C90.2748 181.534 90.2748 181.643 90.2748 181.861C90.2748 182.08 90.3838 182.189 90.6019 182.189C90.6019 182.407 90.7109 182.516 90.9289 182.516C91.147 182.516 91.256 182.516 91.256 182.516C91.6921 182.516 92.0192 182.407 92.2373 182.189C92.4553 182.189 92.5644 182.189 92.5644 182.189C92.7824 182.189 92.8914 182.189 92.8914 182.189C92.6734 182.407 92.4553 182.625 92.2373 182.843C91.8012 183.061 91.365 183.17 90.9289 183.17C90.7109 183.17 90.4928 183.17 90.2748 183.17C90.0567 182.952 89.8387 182.843 89.6206 182.843C89.1845 182.189 88.9664 181.643 88.9664 181.207V176.955H88.6394ZM93.8727 179.572C93.8727 178.7 94.1998 177.827 94.8539 176.955C95.5081 176.301 96.3803 175.974 97.4706 175.974C97.9067 175.974 98.3428 176.083 98.7789 176.301C99.2151 176.519 99.5421 176.737 99.7602 176.955C100.196 177.391 100.523 177.827 100.741 178.264C100.741 178.7 100.741 179.136 100.741 179.572C100.741 180.008 100.741 180.444 100.741 180.88C100.523 181.316 100.196 181.752 99.7602 182.189C99.5421 182.407 99.2151 182.625 98.7789 182.843C98.1248 183.061 97.5796 183.17 97.1435 183.17C96.7074 183.17 96.2713 183.061 95.8352 182.843C95.3991 182.843 95.072 182.625 94.8539 182.189C94.4178 181.97 94.1998 181.643 94.1998 181.207C93.9817 180.553 93.8727 180.008 93.8727 179.572ZM95.5081 181.861C95.7262 182.08 96.0532 182.298 96.4894 182.516C96.7074 182.734 97.0345 182.843 97.4706 182.843C97.6887 182.843 98.0157 182.734 98.4519 182.516C98.6699 182.516 98.888 182.407 99.106 182.189C99.5421 181.534 99.7602 180.771 99.7602 179.899C99.7602 179.245 99.4331 178.264 99.106 177.282C98.888 177.064 98.5609 176.846 98.1248 176.628C97.9067 176.41 97.5796 176.301 97.1435 176.301C96.9255 176.301 96.5984 176.41 96.1623 176.628C95.9442 176.846 95.7262 177.064 95.5081 177.282C95.072 177.718 94.8539 178.373 94.8539 179.245C94.8539 180.226 95.181 181.207 95.5081 181.861Z" fill="black"/>
<path fill-rule="evenodd" clip-rule="evenodd" d="M105.648 176.95C105.648 176.95 105.539 176.841 105.321 176.623C105.321 176.623 105.212 176.514 104.994 176.296C104.776 176.296 104.667 176.296 104.667 176.296C104.667 176.078 104.667 175.969 104.667 175.969C104.885 175.969 104.994 175.969 104.994 175.969C105.212 175.969 105.43 175.969 105.648 175.969C105.866 175.969 106.084 175.969 106.302 175.969C106.52 175.969 106.738 175.969 106.956 175.969C107.174 175.969 107.392 175.969 107.61 175.969C107.61 175.969 107.61 176.078 107.61 176.296C107.392 176.296 107.283 176.296 107.283 176.296C107.283 176.296 107.174 176.405 106.956 176.623C106.956 176.841 106.956 176.95 106.956 176.95C106.956 176.95 106.956 177.059 106.956 177.277C106.956 177.277 106.956 177.386 106.956 177.604L108.592 181.202L109.9 178.585C109.9 178.367 109.9 178.04 109.9 177.604C109.9 177.386 109.9 177.168 109.9 176.95C109.9 176.95 109.9 176.841 109.9 176.623C109.9 176.623 109.791 176.514 109.573 176.296C109.355 176.296 109.246 176.296 109.246 176.296C109.246 176.296 109.246 176.187 109.246 175.969C109.246 175.969 109.355 175.969 109.573 175.969C109.573 175.969 109.682 175.969 109.9 175.969C109.9 175.969 110.009 175.969 110.227 175.969C110.445 175.969 110.663 175.969 110.881 175.969C111.099 175.969 111.208 175.969 111.208 175.969C111.426 175.969 111.535 175.969 111.535 175.969C111.535 176.187 111.535 176.296 111.535 176.296C111.535 176.296 111.426 176.296 111.208 176.296C111.208 176.296 111.208 176.405 111.208 176.623C110.99 176.623 110.881 176.623 110.881 176.623C110.881 176.841 110.772 177.059 110.554 177.277L107.61 185.454C107.61 185.672 107.61 185.781 107.61 185.781C107.392 185.781 107.174 185.781 106.956 185.781C106.738 185.781 106.629 185.781 106.629 185.781C106.629 185.781 106.629 185.672 106.629 185.454C106.629 185.454 106.629 185.345 106.629 185.127C106.847 184.909 107.065 184.8 107.283 184.8C107.501 184.364 107.719 184.037 107.937 183.819C107.937 183.383 107.937 183.055 107.937 182.837C107.937 182.619 107.828 182.292 107.61 181.856L105.648 176.95ZM112.189 179.239C112.189 178.367 112.516 177.495 113.171 176.623C113.825 175.969 114.806 175.642 115.787 175.642C116.223 175.642 116.66 175.751 117.096 175.969C117.532 175.969 117.859 176.187 118.077 176.623C118.513 177.059 118.84 177.495 119.058 177.931C119.058 178.149 119.058 178.585 119.058 179.239C119.058 179.676 119.058 180.112 119.058 180.548C118.84 180.984 118.513 181.42 118.077 181.856C117.859 182.074 117.532 182.292 117.096 182.51C116.66 182.728 116.223 182.837 115.787 182.837C115.133 182.837 114.588 182.728 114.152 182.51C113.934 182.292 113.607 182.074 113.171 181.856C112.735 181.42 112.517 180.984 112.517 180.548C112.298 180.112 112.189 179.676 112.189 179.239ZM113.825 181.529C114.043 181.747 114.37 181.965 114.806 182.183C115.024 182.401 115.351 182.51 115.787 182.51C116.005 182.51 116.332 182.401 116.769 182.183C116.987 182.183 117.205 181.965 117.423 181.529C117.859 181.093 118.077 180.439 118.077 179.567C118.077 178.694 117.859 177.822 117.423 176.95C117.205 176.732 116.878 176.514 116.441 176.296C116.223 176.078 115.896 175.969 115.46 175.969C115.242 175.969 115.024 175.969 114.806 175.969C114.37 176.187 114.043 176.405 113.825 176.623C113.389 177.277 113.171 178.04 113.171 178.912C113.171 179.567 113.498 180.548 113.825 181.529ZM125.6 181.529C125.164 181.965 124.837 182.292 124.619 182.51C124.182 182.51 123.746 182.51 123.31 182.51C122.874 182.728 122.547 182.728 122.329 182.51C122.111 182.292 121.893 182.074 121.675 181.856C121.348 181.529 121.021 180.875 121.021 180.221V177.277C121.021 177.059 121.021 176.841 121.021 176.623C121.021 176.623 120.912 176.514 120.694 176.296C120.694 176.296 120.585 176.296 120.367 176.296C120.367 176.078 120.476 175.969 120.694 175.969C121.13 175.969 121.566 175.969 122.002 175.969C122.22 175.969 122.329 175.969 122.329 175.969C122.329 176.623 122.329 177.277 122.329 177.604V179.894C122.329 180.548 122.438 181.093 122.656 181.529C122.874 181.747 123.092 181.856 123.31 181.856C123.528 182.074 123.746 182.183 123.964 182.183C124.401 182.183 124.837 181.965 125.273 181.529C125.273 181.529 125.382 181.42 125.6 181.202C125.6 180.984 125.6 180.766 125.6 180.548V177.277C125.6 177.059 125.6 176.841 125.6 176.623C125.382 176.623 125.273 176.623 125.273 176.623C125.273 176.405 125.164 176.296 124.946 176.296C124.728 176.296 124.619 176.296 124.619 176.296C124.619 176.296 124.619 176.187 124.619 175.969C124.619 175.969 124.728 175.969 124.946 175.969C124.946 175.969 125.055 175.969 125.273 175.969C125.491 175.969 125.709 175.969 125.927 175.969C126.363 175.751 126.581 175.751 126.581 175.969C126.581 176.296 126.581 176.95 126.581 176.95V181.202C126.581 181.42 126.69 181.638 126.908 181.856C126.908 181.856 126.908 181.965 126.908 182.183C127.126 182.183 127.235 182.183 127.235 182.183C127.453 182.183 127.562 182.183 127.562 182.183C127.562 182.401 127.562 182.51 127.562 182.51C127.562 182.51 127.453 182.51 127.235 182.51H125.927C125.709 182.51 125.6 182.51 125.6 182.51C125.6 182.292 125.6 182.183 125.6 182.183V181.529ZM129.525 180.548V176.95C129.525 176.732 129.525 176.623 129.525 176.623C129.307 176.623 129.198 176.514 129.198 176.296C128.98 176.296 128.871 176.296 128.871 176.296C128.653 176.296 128.544 176.296 128.544 176.296C128.544 176.078 128.544 175.969 128.544 175.969C128.544 175.969 128.653 175.969 128.871 175.969C129.089 175.969 129.307 175.86 129.525 175.642C129.743 175.642 129.961 175.533 130.179 175.314C130.179 175.314 130.288 175.314 130.506 175.314C130.724 175.314 130.833 175.314 130.833 175.314C130.833 175.533 130.833 175.642 130.833 175.642V176.95C131.051 176.514 131.378 176.078 131.814 175.642C131.814 175.642 132.032 175.642 132.469 175.642C132.687 175.642 132.905 175.642 133.123 175.642C133.123 175.86 133.232 175.969 133.45 175.969C133.45 176.187 133.45 176.296 133.45 176.296C133.45 176.514 133.341 176.623 133.123 176.623C133.123 176.841 133.014 176.95 132.796 176.95C132.796 176.95 132.687 176.95 132.469 176.95C132.251 176.732 132.032 176.623 131.814 176.623C131.596 176.623 131.487 176.623 131.487 176.623C131.269 176.841 131.16 176.95 131.16 176.95C130.942 177.168 130.833 177.495 130.833 177.931V180.221C130.833 180.657 130.833 181.093 130.833 181.529C130.833 181.529 130.942 181.638 131.16 181.856C131.16 181.856 131.269 181.856 131.487 181.856L131.814 182.183C131.814 181.965 131.923 181.965 132.142 182.183C132.142 182.401 132.142 182.51 132.142 182.51C132.142 182.51 132.032 182.51 131.814 182.51C131.814 182.51 131.705 182.51 131.487 182.51C131.051 182.51 130.724 182.51 130.506 182.51C129.852 182.51 129.416 182.51 129.198 182.51H128.871C128.871 182.51 128.871 182.401 128.871 182.183C129.089 181.965 129.198 181.856 129.198 181.856C129.416 181.638 129.525 181.42 129.525 181.202C129.525 180.984 129.525 180.766 129.525 180.548ZM139.01 180.548V173.025C139.01 172.589 139.01 172.153 139.01 171.717C139.01 171.717 138.901 171.717 138.683 171.717C138.683 171.717 138.574 171.717 138.356 171.717C138.138 171.717 138.029 171.717 138.029 171.717C138.029 171.498 138.029 171.389 138.029 171.389C138.029 171.389 138.138 171.28 138.356 171.062C138.574 171.062 138.683 171.062 138.683 171.062C138.901 171.062 139.01 171.062 139.01 171.062C139.228 170.844 139.446 170.735 139.664 170.735C139.882 170.517 139.992 170.408 139.992 170.408C140.21 170.408 140.319 170.408 140.319 170.408C140.319 170.626 140.319 170.735 140.319 170.735V171.062C140.319 171.717 140.319 172.48 140.319 173.352V180.548C140.319 180.766 140.319 181.093 140.319 181.529C140.537 181.747 140.646 181.856 140.646 181.856C140.864 181.856 141.082 181.856 141.3 181.856C141.3 181.856 141.3 181.965 141.3 182.183C141.518 182.183 141.627 182.183 141.627 182.183C141.409 182.183 141.3 182.183 141.3 182.183C141.3 182.401 141.3 182.51 141.3 182.51C141.082 182.51 140.864 182.51 140.646 182.51C140.428 182.292 140.21 182.183 139.992 182.183C139.555 182.183 139.119 182.292 138.683 182.51H138.356C138.356 182.51 138.356 182.401 138.356 182.183C138.356 181.965 138.465 181.856 138.683 181.856C138.683 181.856 138.792 181.747 139.01 181.529C139.01 181.529 139.01 181.42 139.01 181.202C139.01 180.984 139.01 180.766 139.01 180.548ZM143.262 173.025C143.262 172.807 143.371 172.589 143.589 172.371C143.589 172.153 143.698 172.044 143.917 172.044C143.917 172.044 144.026 172.153 144.244 172.371C144.462 172.589 144.571 172.698 144.571 172.698C144.571 172.698 144.571 172.807 144.571 173.025C144.571 173.025 144.571 173.134 144.571 173.352C144.571 173.352 144.462 173.352 144.244 173.352C144.244 173.679 143.917 173.679 143.917 173.679C143.698 173.679 143.589 173.679 143.589 173.679C143.589 173.679 143.48 173.57 143.262 173.352C143.262 173.134 143.262 173.025 143.262 173.025ZM143.262 177.604C143.262 177.386 143.262 177.059 143.262 176.623C143.044 176.623 142.935 176.514 142.935 176.296C142.935 176.296 142.826 176.296 142.608 176.296C142.608 176.296 142.499 176.296 142.281 176.296C142.281 176.078 142.39 175.969 142.608 175.969C142.608 175.969 142.717 175.969 142.935 175.969C143.153 175.969 143.262 175.86 143.262 175.642C143.589 175.642 143.589 175.642 143.917 175.314C144.135 175.314 144.244 175.314 144.244 175.314C144.462 175.314 144.571 175.314 144.571 175.314C144.571 175.314 144.571 175.423 144.571 175.642C144.571 176.514 144.571 177.277 144.571 177.931V180.548C144.571 180.766 144.571 181.093 144.571 181.529C144.789 181.747 144.898 181.856 144.898 181.856C145.116 181.856 145.225 181.856 145.225 181.856C145.225 181.856 145.334 181.856 145.552 181.856C145.552 181.856 145.661 181.856 145.879 181.856C145.879 182.074 145.879 182.183 145.879 182.183C145.661 182.401 145.552 182.51 145.552 182.51C145.552 182.51 145.334 182.401 144.898 182.183C144.68 182.183 144.353 182.183 143.917 182.183C143.48 182.183 143.153 182.292 142.935 182.51H142.608C142.608 182.51 142.608 182.401 142.608 182.183C142.608 181.965 142.608 181.856 142.608 181.856C142.935 181.856 142.935 181.529 142.935 181.529C143.153 181.529 143.262 181.42 143.262 181.202C143.262 180.984 143.262 180.766 143.262 180.548V177.604ZM147.187 180.548V176.296H146.533C146.315 176.296 146.206 176.296 146.206 176.296C146.206 176.078 146.315 175.86 146.533 175.642C146.533 175.642 146.642 175.642 146.86 175.642H147.514C147.514 174.333 147.842 173.134 148.496 172.044C148.714 171.608 149.041 171.28 149.477 171.062C149.913 170.844 150.458 170.626 151.112 170.408C151.112 170.408 151.221 170.517 151.439 170.735C151.439 170.735 151.439 170.844 151.439 171.062C151.439 171.28 151.439 171.498 151.439 171.717C151.439 172.044 151.439 172.044 151.112 172.044C151.112 172.044 151.112 171.935 151.112 171.717C151.112 171.498 151.003 171.389 150.785 171.389C150.567 171.389 150.349 171.389 150.131 171.389C149.913 171.389 149.695 171.498 149.477 171.717C149.259 171.717 149.15 171.935 149.15 172.371C148.714 172.807 148.496 173.461 148.496 174.333V175.642H149.15C149.586 175.642 149.913 175.642 150.131 175.642C150.131 175.423 150.131 175.314 150.131 175.314C150.349 175.314 150.458 175.314 150.458 175.314C150.458 175.533 150.349 175.751 150.131 175.969C150.131 175.969 150.131 176.078 150.131 176.296C150.131 176.296 150.022 176.296 149.804 176.296H148.496V180.548C148.496 180.766 148.605 181.093 148.823 181.529C148.823 181.529 148.932 181.638 149.15 181.856C149.15 181.856 149.259 181.856 149.477 181.856V182.183C149.477 182.183 149.368 182.183 149.15 182.183C148.714 182.183 148.387 182.183 148.169 182.183C147.732 182.183 147.296 182.183 146.86 182.183C146.642 182.401 146.533 182.401 146.533 182.183C146.751 181.965 146.86 181.856 146.86 181.856C147.078 181.856 147.187 181.747 147.187 181.529C147.187 181.529 147.187 181.42 147.187 181.202C147.405 180.984 147.405 180.766 147.187 180.548ZM152.094 178.258C152.094 179.13 152.312 179.894 152.748 180.548C152.966 180.984 153.293 181.311 153.729 181.529C153.947 181.529 154.274 181.529 154.71 181.529C155.364 181.529 156.019 181.529 156.673 180.875C156.673 180.875 156.782 180.875 157 180.875C157 181.093 157 181.202 157 181.202C157 181.202 156.891 181.311 156.673 181.529C156.237 181.747 155.801 181.965 155.364 182.183C154.928 182.401 154.492 182.51 154.056 182.51C153.62 182.51 153.184 182.401 152.748 182.183C152.53 181.965 152.203 181.747 151.767 181.529C151.112 180.875 151.112 179.894 151.112 179.239C151.112 178.258 151.112 177.277 151.767 176.623C152.203 176.187 152.53 175.86 152.748 175.642C153.184 175.423 153.62 175.314 154.056 175.314C154.492 175.314 154.928 175.423 155.364 175.642C155.582 175.86 155.91 176.187 156.346 176.623C156.564 176.841 156.673 177.059 156.673 177.277C156.891 177.495 157 177.713 157 177.931C157 177.931 156.891 178.04 156.673 178.258C156.673 178.258 156.564 178.258 156.346 178.258H152.094ZM154.383 177.931C154.601 177.931 154.928 177.822 155.364 177.604C155.364 177.386 155.364 177.168 155.364 176.95C155.146 176.732 155.037 176.514 155.037 176.296C154.601 176.078 154.165 175.969 153.729 175.969C153.511 175.969 153.293 175.969 153.075 175.969C152.857 176.187 152.748 176.296 152.748 176.296C152.421 176.95 152.094 177.277 152.094 177.931H154.383Z" fill="black"/>
</g>
<defs>
<clipPath id="clip0_768_23">
<rect width="157" height="192.979" fill="white"/>
</clipPath>
</defs>
</svg>
