<svg width="362" height="64" viewBox="0 0 362 64" fill="none" xmlns="http://www.w3.org/2000/svg">
<path d="M355.117 63.7783C353.745 63.7783 352.524 63.5433 351.453 63.0735C350.381 62.6037 349.536 61.9648 348.916 61.1567C348.295 60.3298 347.948 59.4089 347.873 58.3941H352.637C352.693 58.9391 352.947 59.3807 353.398 59.719C353.849 60.0573 354.403 60.2264 355.061 60.2264C355.662 60.2264 356.123 60.1137 356.442 59.8882C356.78 59.6438 356.949 59.3338 356.949 58.9579C356.949 58.5069 356.715 58.178 356.245 57.9713C355.775 57.7458 355.014 57.5015 353.961 57.2384C352.834 56.9753 351.894 56.7028 351.142 56.4209C350.391 56.1202 349.742 55.6598 349.197 55.0396C348.652 54.4007 348.38 53.5456 348.38 52.4744C348.38 51.5723 348.624 50.7548 349.113 50.0219C349.62 49.2702 350.353 48.6782 351.312 48.246C352.289 47.8138 353.445 47.5977 354.779 47.5977C356.752 47.5977 358.303 48.0863 359.43 49.0635C360.576 50.0407 361.234 51.3374 361.403 52.9536H356.949C356.874 52.4086 356.63 51.9764 356.217 51.6569C355.822 51.3374 355.296 51.1777 354.638 51.1777C354.074 51.1777 353.642 51.2904 353.341 51.516C353.041 51.7227 352.89 52.014 352.89 52.3898C352.89 52.8409 353.125 53.1791 353.595 53.4046C354.084 53.6301 354.835 53.8557 355.85 54.0812C357.015 54.3819 357.964 54.6825 358.697 54.9832C359.43 55.2651 360.069 55.7349 360.614 56.3927C361.178 57.0316 361.469 57.8961 361.488 58.9861C361.488 59.9069 361.225 60.7338 360.699 61.4667C360.191 62.1809 359.449 62.7447 358.472 63.1581C357.513 63.5715 356.395 63.7783 355.117 63.7783Z" fill="black"/>
<path d="M340.777 50.445C341.341 49.5806 342.046 48.904 342.892 48.4154C343.737 47.908 344.677 47.6543 345.711 47.6543V52.7565H344.386C343.183 52.7565 342.281 53.0196 341.679 53.5458C341.078 54.0532 340.777 54.9553 340.777 56.252V63.553H335.957V47.8234H340.777V50.445Z" fill="black"/>
<path d="M332.71 55.4343C332.71 55.8853 332.682 56.3551 332.626 56.8437H321.716C321.792 57.8209 322.102 58.5727 322.647 59.0989C323.21 59.6063 323.896 59.86 324.705 59.86C325.907 59.86 326.744 59.3526 327.213 58.3377H332.344C332.081 59.3713 331.601 60.3016 330.906 61.1285C330.23 61.9554 329.375 62.6037 328.341 63.0735C327.307 63.5433 326.152 63.7783 324.874 63.7783C323.333 63.7783 321.961 63.4494 320.758 62.7916C319.555 62.1339 318.616 61.1943 317.939 59.9727C317.263 58.7512 316.924 57.3229 316.924 55.688C316.924 54.053 317.253 52.6247 317.911 51.4032C318.587 50.1817 319.527 49.242 320.73 48.5843C321.933 47.9265 323.314 47.5977 324.874 47.5977C326.396 47.5977 327.749 47.9171 328.933 48.5561C330.117 49.195 331.038 50.1065 331.695 51.2904C332.372 52.4744 332.71 53.8557 332.71 55.4343ZM327.777 54.1657C327.777 53.3389 327.495 52.6811 326.931 52.1925C326.368 51.7039 325.663 51.4596 324.817 51.4596C324.009 51.4596 323.323 51.6945 322.759 52.1643C322.214 52.6341 321.876 53.3013 321.745 54.1657H327.777Z" fill="black"/>
<path d="M307.768 47.6543C309.61 47.6543 311.076 48.2557 312.166 49.4584C313.275 50.6424 313.829 52.2773 313.829 54.3633V63.553H309.037V55.0117C309.037 53.9593 308.764 53.1418 308.219 52.5592C307.674 51.9766 306.942 51.6854 306.021 51.6854C305.1 51.6854 304.367 51.9766 303.822 52.5592C303.277 53.1418 303.004 53.9593 303.004 55.0117V63.553H298.184V47.8234H303.004V49.9094C303.493 49.2141 304.151 48.6691 304.978 48.2745C305.805 47.861 306.735 47.6543 307.768 47.6543Z" fill="black"/>
<path d="M288.07 47.6543C289.912 47.6543 291.378 48.2557 292.468 49.4584C293.576 50.6424 294.131 52.2773 294.131 54.3633V63.553H289.339V55.0117C289.339 53.9593 289.066 53.1418 288.521 52.5592C287.976 51.9766 287.243 51.6854 286.322 51.6854C285.402 51.6854 284.669 51.9766 284.124 52.5592C283.579 53.1418 283.306 53.9593 283.306 55.0117V63.553H278.486V47.8234H283.306V49.9094C283.795 49.2141 284.453 48.6691 285.279 48.2745C286.106 47.861 287.037 47.6543 288.07 47.6543Z" fill="black"/>
<path d="M257.691 55.6598C257.691 54.0436 257.992 52.6247 258.593 51.4032C259.213 50.1817 260.049 49.242 261.102 48.5843C262.154 47.9265 263.329 47.5977 264.625 47.5977C265.734 47.5977 266.702 47.8232 267.529 48.2742C268.375 48.7252 269.023 49.3172 269.474 50.0501V47.8232H274.294V63.5527H269.474V61.3258C269.004 62.0587 268.346 62.6507 267.501 63.1017C266.674 63.5527 265.706 63.7783 264.597 63.7783C263.319 63.7783 262.154 63.4494 261.102 62.7916C260.049 62.1151 259.213 61.1661 258.593 59.9445C257.992 58.7042 257.691 57.2759 257.691 55.6598ZM269.474 55.688C269.474 54.4852 269.136 53.5362 268.459 52.8409C267.801 52.1455 266.993 51.7978 266.035 51.7978C265.076 51.7978 264.259 52.1455 263.582 52.8409C262.925 53.5174 262.596 54.457 262.596 55.6598C262.596 56.8625 262.925 57.8209 263.582 58.5351C264.259 59.2304 265.076 59.5781 266.035 59.5781C266.993 59.5781 267.801 59.2304 268.459 58.5351C269.136 57.8397 269.474 56.8907 269.474 55.688Z" fill="black"/>
<path d="M254.453 42.6914V63.5514H249.632V42.6914H254.453Z" fill="black"/>
<path d="M246.419 50.1344C246.419 51.2808 246.156 52.3332 245.63 53.2916C245.104 54.2313 244.296 54.9924 243.206 55.5749C242.116 56.1575 240.762 56.4488 239.146 56.4488H236.158V63.5525H231.338V43.7637H239.146C240.725 43.7637 242.059 44.0362 243.149 44.5812C244.239 45.1262 245.057 45.8779 245.602 46.8363C246.147 47.7947 246.419 48.8941 246.419 50.1344ZM238.78 52.6151C239.701 52.6151 240.387 52.399 240.838 51.9667C241.289 51.5345 241.514 50.9237 241.514 50.1344C241.514 49.3451 241.289 48.7344 240.838 48.3021C240.387 47.8699 239.701 47.6538 238.78 47.6538H236.158V52.6151H238.78Z" fill="black"/>
<path d="M203.866 55.6584C203.866 54.0423 204.167 52.6234 204.768 51.4019C205.388 50.1803 206.225 49.2407 207.277 48.5829C208.329 47.9252 209.504 47.5963 210.801 47.5963C211.834 47.5963 212.774 47.8124 213.62 48.2447C214.484 48.6769 215.161 49.2595 215.649 49.9924V42.6914H220.47V63.5514H215.649V61.2963C215.198 62.048 214.55 62.6494 213.704 63.1004C212.877 63.5514 211.91 63.7769 210.801 63.7769C209.504 63.7769 208.329 63.4481 207.277 62.7903C206.225 62.1138 205.388 61.1647 204.768 59.9432C204.167 58.7029 203.866 57.2746 203.866 55.6584ZM215.649 55.6866C215.649 54.4839 215.311 53.5349 214.634 52.8395C213.977 52.1442 213.169 51.7965 212.21 51.7965C211.252 51.7965 210.434 52.1442 209.758 52.8395C209.1 53.5161 208.771 54.4557 208.771 55.6584C208.771 56.8612 209.1 57.8196 209.758 58.5337C210.434 59.2291 211.252 59.5767 212.21 59.5767C213.169 59.5767 213.977 59.2291 214.634 58.5337C215.311 57.8384 215.649 56.8894 215.649 55.6866Z" fill="black"/>
<path d="M194.71 47.6543C196.552 47.6543 198.018 48.2557 199.108 49.4584C200.217 50.6424 200.771 52.2773 200.771 54.3633V63.553H195.979V55.0117C195.979 53.9593 195.706 53.1418 195.161 52.5592C194.616 51.9766 193.883 51.6854 192.963 51.6854C192.042 51.6854 191.309 51.9766 190.764 52.5592C190.219 53.1418 189.946 53.9593 189.946 55.0117V63.553H185.126V47.8234H189.946V49.9094C190.435 49.2141 191.093 48.6691 191.92 48.2745C192.746 47.861 193.677 47.6543 194.71 47.6543Z" fill="black"/>
<path d="M164.331 55.6598C164.331 54.0436 164.632 52.6247 165.233 51.4032C165.853 50.1817 166.69 49.242 167.742 48.5843C168.794 47.9265 169.969 47.5977 171.266 47.5977C172.374 47.5977 173.342 47.8232 174.169 48.2742C175.015 48.7252 175.663 49.3172 176.114 50.0501V47.8232H180.934V63.5527H176.114V61.3258C175.644 62.0587 174.987 62.6507 174.141 63.1017C173.314 63.5527 172.346 63.7783 171.237 63.7783C169.96 63.7783 168.794 63.4494 167.742 62.7916C166.69 62.1151 165.853 61.1661 165.233 59.9445C164.632 58.7042 164.331 57.2759 164.331 55.6598ZM176.114 55.688C176.114 54.4852 175.776 53.5362 175.099 52.8409C174.442 52.1455 173.633 51.7978 172.675 51.7978C171.717 51.7978 170.899 52.1455 170.223 52.8409C169.565 53.5174 169.236 54.457 169.236 55.6598C169.236 56.8625 169.565 57.8209 170.223 58.5351C170.899 59.2304 171.717 59.5781 172.675 59.5781C173.633 59.5781 174.442 59.2304 175.099 58.5351C175.776 57.8397 176.114 56.8907 176.114 55.688Z" fill="black"/>
<path d="M148.589 63.7783C147.217 63.7783 145.995 63.5433 144.924 63.0735C143.853 62.6037 143.007 61.9648 142.387 61.1567C141.767 60.3298 141.419 59.4089 141.344 58.3941H146.108C146.165 58.9391 146.418 59.3807 146.869 59.719C147.32 60.0573 147.875 60.2264 148.532 60.2264C149.134 60.2264 149.594 60.1137 149.914 59.8882C150.252 59.6438 150.421 59.3338 150.421 58.9579C150.421 58.5069 150.186 58.178 149.716 57.9713C149.247 57.7458 148.486 57.5015 147.433 57.2384C146.306 56.9753 145.366 56.7028 144.614 56.4209C143.862 56.1202 143.214 55.6598 142.669 55.0396C142.124 54.4007 141.852 53.5456 141.852 52.4744C141.852 51.5723 142.096 50.7548 142.585 50.0219C143.092 49.2702 143.825 48.6782 144.783 48.246C145.761 47.8138 146.916 47.5977 148.251 47.5977C150.224 47.5977 151.774 48.0863 152.902 49.0635C154.048 50.0407 154.706 51.3374 154.875 52.9536H150.421C150.346 52.4086 150.102 51.9764 149.688 51.6569C149.294 51.3374 148.767 51.1777 148.11 51.1777C147.546 51.1777 147.114 51.2904 146.813 51.516C146.512 51.7227 146.362 52.014 146.362 52.3898C146.362 52.8409 146.597 53.1791 147.067 53.4046C147.555 53.6301 148.307 53.8557 149.322 54.0812C150.487 54.3819 151.436 54.6825 152.169 54.9832C152.902 55.2651 153.541 55.7349 154.086 56.3927C154.65 57.0316 154.941 57.8961 154.96 58.9861C154.96 59.9069 154.697 60.7338 154.17 61.4667C153.663 62.1809 152.921 62.7447 151.943 63.1581C150.985 63.5715 149.867 63.7783 148.589 63.7783Z" fill="black"/>
<path d="M138.801 59.4642V63.5516H136.349C134.601 63.5516 133.238 63.1288 132.261 62.2831C131.284 61.4186 130.795 60.0185 130.795 58.0829V51.8249H128.878V47.822H130.795V43.9883H135.616V47.822H138.773V51.8249H135.616V58.1393C135.616 58.6091 135.728 58.9474 135.954 59.1541C136.179 59.3608 136.555 59.4642 137.081 59.4642H138.801Z" fill="black"/>
<path d="M111.305 55.688C111.305 54.053 111.634 52.6247 112.291 51.4032C112.968 50.1817 113.898 49.242 115.082 48.5843C116.285 47.9265 117.657 47.5977 119.198 47.5977C121.171 47.5977 122.815 48.1145 124.131 49.1481C125.465 50.1817 126.339 51.6381 126.752 53.5174H121.622C121.19 52.3147 120.353 51.7133 119.113 51.7133C118.23 51.7133 117.525 52.0609 116.999 52.7563C116.473 53.4328 116.21 54.41 116.21 55.688C116.21 56.9659 116.473 57.9525 116.999 58.6478C117.525 59.3244 118.23 59.6626 119.113 59.6626C120.353 59.6626 121.19 59.0613 121.622 57.8585H126.752C126.339 59.7002 125.465 61.1473 124.131 62.1997C122.796 63.2521 121.152 63.7783 119.198 63.7783C117.657 63.7783 116.285 63.4494 115.082 62.7916C113.898 62.1339 112.968 61.1943 112.291 59.9727C111.634 58.7512 111.305 57.3229 111.305 55.688Z" fill="black"/>
<path d="M109.016 55.4343C109.016 55.8853 108.988 56.3551 108.931 56.8437H98.0221C98.0973 57.8209 98.4074 58.5727 98.9524 59.0989C99.5162 59.6063 100.202 59.86 101.01 59.86C102.213 59.86 103.049 59.3526 103.519 58.3377H108.649C108.386 59.3713 107.907 60.3016 107.212 61.1285C106.535 61.9554 105.68 62.6037 104.647 63.0735C103.613 63.5433 102.457 63.7783 101.179 63.7783C99.6383 63.7783 98.2665 63.4494 97.0637 62.7916C95.861 62.1339 94.9213 61.1943 94.2448 59.9727C93.5683 58.7512 93.23 57.3229 93.23 55.688C93.23 54.053 93.5589 52.6247 94.2166 51.4032C94.8931 50.1817 95.8328 49.242 97.0355 48.5843C98.2383 47.9265 99.6195 47.5977 101.179 47.5977C102.702 47.5977 104.055 47.9171 105.239 48.5561C106.423 49.195 107.343 50.1065 108.001 51.2904C108.678 52.4744 109.016 53.8557 109.016 55.4343ZM104.083 54.1657C104.083 53.3389 103.801 52.6811 103.237 52.1925C102.673 51.7039 101.969 51.4596 101.123 51.4596C100.315 51.4596 99.6289 51.6945 99.0652 52.1643C98.5202 52.6341 98.1819 53.3013 98.0503 54.1657H104.083Z" fill="black"/>
<path d="M90.7995 59.4642V63.5516H88.3471C86.5994 63.5516 85.2369 63.1288 84.2597 62.2831C83.2824 61.4186 82.7938 60.0185 82.7938 58.0829V51.8249H80.877V47.822H82.7938V43.9883H87.6142V47.822H90.7714V51.8249H87.6142V58.1393C87.6142 58.6091 87.7269 58.9474 87.9524 59.1541C88.178 59.3608 88.5538 59.4642 89.08 59.4642H90.7995Z" fill="black"/>
<path d="M75.4398 46.1877C74.5941 46.1877 73.8987 45.9434 73.3538 45.4547C72.8276 44.9473 72.5645 44.3272 72.5645 43.5943C72.5645 42.8425 72.8276 42.2224 73.3538 41.7338C73.8987 41.2264 74.5941 40.9727 75.4398 40.9727C76.2666 40.9727 76.9432 41.2264 77.4694 41.7338C78.0144 42.2224 78.2869 42.8425 78.2869 43.5943C78.2869 44.3272 78.0144 44.9473 77.4694 45.4547C76.9432 45.9434 76.2666 46.1877 75.4398 46.1877ZM77.8358 47.8226V63.5522H73.0155V47.8226H77.8358Z" fill="black"/>
<path d="M62.9863 47.6527C64.7904 47.6527 66.2374 48.2541 67.3274 49.4568C68.4174 50.6408 68.9624 52.2757 68.9624 54.3617V63.5514H64.1702V55.0101C64.1702 53.9577 63.8977 53.1402 63.3527 52.5576C62.8078 51.975 62.0748 51.6838 61.154 51.6838C60.2331 51.6838 59.5002 51.975 58.9552 52.5576C58.4102 53.1402 58.1377 53.9577 58.1377 55.0101V63.5514H53.3174V42.6914H58.1377V49.936C58.6263 49.2407 59.2935 48.6863 60.1392 48.2729C60.9848 47.8594 61.9339 47.6527 62.9863 47.6527Z" fill="black"/>
<path d="M34.5874 55.688C34.5874 54.053 34.9163 52.6247 35.574 51.4032C36.2506 50.1817 37.1808 49.242 38.3648 48.5843C39.5675 47.9265 40.9394 47.5977 42.4804 47.5977C44.4536 47.5977 46.098 48.1145 47.4135 49.1481C48.7478 50.1817 49.6216 51.6381 50.0351 53.5174H44.9047C44.4724 52.3147 43.6361 51.7133 42.3958 51.7133C41.5126 51.7133 40.8078 52.0609 40.2816 52.7563C39.7554 53.4328 39.4923 54.41 39.4923 55.688C39.4923 56.9659 39.7554 57.9525 40.2816 58.6478C40.8078 59.3244 41.5126 59.6626 42.3958 59.6626C43.6361 59.6626 44.4724 59.0613 44.9047 57.8585H50.0351C49.6216 59.7002 48.7478 61.1473 47.4135 62.1997C46.0792 63.2521 44.4348 63.7783 42.4804 63.7783C40.9394 63.7783 39.5675 63.4494 38.3648 62.7916C37.1808 62.1339 36.2506 61.1943 35.574 59.9727C34.9163 58.7512 34.5874 57.3229 34.5874 55.688Z" fill="black"/>
<path d="M27.605 50.445C28.1688 49.5806 28.8735 48.904 29.7192 48.4154C30.5649 47.908 31.5045 47.6543 32.5381 47.6543V52.7565H31.2132C30.0105 52.7565 29.1084 53.0196 28.5071 53.5458C27.9057 54.0532 27.605 54.9553 27.605 56.252V63.553H22.7847V47.8234H27.605V50.445Z" fill="black"/>
<path d="M13.6154 60.057H6.22981L5.04587 63.5525H0L7.16006 43.7637H12.7415L19.9016 63.5525H14.7993L13.6154 60.057ZM12.3751 56.3361L9.9226 49.0914L7.49833 56.3361H12.3751Z" fill="black"/>
<path d="M310.012 17.1641L306.883 25.2544H303.81L305.445 17.1641H310.012Z" fill="black"/>
<path d="M296.883 8.50948C297.447 7.64501 298.152 6.96847 298.998 6.47986C299.843 5.97245 300.783 5.71875 301.816 5.71875V10.821H300.492C299.289 10.821 298.387 11.0841 297.785 11.6103C297.184 12.1177 296.883 13.0198 296.883 14.3165V21.6175H292.063V5.88789H296.883V8.50948Z" fill="black"/>
<path d="M271.269 13.7242C271.269 12.108 271.57 10.6892 272.171 9.46765C272.791 8.24612 273.628 7.30648 274.68 6.64873C275.732 5.99098 276.907 5.66211 278.204 5.66211C279.312 5.66211 280.28 5.88762 281.107 6.33865C281.953 6.78968 282.601 7.38165 283.052 8.11457V5.88762H287.872V21.6172H283.052V19.3903C282.582 20.1232 281.925 20.7151 281.079 21.1662C280.252 21.6172 279.284 21.8427 278.175 21.8427C276.897 21.8427 275.732 21.5138 274.68 20.8561C273.628 20.1796 272.791 19.2305 272.171 18.009C271.57 16.7687 271.269 15.3404 271.269 13.7242ZM283.052 13.7524C283.052 12.5497 282.714 11.6006 282.037 10.9053C281.38 10.21 280.571 9.8623 279.613 9.8623C278.655 9.8623 277.837 10.21 277.161 10.9053C276.503 11.5818 276.174 12.5215 276.174 13.7242C276.174 14.927 276.503 15.8854 277.161 16.5995C277.837 17.2949 278.655 17.6425 279.613 17.6425C280.571 17.6425 281.38 17.2949 282.037 16.5995C282.714 15.9042 283.052 14.9552 283.052 13.7524Z" fill="black"/>
<path d="M263.711 21.6178L258.919 15.0215V21.6178H254.098V0.757812H258.919V12.2872L263.682 5.88825H269.63L263.09 13.7812L269.687 21.6178H263.711Z" fill="black"/>
<path d="M233.303 13.7248C233.303 12.1087 233.604 10.6898 234.205 9.46827C234.825 8.24674 235.662 7.3071 236.714 6.64935C237.767 5.99161 238.941 5.66273 240.238 5.66273C241.271 5.66273 242.211 5.87885 243.057 6.31108C243.921 6.74332 244.598 7.3259 245.086 8.05881V0.757812H249.907V21.6178H245.086V19.3627C244.635 20.1144 243.987 20.7158 243.141 21.1668C242.314 21.6178 241.347 21.8433 240.238 21.8433C238.941 21.8433 237.767 21.5145 236.714 20.8567C235.662 20.1802 234.825 19.2311 234.205 18.0096C233.604 16.7693 233.303 15.341 233.303 13.7248ZM245.086 13.753C245.086 12.5503 244.748 11.6013 244.071 10.9059C243.414 10.2106 242.606 9.86292 241.647 9.86292C240.689 9.86292 239.871 10.2106 239.195 10.9059C238.537 11.5825 238.208 12.5221 238.208 13.7248C238.208 14.9276 238.537 15.886 239.195 16.6001C239.871 17.2955 240.689 17.6431 241.647 17.6431C242.606 17.6431 243.414 17.2955 244.071 16.6001C244.748 15.9048 245.086 14.9558 245.086 13.753Z" fill="black"/>
<path d="M231.015 13.4987C231.015 13.9497 230.987 14.4196 230.931 14.9082H220.022C220.097 15.8854 220.407 16.6371 220.952 17.1633C221.516 17.6707 222.202 17.9244 223.01 17.9244C224.212 17.9244 225.049 17.417 225.519 16.4022H230.649C230.386 17.4358 229.907 18.366 229.211 19.1929C228.535 20.0198 227.68 20.6682 226.646 21.138C225.613 21.6078 224.457 21.8427 223.179 21.8427C221.638 21.8427 220.266 21.5138 219.063 20.8561C217.86 20.1983 216.921 19.2587 216.244 18.0372C215.568 16.8156 215.229 15.3874 215.229 13.7524C215.229 12.1174 215.558 10.6892 216.216 9.46765C216.893 8.24612 217.832 7.30648 219.035 6.64873C220.238 5.99098 221.619 5.66211 223.179 5.66211C224.701 5.66211 226.054 5.98159 227.238 6.62054C228.422 7.2595 229.343 8.17095 230.001 9.3549C230.677 10.5388 231.015 11.9201 231.015 13.4987ZM226.082 12.2302C226.082 11.4033 225.8 10.7456 225.237 10.257C224.673 9.76834 223.968 9.52403 223.122 9.52403C222.314 9.52403 221.628 9.75894 221.065 10.2288C220.52 10.6986 220.181 11.3657 220.05 12.2302H226.082Z" fill="black"/>
<path d="M207.186 21.6189L203.071 14.1488H201.915V21.6189H197.095V1.83008H205.185C206.745 1.83008 208.07 2.10257 209.16 2.64756C210.268 3.19255 211.095 3.94427 211.64 4.9027C212.185 5.84234 212.458 6.89474 212.458 8.05989C212.458 9.37539 212.082 10.5499 211.33 11.5835C210.597 12.6171 209.507 13.3501 208.06 13.7823L212.627 21.6189H207.186ZM201.915 10.7379H204.903C205.786 10.7379 206.444 10.5217 206.876 10.0895C207.327 9.65728 207.553 9.04651 207.553 8.25721C207.553 7.5055 207.327 6.91353 206.876 6.4813C206.444 6.04906 205.786 5.83294 204.903 5.83294H201.915V10.7379Z" fill="black"/>
<path d="M182.36 21.6171L180.528 19.8411C178.705 21.2318 176.525 21.9271 173.988 21.9271C172.466 21.9271 171.141 21.6828 170.013 21.1942C168.886 20.6868 168.012 19.9821 167.392 19.08C166.79 18.1592 166.49 17.088 166.49 15.8665C166.49 14.6261 166.819 13.508 167.476 12.5119C168.153 11.4971 169.158 10.6703 170.493 10.0313C170.004 9.42993 169.656 8.85675 169.45 8.31176C169.243 7.74797 169.14 7.13721 169.14 6.47946C169.14 5.53982 169.384 4.68475 169.872 3.91424C170.361 3.14374 171.066 2.54237 171.987 2.11013C172.926 1.65911 174.035 1.43359 175.313 1.43359C176.61 1.43359 177.709 1.6685 178.611 2.13832C179.513 2.60814 180.19 3.2377 180.641 4.027C181.092 4.8163 181.298 5.68077 181.261 6.62041H176.722C176.741 6.113 176.61 5.72775 176.328 5.46465C176.065 5.18276 175.708 5.04181 175.257 5.04181C174.806 5.04181 174.43 5.17336 174.129 5.43646C173.828 5.69956 173.678 6.03783 173.678 6.45127C173.678 6.84592 173.8 7.25936 174.044 7.6916C174.308 8.12383 174.712 8.62184 175.257 9.18562L180.077 13.8932C180.115 13.7993 180.162 13.6865 180.218 13.555C180.293 13.4234 180.368 13.2731 180.443 13.1039L181.486 11.328H186.307L184.954 13.7805C184.446 14.8892 183.864 15.9416 183.206 16.9377L187.97 21.6171H182.36ZM174.214 18.037C175.473 18.037 176.591 17.68 177.568 16.9658L173.171 12.7093C171.818 13.4046 171.141 14.3442 171.141 15.5282C171.141 16.2423 171.413 16.8437 171.958 17.3323C172.522 17.8021 173.274 18.037 174.214 18.037Z" fill="black"/>
<path d="M152.605 8.50948C153.168 7.64501 153.873 6.96847 154.719 6.47986C155.564 5.97245 156.504 5.71875 157.538 5.71875V10.821H156.213C155.01 10.821 154.108 11.0841 153.507 11.6103C152.905 12.1177 152.605 13.0198 152.605 14.3165V21.6175H147.784V5.88789H152.605V8.50948Z" fill="black"/>
<path d="M126.99 13.7242C126.99 12.108 127.29 10.6892 127.892 9.46765C128.512 8.24612 129.348 7.30648 130.401 6.64873C131.453 5.99098 132.628 5.66211 133.924 5.66211C135.033 5.66211 136.001 5.88762 136.828 6.33865C137.673 6.78968 138.322 7.38165 138.773 8.11457V5.88762H143.593V21.6172H138.773V19.3903C138.303 20.1232 137.645 20.7151 136.8 21.1662C135.973 21.6172 135.005 21.8427 133.896 21.8427C132.618 21.8427 131.453 21.5138 130.401 20.8561C129.348 20.1796 128.512 19.2305 127.892 18.009C127.29 16.7687 126.99 15.3404 126.99 13.7242ZM138.773 13.7524C138.773 12.5497 138.435 11.6006 137.758 10.9053C137.1 10.21 136.292 9.8623 135.334 9.8623C134.375 9.8623 133.558 10.21 132.881 10.9053C132.224 11.5818 131.895 12.5215 131.895 13.7242C131.895 14.927 132.224 15.8854 132.881 16.5995C133.558 17.2949 134.375 17.6425 135.334 17.6425C136.292 17.6425 137.1 17.2949 137.758 16.5995C138.435 15.9042 138.773 14.9552 138.773 13.7524Z" fill="black"/>
<path d="M119.431 21.6178L114.639 15.0215V21.6178H109.819V0.757812H114.639V12.2872L119.403 5.88825H125.351L118.811 13.7812L125.407 21.6178H119.431Z" fill="black"/>
<path d="M89.0239 13.7248C89.0239 12.1087 89.3246 10.6898 89.926 9.46827C90.5461 8.24674 91.3824 7.3071 92.4348 6.64935C93.4872 5.99161 94.6618 5.66273 95.9585 5.66273C96.9921 5.66273 97.9317 5.87885 98.7774 6.31108C99.6419 6.74332 100.318 7.3259 100.807 8.05881V0.757812H105.627V21.6178H100.807V19.3627C100.356 20.1144 99.7076 20.7158 98.862 21.1668C98.0351 21.6178 97.0672 21.8433 95.9585 21.8433C94.6618 21.8433 93.4872 21.5145 92.4348 20.8567C91.3824 20.1802 90.5461 19.2311 89.926 18.0096C89.3246 16.7693 89.0239 15.341 89.0239 13.7248ZM100.807 13.753C100.807 12.5503 100.469 11.6013 99.7922 10.9059C99.1345 10.2106 98.3264 9.86292 97.3679 9.86292C96.4095 9.86292 95.592 10.2106 94.9155 10.9059C94.2577 11.5825 93.9289 12.5221 93.9289 13.7248C93.9289 14.9276 94.2577 15.886 94.9155 16.6001C95.592 17.2955 96.4095 17.6431 97.3679 17.6431C98.3264 17.6431 99.1345 17.2955 99.7922 16.6001C100.469 15.9048 100.807 14.9558 100.807 13.753Z" fill="black"/>
<path d="M86.7361 13.4987C86.7361 13.9497 86.708 14.4196 86.6516 14.9082H75.7424C75.8175 15.8854 76.1276 16.6371 76.6726 17.1633C77.2364 17.6707 77.9223 17.9244 78.7304 17.9244C79.9331 17.9244 80.7694 17.417 81.2393 16.4022H86.3697C86.1066 17.4358 85.6274 18.366 84.932 19.1929C84.2555 20.0198 83.4004 20.6682 82.3668 21.138C81.3332 21.6078 80.1775 21.8427 78.8995 21.8427C77.3585 21.8427 75.9867 21.5138 74.7839 20.8561C73.5812 20.1983 72.6415 19.2587 71.965 18.0372C71.2885 16.8156 70.9502 15.3874 70.9502 13.7524C70.9502 12.1174 71.2791 10.6892 71.9368 9.46765C72.6134 8.24612 73.553 7.30648 74.7557 6.64873C75.9585 5.99098 77.3397 5.66211 78.8995 5.66211C80.4218 5.66211 81.7748 5.98159 82.9588 6.62054C84.1427 7.2595 85.0636 8.17095 85.7213 9.3549C86.3979 10.5388 86.7361 11.9201 86.7361 13.4987ZM81.803 12.2302C81.803 11.4033 81.5211 10.7456 80.9574 10.257C80.3936 9.76834 79.6888 9.52403 78.8432 9.52403C78.0351 9.52403 77.3491 9.75894 76.7854 10.2288C76.2404 10.6986 75.9021 11.3657 75.7705 12.2302H81.803Z" fill="black"/>
<path d="M62.9072 21.6189L58.7915 14.1488H57.6358V21.6189H52.8154V1.83008H60.9057C62.4655 1.83008 63.7904 2.10257 64.8804 2.64756C65.9892 3.19255 66.8161 3.94427 67.3611 4.9027C67.9061 5.84234 68.1785 6.89474 68.1785 8.05989C68.1785 9.37539 67.8027 10.5499 67.051 11.5835C66.3181 12.6171 65.2281 13.3501 63.781 13.7823L68.3477 21.6189H62.9072ZM57.6358 10.7379H60.6238C61.5071 10.7379 62.1649 10.5217 62.5971 10.0895C63.0481 9.65728 63.2736 9.04651 63.2736 8.25721C63.2736 7.5055 63.0481 6.91353 62.5971 6.4813C62.1649 6.04906 61.5071 5.83294 60.6238 5.83294H57.6358V10.7379Z" fill="black"/>
</svg>
