<svg width="56" height="56" viewBox="0 0 56 56" fill="none" xmlns="http://www.w3.org/2000/svg">
<path d="M31.3018 7.36237H34.5831V10.6436H31.3018V7.36237Z" fill="#E69515"/>
<path d="M31.3018 13.9522H34.5831V17.2335H31.3018V13.9522Z" fill="#E69515"/>
<path d="M24.712 7.36237H27.9932V10.6436H24.712V7.36237Z" fill="#E69515"/>
<path d="M24.712 13.9522H27.9932V17.2335H24.712V13.9522Z" fill="#E69515"/>
<path d="M37.8917 7.36237H41.1729V10.6436H37.8917V7.36237Z" fill="#E69515"/>
<path d="M37.8917 13.9522H41.1729V17.2335H37.8917V13.9522Z" fill="#E69515"/>
<path d="M27.8974 27.9043H31.1787V42.8272H27.8974V27.9043Z" fill="#E69515"/>
<path d="M25.792 38.271C25.792 37.1658 25.396 36.1514 24.7381 35.3623C25.3958 34.5732 25.7919 33.5588 25.7919 32.4537C25.8447 30.1056 23.7386 27.8538 21.2426 27.9042H15.9207V42.8203H21.2427C23.7513 42.8203 25.792 40.7795 25.792 38.271ZM19.2021 31.1856H21.2427C21.8047 31.1903 22.5022 31.6605 22.5108 32.4537C22.5108 33.1529 21.9419 33.7217 21.2428 33.7217H19.2021V31.1856ZM19.2021 37.0029H21.2428C21.942 37.0029 22.5108 37.5718 22.5108 38.271C22.5108 38.9702 21.942 39.5391 21.2428 39.5391H19.2021V37.0029Z" fill="#E69515"/>
<path d="M54.3526 21.3145H47.7627V3.28125H49.417V0H16.8985V3.28125H18.5528V7.36236H9.19832L1.6474 14.9133V56H47.7626V49.4102H54.3525L54.3526 21.3145ZM44.4815 3.28125V21.3145H21.8341V3.28125H44.4815ZM10.5575 10.6436H18.5528V13.9522H7.24893L10.5575 10.6436ZM44.4815 52.7188H4.92865V17.2335H18.5527V21.3145H8.23724V49.4102H44.4814L44.4815 52.7188ZM51.0713 46.1289H11.5185V24.5957H51.0712L51.0713 46.1289Z" fill="#E69515"/>
<path d="M37.5497 34.419L40.4755 39.3498L43.4013 34.419V42.8271H46.6826V27.9043H43.4515L40.4755 32.9197L37.4996 27.9043H34.2685V42.8271H37.5497V34.419Z" fill="#E69515"/>
</svg>
