<svg width="24" height="24" viewBox="0 0 24 24" fill="none" xmlns="http://www.w3.org/2000/svg">
<g clip-path="url(#clip0_446_12885)">
<path d="M16.9331 12.9557L15.4804 11.503L19.3195 7.66393L19.8167 8.16108C20.1386 8.48302 20.6804 8.41959 20.9168 8.02566L23.8998 3.05397C24.0658 2.77732 24.0222 2.42318 23.794 2.19509L21.8053 0.206423C21.5772 -0.0217163 21.223 -0.065263 20.9464 0.100674L15.9747 3.08369C15.5824 3.3191 15.5165 3.86088 15.8393 4.18375L16.3365 4.68091L12.4974 8.52L11.0447 7.06735C11.556 5.15683 11.0345 3.07952 9.58829 1.63325C7.77925 -0.175747 5.07115 -0.462058 2.9533 0.678734C2.75764 0.784156 2.62335 0.975827 2.59105 1.19572C2.5588 1.41561 2.63239 1.63779 2.78956 1.79496L5.42824 4.43364C5.70241 4.70781 5.70241 5.15387 5.42824 5.42795C5.15407 5.70212 4.70806 5.70217 4.43389 5.42795L1.79521 2.78923C1.63804 2.63205 1.4158 2.55841 1.19596 2.59071C0.976071 2.62296 0.7844 2.7573 0.678978 2.95296C-0.457502 5.06289 -0.181597 7.77277 1.63358 9.5879C3.07662 11.0309 5.15285 11.5569 7.06769 11.0444L7.52584 11.5025L1.03129 17.9972C-0.343361 19.3718 -0.344205 21.5936 1.03129 22.9691C2.40205 24.3398 4.6324 24.3399 6.00321 22.9691L12.4977 16.4744L12.956 16.9327C12.4446 18.8432 12.9662 20.9205 14.4124 22.3668C16.2214 24.1758 18.9295 24.4621 21.0474 23.3213C21.2431 23.2159 21.3773 23.0242 21.4096 22.8044C21.4419 22.5845 21.3683 22.3623 21.2111 22.2051L18.5725 19.5664C18.2983 19.2923 18.2983 18.8462 18.5725 18.5721C18.8466 18.2979 19.2927 18.298 19.5668 18.5721L22.2055 21.2108C22.3626 21.368 22.5848 21.4415 22.8047 21.4093C23.0246 21.3771 23.2163 21.2427 23.3217 21.0471C24.4582 18.9371 24.1823 16.2273 22.3672 14.4121C20.9241 12.9691 18.8479 12.4432 16.9331 12.9557ZM21.1992 1.58895L22.4115 2.80123L20.1743 6.52993L17.4704 3.82619L21.1992 1.58895ZM17.3308 5.67526L18.3251 6.66957L14.486 10.5087L13.4917 9.51436L17.3308 5.67526ZM5.00885 21.9749C4.18639 22.7973 2.84811 22.7973 2.0256 21.9749C1.20037 21.1496 1.19985 19.8173 2.0256 18.9916L8.5201 12.4969L11.5034 15.4802L5.00885 21.9749ZM22.4498 19.4664L20.5612 17.5778C19.7388 16.7555 18.4006 16.7554 17.5781 17.5778C16.7558 18.4002 16.7558 19.7384 17.5781 20.5608L19.4668 22.4495C18.0318 22.8412 16.4895 22.4552 15.4068 21.3725C14.2609 20.2266 13.8718 18.499 14.4155 16.9713C14.5066 16.7155 14.4423 16.4303 14.2503 16.2384L7.76204 9.75009C7.57051 9.55856 7.28542 9.49364 7.02911 9.58486C5.50137 10.1287 3.77384 9.7395 2.62789 8.59359C1.54518 7.51088 1.15916 5.9686 1.55094 4.53367L3.43958 6.42231C4.26195 7.24468 5.60013 7.24463 6.4226 6.42231C7.24497 5.59993 7.24497 4.26175 6.4226 3.43929L4.53396 1.55065C5.96885 1.15878 7.51122 1.54489 8.59393 2.6276C9.73988 3.77355 10.129 5.50112 9.58519 7.02882C9.49416 7.28457 9.55847 7.56985 9.75043 7.76175L16.2386 14.25C16.4306 14.4419 16.7159 14.5062 16.9716 14.4152C18.4992 13.8714 20.2269 14.2606 21.3728 15.4065C22.4556 16.4893 22.8416 18.0315 22.4498 19.4664Z" fill="#fff"/>
<path d="M9.14199 14.9994C8.8674 14.7248 8.42228 14.7248 8.14769 14.9994L3.85123 19.296C3.57669 19.5706 3.57669 20.0157 3.85123 20.2903C4.12587 20.5649 4.57095 20.5648 4.84554 20.2903L9.14195 15.9937C9.41649 15.7191 9.41649 15.2739 9.14199 14.9994Z" fill="#fff"/>
</g>
<defs>
<clipPath id="clip0_446_12885">
<rect width="24" height="24" fill="white"/>
</clipPath>
</defs>
</svg>
