<svg width="56" height="56" viewBox="0 0 56 56" fill="none" xmlns="http://www.w3.org/2000/svg">
<path fill-rule="evenodd" clip-rule="evenodd" d="M52.5 53.375H3.5C3.017 53.375 2.625 52.983 2.625 52.5V47.25C2.625 46.767 3.017 46.375 3.5 46.375H6.125V41.125C6.125 40.8327 6.27113 40.5589 6.51438 40.397L11.375 37.1569V3.5C11.375 3.017 11.767 2.625 12.25 2.625H43.75C44.233 2.625 44.625 3.017 44.625 3.5V37.1569L49.4856 40.397C49.7289 40.5589 49.875 40.8327 49.875 41.125V46.375H52.5C52.983 46.375 53.375 46.767 53.375 47.25V52.5C53.375 52.983 52.983 53.375 52.5 53.375ZM6.125 48.125H4.375V51.625H6.125V48.125ZM11.375 39.2604L7.875 41.5931V51.625H11.375V39.2604ZM13.125 16.625V51.625H19.25V36.75C19.25 36.267 19.642 35.875 20.125 35.875H35.875C36.358 35.875 36.75 36.267 36.75 36.75V51.625H42.875V16.625H13.125ZM42.875 14.875V4.375H13.125V14.875H42.875ZM44.625 39.2604V51.625H48.125V41.5931L44.625 39.2604ZM49.875 51.625H51.625V48.125H49.875V51.625ZM28.875 51.625H35V37.625H28.875V51.625ZM21 51.625H27.125V37.625H21V51.625ZM21.875 19.25V33.25C21.875 33.733 21.483 34.125 21 34.125H15.75C15.267 34.125 14.875 33.733 14.875 33.25V19.25C14.875 18.767 15.267 18.375 15.75 18.375H21C21.483 18.375 21.875 18.767 21.875 19.25ZM20.125 20.125H16.625V32.375H20.125V20.125ZM41.125 19.25V33.25C41.125 33.733 40.733 34.125 40.25 34.125H35C34.517 34.125 34.125 33.733 34.125 33.25V19.25C34.125 18.767 34.517 18.375 35 18.375H40.25C40.733 18.375 41.125 18.767 41.125 19.25ZM39.375 20.125H35.875V32.375H39.375V20.125ZM31.5 19.25V33.25C31.5 33.733 31.108 34.125 30.625 34.125H25.375C24.892 34.125 24.5 33.733 24.5 33.25V19.25C24.5 18.767 24.892 18.375 25.375 18.375H30.625C31.108 18.375 31.5 18.767 31.5 19.25ZM29.75 20.125H26.25V32.375H29.75V20.125ZM16.625 12.25C16.625 12.733 16.233 13.125 15.75 13.125C15.267 13.125 14.875 12.733 14.875 12.25V7C14.875 6.6465 15.0885 6.32713 15.4149 6.1915C15.7421 6.05588 16.1184 6.13113 16.3686 6.38138L17.5 7.51275L18.6314 6.38138C18.8816 6.13113 19.2579 6.05588 19.5851 6.1915C19.9115 6.32713 20.125 6.6465 20.125 7V12.25C20.125 12.733 19.733 13.125 19.25 13.125C18.767 13.125 18.375 12.733 18.375 12.25V9.11225L18.1186 9.36862C17.7774 9.71075 17.2226 9.71075 16.8814 9.36862L16.625 9.11225V12.25ZM33.25 11.375C33.733 11.375 34.125 11.767 34.125 12.25C34.125 12.733 33.733 13.125 33.25 13.125H29.75C29.267 13.125 28.875 12.733 28.875 12.25V7C28.875 6.517 29.267 6.125 29.75 6.125C30.233 6.125 30.625 6.517 30.625 7V11.375H33.25ZM40.25 11.375C40.733 11.375 41.125 11.767 41.125 12.25C41.125 12.733 40.733 13.125 40.25 13.125H36.75C36.267 13.125 35.875 12.733 35.875 12.25V7C35.875 6.517 36.267 6.125 36.75 6.125C37.233 6.125 37.625 6.517 37.625 7V11.375H40.25ZM23.7825 11.375L23.6128 12.3935C23.534 12.8704 23.0825 13.1924 22.6065 13.1128C22.1296 13.034 21.8076 12.5825 21.8872 12.1065C21.8872 12.1065 22.1795 10.3504 22.1812 10.3416L22.7622 6.8565C22.8323 6.43387 23.1971 6.125 23.625 6.125H25.375C25.8029 6.125 26.1677 6.43387 26.2378 6.8565C26.2378 6.8565 26.8223 10.36 26.824 10.3696L27.1128 12.1065C27.1924 12.5825 26.8704 13.034 26.3935 13.1128C25.9175 13.1924 25.466 12.8704 25.3872 12.3935C25.3872 12.3935 25.3155 11.9665 25.2175 11.375H23.7825ZM24.9253 9.625C24.7695 8.68875 24.6339 7.875 24.6339 7.875H24.3661L24.0747 9.625H24.9253Z" fill="black"/>
</svg>
