<svg width="56" height="56" viewBox="0 0 56 56" fill="none" xmlns="http://www.w3.org/2000/svg">
<g clip-path="url(#clip0_1185_679)">
<path d="M21.4451 28.871C21.7327 28.871 21.9995 28.7203 22.1478 28.4738L23.6278 26.0156L25.5889 29.1319C25.7422 29.3757 26.0102 29.5204 26.3004 29.5151C26.5883 29.5091 26.852 29.3525 26.9951 29.1025L30.1522 23.586L34.3925 31.3134C34.534 31.5713 34.8028 31.7337 35.0971 31.7389C35.1019 31.7389 35.1068 31.739 35.1116 31.739C35.4002 31.739 35.6682 31.5871 35.8163 31.3385L38.458 26.9038H44.8283C45.2813 26.9038 45.6486 26.5365 45.6486 26.0835C45.6486 25.6305 45.2813 25.2632 44.8283 25.2632H37.9919C37.7028 25.2632 37.4351 25.4153 37.2872 25.6637L35.1408 29.2667L30.8864 21.5136C30.7436 21.2534 30.4715 21.0906 30.1746 21.0879C30.1721 21.0879 30.1697 21.0879 30.1672 21.0879C29.8732 21.0879 29.6015 21.2453 29.4553 21.5007L26.2497 27.1018L24.3066 24.014C24.1563 23.7752 23.8941 23.6306 23.6122 23.6306C23.6096 23.6306 23.6069 23.6306 23.6041 23.6306C23.3193 23.6334 23.0564 23.7838 22.9095 24.0278L20.9814 27.2304H16.3193C15.8663 27.2304 15.499 27.5977 15.499 28.0507C15.499 28.5037 15.8663 28.871 16.3193 28.871H21.4451Z" fill="black"/>
<path d="M46.276 6.10352C45.823 6.10352 45.4557 6.4708 45.4557 6.92383V9.34364H43.0361C42.5831 9.34364 42.2158 9.71092 42.2158 10.164C42.2158 10.617 42.5831 10.9843 43.0361 10.9843H45.4557V13.4042C45.4557 13.8572 45.823 14.2245 46.276 14.2245C46.7291 14.2245 47.0964 13.8572 47.0964 13.4042V10.9843H49.5159C49.969 10.9843 50.3363 10.617 50.3363 10.164C50.3363 9.71092 49.969 9.34364 49.5159 9.34364H47.0964V6.92383C47.0964 6.4708 46.7291 6.10352 46.276 6.10352Z" fill="black"/>
<path d="M49.1706 34.209C53.1671 29.9365 54.3125 23.4758 52.1157 17.937C54.473 16.1604 56 13.3373 56 10.1639C56 4.80176 51.6379 0.439453 46.2761 0.439453C44.0736 0.439453 41.9169 1.19534 40.203 2.56789C39.8494 2.85106 39.7923 3.36731 40.0754 3.72092C40.3586 4.07442 40.8749 4.13163 41.2285 3.84845C42.6731 2.69148 44.4185 2.08008 46.276 2.08008C50.733 2.08008 54.3593 5.70652 54.3593 10.1639C54.3593 14.6231 50.7332 18.2508 46.276 18.2508C42.126 18.2508 38.6979 15.1076 38.2426 11.077C38.2418 11.0677 38.2402 11.0583 38.239 11.0489C38.2072 10.7581 38.1896 10.463 38.1896 10.1639C38.1896 8.89775 38.4741 7.68697 39.035 6.565C39.2375 6.15977 39.0732 5.66703 38.6681 5.46436C38.2625 5.26191 37.7701 5.42608 37.5675 5.8312C36.8916 7.18297 36.549 8.64072 36.549 10.1638C36.549 10.3016 36.5526 10.4385 36.5583 10.575C34.4869 11.3154 32.5535 12.533 30.9332 14.1265L30.0265 15.0179C30.0221 15.0136 30.0188 15.0103 30.0145 15.0059L29.1231 14.1276C26.2388 11.2839 22.4632 9.69466 18.7631 9.77122C15.6842 9.83466 12.9596 11.0411 10.8848 13.2592C10.5752 13.5906 10.5927 14.1101 10.9242 14.4197C11.2556 14.7281 11.774 14.7117 12.0835 14.3803C13.8488 12.4925 16.1698 11.4654 18.797 11.4118C22.0563 11.3451 25.3999 12.7615 27.9713 15.2958L28.8638 16.1751C29.2948 16.5995 29.6623 16.8106 30.0287 16.8106C30.3918 16.8106 30.7538 16.6028 31.1771 16.1872L32.0838 15.2958C33.4463 13.9566 35.0534 12.9138 36.7738 12.245C37.7295 16.6121 41.6266 19.8914 46.2759 19.8914C47.8676 19.8914 49.3712 19.5068 50.6987 18.8256C52.5164 23.7148 51.4727 29.3394 47.9782 33.0811L36.202 45.1355L35.2275 45.3259C34.9912 45.3718 34.7823 45.4134 34.592 45.4516C33.3561 45.7021 33.0608 45.7612 31.6138 45.538L24.5973 44.2551C23.6414 43.9248 23.7377 43.1635 23.7913 42.9349C23.8755 42.5795 24.2058 42.0052 24.9156 42.1124C24.9222 42.1135 24.9287 42.1146 24.9353 42.1157C25.2514 42.1562 25.5905 42.1999 25.9448 42.2448C27.2738 42.4165 28.7787 42.6101 30.1153 42.7468C32.8497 43.0235 34.3963 41.5885 34.7178 40.042C35.0448 38.4659 34.1469 36.3702 31.4016 35.4941C31.3688 35.4843 31.3348 35.4755 31.2998 35.469L26.7816 34.6399C24.3294 34.1904 22.4219 34.5371 19.5344 35.0621C18.7709 35.201 17.9047 35.3574 16.94 35.516L14.7984 35.8682L14.1389 35.1934L12.0772 33.0824C8.22391 28.9513 7.36969 22.4807 10.0034 17.3434C10.2102 16.9409 10.0505 16.4465 9.64797 16.2398C9.24438 16.033 8.75 16.1916 8.54328 16.5952C5.59891 22.3396 6.56141 29.5824 10.885 34.209C10.8894 34.2134 10.8937 34.2177 10.897 34.2221L12.822 36.193L9.23694 36.7824V36.6887C9.23694 36.0553 8.67814 35.5401 7.99127 35.5401H1.2425C0.557375 35.5401 0 36.0553 0 36.6887V51.1224C0 51.7558 0.557375 52.2711 1.2425 52.2711H7.99138C8.67825 52.2711 9.23705 51.7558 9.23705 51.1224V51.023L16.6141 53.0302L23.4237 54.8809C24.978 55.3632 26.2303 55.5623 27.3733 55.5623C29.1823 55.5623 30.7191 55.0657 32.7491 54.4095C32.9295 54.3515 33.1144 54.2913 33.3047 54.2301L46.7239 49.9273C48.2792 49.4285 49.3861 48.3085 49.6836 46.9315C49.9144 45.864 49.5928 44.8096 48.8228 44.1107C48.1994 43.5452 46.7338 42.7337 43.9086 43.6273L39.037 44.5799L49.1586 34.2221C49.163 34.2177 49.1662 34.2134 49.1706 34.209ZM1.64062 50.6304V37.1806H7.59631V37.7442C7.59631 37.746 7.59609 37.7476 7.59609 37.7493V49.949C7.59609 49.95 7.59631 49.9509 7.59631 49.9519V50.6304H1.64062ZM44.3625 45.2045C45.8763 44.7188 47.1002 44.7626 47.7214 45.3259C48.0561 45.6299 48.1873 46.0893 48.0802 46.5837C47.9073 47.381 47.2128 48.0471 46.223 48.3643L32.8027 52.6682C32.6113 52.7295 32.4253 52.7896 32.2437 52.8487C29.0336 53.8855 27.4225 54.4073 23.8962 53.3102C23.8875 53.3069 23.8777 53.3048 23.8678 53.3015L9.23694 49.3225V38.4451L17.2058 37.1359C18.1836 36.9751 19.0575 36.8154 19.8286 36.6754C22.6341 36.1657 24.3283 35.8584 26.4852 36.2543L30.9509 37.0735C32.6922 37.6455 33.2927 38.8366 33.1111 39.7084C32.9022 40.7157 31.7909 41.268 30.2816 41.1149C28.9669 40.9804 27.4728 40.7879 26.1548 40.6184C25.8027 40.5724 25.4647 40.5287 25.1508 40.4893C23.5823 40.2574 22.4766 41.3545 22.1944 42.5609C22.1342 42.8179 22.1102 43.0913 22.1277 43.367C22.1878 44.3645 22.7839 45.3991 24.1445 45.8334C24.1784 45.8443 24.6313 45.9285 24.6313 45.9285L31.3305 47.1535C31.337 47.1546 31.3447 47.1557 31.3523 47.1568C32.7348 47.3723 33.3331 47.3537 34.1808 47.2038C34.4028 47.1645 35.3084 46.9807 35.5414 46.9359L37.018 46.6471C37.018 46.6471 44.3319 45.2143 44.3625 45.2045Z" fill="black"/>
</g>
<defs>
<clipPath id="clip0_1185_679">
<rect width="56" height="56" fill="white"/>
</clipPath>
</defs>
</svg>
