<svg width="56" height="56" viewBox="0 0 56 56" fill="none" xmlns="http://www.w3.org/2000/svg">
<path d="M29.6016 54.25H4.17188C3.71873 54.25 3.35156 53.8828 3.35156 53.4297V5.85156C3.35156 5.39842 3.71873 5.03125 4.17188 5.03125H30.4219C30.875 5.03125 31.2422 5.39842 31.2422 5.85156V18.1562C31.2422 18.6094 30.875 18.9766 30.4219 18.9766C29.9687 18.9766 29.6016 18.6094 29.6016 18.1562V6.67188H4.99219V52.6094H29.6016C30.0547 52.6094 30.4219 52.9765 30.4219 53.4297C30.4219 53.8828 30.0547 54.25 29.6016 54.25Z" fill="black"/>
<path d="M39.4453 54.25H18.9375C18.4844 54.25 18.1172 53.8828 18.1172 53.4297V18.1562C18.1172 17.7031 18.4844 17.3359 18.9375 17.3359H39.4453C39.8985 17.3359 40.2656 17.7031 40.2656 18.1562V33.484C40.2656 33.9371 39.8985 34.3043 39.4453 34.3043C38.9922 34.3043 38.625 33.9371 38.625 33.484V18.9766H19.7578V52.6094H38.625V46.8672C38.625 46.414 38.9922 46.0469 39.4453 46.0469C39.8985 46.0469 40.2656 46.414 40.2656 46.8672V53.4297C40.2656 53.8828 39.8985 54.25 39.4453 54.25Z" fill="black"/>
<path d="M55.0318 54.25H0.967773C0.514633 54.25 0.147461 53.8828 0.147461 53.4297C0.147461 52.9765 0.514633 52.6094 0.967773 52.6094H55.0318C55.485 52.6094 55.8521 52.9765 55.8521 53.4297C55.8521 53.8828 55.485 54.25 55.0318 54.25Z" fill="black"/>
<path d="M47.6484 47.6875C46.0873 47.6875 44.617 47.0576 43.5469 45.964C42.4766 47.0577 41.0065 47.6875 39.4453 47.6875C36.2791 47.6875 33.7031 45.1115 33.7031 41.9453C33.7031 40.8163 34.0248 39.7395 34.6374 38.8061C34.0381 36.3222 35.8379 33.9158 38.3543 33.751C39.2943 31.7612 41.312 30.4609 43.5469 30.4609C45.7817 30.4609 47.7995 31.7612 48.7393 33.751C51.2599 33.9161 53.0547 36.325 52.4563 38.806C53.069 39.7397 53.3906 40.8165 53.3906 41.9453C53.3906 45.1115 50.8147 47.6875 47.6484 47.6875ZM43.5469 43.8453C43.8216 43.8453 44.078 43.9827 44.23 44.2116C44.9937 45.3609 46.2716 46.0469 47.6484 46.0469C51.0609 46.0469 52.9483 42.1199 50.9055 39.4539C50.7358 39.2324 50.6903 38.9398 50.7848 38.6772C51.3874 37.0018 50.0546 35.2402 48.2605 35.3924C47.8892 35.4228 47.5413 35.1993 47.4175 34.8463C46.8421 33.2046 45.2866 32.1016 43.5468 32.1016C41.8069 32.1016 40.2513 33.2046 39.6759 34.8463C39.5522 35.1992 39.204 35.4232 38.8329 35.3924C37.0431 35.2406 35.7044 36.9994 36.3088 38.677C36.4033 38.9396 36.3578 39.2323 36.188 39.454C34.1364 42.1311 36.0464 46.0469 39.4453 46.0469C40.822 46.0469 42.1 45.3608 42.8637 44.2116C43.0157 43.9827 43.2722 43.8453 43.5469 43.8453Z" fill="black"/>
<path d="M43.5469 54.25C43.0937 54.25 42.7266 53.8828 42.7266 53.4297V37.8438C42.7266 37.3906 43.0937 37.0234 43.5469 37.0234C44 37.0234 44.3672 37.3906 44.3672 37.8438V53.4297C44.3672 53.8828 44 54.25 43.5469 54.25Z" fill="black"/>
<path d="M43.5471 43.5861C43.3907 43.5861 43.2327 43.5415 43.0929 43.4482L40.632 41.8076C40.2551 41.5563 40.1531 41.047 40.4045 40.6701C40.6558 40.2932 41.1651 40.1911 41.542 40.4426L44.0029 42.0832C44.3798 42.3346 44.4817 42.8438 44.2304 43.2207C44.0722 43.4579 43.8122 43.5861 43.5471 43.5861Z" fill="black"/>
<path d="M43.547 41.9452C43.3371 41.9452 43.1271 41.8651 42.9668 41.705C42.6465 41.3845 42.6465 40.8652 42.9668 40.5449L44.6075 38.9043C44.9279 38.584 45.4472 38.584 45.7676 38.9043C46.088 39.2247 46.088 39.744 45.7676 40.0644L44.127 41.705C43.9668 41.8651 43.7568 41.9452 43.547 41.9452Z" fill="black"/>
<path d="M32.0625 6.67188H2.53125C2.07811 6.67188 1.71094 6.3047 1.71094 5.85156V2.57031C1.71094 2.11717 2.07811 1.75 2.53125 1.75H32.0625C32.5156 1.75 32.8828 2.11717 32.8828 2.57031V5.85156C32.8828 6.3047 32.5156 6.67188 32.0625 6.67188ZM3.35156 5.03125H31.2422V3.39062H3.35156V5.03125Z" fill="black"/>
<path d="M11.5547 20.6172H8.27344C7.8203 20.6172 7.45312 20.25 7.45312 19.7969V9.95312C7.45312 9.49998 7.8203 9.13281 8.27344 9.13281H11.5547C12.0078 9.13281 12.375 9.49998 12.375 9.95312V19.7969C12.375 20.25 12.0078 20.6172 11.5547 20.6172ZM9.09375 18.9766H10.7344V10.7734H9.09375V18.9766Z" fill="black"/>
<path d="M18.9375 20.6172H15.6562C15.2031 20.6172 14.8359 20.25 14.8359 19.7969V9.95312C14.8359 9.49998 15.2031 9.13281 15.6562 9.13281H18.9375C19.3906 9.13281 19.7578 9.49998 19.7578 9.95312V19.7969C19.7578 20.25 19.3906 20.6172 18.9375 20.6172ZM16.4766 18.9766H18.1172V10.7734H16.4766V18.9766Z" fill="black"/>
<path d="M26.3203 18.9766H23.0391C22.5859 18.9766 22.2188 18.6094 22.2188 18.1562V9.95312C22.2188 9.49998 22.5859 9.13281 23.0391 9.13281H26.3203C26.7735 9.13281 27.1406 9.49998 27.1406 9.95312V18.1562C27.1406 18.6094 26.7735 18.9766 26.3203 18.9766ZM23.8594 17.3359H25.5V10.7734H23.8594V17.3359Z" fill="black"/>
<path d="M11.5547 35.3828H8.27344C7.8203 35.3828 7.45312 35.0156 7.45312 34.5625V24.7188C7.45312 24.2656 7.8203 23.8984 8.27344 23.8984H11.5547C12.0078 23.8984 12.375 24.2656 12.375 24.7188V34.5625C12.375 35.0156 12.0078 35.3828 11.5547 35.3828ZM9.09375 33.7422H10.7344V25.5391H9.09375V33.7422Z" fill="black"/>
<path d="M18.9375 35.3828H15.6562C15.2031 35.3828 14.8359 35.0156 14.8359 34.5625V24.7188C14.8359 24.2656 15.2031 23.8984 15.6562 23.8984H18.9375C19.3906 23.8984 19.7578 24.2656 19.7578 24.7188V34.5625C19.7578 35.0156 19.3906 35.3828 18.9375 35.3828ZM16.4766 33.7422H18.1172V25.5391H16.4766V33.7422Z" fill="black"/>
<path d="M11.5547 50.1484H8.27344C7.8203 50.1484 7.45312 49.7813 7.45312 49.3281V39.4844C7.45312 39.0312 7.8203 38.6641 8.27344 38.6641H11.5547C12.0078 38.6641 12.375 39.0312 12.375 39.4844V49.3281C12.375 49.7813 12.0078 50.1484 11.5547 50.1484ZM9.09375 48.5078H10.7344V40.3047H9.09375V48.5078Z" fill="black"/>
<path d="M18.9375 50.1484H15.6562C15.2031 50.1484 14.8359 49.7813 14.8359 49.3281V39.4844C14.8359 39.0312 15.2031 38.6641 15.6562 38.6641H18.9375C19.3906 38.6641 19.7578 39.0312 19.7578 39.4844V49.3281C19.7578 49.7813 19.3906 50.1484 18.9375 50.1484ZM16.4766 48.5078H18.1172V40.3047H16.4766V48.5078Z" fill="black"/>
<path d="M32.0625 54.25H25.5C25.0469 54.25 24.6797 53.8828 24.6797 53.4297V44.4062C24.6797 43.9531 25.0469 43.5859 25.5 43.5859H32.0625C32.5156 43.5859 32.8828 43.9531 32.8828 44.4062V53.4297C32.8828 53.8828 32.5156 54.25 32.0625 54.25ZM26.3203 52.6094H31.2422V45.2266H26.3203V52.6094Z" fill="black"/>
<path d="M23.0391 26.3594C22.5859 26.3594 22.2188 25.9922 22.2188 25.5391V21.4375C22.2188 20.9844 22.5859 20.6172 23.0391 20.6172C23.4922 20.6172 23.8594 20.9844 23.8594 21.4375V25.5391C23.8594 25.9922 23.4922 26.3594 23.0391 26.3594Z" fill="black"/>
<path d="M27.1406 26.3594C26.6875 26.3594 26.3203 25.9922 26.3203 25.5391V21.4375C26.3203 20.9844 26.6875 20.6172 27.1406 20.6172C27.5938 20.6172 27.9609 20.9844 27.9609 21.4375V25.5391C27.9609 25.9922 27.5938 26.3594 27.1406 26.3594Z" fill="black"/>
<path d="M31.2422 26.3594C30.789 26.3594 30.4219 25.9922 30.4219 25.5391V21.4375C30.4219 20.9844 30.789 20.6172 31.2422 20.6172C31.6953 20.6172 32.0625 20.9844 32.0625 21.4375V25.5391C32.0625 25.9922 31.6953 26.3594 31.2422 26.3594Z" fill="black"/>
<path d="M35.3438 26.3594C34.8906 26.3594 34.5234 25.9922 34.5234 25.5391V21.4375C34.5234 20.9844 34.8906 20.6172 35.3438 20.6172C35.7969 20.6172 36.1641 20.9844 36.1641 21.4375V25.5391C36.1641 25.9922 35.7969 26.3594 35.3438 26.3594Z" fill="black"/>
<path d="M23.0391 37.8438C22.5859 37.8438 22.2188 37.4766 22.2188 37.0234V32.9219C22.2188 32.4687 22.5859 32.1016 23.0391 32.1016C23.4922 32.1016 23.8594 32.4687 23.8594 32.9219V37.0234C23.8594 37.4766 23.4922 37.8438 23.0391 37.8438Z" fill="black"/>
<path d="M27.1406 37.8438C26.6875 37.8438 26.3203 37.4766 26.3203 37.0234V32.9219C26.3203 32.4687 26.6875 32.1016 27.1406 32.1016C27.5938 32.1016 27.9609 32.4687 27.9609 32.9219V37.0234C27.9609 37.4766 27.5938 37.8438 27.1406 37.8438Z" fill="black"/>
<path d="M31.2422 37.8438C30.789 37.8438 30.4219 37.4766 30.4219 37.0234V32.9219C30.4219 32.4687 30.789 32.1016 31.2422 32.1016C31.6953 32.1016 32.0625 32.4687 32.0625 32.9219V37.0234C32.0625 37.4766 31.6953 37.8438 31.2422 37.8438Z" fill="black"/>
<path d="M35.3438 38.4453C34.8906 38.4453 34.5234 38.0781 34.5234 37.625V32.9219C34.5234 32.4687 34.8906 32.1016 35.3438 32.1016C35.7969 32.1016 36.1641 32.4687 36.1641 32.9219V37.625C36.1641 38.0781 35.7969 38.4453 35.3438 38.4453Z" fill="black"/>
<path d="M23.0391 30.4609C22.5859 30.4609 22.2188 30.0938 22.2188 29.6406V28.8203C22.2188 28.3672 22.5859 28 23.0391 28C23.4922 28 23.8594 28.3672 23.8594 28.8203V29.6406C23.8594 30.0938 23.4922 30.4609 23.0391 30.4609Z" fill="black"/>
<path d="M27.1406 30.4609C26.6875 30.4609 26.3203 30.0938 26.3203 29.6406V28.8203C26.3203 28.3672 26.6875 28 27.1406 28C27.5938 28 27.9609 28.3672 27.9609 28.8203V29.6406C27.9609 30.0938 27.5938 30.4609 27.1406 30.4609Z" fill="black"/>
<path d="M31.2422 30.4609C30.789 30.4609 30.4219 30.0938 30.4219 29.6406V28.8203C30.4219 28.3672 30.789 28 31.2422 28C31.6953 28 32.0625 28.3672 32.0625 28.8203V29.6406C32.0625 30.0938 31.6953 30.4609 31.2422 30.4609Z" fill="black"/>
<path d="M35.3438 30.4609C34.8906 30.4609 34.5234 30.0938 34.5234 29.6406V28.8203C34.5234 28.3672 34.8906 28 35.3438 28C35.7969 28 36.1641 28.3672 36.1641 28.8203V29.6406C36.1641 30.0938 35.7969 30.4609 35.3438 30.4609Z" fill="black"/>
</svg>
