<svg width="52" height="52" viewBox="0 0 52 52" fill="none" xmlns="http://www.w3.org/2000/svg">
<g clip-path="url(#clip0_1185_574)">
<path d="M51.1507 29.2777C51.57 29.2777 51.9098 28.9379 51.9098 28.5186V16.3481C51.9098 15.9288 51.57 15.589 51.1507 15.589H46.1914V4.71794H48.0538C48.4731 4.71794 48.8128 4.37818 48.8128 3.95886V0.759081C48.8128 0.339765 48.4731 0 48.0538 0H13.0847C12.1033 0 12.1033 1.51816 13.0847 1.51816H47.2947V3.19978H5.20261V1.51816H9.21977C10.2012 1.51816 10.2012 0 9.21977 0H4.44353C4.02431 0 3.68445 0.339765 3.68445 0.759081V3.95886C3.68445 4.37818 4.02431 4.71794 4.44353 4.71794H5.80826V15.589H0.848925C0.42971 15.589 0.0898438 15.9288 0.0898438 16.3481V39.1116V51.2409C0.0898438 51.6602 0.42971 52 0.848925 52H51.1507C51.57 52 51.9098 51.6602 51.9098 51.2409V39.1117V32.5652C51.9098 31.5838 50.3916 31.5838 50.3916 32.5652V38.3526H44.0941V23.7592C44.0794 23.3388 43.8315 22.8835 43.335 22.8835H8.66463C8.16819 22.8835 7.92032 23.3388 7.90555 23.7592V38.3526H1.60801V17.1072H6.56734H45.4323H50.3916V28.5186C50.3916 28.9379 50.7314 29.2777 51.1507 29.2777ZM9.42371 30.7414H42.5759V32.393H9.42371V30.7414ZM9.42371 27.5714H42.5759V29.2232H9.42371V27.5714ZM9.42371 24.5183H42.5759V26.0533H9.42371V24.5183ZM21.0965 36.5371H22.3051V38.8397H21.0965V36.5371ZM20.3374 40.3578H23.0642C23.4834 40.3578 23.8233 40.0181 23.8233 39.5987V36.5371H25.1901V42.6604H18.2114V36.5371H19.5783V39.5987C19.5783 40.0181 19.9182 40.3578 20.3374 40.3578ZM26.7083 36.5371H28.0751V39.5987C28.0751 40.0181 28.4149 40.3578 28.8342 40.3578H31.561C31.9803 40.3578 32.32 40.0181 32.32 39.5987V36.5371H33.6869V42.6604H26.7083V36.5371ZM29.5933 36.5371H30.8019V38.8397H29.5933V36.5371ZM33.8416 44.1785H34.446H35.0504V46.4811H33.8416V44.1785ZM25.3448 44.1785H25.9491H26.5534V46.4811H25.3448V44.1785ZM17.4524 44.1785H18.0567V46.4811H16.848V44.1785H17.4524ZM16.089 47.9992H18.8158C19.235 47.9992 19.5749 47.6595 19.5749 47.2402V44.1785H20.9417V50.4818H13.963V44.1785H15.3299V47.2402C15.3299 47.6595 15.6697 47.9992 16.089 47.9992ZM22.4599 44.1785H23.8266V47.2402C23.8266 47.6595 24.1665 47.9992 24.5857 47.9992H27.3125C27.7318 47.9992 28.0716 47.6595 28.0716 47.2402V44.1785H29.4385V50.4818H22.4599V44.1785ZM30.9566 50.4818V44.1785H32.3235V47.2402C32.3235 47.6595 32.6632 47.9992 33.0826 47.9992H35.8094C36.2287 47.9992 36.5685 47.6595 36.5685 47.2402V44.1785H37.9353V50.4818H30.9566ZM39.4535 50.4818V43.4194C39.4535 43.0001 39.1137 42.6604 38.6944 42.6604H35.2049V35.778C35.2049 35.3587 34.8652 35.0189 34.4459 35.0189H17.4524C17.0331 35.0189 16.6933 35.3587 16.6933 35.778V42.6604H13.2039C12.7847 42.6604 12.4449 43.0001 12.4449 43.4194V50.4818H9.42371V33.9113H42.5759V50.4819H39.4535V50.4818ZM50.3916 39.8708V50.4819H44.0941V39.8708H50.3916ZM7.90555 39.8708V50.4819H1.60801V39.8708H7.90555ZM7.32642 15.589V4.71794H44.6732V15.589H7.32642Z" fill="black"/>
<path d="M15.6024 7.85352H11.0931C10.6739 7.85352 10.334 8.19328 10.334 8.6126V12.5093C10.334 12.9286 10.6739 13.2684 11.0931 13.2684H15.6024C16.0216 13.2684 16.3615 12.9286 16.3615 12.5093V8.6126C16.3615 8.19338 16.0216 7.85352 15.6024 7.85352ZM14.8433 11.7502H11.8521V9.37168H14.8433V11.7502Z" fill="black"/>
<path d="M24.037 7.85352H19.5276C19.1084 7.85352 18.7686 8.19328 18.7686 8.6126V12.5093C18.7686 12.9286 19.1084 13.2684 19.5276 13.2684H24.037C24.4562 13.2684 24.7961 12.9286 24.7961 12.5093V8.6126C24.7961 8.19338 24.4562 7.85352 24.037 7.85352ZM23.2779 11.7502H20.2867V9.37168H23.2779V11.7502Z" fill="black"/>
<path d="M32.4717 7.85352H27.9622C27.5429 7.85352 27.2031 8.19328 27.2031 8.6126V12.5093C27.2031 12.9286 27.5429 13.2684 27.9622 13.2684H32.4717C32.891 13.2684 33.2307 12.9286 33.2307 12.5093V8.6126C33.2307 8.19338 32.891 7.85352 32.4717 7.85352ZM31.7126 11.7502H28.7213V9.37168H31.7126V11.7502Z" fill="black"/>
<path d="M40.9062 7.85352H36.3968C35.9775 7.85352 35.6377 8.19328 35.6377 8.6126V12.5093C35.6377 12.9286 35.9775 13.2684 36.3968 13.2684H40.9062C41.3255 13.2684 41.6653 12.9286 41.6653 12.5093V8.6126C41.6653 8.19338 41.3254 7.85352 40.9062 7.85352ZM40.1471 11.7502H37.1559V9.37168H40.1471V11.7502Z" fill="black"/>
</g>
<defs>
<clipPath id="clip0_1185_574">
<rect width="52" height="52" fill="white"/>
</clipPath>
</defs>
</svg>
