<svg width="56" height="56" viewBox="0 0 56 56" fill="none" xmlns="http://www.w3.org/2000/svg">
<g clip-path="url(#clip0_1185_685)">
<path d="M24.1719 14.8203H36.2031C36.8364 14.8203 37.3516 14.3052 37.3516 13.6719V4.8125C37.3516 4.17922 36.8364 3.66406 36.2031 3.66406H24.1719C23.5386 3.66406 23.0234 4.17922 23.0234 4.8125V13.6719C23.0234 14.3052 23.5386 14.8203 24.1719 14.8203ZM24.6641 5.30469H35.7109V13.1797H24.6641V5.30469Z" fill="black"/>
<path d="M33.4688 6.39844H26.9062C26.273 6.39844 25.7578 6.91359 25.7578 7.54688V10.9375C25.7578 11.5708 26.273 12.0859 26.9062 12.0859H33.4688C34.102 12.0859 34.6172 11.5708 34.6172 10.9375V7.54688C34.6172 6.91359 34.102 6.39844 33.4688 6.39844ZM32.9766 10.4453H27.3984V8.03906H32.9766V10.4453Z" fill="black"/>
<path d="M24.1719 33.3047H36.2031C36.8364 33.3047 37.3516 32.7895 37.3516 32.1562V17.3906C37.3516 16.7573 36.8364 16.2422 36.2031 16.2422H24.1719C23.5386 16.2422 23.0234 16.7573 23.0234 17.3906V32.1562C23.0234 32.7895 23.5386 33.3047 24.1719 33.3047ZM24.6641 17.8828H35.7109V31.6641H24.6641V17.8828Z" fill="black"/>
<path d="M39.9219 28.3828H51.9531C52.5864 28.3828 53.1016 27.8677 53.1016 27.2344V19.9062C53.1016 19.4531 52.7344 19.0859 52.2812 19.0859C51.8281 19.0859 51.4609 19.4531 51.4609 19.9062V26.7422H40.4141V12.9609H51.4609V16.0781C51.4609 16.5313 51.8281 16.8984 52.2812 16.8984C52.7344 16.8984 53.1016 16.5313 53.1016 16.0781V12.4688C53.1016 11.8355 52.5864 11.3203 51.9531 11.3203H39.9219C39.2886 11.3203 38.7734 11.8355 38.7734 12.4688V27.2344C38.7734 27.8677 39.2886 28.3828 39.9219 28.3828Z" fill="black"/>
<path d="M42.6562 14.0547C42.023 14.0547 41.5078 14.5698 41.5078 15.2031V24.5C41.5078 25.1333 42.023 25.6484 42.6562 25.6484H49.2188C49.852 25.6484 50.3672 25.1333 50.3672 24.5V15.2031C50.3672 14.5698 49.852 14.0547 49.2188 14.0547H42.6562ZM47.9386 15.6953L46.1248 18.1962L44.0659 15.6953H47.9386ZM43.1484 17.162L45.1294 19.5685L43.1484 22.2999V17.162ZM48.7266 24.0078H43.9364L48.7266 17.4032V24.0078Z" fill="black"/>
<path d="M54.6328 47.1953H52.1241L54.0766 39.0428C54.1746 38.6331 54.0813 38.2084 53.8205 37.8777C53.5595 37.547 53.1683 37.3572 52.7471 37.3572H52.5785C53.5502 36.0202 53.9124 34.3311 53.5455 32.6805C53.4486 32.2444 53.1042 31.8999 52.6682 31.8031C50.7138 31.3688 48.7027 31.9531 47.2894 33.3664C46.9948 33.661 46.7385 33.9828 46.5176 34.3234C46.2967 33.9825 46.0395 33.6611 45.7448 33.3664C44.3315 31.9533 42.3211 31.3688 40.366 31.8031C39.9303 31.8999 39.5859 32.2441 39.4886 32.6805C39.1219 34.3311 39.484 36.0202 40.4557 37.3572H40.2872C39.8659 37.3572 39.4746 37.5469 39.2138 37.8777C38.9529 38.2084 38.8596 38.6331 38.9576 39.0428L40.9102 47.1953H20.9339C21.2219 46.6791 21.4318 46.1103 21.5436 45.502L21.5789 45.3097C21.6525 44.9093 21.5453 44.5004 21.2848 44.1875C21.0243 43.8747 20.6414 43.6953 20.2343 43.6953H19.3022L21.5271 34.406C21.6252 33.9963 21.5318 33.5716 21.2709 33.2409C21.0101 32.9101 20.6188 32.7204 20.1975 32.7204H17.607C17.8377 32.1705 18.0543 31.6071 18.252 31.0295C19.511 27.3495 19.9023 23.6484 19.3538 20.608C19.2796 20.1969 18.9886 19.8579 18.5944 19.7229C18.2002 19.588 17.7624 19.6778 17.452 19.9574C16.6809 20.6517 15.9482 21.4704 15.267 22.3902C15.0196 19.1754 14.2507 16.2277 13.038 13.924C12.8383 13.5444 12.4483 13.3086 12.0203 13.3086C11.5923 13.3086 11.2023 13.5443 11.0025 13.9239C9.78983 16.2277 9.02092 19.1755 8.77352 22.3902C8.09233 21.4703 7.35962 20.6516 6.58853 19.9573C6.27812 19.6779 5.84052 19.5879 5.44622 19.7229C5.05203 19.8578 4.76098 20.1969 4.68683 20.608C4.13831 23.6484 4.52955 27.3495 5.78867 31.0295C5.98631 31.6071 6.20287 32.1705 6.43366 32.7204H3.843C3.4218 32.7204 3.03056 32.91 2.7697 33.2408C2.50873 33.5715 2.41533 33.9962 2.51344 34.4059V34.406L4.73812 43.6953H3.80614C3.39905 43.6953 3.01623 43.8746 2.7557 44.1873C2.49517 44.5002 2.38787 44.9092 2.46148 45.3096L2.49681 45.502C2.60859 46.1104 2.81859 46.6791 3.10658 47.1953H1.36719C0.613266 47.1953 0 47.8085 0 48.5625V50.9687C0 51.7226 0.613266 52.3359 1.36719 52.3359H41.0156C41.4688 52.3359 41.8359 51.9687 41.8359 51.5156C41.8359 51.0624 41.4688 50.6953 41.0156 50.6953H1.64062V48.8359H54.3594V50.6953H44.8438C44.3906 50.6953 44.0234 51.0624 44.0234 51.5156C44.0234 51.9687 44.3906 52.3359 44.8438 52.3359H54.6328C55.3867 52.3359 56 51.7226 56 50.9687V48.5625C56 47.8085 55.3867 47.1953 54.6328 47.1953ZM17.8712 21.8365C18.1379 24.4049 17.7247 27.5025 16.6997 30.4984C16.4386 31.2616 16.141 32.0046 15.8142 32.7203H12.6144C12.8221 31.6208 13.1141 30.5043 13.4915 29.4007C14.5166 26.4047 16.0871 23.7034 17.8712 21.8365ZM12.0202 15.5938C13.104 18.0782 13.7155 21.3218 13.7155 24.6721C13.7155 24.724 13.7142 24.7756 13.7139 24.8273C13.0669 26.0063 12.497 27.2872 12.0206 28.6396C11.5443 27.2868 10.9735 26.0064 10.3264 24.8273C10.3261 24.7755 10.3248 24.724 10.3248 24.6721C10.3249 21.3218 10.9364 18.0782 12.0202 15.5938ZM6.16919 21.8365C7.9532 23.7034 9.52383 26.4049 10.5488 29.4008C10.7933 30.1157 11.0018 30.836 11.1754 31.5537C11.0863 31.9447 11.0088 32.3335 10.9402 32.7203H8.2262C7.89939 32.0046 7.60189 31.2616 7.3407 30.4984C6.31575 27.5023 5.90242 24.4051 6.16919 21.8365ZM18.9103 47.1953H5.13013C4.64647 46.6909 4.29417 46.0549 4.13667 45.3359H12.3594C12.8124 45.3359 13.1797 44.9687 13.1797 44.5156C13.1797 44.0624 12.8124 43.6953 12.3594 43.6953H6.42523L4.18961 34.361H19.8508L17.6152 43.6953H16.1875C15.7345 43.6953 15.3672 44.0624 15.3672 44.5156C15.3672 44.9687 15.7345 45.3359 16.1875 45.3359H19.9036C19.7462 46.0549 19.3938 46.6909 18.9103 47.1953ZM48.4495 34.5266C49.3892 33.5867 50.6974 33.1576 52.0011 33.3475C52.1909 34.6513 51.7618 35.9595 50.8222 36.8991C50.6524 37.0689 50.4702 37.2215 50.2786 37.3572H47.2282C47.2569 36.3035 47.6833 35.2926 48.4495 34.5266ZM41.0329 33.3475C42.3364 33.1579 43.6449 33.5868 44.5846 34.5266C45.1258 35.0678 45.4966 35.7315 45.6784 36.4458C45.6247 36.7455 45.5954 37.0501 45.5894 37.3572H42.7547C42.5633 37.2216 42.3816 37.0687 42.212 36.8991C41.2722 35.9593 40.843 34.6509 41.0329 33.3475ZM42.5971 47.1953L40.6338 38.9978H52.4004L50.4371 47.1953H42.5971Z" fill="black"/>
<path d="M33.4688 18.9766H26.9062C26.273 18.9766 25.7578 19.4917 25.7578 20.125V29.4219C25.7578 30.0552 26.273 30.5703 26.9062 30.5703H33.4688C34.102 30.5703 34.6172 30.0552 34.6172 29.4219V20.125C34.6172 19.4917 34.102 18.9766 33.4688 18.9766ZM32.9766 28.9297H27.3984V27.7812H32.9766V28.9297ZM32.9766 26.1406H27.3984V20.6172H32.9766V26.1406Z" fill="black"/>
</g>
<defs>
<clipPath id="clip0_1185_685">
<rect width="56" height="56" fill="white"/>
</clipPath>
</defs>
</svg>
