<svg width="56" height="56" viewBox="0 0 56 56" fill="none" xmlns="http://www.w3.org/2000/svg">
<path d="M38.6607 48.4949C38.46 48.4949 38.2675 48.4151 38.1256 48.2732C37.9837 48.1313 37.9039 47.9388 37.9039 47.7381V7.53767L28.3128 3.51399L20.2586 6.68254V47.7381C20.2586 47.9388 20.1789 48.1313 20.037 48.2732C19.8951 48.4151 19.7026 48.4949 19.5019 48.4949C19.3012 48.4949 19.1087 48.4151 18.9668 48.2732C18.8248 48.1313 18.7451 47.9388 18.7451 47.7381V6.16643C18.7451 6.01439 18.7908 5.86585 18.8764 5.74018C18.962 5.61451 19.0834 5.51753 19.2249 5.46189L28.0449 1.99216C28.2284 1.91985 28.4328 1.92202 28.6147 1.99821L38.9535 6.3367C39.091 6.39438 39.2083 6.49137 39.2909 6.6155C39.3734 6.73963 39.4174 6.88537 39.4174 7.03443V47.7381C39.4174 47.9388 39.3377 48.1313 39.1958 48.2732C39.0539 48.4151 38.8614 48.4949 38.6607 48.4949Z" fill="black"/>
<path d="M28.3212 48.4944C28.1205 48.4944 27.928 48.4146 27.7861 48.2727C27.6442 48.1308 27.5645 47.9383 27.5645 47.7376V2.69621C27.5645 2.49551 27.6442 2.30302 27.7861 2.1611C27.928 2.01918 28.1205 1.93945 28.3212 1.93945C28.5219 1.93945 28.7144 2.01918 28.8563 2.1611C28.9982 2.30302 29.078 2.49551 29.078 2.69621V47.7376C29.078 47.9383 28.9982 48.1308 28.8563 48.2727C28.7144 48.4146 28.5219 48.4944 28.3212 48.4944Z" fill="black"/>
<path d="M50.8779 48.4951C50.6772 48.4951 50.4847 48.4154 50.3428 48.2734C50.2009 48.1315 50.1212 47.939 50.1212 47.7383V23.9535L42.7216 19.6483H38.6601C38.4594 19.6483 38.2669 19.5686 38.125 19.4266C37.983 19.2847 37.9033 19.0922 37.9033 18.8915C37.9033 18.6908 37.983 18.4983 38.125 18.3564C38.2669 18.2145 38.4594 18.1348 38.6601 18.1348H42.9259C43.0589 18.1352 43.1894 18.1707 43.3043 18.2377L51.2571 22.8645C51.3719 22.9308 51.4673 23.0261 51.5337 23.1408C51.6001 23.2556 51.6352 23.3858 51.6354 23.5183V47.7345C51.6359 47.8343 51.6167 47.9332 51.5788 48.0255C51.541 48.1178 51.4853 48.2017 51.4149 48.2724C51.3445 48.3431 51.2608 48.3991 51.1686 48.4373C51.0765 48.4756 50.9777 48.4952 50.8779 48.4951Z" fill="black"/>
<path d="M42.9267 48.4951C42.726 48.4951 42.5335 48.4154 42.3916 48.2734C42.2497 48.1315 42.1699 47.939 42.1699 47.7383V18.8915C42.1699 18.6908 42.2497 18.4983 42.3916 18.3564C42.5335 18.2145 42.726 18.1348 42.9267 18.1348C43.1274 18.1348 43.3199 18.2145 43.4618 18.3564C43.6037 18.4983 43.6834 18.6908 43.6834 18.8915V47.7383C43.6834 47.939 43.6037 48.1315 43.4618 48.2734C43.3199 48.4154 43.1274 48.4951 42.9267 48.4951Z" fill="black"/>
<path d="M3.95695 48.4948C3.75625 48.4948 3.56376 48.4151 3.42184 48.2732C3.27992 48.1312 3.2002 47.9388 3.2002 47.7381V24.1689C3.2002 23.9682 3.27992 23.7757 3.42184 23.6338C3.56376 23.4918 3.75625 23.4121 3.95695 23.4121H19.5015C19.7022 23.4121 19.8947 23.4918 20.0366 23.6338C20.1785 23.7757 20.2582 23.9682 20.2582 24.1689C20.2582 24.3696 20.1785 24.5621 20.0366 24.704C19.8947 24.8459 19.7022 24.9256 19.5015 24.9256H4.71371V47.7381C4.71371 47.9388 4.63398 48.1312 4.49206 48.2732C4.35014 48.4151 4.15766 48.4948 3.95695 48.4948Z" fill="black"/>
<path d="M8.12268 27.8319H6.51457C6.31386 27.8319 6.12138 27.7521 5.97946 27.6102C5.83754 27.4683 5.75781 27.2758 5.75781 27.0751C5.75781 26.8744 5.83754 26.6819 5.97946 26.54C6.12138 26.3981 6.31386 26.3184 6.51457 26.3184H8.12268C8.32338 26.3184 8.51587 26.3981 8.65779 26.54C8.7997 26.6819 8.87943 26.8744 8.87943 27.0751C8.87943 27.2758 8.7997 27.4683 8.65779 27.6102C8.51587 27.7521 8.32338 27.8319 8.12268 27.8319Z" fill="black"/>
<path d="M12.5346 27.8319H10.9257C10.725 27.8319 10.5325 27.7521 10.3906 27.6102C10.2487 27.4683 10.1689 27.2758 10.1689 27.0751C10.1689 26.8744 10.2487 26.6819 10.3906 26.54C10.5325 26.3981 10.725 26.3184 10.9257 26.3184H12.5346C12.7353 26.3184 12.9278 26.3981 13.0697 26.54C13.2116 26.6819 13.2913 26.8744 13.2913 27.0751C13.2913 27.2758 13.2116 27.4683 13.0697 27.6102C12.9278 27.7521 12.7353 27.8319 12.5346 27.8319Z" fill="black"/>
<path d="M16.944 27.8319H15.3359C15.1352 27.8319 14.9427 27.7521 14.8008 27.6102C14.6588 27.4683 14.5791 27.2758 14.5791 27.0751C14.5791 26.8744 14.6588 26.6819 14.8008 26.54C14.9427 26.3981 15.1352 26.3184 15.3359 26.3184H16.944C17.1447 26.3184 17.3372 26.3981 17.4791 26.54C17.621 26.6819 17.7007 26.8744 17.7007 27.0751C17.7007 27.2758 17.621 27.4683 17.4791 27.6102C17.3372 27.7521 17.1447 27.8319 16.944 27.8319Z" fill="black"/>
<path d="M8.12268 31.3827H6.51457C6.31386 31.3827 6.12138 31.3029 5.97946 31.161C5.83754 31.0191 5.75781 30.8266 5.75781 30.6259C5.75781 30.4252 5.83754 30.2327 5.97946 30.0908C6.12138 29.9489 6.31386 29.8691 6.51457 29.8691H8.12268C8.32338 29.8691 8.51587 29.9489 8.65779 30.0908C8.7997 30.2327 8.87943 30.4252 8.87943 30.6259C8.87943 30.8266 8.7997 31.0191 8.65779 31.161C8.51587 31.3029 8.32338 31.3827 8.12268 31.3827Z" fill="black"/>
<path d="M12.5346 31.3827H10.9257C10.725 31.3827 10.5325 31.3029 10.3906 31.161C10.2487 31.0191 10.1689 30.8266 10.1689 30.6259C10.1689 30.4252 10.2487 30.2327 10.3906 30.0908C10.5325 29.9489 10.725 29.8691 10.9257 29.8691H12.5346C12.7353 29.8691 12.9278 29.9489 13.0697 30.0908C13.2116 30.2327 13.2913 30.4252 13.2913 30.6259C13.2913 30.8266 13.2116 31.0191 13.0697 31.161C12.9278 31.3029 12.7353 31.3827 12.5346 31.3827Z" fill="black"/>
<path d="M16.944 31.3827H15.3359C15.1352 31.3827 14.9427 31.3029 14.8008 31.161C14.6588 31.0191 14.5791 30.8266 14.5791 30.6259C14.5791 30.4252 14.6588 30.2327 14.8008 30.0908C14.9427 29.9489 15.1352 29.8691 15.3359 29.8691H16.944C17.1447 29.8691 17.3372 29.9489 17.4791 30.0908C17.621 30.2327 17.7007 30.4252 17.7007 30.6259C17.7007 30.8266 17.621 31.0191 17.4791 31.161C17.3372 31.3029 17.1447 31.3827 16.944 31.3827Z" fill="black"/>
<path d="M8.12268 34.9334H6.51457C6.31386 34.9334 6.12138 34.8537 5.97946 34.7118C5.83754 34.5699 5.75781 34.3774 5.75781 34.1767C5.75781 33.976 5.83754 33.7835 5.97946 33.6416C6.12138 33.4997 6.31386 33.4199 6.51457 33.4199H8.12268C8.32338 33.4199 8.51587 33.4997 8.65779 33.6416C8.7997 33.7835 8.87943 33.976 8.87943 34.1767C8.87943 34.3774 8.7997 34.5699 8.65779 34.7118C8.51587 34.8537 8.32338 34.9334 8.12268 34.9334Z" fill="black"/>
<path d="M12.5346 34.9334H10.9257C10.725 34.9334 10.5325 34.8537 10.3906 34.7118C10.2487 34.5699 10.1689 34.3774 10.1689 34.1767C10.1689 33.976 10.2487 33.7835 10.3906 33.6416C10.5325 33.4997 10.725 33.4199 10.9257 33.4199H12.5346C12.7353 33.4199 12.9278 33.4997 13.0697 33.6416C13.2116 33.7835 13.2913 33.976 13.2913 34.1767C13.2913 34.3774 13.2116 34.5699 13.0697 34.7118C12.9278 34.8537 12.7353 34.9334 12.5346 34.9334Z" fill="black"/>
<path d="M16.944 34.9334H15.3359C15.1352 34.9334 14.9427 34.8537 14.8008 34.7118C14.6588 34.5699 14.5791 34.3774 14.5791 34.1767C14.5791 33.976 14.6588 33.7835 14.8008 33.6416C14.9427 33.4997 15.1352 33.4199 15.3359 33.4199H16.944C17.1447 33.4199 17.3372 33.4997 17.4791 33.6416C17.621 33.7835 17.7007 33.976 17.7007 34.1767C17.7007 34.3774 17.621 34.5699 17.4791 34.7118C17.3372 34.8537 17.1447 34.9334 16.944 34.9334Z" fill="black"/>
<path d="M8.12268 38.4862H6.51457C6.31386 38.4862 6.12138 38.4064 5.97946 38.2645C5.83754 38.1226 5.75781 37.9301 5.75781 37.7294C5.75781 37.5287 5.83754 37.3362 5.97946 37.1943C6.12138 37.0524 6.31386 36.9727 6.51457 36.9727H8.12268C8.32338 36.9727 8.51587 37.0524 8.65779 37.1943C8.7997 37.3362 8.87943 37.5287 8.87943 37.7294C8.87943 37.9301 8.7997 38.1226 8.65779 38.2645C8.51587 38.4064 8.32338 38.4862 8.12268 38.4862Z" fill="black"/>
<path d="M12.5346 38.4862H10.9257C10.725 38.4862 10.5325 38.4064 10.3906 38.2645C10.2487 38.1226 10.1689 37.9301 10.1689 37.7294C10.1689 37.5287 10.2487 37.3362 10.3906 37.1943C10.5325 37.0524 10.725 36.9727 10.9257 36.9727H12.5346C12.7353 36.9727 12.9278 37.0524 13.0697 37.1943C13.2116 37.3362 13.2913 37.5287 13.2913 37.7294C13.2913 37.9301 13.2116 38.1226 13.0697 38.2645C12.9278 38.4064 12.7353 38.4862 12.5346 38.4862Z" fill="black"/>
<path d="M16.944 38.4862H15.3359C15.1352 38.4862 14.9427 38.4064 14.8008 38.2645C14.6588 38.1226 14.5791 37.9301 14.5791 37.7294C14.5791 37.5287 14.6588 37.3362 14.8008 37.1943C14.9427 37.0524 15.1352 36.9727 15.3359 36.9727H16.944C17.1447 36.9727 17.3372 37.0524 17.4791 37.1943C17.621 37.3362 17.7007 37.5287 17.7007 37.7294C17.7007 37.9301 17.621 38.1226 17.4791 38.2645C17.3372 38.4064 17.1447 38.4862 16.944 38.4862Z" fill="black"/>
<path d="M8.12268 42.037H6.51457C6.31386 42.037 6.12138 41.9572 5.97946 41.8153C5.83754 41.6734 5.75781 41.4809 5.75781 41.2802C5.75781 41.0795 5.83754 40.887 5.97946 40.7451C6.12138 40.6032 6.31386 40.5234 6.51457 40.5234H8.12268C8.32338 40.5234 8.51587 40.6032 8.65779 40.7451C8.7997 40.887 8.87943 41.0795 8.87943 41.2802C8.87943 41.4809 8.7997 41.6734 8.65779 41.8153C8.51587 41.9572 8.32338 42.037 8.12268 42.037Z" fill="black"/>
<path d="M12.5346 42.037H10.9257C10.725 42.037 10.5325 41.9572 10.3906 41.8153C10.2487 41.6734 10.1689 41.4809 10.1689 41.2802C10.1689 41.0795 10.2487 40.887 10.3906 40.7451C10.5325 40.6032 10.725 40.5234 10.9257 40.5234H12.5346C12.7353 40.5234 12.9278 40.6032 13.0697 40.7451C13.2116 40.887 13.2913 41.0795 13.2913 41.2802C13.2913 41.4809 13.2116 41.6734 13.0697 41.8153C12.9278 41.9572 12.7353 42.037 12.5346 42.037Z" fill="black"/>
<path d="M16.944 42.037H15.3359C15.1352 42.037 14.9427 41.9572 14.8008 41.8153C14.6588 41.6734 14.5791 41.4809 14.5791 41.2802C14.5791 41.0795 14.6588 40.887 14.8008 40.7451C14.9427 40.6032 15.1352 40.5234 15.3359 40.5234H16.944C17.1447 40.5234 17.3372 40.6032 17.4791 40.7451C17.621 40.887 17.7007 41.0795 17.7007 41.2802C17.7007 41.4809 17.621 41.6734 17.4791 41.8153C17.3372 41.9572 17.1447 42.037 16.944 42.037Z" fill="black"/>
<path d="M8.12268 45.5877H6.51457C6.31386 45.5877 6.12138 45.508 5.97946 45.3661C5.83754 45.2242 5.75781 45.0317 5.75781 44.831C5.75781 44.6303 5.83754 44.4378 5.97946 44.2959C6.12138 44.1539 6.31386 44.0742 6.51457 44.0742H8.12268C8.32338 44.0742 8.51587 44.1539 8.65779 44.2959C8.7997 44.4378 8.87943 44.6303 8.87943 44.831C8.87943 45.0317 8.7997 45.2242 8.65779 45.3661C8.51587 45.508 8.32338 45.5877 8.12268 45.5877Z" fill="black"/>
<path d="M12.5346 45.5877H10.9257C10.725 45.5877 10.5325 45.508 10.3906 45.3661C10.2487 45.2242 10.1689 45.0317 10.1689 44.831C10.1689 44.6303 10.2487 44.4378 10.3906 44.2959C10.5325 44.1539 10.725 44.0742 10.9257 44.0742H12.5346C12.7353 44.0742 12.9278 44.1539 13.0697 44.2959C13.2116 44.4378 13.2913 44.6303 13.2913 44.831C13.2913 45.0317 13.2116 45.2242 13.0697 45.3661C12.9278 45.508 12.7353 45.5877 12.5346 45.5877Z" fill="black"/>
<path d="M16.944 45.5877H15.3359C15.1352 45.5877 14.9427 45.508 14.8008 45.3661C14.6588 45.2242 14.5791 45.0317 14.5791 44.831C14.5791 44.6303 14.6588 44.4378 14.8008 44.2959C14.9427 44.1539 15.1352 44.0742 15.3359 44.0742H16.944C17.1447 44.0742 17.3372 44.1539 17.4791 44.2959C17.621 44.4378 17.7007 44.6303 17.7007 44.831C17.7007 45.0317 17.621 45.2242 17.4791 45.3661C17.3372 45.508 17.1447 45.5877 16.944 45.5877Z" fill="black"/>
<path d="M25.6542 10.1036C25.4535 10.1036 25.261 10.0239 25.1191 9.88197C24.9772 9.74005 24.8975 9.54757 24.8975 9.34687V7.91887C24.8975 7.71816 24.9772 7.52568 25.1191 7.38376C25.261 7.24184 25.4535 7.16211 25.6542 7.16211C25.8549 7.16211 26.0474 7.24184 26.1893 7.38376C26.3312 7.52568 26.411 7.71816 26.411 7.91887V9.34687C26.411 9.54757 26.3312 9.74005 26.1893 9.88197C26.0474 10.0239 25.8549 10.1036 25.6542 10.1036Z" fill="black"/>
<path d="M22.203 10.9845C22.0023 10.9845 21.8099 10.9048 21.6679 10.7628C21.526 10.6209 21.4463 10.4284 21.4463 10.2277V8.79973C21.4463 8.59902 21.526 8.40654 21.6679 8.26462C21.8099 8.1227 22.0023 8.04297 22.203 8.04297C22.4038 8.04297 22.5962 8.1227 22.7382 8.26462C22.8801 8.40654 22.9598 8.59902 22.9598 8.79973V10.2277C22.9598 10.4284 22.8801 10.6209 22.7382 10.7628C22.5962 10.9048 22.4038 10.9845 22.203 10.9845Z" fill="black"/>
<path d="M25.6542 15.797C25.4535 15.797 25.261 15.7173 25.1191 15.5753C24.9772 15.4334 24.8975 15.2409 24.8975 15.0402V13.6122C24.8975 13.4115 24.9772 13.219 25.1191 13.0771C25.261 12.9352 25.4535 12.8555 25.6542 12.8555C25.8549 12.8555 26.0474 12.9352 26.1893 13.0771C26.3312 13.219 26.411 13.4115 26.411 13.6122V15.0402C26.411 15.2409 26.3312 15.4334 26.1893 15.5753C26.0474 15.7173 25.8549 15.797 25.6542 15.797Z" fill="black"/>
<path d="M22.203 16.6759C22.0023 16.6759 21.8099 16.5962 21.6679 16.4542C21.526 16.3123 21.4463 16.1198 21.4463 15.9191V14.4911C21.4463 14.2904 21.526 14.0979 21.6679 13.956C21.8099 13.8141 22.0023 13.7344 22.203 13.7344C22.4038 13.7344 22.5962 13.8141 22.7382 13.956C22.8801 14.0979 22.9598 14.2904 22.9598 14.4911V15.9191C22.9598 16.1198 22.8801 16.3123 22.7382 16.4542C22.5962 16.5962 22.4038 16.6759 22.203 16.6759Z" fill="black"/>
<path d="M25.6542 21.4914C25.4535 21.4914 25.261 21.4117 25.1191 21.2698C24.9772 21.1278 24.8975 20.9354 24.8975 20.7347V19.3036C24.8975 19.1029 24.9772 18.9104 25.1191 18.7685C25.261 18.6266 25.4535 18.5469 25.6542 18.5469C25.8549 18.5469 26.0474 18.6266 26.1893 18.7685C26.3312 18.9104 26.411 19.1029 26.411 19.3036V20.7347C26.411 20.9354 26.3312 21.1278 26.1893 21.2698C26.0474 21.4117 25.8549 21.4914 25.6542 21.4914Z" fill="black"/>
<path d="M22.203 22.3692C22.0023 22.3692 21.8099 22.2895 21.6679 22.1476C21.526 22.0057 21.4463 21.8132 21.4463 21.6125V20.1845C21.4463 19.9838 21.526 19.7913 21.6679 19.6494C21.8099 19.5075 22.0023 19.4277 22.203 19.4277C22.4038 19.4277 22.5962 19.5075 22.7382 19.6494C22.8801 19.7913 22.9598 19.9838 22.9598 20.1845V21.6125C22.9598 21.8132 22.8801 22.0057 22.7382 22.1476C22.5962 22.2895 22.4038 22.3692 22.203 22.3692Z" fill="black"/>
<path d="M25.6542 27.1798C25.4535 27.1798 25.261 27.1001 25.1191 26.9581C24.9772 26.8162 24.8975 26.6237 24.8975 26.423V24.995C24.8975 24.7943 24.9772 24.6019 25.1191 24.4599C25.261 24.318 25.4535 24.2383 25.6542 24.2383C25.8549 24.2383 26.0474 24.318 26.1893 24.4599C26.3312 24.6019 26.411 24.7943 26.411 24.995V26.423C26.411 26.6237 26.3312 26.8162 26.1893 26.9581C26.0474 27.1001 25.8549 27.1798 25.6542 27.1798Z" fill="black"/>
<path d="M22.203 28.0607C22.0023 28.0607 21.8099 27.9809 21.6679 27.839C21.526 27.6971 21.4463 27.5046 21.4463 27.3039V25.8759C21.4463 25.6752 21.526 25.4827 21.6679 25.3408C21.8099 25.1989 22.0023 25.1191 22.203 25.1191C22.4038 25.1191 22.5962 25.1989 22.7382 25.3408C22.8801 25.4827 22.9598 25.6752 22.9598 25.8759V27.3039C22.9598 27.5046 22.8801 27.6971 22.7382 27.839C22.5962 27.9809 22.4038 28.0607 22.203 28.0607Z" fill="black"/>
<path d="M25.6542 32.8732C25.4535 32.8732 25.261 32.7934 25.1191 32.6515C24.9772 32.5096 24.8975 32.3171 24.8975 32.1164V30.6884C24.8975 30.4877 24.9772 30.2952 25.1191 30.1533C25.261 30.0114 25.4535 29.9316 25.6542 29.9316C25.8549 29.9316 26.0474 30.0114 26.1893 30.1533C26.3312 30.2952 26.411 30.4877 26.411 30.6884V32.1164C26.411 32.3171 26.3312 32.5096 26.1893 32.6515C26.0474 32.7934 25.8549 32.8732 25.6542 32.8732Z" fill="black"/>
<path d="M22.203 33.7505C22.0023 33.7505 21.8099 33.6708 21.6679 33.5289C21.526 33.387 21.4463 33.1945 21.4463 32.9938V31.5673C21.4463 31.3666 21.526 31.1741 21.6679 31.0322C21.8099 30.8903 22.0023 30.8105 22.203 30.8105C22.4038 30.8105 22.5962 30.8903 22.7382 31.0322C22.8801 31.1741 22.9598 31.3666 22.9598 31.5673V32.9938C22.9598 33.1945 22.8801 33.387 22.7382 33.5289C22.5962 33.6708 22.4038 33.7505 22.203 33.7505Z" fill="black"/>
<path d="M25.6542 38.5646C25.4535 38.5646 25.261 38.4848 25.1191 38.3429C24.9772 38.201 24.8975 38.0085 24.8975 37.8078V36.3798C24.8975 36.1791 24.9772 35.9866 25.1191 35.8447C25.261 35.7028 25.4535 35.623 25.6542 35.623C25.8549 35.623 26.0474 35.7028 26.1893 35.8447C26.3312 35.9866 26.411 36.1791 26.411 36.3798V37.8078C26.411 38.0085 26.3312 38.201 26.1893 38.3429C26.0474 38.4848 25.8549 38.5646 25.6542 38.5646Z" fill="black"/>
<path d="M22.203 39.4454C22.0023 39.4454 21.8099 39.3657 21.6679 39.2238C21.526 39.0819 21.4463 38.8894 21.4463 38.6887V37.2607C21.4463 37.06 21.526 36.8675 21.6679 36.7256C21.8099 36.5836 22.0023 36.5039 22.203 36.5039C22.4038 36.5039 22.5962 36.5836 22.7382 36.7256C22.8801 36.8675 22.9598 37.06 22.9598 37.2607V38.6887C22.9598 38.8894 22.8801 39.0819 22.7382 39.2238C22.5962 39.3657 22.4038 39.4454 22.203 39.4454Z" fill="black"/>
<path d="M25.6542 44.2561C25.4535 44.2561 25.261 44.1764 25.1191 44.0344C24.9772 43.8925 24.8975 43.7 24.8975 43.4993V42.0751C24.8975 41.8744 24.9772 41.6819 25.1191 41.54C25.261 41.3981 25.4535 41.3184 25.6542 41.3184C25.8549 41.3184 26.0474 41.3981 26.1893 41.54C26.3312 41.6819 26.411 41.8744 26.411 42.0751V43.5031C26.41 43.7032 26.3298 43.8947 26.188 44.0358C26.0462 44.1769 25.8543 44.2561 25.6542 44.2561Z" fill="black"/>
<path d="M22.203 45.1376C22.0023 45.1376 21.8099 45.0579 21.6679 44.9159C21.526 44.774 21.4463 44.5815 21.4463 44.3808V42.9521C21.4463 42.7514 21.526 42.5589 21.6679 42.417C21.8099 42.275 22.0023 42.1953 22.203 42.1953C22.4038 42.1953 22.5962 42.275 22.7382 42.417C22.8801 42.5589 22.9598 42.7514 22.9598 42.9521V44.3801C22.9599 44.4795 22.9404 44.578 22.9024 44.6699C22.8644 44.7618 22.8087 44.8453 22.7384 44.9157C22.6681 44.986 22.5847 45.0418 22.4928 45.0799C22.401 45.118 22.3025 45.1376 22.203 45.1376Z" fill="black"/>
<path d="M30.8759 9.38336C30.6752 9.38336 30.4827 9.30363 30.3408 9.16171C30.1989 9.01979 30.1191 8.82731 30.1191 8.6266V7.20012C30.1191 6.99941 30.1989 6.80693 30.3408 6.66501C30.4827 6.52309 30.6752 6.44336 30.8759 6.44336C31.0766 6.44336 31.2691 6.52309 31.411 6.66501C31.5529 6.80693 31.6327 6.99941 31.6327 7.20012V8.6266C31.6327 8.82731 31.5529 9.01979 31.411 9.16171C31.2691 9.30363 31.0766 9.38336 30.8759 9.38336Z" fill="black"/>
<path d="M33.4316 10.349C33.2309 10.349 33.0384 10.2692 32.8965 10.1273C32.7545 9.98539 32.6748 9.79291 32.6748 9.5922V8.16496C32.6748 7.96426 32.7545 7.77177 32.8965 7.62985C33.0384 7.48793 33.2309 7.4082 33.4316 7.4082C33.6323 7.4082 33.8248 7.48793 33.9667 7.62985C34.1086 7.77177 34.1883 7.96426 34.1883 8.16496V9.59296C34.1881 9.79353 34.1083 9.98582 33.9664 10.1276C33.8245 10.2693 33.6321 10.349 33.4316 10.349Z" fill="black"/>
<path d="M35.9853 11.3119C35.7846 11.3119 35.5921 11.2321 35.4502 11.0902C35.3082 10.9483 35.2285 10.7558 35.2285 10.5551V9.12785C35.2285 8.92715 35.3082 8.73466 35.4502 8.59274C35.5921 8.45082 35.7846 8.37109 35.9853 8.37109C36.186 8.37109 36.3785 8.45082 36.5204 8.59274C36.6623 8.73466 36.742 8.92715 36.742 9.12785V10.5559C36.7418 10.7564 36.662 10.9487 36.5201 11.0905C36.3782 11.2322 36.1858 11.3119 35.9853 11.3119Z" fill="black"/>
<path d="M30.8759 15.059C30.6752 15.059 30.4827 14.9793 30.3408 14.8374C30.1989 14.6954 30.1191 14.503 30.1191 14.3023V12.872C30.1191 12.6713 30.1989 12.4788 30.3408 12.3369C30.4827 12.195 30.6752 12.1152 30.8759 12.1152C31.0766 12.1152 31.2691 12.195 31.411 12.3369C31.5529 12.4788 31.6327 12.6713 31.6327 12.872V14.3023C31.6327 14.503 31.5529 14.6954 31.411 14.8374C31.2691 14.9793 31.0766 15.059 30.8759 15.059Z" fill="black"/>
<path d="M33.4316 16.0208C33.2309 16.0208 33.0384 15.9411 32.8965 15.7992C32.7545 15.6573 32.6748 15.4648 32.6748 15.2641V13.8368C32.6748 13.6361 32.7545 13.4436 32.8965 13.3017C33.0384 13.1598 33.2309 13.0801 33.4316 13.0801C33.6323 13.0801 33.8248 13.1598 33.9667 13.3017C34.1086 13.4436 34.1883 13.6361 34.1883 13.8368V15.2641C34.1883 15.4648 34.1086 15.6573 33.9667 15.7992C33.8248 15.9411 33.6323 16.0208 33.4316 16.0208Z" fill="black"/>
<path d="M35.9853 16.9837C35.7846 16.9837 35.5921 16.904 35.4502 16.7621C35.3082 16.6202 35.2285 16.4277 35.2285 16.227V14.7997C35.2285 14.599 35.3082 14.4065 35.4502 14.2646C35.5921 14.1227 35.7846 14.043 35.9853 14.043C36.186 14.043 36.3785 14.1227 36.5204 14.2646C36.6623 14.4065 36.742 14.599 36.742 14.7997V16.2277C36.7418 16.4283 36.662 16.6206 36.5201 16.7623C36.3782 16.9041 36.1858 16.9837 35.9853 16.9837Z" fill="black"/>
<path d="M30.8759 20.7285C30.6752 20.7285 30.4827 20.6488 30.3408 20.5069C30.1989 20.3649 30.1191 20.1724 30.1191 19.9717V18.54C30.1191 18.3393 30.1989 18.1468 30.3408 18.0049C30.4827 17.8629 30.6752 17.7832 30.8759 17.7832C31.0766 17.7832 31.2691 17.8629 31.411 18.0049C31.5529 18.1468 31.6327 18.3393 31.6327 18.54V19.968C31.6332 20.0677 31.6139 20.1665 31.5761 20.2587C31.5383 20.351 31.4827 20.4348 31.4123 20.5055C31.342 20.5762 31.2584 20.6323 31.1664 20.6705C31.0743 20.7088 30.9756 20.7285 30.8759 20.7285Z" fill="black"/>
<path d="M33.4316 21.6935C33.2309 21.6935 33.0384 21.6137 32.8965 21.4718C32.7545 21.3299 32.6748 21.1374 32.6748 20.9367V19.5087C32.6748 19.308 32.7545 19.1155 32.8965 18.9736C33.0384 18.8317 33.2309 18.752 33.4316 18.752C33.6323 18.752 33.8248 18.8317 33.9667 18.9736C34.1086 19.1155 34.1883 19.308 34.1883 19.5087V20.9367C34.1883 21.1374 34.1086 21.3299 33.9667 21.4718C33.8248 21.6137 33.6323 21.6935 33.4316 21.6935Z" fill="black"/>
<path d="M35.9853 22.6556C35.7846 22.6556 35.5921 22.5759 35.4502 22.434C35.3082 22.292 35.2285 22.0995 35.2285 21.8988V20.4716C35.2285 20.2709 35.3082 20.0784 35.4502 19.9365C35.5921 19.7946 35.7846 19.7148 35.9853 19.7148C36.186 19.7148 36.3785 19.7946 36.5204 19.9365C36.6623 20.0784 36.742 20.2709 36.742 20.4716V21.8996C36.7418 22.1002 36.662 22.2925 36.5201 22.4342C36.3782 22.576 36.1858 22.6556 35.9853 22.6556Z" fill="black"/>
<path d="M30.8759 26.4005C30.6752 26.4005 30.4827 26.3208 30.3408 26.1789C30.1989 26.0369 30.1191 25.8444 30.1191 25.6437V24.2157C30.1191 24.015 30.1989 23.8226 30.3408 23.6806C30.4827 23.5387 30.6752 23.459 30.8759 23.459C31.0766 23.459 31.2691 23.5387 31.411 23.6806C31.5529 23.8226 31.6327 24.015 31.6327 24.2157V25.6437C31.6327 25.8444 31.5529 26.0369 31.411 26.1789C31.2691 26.3208 31.0766 26.4005 30.8759 26.4005Z" fill="black"/>
<path d="M33.4316 27.3653C33.2309 27.3653 33.0384 27.2856 32.8965 27.1437C32.7545 27.0018 32.6748 26.8093 32.6748 26.6086V25.1806C32.6748 24.9799 32.7545 24.7874 32.8965 24.6455C33.0384 24.5036 33.2309 24.4238 33.4316 24.4238C33.6323 24.4238 33.8248 24.5036 33.9667 24.6455C34.1086 24.7874 34.1883 24.9799 34.1883 25.1806V26.6086C34.1883 26.8093 34.1086 27.0018 33.9667 27.1437C33.8248 27.2856 33.6323 27.3653 33.4316 27.3653Z" fill="black"/>
<path d="M35.9853 28.3282C35.7846 28.3282 35.5921 28.2485 35.4502 28.1066C35.3082 27.9647 35.2285 27.7722 35.2285 27.5715V26.1435C35.2285 25.9428 35.3082 25.7503 35.4502 25.6084C35.5921 25.4664 35.7846 25.3867 35.9853 25.3867C36.186 25.3867 36.3785 25.4664 36.5204 25.6084C36.6623 25.7503 36.742 25.9428 36.742 26.1435V27.5715C36.742 27.7722 36.6623 27.9647 36.5204 28.1066C36.3785 28.2485 36.186 28.3282 35.9853 28.3282Z" fill="black"/>
<path d="M30.8759 32.0725C30.6752 32.0725 30.4827 31.9928 30.3408 31.8508C30.1989 31.7089 30.1191 31.5164 30.1191 31.3157V29.8915C30.1191 29.6908 30.1989 29.4983 30.3408 29.3564C30.4827 29.2145 30.6752 29.1348 30.8759 29.1348C31.0766 29.1348 31.2691 29.2145 31.411 29.3564C31.5529 29.4983 31.6327 29.6908 31.6327 29.8915V31.3195C31.6317 31.5196 31.5515 31.7111 31.4097 31.8522C31.2679 31.9933 31.0759 32.0725 30.8759 32.0725Z" fill="black"/>
<path d="M33.4316 33.0372C33.2309 33.0372 33.0384 32.9575 32.8965 32.8156C32.7545 32.6736 32.6748 32.4812 32.6748 32.2805V30.8525C32.6748 30.6518 32.7545 30.4593 32.8965 30.3174C33.0384 30.1754 33.2309 30.0957 33.4316 30.0957C33.6323 30.0957 33.8248 30.1754 33.9667 30.3174C34.1086 30.4593 34.1883 30.6518 34.1883 30.8525V32.2805C34.1883 32.4812 34.1086 32.6736 33.9667 32.8156C33.8248 32.9575 33.6323 33.0372 33.4316 33.0372Z" fill="black"/>
<path d="M35.9853 34.0001C35.7846 34.0001 35.5921 33.9204 35.4502 33.7785C35.3082 33.6365 35.2285 33.4441 35.2285 33.2434V31.8154C35.2285 31.6146 35.3082 31.4222 35.4502 31.2802C35.5921 31.1383 35.7846 31.0586 35.9853 31.0586C36.186 31.0586 36.3785 31.1383 36.5204 31.2802C36.6623 31.4222 36.742 31.6146 36.742 31.8154V33.2434C36.742 33.4441 36.6623 33.6365 36.5204 33.7785C36.3785 33.9204 36.186 34.0001 35.9853 34.0001Z" fill="black"/>
<path d="M30.8759 37.7442C30.6752 37.7442 30.4827 37.6645 30.3408 37.5226C30.1989 37.3807 30.1191 37.1882 30.1191 36.9875V35.5595C30.1191 35.3588 30.1989 35.1663 30.3408 35.0244C30.4827 34.8825 30.6752 34.8027 30.8759 34.8027C31.0766 34.8027 31.2691 34.8825 31.411 35.0244C31.5529 35.1663 31.6327 35.3588 31.6327 35.5595V36.9875C31.6327 37.1882 31.5529 37.3807 31.411 37.5226C31.2691 37.6645 31.0766 37.7442 30.8759 37.7442Z" fill="black"/>
<path d="M33.4316 38.7091C33.2309 38.7091 33.0384 38.6294 32.8965 38.4874C32.7545 38.3455 32.6748 38.153 32.6748 37.9523V36.5243C32.6748 36.3236 32.7545 36.1311 32.8965 35.9892C33.0384 35.8473 33.2309 35.7676 33.4316 35.7676C33.6323 35.7676 33.8248 35.8473 33.9667 35.9892C34.1086 36.1311 34.1883 36.3236 34.1883 36.5243V37.9523C34.1883 38.153 34.1086 38.3455 33.9667 38.4874C33.8248 38.6294 33.6323 38.7091 33.4316 38.7091Z" fill="black"/>
<path d="M35.9853 39.6739C35.7846 39.6739 35.5921 39.5942 35.4502 39.4523C35.3082 39.3104 35.2285 39.1179 35.2285 38.9172V37.4892C35.2285 37.2885 35.3082 37.096 35.4502 36.9541C35.5921 36.8122 35.7846 36.7324 35.9853 36.7324C36.186 36.7324 36.3785 36.8122 36.5204 36.9541C36.6623 37.096 36.742 37.2885 36.742 37.4892V38.9172C36.742 39.1179 36.6623 39.3104 36.5204 39.4523C36.3785 39.5942 36.186 39.6739 35.9853 39.6739Z" fill="black"/>
<path d="M30.8759 43.4161C30.6752 43.4161 30.4827 43.3364 30.3408 43.1945C30.1989 43.0526 30.1191 42.8601 30.1191 42.6594V41.2314C30.1191 41.0307 30.1989 40.8382 30.3408 40.6963C30.4827 40.5543 30.6752 40.4746 30.8759 40.4746C31.0766 40.4746 31.2691 40.5543 31.411 40.6963C31.5529 40.8382 31.6327 41.0307 31.6327 41.2314V42.6594C31.6327 42.8601 31.5529 43.0526 31.411 43.1945C31.2691 43.3364 31.0766 43.4161 30.8759 43.4161Z" fill="black"/>
<path d="M33.4316 44.381C33.2309 44.381 33.0384 44.3012 32.8965 44.1593C32.7545 44.0174 32.6748 43.8249 32.6748 43.6242V42.1962C32.6748 41.9955 32.7545 41.803 32.8965 41.6611C33.0384 41.5192 33.2309 41.4395 33.4316 41.4395C33.6323 41.4395 33.8248 41.5192 33.9667 41.6611C34.1086 41.803 34.1883 41.9955 34.1883 42.1962V43.6242C34.1883 43.8249 34.1086 44.0174 33.9667 44.1593C33.8248 44.3012 33.6323 44.381 33.4316 44.381Z" fill="black"/>
<path d="M35.9853 45.3458C35.7846 45.3458 35.5921 45.2661 35.4502 45.1242C35.3082 44.9822 35.2285 44.7898 35.2285 44.5891V43.1611C35.2285 42.9603 35.3082 42.7679 35.4502 42.6259C35.5921 42.484 35.7846 42.4043 35.9853 42.4043C36.186 42.4043 36.3785 42.484 36.5204 42.6259C36.6623 42.7679 36.742 42.9603 36.742 43.1611V44.5891C36.742 44.7898 36.6623 44.9822 36.5204 45.1242C36.3785 45.2661 36.186 45.3458 35.9853 45.3458Z" fill="black"/>
<path d="M45.5566 25.4641C45.3559 25.4641 45.1634 25.3844 45.0215 25.2425C44.8795 25.1006 44.7998 24.9081 44.7998 24.7074V23.9423C44.7998 23.7416 44.8795 23.5491 45.0215 23.4072C45.1634 23.2653 45.3559 23.1855 45.5566 23.1855C45.7573 23.1855 45.9498 23.2653 46.0917 23.4072C46.2336 23.5491 46.3133 23.7416 46.3133 23.9423V24.7074C46.3133 24.9081 46.2336 25.1006 46.0917 25.2425C45.9498 25.3844 45.7573 25.4641 45.5566 25.4641Z" fill="black"/>
<path d="M48.1073 27.0677C47.9066 27.0677 47.7142 26.9879 47.5722 26.846C47.4303 26.7041 47.3506 26.5116 47.3506 26.3109V25.5458C47.3506 25.3451 47.4303 25.1526 47.5722 25.0107C47.7142 24.8688 47.9066 24.7891 48.1073 24.7891C48.308 24.7891 48.5005 24.8688 48.6425 25.0107C48.7844 25.1526 48.8641 25.3451 48.8641 25.5458V26.3109C48.8641 26.5116 48.7844 26.7041 48.6425 26.846C48.5005 26.9879 48.308 27.0677 48.1073 27.0677Z" fill="black"/>
<path d="M45.5566 29.2017C45.3559 29.2017 45.1634 29.1219 45.0215 28.98C44.8795 28.8381 44.7998 28.6456 44.7998 28.4449V27.6806C44.7998 27.4799 44.8795 27.2874 45.0215 27.1455C45.1634 27.0036 45.3559 26.9238 45.5566 26.9238C45.7573 26.9238 45.9498 27.0036 46.0917 27.1455C46.2336 27.2874 46.3133 27.4799 46.3133 27.6806V28.4457C46.3131 28.6462 46.2333 28.8385 46.0914 28.9803C45.9495 29.122 45.7571 29.2017 45.5566 29.2017Z" fill="black"/>
<path d="M48.1073 30.8041C47.9066 30.8041 47.7142 30.7244 47.5722 30.5825C47.4303 30.4405 47.3506 30.2481 47.3506 30.0474V29.2861C47.3506 29.0853 47.4303 28.8929 47.5722 28.7509C47.7142 28.609 47.9066 28.5293 48.1073 28.5293C48.308 28.5293 48.5005 28.609 48.6425 28.7509C48.7844 28.8929 48.8641 29.0853 48.8641 29.2861V30.0511C48.8631 30.2512 48.7829 30.4427 48.6411 30.5838C48.4993 30.7249 48.3074 30.8041 48.1073 30.8041Z" fill="black"/>
<path d="M45.5566 32.9388C45.3559 32.9388 45.1634 32.859 45.0215 32.7171C44.8795 32.5752 44.7998 32.3827 44.7998 32.182V31.4169C44.7998 31.2162 44.8795 31.0237 45.0215 30.8818C45.1634 30.7399 45.3559 30.6602 45.5566 30.6602C45.7573 30.6602 45.9498 30.7399 46.0917 30.8818C46.2336 31.0237 46.3133 31.2162 46.3133 31.4169V32.182C46.3133 32.3827 46.2336 32.5752 46.0917 32.7171C45.9498 32.859 45.7573 32.9388 45.5566 32.9388Z" fill="black"/>
<path d="M48.1073 34.5423C47.9066 34.5423 47.7142 34.4625 47.5722 34.3206C47.4303 34.1787 47.3506 33.9862 47.3506 33.7855V33.0204C47.3506 32.8197 47.4303 32.6272 47.5722 32.4853C47.7142 32.3434 47.9066 32.2637 48.1073 32.2637C48.308 32.2637 48.5005 32.3434 48.6425 32.4853C48.7844 32.6272 48.8641 32.8197 48.8641 33.0204V33.7855C48.8641 33.9862 48.7844 34.1787 48.6425 34.3206C48.5005 34.4625 48.308 34.5423 48.1073 34.5423Z" fill="black"/>
<path d="M45.5566 36.677C45.3559 36.677 45.1634 36.5973 45.0215 36.4554C44.8795 36.3135 44.7998 36.121 44.7998 35.9203V35.1552C44.7998 34.9545 44.8795 34.762 45.0215 34.6201C45.1634 34.4782 45.3559 34.3984 45.5566 34.3984C45.7573 34.3984 45.9498 34.4782 46.0917 34.6201C46.2336 34.762 46.3133 34.9545 46.3133 35.1552V35.9203C46.3133 36.121 46.2336 36.3135 46.0917 36.4554C45.9498 36.5973 45.7573 36.677 45.5566 36.677Z" fill="black"/>
<path d="M48.1073 38.2786C47.9066 38.2786 47.7142 38.1989 47.5722 38.0569C47.4303 37.915 47.3506 37.7225 47.3506 37.5218V36.7568C47.3506 36.5561 47.4303 36.3636 47.5722 36.2217C47.7142 36.0797 47.9066 36 48.1073 36C48.308 36 48.5005 36.0797 48.6425 36.2217C48.7844 36.3636 48.8641 36.5561 48.8641 36.7568V37.5218C48.8641 37.7225 48.7844 37.915 48.6425 38.0569C48.5005 38.1989 48.308 38.2786 48.1073 38.2786Z" fill="black"/>
<path d="M45.5566 40.4103C45.3559 40.4103 45.1634 40.3306 45.0215 40.1887C44.8795 40.0468 44.7998 39.8543 44.7998 39.6536V38.8915C44.7998 38.6908 44.8795 38.4983 45.0215 38.3564C45.1634 38.2145 45.3559 38.1348 45.5566 38.1348C45.7573 38.1348 45.9498 38.2145 46.0917 38.3564C46.2336 38.4983 46.3133 38.6908 46.3133 38.8915V39.6536C46.3133 39.8543 46.2336 40.0468 46.0917 40.1887C45.9498 40.3306 45.7573 40.4103 45.5566 40.4103Z" fill="black"/>
<path d="M48.1073 42.0169C47.9066 42.0169 47.7142 41.9371 47.5722 41.7952C47.4303 41.6533 47.3506 41.4608 47.3506 41.2601V40.495C47.3506 40.2943 47.4303 40.1018 47.5722 39.9599C47.7142 39.818 47.9066 39.7383 48.1073 39.7383C48.308 39.7383 48.5005 39.818 48.6425 39.9599C48.7844 40.1018 48.8641 40.2943 48.8641 40.495V41.2601C48.8641 41.4608 48.7844 41.6533 48.6425 41.7952C48.5005 41.9371 48.308 42.0169 48.1073 42.0169Z" fill="black"/>
<path d="M45.5566 44.1516C45.3559 44.1516 45.1634 44.0719 45.0215 43.93C44.8795 43.7881 44.7998 43.5956 44.7998 43.3949V42.6298C44.7998 42.4291 44.8795 42.2366 45.0215 42.0947C45.1634 41.9528 45.3559 41.873 45.5566 41.873C45.7573 41.873 45.9498 41.9528 46.0917 42.0947C46.2336 42.2366 46.3133 42.4291 46.3133 42.6298V43.3949C46.3133 43.5956 46.2336 43.7881 46.0917 43.93C45.9498 44.0719 45.7573 44.1516 45.5566 44.1516Z" fill="black"/>
<path d="M48.1073 45.7532C47.9066 45.7532 47.7142 45.6735 47.5722 45.5316C47.4303 45.3896 47.3506 45.1971 47.3506 44.9964V44.2314C47.3506 44.0307 47.4303 43.8382 47.5722 43.6963C47.7142 43.5543 47.9066 43.4746 48.1073 43.4746C48.308 43.4746 48.5005 43.5543 48.6425 43.6963C48.7844 43.8382 48.8641 44.0307 48.8641 44.2314V44.9964C48.8641 45.1971 48.7844 45.3896 48.6425 45.5316C48.5005 45.6735 48.308 45.7532 48.1073 45.7532Z" fill="black"/>
<path d="M53.1479 48.4823H1.6884C1.48769 48.4823 1.29521 48.4025 1.15329 48.2606C1.01137 48.1187 0.931641 47.9262 0.931641 47.7255C0.931641 47.5248 1.01137 47.3323 1.15329 47.1904C1.29521 47.0485 1.48769 46.9688 1.6884 46.9688H53.1479C53.3486 46.9688 53.541 47.0485 53.683 47.1904C53.8249 47.3323 53.9046 47.5248 53.9046 47.7255C53.9046 47.9262 53.8249 48.1187 53.683 48.2606C53.541 48.4025 53.3486 48.4823 53.1479 48.4823Z" fill="black"/>
</svg>
