<svg width="56" height="56" viewBox="0 0 56 56" fill="none" xmlns="http://www.w3.org/2000/svg">
<g clip-path="url(#clip0_1185_571)">
<path d="M32.1529 12.9288C32.2644 13.0061 32.3952 13.0459 32.5273 13.0459C32.6044 13.0459 32.6821 13.0322 32.7565 13.0046L35.4138 12.0138C35.6706 11.9181 35.8408 11.6729 35.8408 11.3989V6.71429C35.8408 6.49357 35.7299 6.28783 35.5457 6.16632C35.3613 6.04491 35.1284 6.02402 34.9259 6.11119L32.2678 7.25165C32.0265 7.35511 31.8702 7.59235 31.8702 7.85485L31.871 12.3899C31.871 12.6049 31.9764 12.8061 32.1529 12.9288ZM34.5283 7.70993V10.9433L33.1833 11.4448L33.1828 8.28721L34.5283 7.70993ZM35.5668 13.7391C35.3951 13.6161 35.1745 13.5828 34.9738 13.6511L32.3164 14.5522C32.05 14.6424 31.871 14.8924 31.871 15.1737V20.0158C31.871 20.2212 31.9671 20.4147 32.1307 20.5387C32.2462 20.6262 32.3857 20.6721 32.5272 20.6721C32.5865 20.6721 32.6461 20.6641 32.7044 20.6477L35.3618 19.9023C35.6451 19.8228 35.8408 19.5645 35.8408 19.2704V14.2725C35.8408 14.0609 35.7388 13.8624 35.5668 13.7391ZM34.5283 18.7729L33.1835 19.1501V15.644L34.5283 15.1879V18.7729ZM35.6117 29.5213C35.4663 29.3965 35.274 29.3421 35.0844 29.3709L32.427 29.7814C32.1071 29.8308 31.871 30.1062 31.871 30.43V35.2721C31.871 35.4569 31.949 35.6335 32.0859 35.7577C32.2072 35.868 32.3648 35.9283 32.5272 35.9283C32.548 35.9283 32.569 35.9274 32.5898 35.9254L35.2471 35.6707C35.5838 35.6384 35.8408 35.3556 35.8408 35.0174V30.0195C35.8408 29.828 35.757 29.646 35.6117 29.5213ZM34.5283 34.4211L33.1835 34.55V30.9927L34.5283 30.785V34.4212V34.4211ZM35.5892 21.6313C35.4303 21.5068 35.2233 21.4624 35.0273 21.5108L32.3699 22.1665C32.0768 22.2388 31.871 22.5017 31.871 22.8036V27.6419C31.871 27.8371 31.9579 28.0224 32.1083 28.147C32.227 28.2454 32.3754 28.2981 32.5272 28.2981C32.5676 28.2981 32.6083 28.2944 32.6485 28.2868L35.3059 27.7867C35.6161 27.7283 35.8408 27.4574 35.8408 27.1418V22.1479C35.8408 21.9461 35.748 21.7558 35.5892 21.6313ZM34.5283 26.5976L33.1835 26.8507V23.3175L34.5283 22.9857V26.5975V26.5976ZM27.3613 29.0442C27.4801 29.1427 27.6285 29.1954 27.7803 29.1954C27.8206 29.1954 27.8612 29.1917 27.9014 29.1841L30.2604 28.7409C30.5707 28.6827 30.7956 28.4117 30.7956 28.096V23.39C30.7956 23.1883 30.7028 22.9978 30.544 22.8735C30.3853 22.749 30.178 22.7045 29.9823 22.7528L27.6233 23.3343C27.33 23.4064 27.1241 23.6694 27.1241 23.9714V28.5391C27.1241 28.7343 27.211 28.9196 27.3613 29.0442ZM28.4366 24.4855L29.4831 24.2276V27.5516L28.4366 27.7482V24.4855ZM27.7803 36.38C27.801 36.38 27.822 36.379 27.8429 36.377L30.2012 36.1513C30.5379 36.119 30.7949 35.8361 30.7949 35.498V30.8033C30.7949 30.6117 30.7113 30.4297 30.5659 30.3051C30.4205 30.1805 30.2283 30.1256 30.0387 30.1547L27.6804 30.5183C27.3602 30.5677 27.1241 30.8431 27.1241 31.1669V35.7237C27.1241 35.9086 27.2022 36.085 27.339 36.2093C27.4603 36.3196 27.6179 36.38 27.7803 36.38ZM28.4366 31.7297L29.4824 31.5683V34.9014L28.4366 35.0016V31.7297ZM27.3837 21.8739C27.4992 21.9615 27.6387 22.0073 27.7803 22.0073C27.8395 22.0073 27.8991 21.9993 27.9573 21.9829L30.3163 21.3221C30.5997 21.2427 30.7956 20.9844 30.7956 20.6902V15.9844C30.7956 15.7728 30.6936 15.5743 30.5217 15.4511C30.35 15.3279 30.1293 15.2948 29.9288 15.3628L27.5698 16.1618C27.3033 16.252 27.1241 16.5019 27.1241 16.7833V21.3512C27.1241 21.5565 27.2202 21.75 27.3837 21.874V21.8739ZM28.4366 17.2539L29.4831 16.8995V20.1926L28.4366 20.4857V17.2539ZM27.4055 14.6943C27.5171 14.7719 27.6481 14.8119 27.7804 14.8119C27.8572 14.8119 27.9344 14.7984 28.0085 14.771L30.3675 13.8962C30.6248 13.8007 30.7956 13.5554 30.7956 13.2809L30.7963 8.87696C30.7963 8.65635 30.6855 8.4505 30.5014 8.32899C30.3172 8.20758 30.0844 8.1868 29.8815 8.27364L27.5218 9.28514C27.2806 9.3885 27.1241 9.62574 27.1241 9.88835V14.1556C27.1241 14.3704 27.2292 14.5717 27.4055 14.6943ZM28.4366 10.3211L29.4836 9.87227L29.4832 12.8242L28.4366 13.2124V10.3211ZM8.19958 25.988C8.3118 26.0674 8.44447 26.1084 8.57845 26.1084C8.65206 26.1084 8.72611 26.0961 8.7972 26.0708L10.7173 25.3918C10.9795 25.2991 11.1548 25.0513 11.1548 24.7733L11.1553 21.1925C11.1553 20.9725 11.0453 20.7672 10.862 20.6457C10.6788 20.524 10.4468 20.5022 10.2443 20.5876L8.32372 21.3966C8.08036 21.4991 7.9222 21.7373 7.9222 22.0013V25.4522C7.9222 25.6653 8.02556 25.865 8.19958 25.988ZM9.2347 22.4369L9.84272 22.1808L9.84239 24.3091L9.2347 24.5239V22.4369ZM12.0821 24.6113C12.1942 24.6905 12.3266 24.7314 12.4604 24.7314C12.5344 24.7314 12.6088 24.7189 12.6805 24.6933L14.8918 23.9063C15.1534 23.8132 15.328 23.5657 15.328 23.2881V19.4303C15.328 19.2102 15.2176 19.0048 15.0341 18.8832C14.8503 18.7616 14.6181 18.7403 14.4157 18.8261L12.2043 19.7632C11.9616 19.8659 11.8041 20.1039 11.8041 20.3673V24.0752C11.8041 24.2884 11.9078 24.4884 12.0821 24.6113ZM13.1166 20.8019L14.0155 20.421V22.825L13.1166 23.145V20.8019ZM15.0863 31.6265C14.9333 31.5018 14.732 31.4527 14.5391 31.4925L12.3285 31.9487C12.0237 32.0116 11.8049 32.28 11.8049 32.5914V36.5484C11.8049 36.7381 11.8869 36.9185 12.03 37.0431C12.1503 37.1479 12.3037 37.2046 12.4612 37.2046C12.4909 37.2046 12.5209 37.2026 12.5507 37.1984L14.7613 36.8938C15.086 36.8491 15.328 36.5716 15.328 36.2438V32.1353C15.328 31.938 15.2392 31.7512 15.0863 31.6266V31.6265ZM14.0155 35.6718L13.1174 35.7955V33.1261L14.0155 32.9408V35.6719V35.6718ZM8.66748 37.733L10.5869 37.4702C10.9119 37.4257 11.1541 37.1481 11.1541 36.8201V32.994C11.1541 32.7968 11.0654 32.61 10.9126 32.4856C10.7598 32.3606 10.5586 32.3112 10.3659 32.3512L8.44644 32.7454C8.14128 32.8081 7.9222 33.0766 7.9222 33.3882V37.0829C7.9222 37.2725 8.00423 37.4528 8.14708 37.5774C8.26739 37.6823 8.42084 37.7392 8.57845 37.7392C8.60809 37.7392 8.63784 37.7371 8.66748 37.733ZM9.2347 33.9233L9.84163 33.7986V36.2475L9.2347 36.3306V33.9233ZM8.17366 31.7863C8.29025 31.8779 8.4332 31.9261 8.57845 31.9261C8.63084 31.9261 8.68334 31.9198 8.73519 31.9071L10.6546 31.435C10.9481 31.3629 11.1541 31.0999 11.1541 30.7978V26.9717C11.1541 26.7628 11.0546 26.5663 10.8862 26.4427C10.7177 26.319 10.5004 26.2828 10.301 26.3457L8.38158 26.9492C8.10814 27.0352 7.9222 27.2887 7.9222 27.5753V31.27C7.9222 31.4716 8.01495 31.6621 8.17366 31.7864V31.7863ZM9.2347 28.0567L9.84163 27.8659V30.2834L9.2347 30.4327V28.0567ZM15.0596 25.1244C14.8908 25.0008 14.6735 24.9649 14.474 25.028L12.2634 25.7267C11.9905 25.8129 11.805 26.0662 11.805 26.3525V30.3117C11.805 30.5134 11.8978 30.7039 12.0566 30.8283C12.1732 30.9197 12.316 30.968 12.4613 30.968C12.5137 30.968 12.5664 30.9616 12.6183 30.9489L14.8289 30.4044C15.1221 30.3321 15.3281 30.0691 15.3281 29.7671V25.6539C15.3281 25.4448 15.2285 25.2481 15.0597 25.1245L15.0596 25.1244ZM14.0155 29.2529L13.1174 29.4741V26.8332L14.0155 26.5492V29.2528V29.2529ZM54.7362 51.4051H50.8536V6.53666C50.8536 6.27394 50.6969 6.03649 50.4553 5.93324L37.9788 0.599785C37.8141 0.529238 37.6276 0.529238 37.4629 0.599785L24.9862 5.93324C24.7446 6.03638 24.5879 6.27383 24.5879 6.53666V15.8468L19.0526 13.4806C18.8879 13.41 18.7014 13.41 18.5367 13.4806L5.54461 19.0343C5.303 19.1374 5.14627 19.3749 5.14627 19.6377V51.4051H1.26367C0.901313 51.4051 0.607422 51.699 0.607422 52.0614V54.797C0.607422 55.1593 0.901313 55.4532 1.26367 55.4532H54.7362C55.0986 55.4532 55.3925 55.1593 55.3925 54.797V52.0614C55.3925 51.699 55.0986 51.4051 54.7362 51.4051ZM49.5411 51.4051H38.3771V2.19743L49.5411 6.96968V51.4051ZM37.0645 2.19743V51.4051H34.5785V40.9304L34.9249 40.8975C35.2858 40.8632 35.5504 40.5429 35.516 40.1821C35.4818 39.8212 35.1626 39.5566 34.8006 39.591L28.0399 40.2344C27.679 40.2687 27.4144 40.589 27.4488 40.9499C27.4811 41.2895 27.7669 41.544 28.1013 41.544C28.122 41.544 28.1431 41.543 28.1642 41.541L28.3864 41.5199V51.4053H25.9004V6.96979L37.0645 2.19743ZM33.266 41.0553V51.4051H29.699V41.3948L33.266 41.0553ZM24.5879 51.4051H19.4509V15.0782L24.5879 17.2741V51.4051ZM6.45877 20.0708L18.1384 15.0782V51.4051H15.3946V43.0085L15.7411 42.9755C16.1019 42.9413 16.3666 42.6209 16.3322 42.2601C16.2979 41.8992 15.9771 41.6337 15.6167 41.669L8.85605 42.3126C8.49522 42.3468 8.23053 42.6672 8.26498 43.028C8.29725 43.3676 8.58305 43.6221 8.91751 43.6221C8.9383 43.6221 8.9593 43.6211 8.98041 43.6192L9.20255 43.598V51.4052H6.45877V20.0708ZM14.0821 43.1335V51.4051H10.515V43.473L14.0821 43.1335ZM54.0799 54.1407H1.91992V52.7176H54.08V54.1407H54.0799ZM43.3027 48.6723V8.26861C43.3027 7.90625 43.5966 7.61236 43.959 7.61236C44.3213 7.61236 44.6152 7.90625 44.6152 8.26861V48.6723C44.6152 49.0346 44.3213 49.3285 43.959 49.3285C43.5966 49.3285 43.3027 49.0346 43.3027 48.6723ZM46.422 48.6723V9.602C46.422 9.23964 46.7159 8.94575 47.0782 8.94575C47.4406 8.94575 47.7345 9.23964 47.7345 9.602V48.6723C47.7345 49.0346 47.4406 49.3285 47.0782 49.3285C46.7159 49.3285 46.422 49.0346 46.422 48.6723ZM40.1837 48.6723V6.93533C40.1837 6.57297 40.4776 6.27908 40.8399 6.27908C41.2023 6.27908 41.4962 6.57297 41.4962 6.93533V48.6723C41.4962 49.0346 41.2023 49.3285 40.8399 49.3285C40.4776 49.3285 40.1837 49.0346 40.1837 48.6723Z" fill="black"/>
</g>
<defs>
<clipPath id="clip0_1185_571">
<rect width="56" height="56" fill="white"/>
</clipPath>
</defs>
</svg>
