<svg width="56" height="56" viewBox="0 0 56 56" fill="none" xmlns="http://www.w3.org/2000/svg">
<g clip-path="url(#clip0_1185_391)">
<path d="M42.8748 6.70642C42.8671 6.69767 42.8649 6.68674 42.8562 6.67908C42.8474 6.67142 42.8376 6.66814 42.8299 6.66049C40.7207 4.55773 37.8638 3.37695 34.8855 3.37695C31.9071 3.37695 29.0503 4.55773 26.941 6.66049C26.9323 6.66814 26.9224 6.67142 26.9137 6.67908C26.9049 6.68674 26.9039 6.69767 26.8962 6.70642C24.7932 8.81534 23.6123 11.6721 23.6123 14.6503C23.6123 17.6286 24.7932 20.4853 26.8962 22.5942C26.9039 22.603 26.9071 22.6139 26.9148 22.6227C26.9224 22.6314 26.9345 22.6325 26.9432 22.6413C28.1044 23.7912 29.5011 24.6756 31.0371 25.2335L27.7165 35.0203C27.6584 35.223 27.6805 35.4402 27.7783 35.627C27.8761 35.8137 28.042 35.9557 28.2417 36.0234C28.4413 36.091 28.6594 36.0793 28.8506 35.9904C29.0418 35.9016 29.1915 35.7426 29.2685 35.5464L32.6121 25.6928C34.1159 26.0027 35.6671 26.0027 37.1709 25.6928L39.6635 32.6699C39.7199 32.8297 39.8244 32.9681 39.9627 33.0661C40.101 33.164 40.2663 33.2166 40.4357 33.2167C40.5297 33.2168 40.623 33.2006 40.7114 33.1686C40.9161 33.0954 41.0834 32.9439 41.1765 32.7475C41.2696 32.551 41.2809 32.3256 41.2079 32.1208L38.747 25.2302C40.2782 24.6714 41.6703 23.7878 42.8278 22.6402C42.8365 22.6314 42.8474 22.6292 42.8551 22.6216C42.8628 22.6139 42.866 22.6019 42.8737 22.5931C44.9764 20.4841 46.1571 17.6274 46.1571 14.6492C46.1571 11.6711 44.9764 8.81439 42.8737 6.70533L42.8748 6.70642ZM42.2459 20.8519L36.8657 15.4706H44.476C44.3086 17.4524 43.5288 19.3331 42.2448 20.8519H42.2459ZM35.7053 24.2425V16.6311L41.0854 22.0113C39.5666 23.2953 37.686 24.075 35.7042 24.2425H35.7053ZM28.6845 22.0113L34.0646 16.6311V24.2425C32.083 24.0746 30.2025 23.2949 28.6834 22.0113H28.6845ZM25.2939 15.4706H32.9053L27.5251 20.8519C26.2413 19.3328 25.4612 17.4524 25.2928 15.4706H25.2939ZM27.5251 8.44986L32.9053 13.83H25.2928C25.4607 11.8487 26.2404 9.96852 27.524 8.44986H27.5251ZM35.7053 5.05924C37.687 5.22627 39.5676 6.00566 41.0865 7.28939L35.7053 12.6706V5.05924ZM34.0646 12.6706L28.6845 7.28939C30.203 6.00581 32.0833 5.22642 34.0646 5.05924V12.6706ZM36.8657 13.83L42.2459 8.44986C43.5296 9.96835 44.309 11.8487 44.476 13.83H36.8657Z" fill="black"/>
<path d="M50.2158 40.5986H49.5989V29.0048C49.6537 29.0232 49.7068 29.0462 49.7575 29.0737C49.938 29.1927 50.1581 29.2356 50.3701 29.1932C50.582 29.1508 50.7687 29.0264 50.8894 28.8472C51.0102 28.6679 51.0553 28.4482 51.015 28.2358C50.9747 28.0235 50.8522 27.8356 50.6741 27.7131C50.5549 27.6321 47.6914 25.7859 44.105 30.3107C44.0856 30.3355 44.0677 30.3614 44.0514 30.3884C44.0066 30.4606 39.4982 37.594 32.4271 37.594C30.0904 37.6117 27.8049 36.9098 25.881 35.5837C25.8382 35.5483 25.792 35.5171 25.7432 35.4907C23.5797 33.9879 21.8057 31.8048 20.2088 29.3581C20.1946 29.334 20.1793 29.3111 20.1629 29.2881C20.1464 29.2651 20.1475 29.264 20.1388 29.252L20.5282 28.7675C20.91 28.2886 21.1374 27.7052 21.1804 27.0942C21.2233 26.4833 21.0798 25.8738 20.7688 25.3462L19.8774 23.8445C19.8224 23.7518 19.7497 23.6709 19.6634 23.6064C19.5771 23.5418 19.4789 23.495 19.3744 23.4685C19.27 23.4419 19.1613 23.4363 19.0547 23.4518C18.9481 23.4674 18.8455 23.5038 18.753 23.559L17.2852 24.434L17.2557 24.3804L17.7118 23.8226C18.0977 23.3476 18.3304 22.7666 18.379 22.1565C18.4276 21.5464 18.2899 20.9359 17.9841 20.4057L17.1091 18.8986C16.9999 18.7105 16.8204 18.5735 16.6102 18.5177C16.3999 18.4619 16.1761 18.4919 15.988 18.6011L14.7554 19.3186L14.9741 18.9696C15.2997 18.4511 15.4601 17.8458 15.4339 17.234C15.4077 16.6223 15.1963 16.0329 14.8275 15.544L13.7732 14.155C13.7079 14.0691 13.6263 13.997 13.533 13.9427C13.4398 13.8885 13.3368 13.8532 13.2299 13.8389C13.123 13.8245 13.0143 13.8315 12.9101 13.8592C12.8058 13.887 12.7081 13.9351 12.6225 14.0007L11.2214 15.0617L11.3221 14.0839C11.3528 13.4724 11.1973 12.8659 10.876 12.3447C10.5548 11.8235 10.0829 11.412 9.52285 11.1646L7.92488 10.4668C7.72559 10.3799 7.49993 10.3757 7.29751 10.455C7.09509 10.5344 6.93246 10.6909 6.84535 10.8901L5.92879 12.9857C5.87957 12.9857 5.83254 12.9857 5.78223 12.9857C5.56467 12.9857 5.35602 13.0722 5.20218 13.226C5.04834 13.3798 4.96191 13.5885 4.96191 13.8061C4.96191 14.0236 5.04834 14.2323 5.20218 14.3861C5.35602 14.5399 5.56467 14.6264 5.78223 14.6264C6.18369 14.627 6.58373 14.674 6.97441 14.7664V40.5986H5.78223C5.56467 40.5986 5.35602 40.685 5.20218 40.8388C5.04834 40.9927 4.96191 41.2013 4.96191 41.4189C4.96191 41.6364 5.04834 41.8451 5.20218 41.9989C5.35602 42.1528 5.56467 42.2392 5.78223 42.2392H50.2158C50.4334 42.2392 50.642 42.1528 50.7959 41.9989C50.9497 41.8451 51.0361 41.6364 51.0361 41.4189C51.0361 41.2013 50.9497 40.9927 50.7959 40.8388C50.642 40.685 50.4334 40.5986 50.2158 40.5986ZM45.4186 31.294C46.4096 30.0504 47.2704 29.4346 47.9583 29.1426V40.5986H43.7496V33.4695C44.3588 32.7864 44.9166 32.0593 45.4186 31.294ZM42.1089 35.1375V40.5986H37.8893V37.9845C39.4299 37.2511 40.8522 36.2915 42.1089 35.1375ZM36.2541 38.6276V40.5964H32.0344V39.2215C32.1657 39.2215 32.2936 39.2325 32.4271 39.2325C33.7246 39.2306 35.0139 39.0265 36.2486 38.6276H36.2541ZM30.3993 40.5964H26.1796V37.6761C27.4909 38.388 28.9175 38.8634 30.3938 39.0804L30.3993 40.5964ZM24.5444 36.6326V40.5964H20.3247V32.3604C21.5694 34 22.9519 35.4743 24.5389 36.6348L24.5444 36.6326ZM14.4699 22.7792C14.8319 23.4125 15.1972 24.0632 15.5636 24.725C16.548 26.475 17.5619 28.2873 18.6786 30.0121V40.5986H14.4699V22.7792ZM18.8864 25.3889L19.3589 26.1829C19.4999 26.4227 19.565 26.6996 19.5454 26.977C19.5259 27.2545 19.4228 27.5195 19.2496 27.7371L19.2179 27.7776C18.8361 27.1465 18.4621 26.5056 18.0935 25.8603L18.8864 25.3889ZM16.1018 20.4309L16.5655 21.2293C16.7049 21.4701 16.7678 21.7476 16.746 22.025C16.7241 22.3023 16.6184 22.5665 16.443 22.7825L16.3927 22.8437C16.0219 22.1875 15.6522 21.54 15.2793 20.91L16.1018 20.4309ZM12.9616 15.8L13.5205 16.535C13.688 16.7573 13.7839 17.0254 13.7956 17.3035C13.8074 17.5816 13.7343 17.8568 13.5861 18.0925L13.5347 18.1756C13.1086 17.5632 12.6515 16.9729 12.1654 16.407L12.9616 15.8ZM8.02004 12.3L8.86551 12.6696C9.11496 12.7778 9.32642 12.9581 9.47277 13.1873C9.61911 13.4164 9.69368 13.6841 9.68691 13.9559L9.66504 14.1615C9.03314 13.7473 8.34153 13.4323 7.61426 13.2275L8.02004 12.3ZM8.61504 15.4357C9.02848 15.6874 9.41834 15.9758 9.77988 16.2976C9.79738 16.314 9.81707 16.3293 9.83676 16.3446C10.0205 16.5087 10.1999 16.6848 10.3836 16.8675C10.4011 16.8839 10.4175 16.9025 10.435 16.9178C11.2696 17.7818 12.0582 18.8504 12.8347 20.0536V40.5986H8.61504V15.4357Z" fill="black"/>
<path d="M34.7433 2.80891C35.0447 2.80891 35.3392 2.71955 35.5898 2.55214C35.8403 2.38472 36.0356 2.14677 36.1509 1.86837C36.2663 1.58997 36.2964 1.28362 36.2376 0.988075C36.1789 0.692527 36.0337 0.421048 35.8207 0.20797C35.6076 -0.00510889 35.3361 -0.150217 35.0406 -0.209005C34.745 -0.267793 34.4387 -0.237621 34.1603 -0.122304C33.8819 -0.00698663 33.6439 0.188296 33.4765 0.43885C33.3091 0.689404 33.2197 0.983975 33.2197 1.28531C33.2197 1.48539 33.2591 1.68352 33.3357 1.86837C33.4123 2.05322 33.5245 2.22118 33.666 2.36266C33.8075 2.50414 33.9754 2.61636 34.1603 2.69293C34.3451 2.7695 34.5432 2.80891 34.7433 2.80891Z" fill="black"/>
<path d="M33.376 27.8989C33.3758 28.1975 33.4641 28.4895 33.6299 28.7379C33.7957 28.9863 34.0314 29.1799 34.3072 29.2943C34.5831 29.4086 34.8867 29.4386 35.1795 29.3804C35.4724 29.3222 35.7415 29.1784 35.9526 28.9673C36.1638 28.7561 36.3076 28.4871 36.3658 28.1942C36.424 27.9013 36.394 27.5977 36.2796 27.3219C36.1652 27.046 35.9716 26.8103 35.7232 26.6445C35.4749 26.4788 35.1829 26.3904 34.8843 26.3906C34.4842 26.3906 34.1006 26.5495 33.8177 26.8324C33.5349 27.1152 33.376 27.4989 33.376 27.8989Z" fill="black"/>
<path d="M28.0597 4.59992C28.3611 4.59992 28.6556 4.51057 28.9062 4.34315C29.1567 4.17574 29.352 3.93778 29.4673 3.65938C29.5827 3.38098 29.6128 3.07464 29.554 2.77909C29.4953 2.48354 29.3501 2.21206 29.1371 1.99898C28.924 1.78591 28.6525 1.6408 28.357 1.58201C28.0614 1.52322 27.7551 1.55339 27.4767 1.66871C27.1983 1.78403 26.9603 1.97931 26.7929 2.22987C26.6255 2.48042 26.5361 2.77499 26.5361 3.07633C26.536 3.27645 26.5753 3.47464 26.6518 3.65955C26.7283 3.84447 26.8406 4.01249 26.9821 4.15399C27.1236 4.2955 27.2916 4.40772 27.4765 4.48424C27.6614 4.56076 27.8596 4.60007 28.0597 4.59992Z" fill="black"/>
<path d="M23.1603 9.49641C24.0018 9.49641 24.6839 8.81427 24.6839 7.97281C24.6839 7.13135 24.0018 6.44922 23.1603 6.44922C22.3189 6.44922 21.6367 7.13135 21.6367 7.97281C21.6367 8.81427 22.3189 9.49641 23.1603 9.49641Z" fill="black"/>
<path d="M28.1822 27.6145C29.0158 27.6145 29.6916 26.9387 29.6916 26.1051C29.6916 25.2715 29.0158 24.5957 28.1822 24.5957C27.3486 24.5957 26.6729 25.2715 26.6729 26.1051C26.6729 26.9387 27.3486 27.6145 28.1822 27.6145Z" fill="black"/>
<path d="M41.4531 4.57647C41.7541 4.57495 42.0479 4.48431 42.2975 4.31598C42.547 4.14765 42.7411 3.90917 42.8553 3.63064C42.9694 3.35211 42.9985 3.04601 42.9388 2.75097C42.8792 2.45593 42.7335 2.18516 42.5201 1.97285C42.3067 1.76054 42.0352 1.61619 41.7399 1.55802C41.4446 1.49985 41.1386 1.53046 40.8607 1.646C40.5827 1.76154 40.3452 1.95682 40.1781 2.20721C40.011 2.4576 39.9219 2.75186 39.9219 3.05287C39.9219 3.2536 39.9615 3.45235 40.0386 3.6377C40.1156 3.82305 40.2285 3.99135 40.3708 4.13293C40.5131 4.27451 40.682 4.38658 40.8677 4.46269C41.0535 4.53881 41.2524 4.57747 41.4531 4.57647Z" fill="black"/>
<path d="M41.4533 24.6953C41.1519 24.6953 40.8574 24.7847 40.6068 24.9521C40.3563 25.1195 40.161 25.3575 40.0457 25.6359C39.9303 25.9143 39.9002 26.2206 39.959 26.5161C40.0178 26.8117 40.1629 27.0832 40.3759 27.2962C40.589 27.5093 40.8605 27.6544 41.156 27.7132C41.4516 27.772 41.7579 27.7418 42.0363 27.6265C42.3147 27.5112 42.5527 27.3159 42.7201 27.0654C42.8875 26.8148 42.9769 26.5202 42.9769 26.2189C42.9769 25.8148 42.8164 25.4273 42.5306 25.1416C42.2449 24.8558 41.8574 24.6953 41.4533 24.6953Z" fill="black"/>
<path d="M46.6182 14.6349C46.6182 14.9363 46.7075 15.2308 46.8749 15.4814C47.0424 15.7319 47.2803 15.9272 47.5587 16.0425C47.8371 16.1579 48.1434 16.188 48.439 16.1292C48.7345 16.0705 49.006 15.9253 49.2191 15.7123C49.4322 15.4992 49.5773 15.2277 49.6361 14.9322C49.6949 14.6366 49.6647 14.3303 49.5494 14.0519C49.4341 13.7735 49.2388 13.5355 48.9882 13.3681C48.7377 13.2007 48.4431 13.1113 48.1418 13.1113C47.7377 13.1113 47.3501 13.2718 47.0644 13.5576C46.7787 13.8433 46.6182 14.2308 46.6182 14.6349Z" fill="black"/>
<path d="M21.6366 16.1613C21.9352 16.1609 22.227 16.0719 22.475 15.9056C22.723 15.7393 22.9161 15.5031 23.0299 15.227C23.1437 14.9509 23.173 14.6473 23.1142 14.3545C23.0553 14.0618 22.911 13.793 22.6993 13.5823C22.4877 13.3717 22.2184 13.2285 21.9254 13.1709C21.6323 13.1133 21.3288 13.144 21.0532 13.2589C20.7776 13.3739 20.5423 13.5681 20.3771 13.8168C20.2119 14.0655 20.1241 14.3577 20.125 14.6563C20.1262 15.0563 20.286 15.4394 20.5694 15.7216C20.8528 16.0037 21.2366 16.1619 21.6366 16.1613Z" fill="black"/>
<path d="M46.3498 9.47102C46.6511 9.47102 46.9457 9.38166 47.1962 9.21424C47.4468 9.04683 47.6421 8.80888 47.7574 8.53048C47.8727 8.25208 47.9029 7.94573 47.8441 7.65018C47.7853 7.35464 47.6402 7.08316 47.4271 6.87008C47.214 6.657 46.9426 6.51189 46.647 6.4531C46.3515 6.39432 46.0451 6.42449 45.7667 6.53981C45.4883 6.65512 45.2504 6.85041 45.0829 7.10096C44.9155 7.35151 44.8262 7.64608 44.8262 7.94742C44.8262 8.3515 44.9867 8.73904 45.2724 9.02477C45.5582 9.3105 45.9457 9.47102 46.3498 9.47102Z" fill="black"/>
<path d="M21.9023 21.275C21.9023 21.5735 21.9909 21.8653 22.1567 22.1136C22.3226 22.3618 22.5583 22.5552 22.8341 22.6695C23.1099 22.7837 23.4134 22.8136 23.7062 22.7554C23.999 22.6971 24.2679 22.5534 24.479 22.3423C24.6901 22.1312 24.8339 21.8623 24.8921 21.5695C24.9503 21.2767 24.9204 20.9732 24.8062 20.6974C24.692 20.4216 24.4985 20.1859 24.2503 20.02C24.0021 19.8541 23.7102 19.7656 23.4117 19.7656C23.0114 19.7656 22.6275 19.9246 22.3444 20.2077C22.0614 20.4908 21.9023 20.8747 21.9023 21.275Z" fill="black"/>
<path d="M46.3498 22.846C46.6513 22.846 46.9461 22.7565 47.1968 22.5889C47.4475 22.4212 47.6428 22.1829 47.7579 21.9042C47.8731 21.6255 47.9029 21.3189 47.8437 21.0232C47.7844 20.7275 47.6388 20.456 47.4252 20.2431C47.2115 20.0303 46.9396 19.8856 46.6436 19.8274C46.3477 19.7693 46.0412 19.8002 45.7629 19.9164C45.4846 20.0325 45.247 20.2287 45.0803 20.4799C44.9135 20.7312 44.8251 21.0263 44.8262 21.3279C44.8276 21.731 44.9888 22.1172 45.2744 22.4017C45.5599 22.6862 45.9466 22.846 46.3498 22.846Z" fill="black"/>
</g>
<defs>
<clipPath id="clip0_1185_391">
<rect width="56" height="56" fill="white"/>
</clipPath>
</defs>
</svg>
