<svg width="32" height="32" viewBox="0 0 32 32" fill="none" xmlns="http://www.w3.org/2000/svg">
<path d="M31.3312 24.8687C31.3312 26.1124 30.325 27.1187 29.0812 27.1187H2.91875C1.675 27.1187 0.668747 26.1124 0.668747 24.8687C0.668747 23.6249 1.675 22.6187 2.91875 22.6187H29.0812C30.325 22.6124 31.3312 23.6249 31.3312 24.8687Z" fill="#FFB800"/>
<path d="M29.9688 22.1V20.3625C29.9688 14.0437 25.725 8.475 19.5063 6.85L19.275 5.76875C19.0812 4.86875 18.2688 4.21875 17.35 4.21875H14.65C13.7312 4.21875 12.925 4.86875 12.725 5.76875L12.4937 6.85C6.38125 8.44375 2.03125 13.9375 2.03125 20.3625V22.1C0.85625 22.4813 0 23.5688 0 24.8687C0 26.4812 1.3125 27.7875 2.91875 27.7875H29.0812C30.6937 27.7875 32 26.475 32 24.8687C32 23.5688 31.1437 22.4813 29.9688 22.1ZM3.3625 20.3625C3.3625 17.0937 4.61875 13.9937 6.85 11.6562V17.4125C6.85 17.7812 7.15 18.0812 7.51875 18.0812C7.8875 18.0812 8.1875 17.7812 8.1875 17.4125V10.4438C9.375 9.50625 10.7312 8.7875 12.175 8.325L10.9625 13.9688C10.8875 14.3313 11.1125 14.6812 11.475 14.7625C11.8313 14.8375 12.1875 14.6125 12.2688 14.25L14.0375 6.05C14.1 5.7625 14.3625 5.55 14.6562 5.55H17.3563C17.65 5.55 17.9125 5.7625 17.975 6.05L19.7437 14.25C19.8188 14.6062 20.175 14.8375 20.5375 14.7625C20.9 14.6875 21.125 14.3313 21.05 13.9688L19.8375 8.325C21.2812 8.7875 22.6438 9.50625 23.825 10.4438V17.4062C23.825 17.775 24.125 18.075 24.4937 18.075C24.8625 18.075 25.1625 17.775 25.1625 17.4062V11.65C27.3938 13.9875 28.65 17.0875 28.65 20.3625V21.9375H3.3625V20.3625ZM29.0812 26.45H2.91875C2.04375 26.45 1.33125 25.7375 1.33125 24.8625C1.33125 23.9875 2.04375 23.275 2.91875 23.275H29.0812C29.9562 23.275 30.6688 23.9875 30.6688 24.8625C30.6688 25.7437 29.9562 26.45 29.0812 26.45Z" fill="black"/>
</svg>
