<svg width="24" height="24" viewBox="0 0 24 24" fill="none" xmlns="http://www.w3.org/2000/svg">
<g clip-path="url(#clip0_446_18556)">
<path d="M12.001 18.9074C8.78564 18.9581 6.35751 15.6746 7.32754 12.6166C7.40981 12.344 7.69748 12.1898 7.97015 12.272C8.24278 12.3542 8.39704 12.642 8.31478 12.9146C7.55081 15.3263 9.46458 17.9162 12.001 17.876C14.537 17.9162 16.4518 15.3262 15.6872 12.9145C15.6049 12.6419 15.7592 12.3542 16.0319 12.2719C16.3046 12.1896 16.5922 12.3439 16.6745 12.6166C17.6437 15.6747 15.2168 18.9581 12.001 18.9074Z" fill="black"/>
<path d="M13.2617 24H10.7397C10.4797 24 10.2603 23.8064 10.228 23.5483L10.0173 21.8628C9.25852 21.6714 8.53669 21.3719 7.86333 20.9692L6.52134 22.0129C6.31608 22.1726 6.02405 22.1544 5.84016 21.9706L4.0568 20.1872C3.87295 20.0033 3.85472 19.7113 4.01437 19.506L5.05814 18.164C4.65539 17.4908 4.35586 16.7688 4.16452 16.01L2.47903 15.7993C2.22098 15.7671 2.02734 15.5477 2.02734 15.2877V12.7656C2.02734 12.4809 2.2582 12.25 2.54297 12.25C2.82773 12.25 3.05859 12.4809 3.05859 12.7656V14.8325L4.6508 15.0315C4.87036 15.0589 5.04792 15.2234 5.09213 15.4402C5.27227 16.3243 5.61708 17.1555 6.117 17.9107C6.23916 18.0953 6.22992 18.3372 6.09408 18.5119L5.10788 19.7799L6.2475 20.9195L7.51547 19.9333C7.69017 19.7974 7.93205 19.7882 8.11664 19.9103C8.87189 20.4102 9.70312 20.755 10.5872 20.9353C10.8039 20.9795 10.9684 21.157 10.9958 21.3766L11.1949 22.9688H12.8066L13.0056 21.3766C13.033 21.157 13.1975 20.9794 13.4143 20.9353C14.2984 20.7552 15.1296 20.4104 15.8847 19.9104C16.0693 19.7882 16.3112 19.7974 16.4859 19.9333L17.754 20.9195L18.8936 19.7799L17.9074 18.5119C17.7715 18.3372 17.7622 18.0953 17.8844 17.9108C18.3843 17.1555 18.7291 16.3243 18.9093 15.4402C18.9535 15.2234 19.131 15.059 19.3506 15.0315L20.9428 14.8325V12.7656C20.9428 12.4809 21.1737 12.25 21.4584 12.25C21.7432 12.25 21.9741 12.4809 21.9741 12.7656V15.2877C21.9741 15.5477 21.7804 15.7671 21.5224 15.7993L19.8369 16.01C19.6455 16.7688 19.346 17.4908 18.9433 18.164L19.9871 19.506C20.1467 19.7113 20.1285 20.0033 19.9447 20.1872L18.1613 21.9706C17.9774 22.1545 17.6854 22.1726 17.4801 22.013L16.1381 20.9692C15.4649 21.372 14.7429 21.6715 13.9841 21.8629L13.7734 23.5484C13.7411 23.8064 13.5217 24 13.2617 24Z" fill="black"/>
<path d="M23.4853 12.2031H23.15L22.4592 8.83392C22.41 8.59406 22.199 8.42189 21.9541 8.42189H21.4869C20.7472 4.98047 18.1866 2.20045 14.8135 1.18055V0.515625C14.8135 0.230859 14.5826 0 14.2979 0H9.7041C9.41934 0 9.18848 0.230859 9.18848 0.515625V1.18055C5.8154 2.20045 3.25476 4.98042 2.51502 8.42189H2.04787C1.80299 8.42189 1.59191 8.59411 1.54274 8.83392L0.851992 12.2031H0.516602C0.231836 12.2031 0.000976562 12.434 0.000976562 12.7187C0.000976562 13.0035 0.231836 13.2344 0.516602 13.2344H23.4853C24.1602 13.2112 24.1782 12.2345 23.4853 12.2031ZM9.18848 2.26378V3.57816C9.18848 3.86292 9.41934 4.09378 9.7041 4.09378C9.98887 4.09378 10.2197 3.86292 10.2197 3.57816V1.03125H13.7822V3.57816C13.7822 3.86292 14.0131 4.09378 14.2979 4.09378C14.5826 4.09378 14.8135 3.86292 14.8135 3.57816V2.26378C17.6099 3.22111 19.734 5.54831 20.4294 8.42189H3.57252C4.26791 5.54831 6.39201 3.22111 9.18848 2.26378ZM2.46848 9.45314H2.9392H21.0585C21.0599 9.45323 21.0613 9.45323 21.0628 9.45314H21.5335L22.0973 12.2032H1.90471L2.46848 9.45314Z" fill="#E69515"/>
</g>
<defs>
<clipPath id="clip0_446_18556">
<rect width="24" height="24" fill="white"/>
</clipPath>
</defs>
</svg>
