<svg width="40" height="40" viewBox="0 0 40 40" fill="none" xmlns="http://www.w3.org/2000/svg">
<g clip-path="url(#clip0_793_2235)">
<path d="M31.6736 31.8897C31.3334 31.6295 30.847 31.6948 30.5871 32.0349C30.3271 32.375 30.3921 32.8615 30.7322 33.1214L32.0569 34.1338C32.1969 34.2409 32.3625 34.2931 32.5272 34.2931C32.7392 34.2931 32.9498 34.2065 33.1021 34.0384L35.634 31.2427C35.9213 30.9254 35.8971 30.4352 35.5798 30.1479C35.2625 29.8605 34.7723 29.8848 34.4849 30.202L32.4317 32.4692L31.6736 31.8897Z" fill="white"/>
<path d="M39.9047 27.7525C39.8959 27.3573 39.591 27.0322 39.1973 26.9978C37.3533 26.8366 35.0842 25.5979 33.4162 23.8423C33.2698 23.6884 33.0668 23.6012 32.8544 23.6011C32.8544 23.6011 32.8543 23.6011 32.8542 23.6011C32.642 23.6011 32.439 23.6881 32.2926 23.8419C31.5439 24.6289 30.6748 25.3116 29.778 25.8403C28.2043 24.0835 26.2674 22.7892 23.9972 21.9745C23.9775 21.9665 23.9575 21.9594 23.937 21.953C23.7602 21.8904 23.5813 21.8306 23.4005 21.7737C25.3203 19.859 26.6117 17.3427 26.6117 15.0854V13.8676C27.5192 13.4724 28.1557 12.5666 28.1557 11.5145C28.1557 10.4217 27.4678 9.48692 26.5026 9.11911C26.1041 5.2511 23.379 1.99955 19.6356 0.92381C19.525 0.396948 19.0569 0 18.4977 0H15.6888C15.1495 0 14.6961 0.369586 14.5653 0.868542C12.7239 1.35959 11.042 2.40773 9.78104 3.86499C8.50114 5.34411 7.70522 7.19127 7.50307 9.1195C6.53732 9.48754 5.84923 10.422 5.84923 11.5146C5.84923 12.5671 6.48663 13.4731 7.3954 13.8681V15.0855C7.3954 17.3407 8.68701 19.8579 10.6068 21.7739C10.4312 21.8291 10.2574 21.8869 10.0855 21.9475C10.0517 21.9571 10.0189 21.969 9.98685 21.983C7.44594 22.8996 5.32462 24.4169 3.66334 26.5121C2.06563 28.5273 0.929819 31.0159 0.28754 33.9093C0.0589515 34.9434 -0.112974 36.2428 0.592092 37.1207C1.2808 37.9783 2.51312 38.0882 3.50987 38.0882H8.58043C9.00854 38.0882 9.35557 37.7411 9.35557 37.3131C9.35557 36.885 9.00854 36.5379 8.58043 36.5379H3.50987C2.58257 36.5379 2.00757 36.4074 1.80084 36.15C1.58187 35.8773 1.58202 35.236 1.80107 34.2446C2.60668 30.616 4.57646 26.1756 9.3224 23.9337C9.17644 26.5524 10.5953 28.264 11.4972 29.3504C11.6353 29.5167 11.8365 29.6178 12.0524 29.6293C12.2681 29.6413 12.4791 29.5618 12.634 29.4111L17.0025 25.1627L21.3732 29.4112C21.5182 29.5521 21.7121 29.6305 21.9134 29.6305C21.9273 29.6305 21.9412 29.6301 21.9552 29.6293C22.1711 29.6177 22.3724 29.5164 22.5104 29.3498C23.411 28.2625 24.8278 26.5499 24.6832 23.9367C26.06 24.5899 27.2765 25.4634 28.3227 26.5515C27.698 26.7933 27.0838 26.9478 26.511 26.9978C26.1175 27.0322 25.8128 27.357 25.8036 27.752C25.7387 30.5233 26.2006 32.5088 27.4503 34.8328C27.4609 34.8525 27.8832 35.6095 28.5412 36.5381H15.598C15.1699 36.5381 14.8229 36.8852 14.8229 37.3132C14.8229 37.7412 15.1699 38.0884 15.598 38.0884H29.7722C30.7068 39.1211 31.8089 40.0002 32.8541 40.0002C35.3758 40.0002 38.2302 34.8845 38.2576 34.8333C39.5053 32.509 39.967 30.5238 39.9047 27.7525ZM24.9203 8.95176H20.6526C19.8463 6.84548 19.6937 5.10863 19.6664 2.55896C22.4622 3.54781 24.4947 6.01476 24.9203 8.95176ZM16.076 1.55028H18.1104C18.1153 4.55068 18.1914 6.58278 19.0036 8.95176H15.1844C15.9952 6.58271 16.0712 4.55037 16.076 1.55028ZM14.5209 2.49781C14.4953 5.08103 14.3471 6.82858 13.5358 8.95184H9.08637C9.52851 5.97662 11.6673 3.44278 14.5209 2.49781ZM8.41424 10.502H13.5998C13.6454 10.5391 13.6896 10.5438 13.7267 10.502H25.5929C26.1512 10.502 26.6054 10.9562 26.6054 11.5146C26.6054 12.0742 26.1513 12.5294 25.5929 12.5294H8.41424C7.85475 12.5294 7.39951 12.0742 7.39951 11.5146C7.39951 10.9563 7.85467 10.502 8.41424 10.502ZM8.94568 15.0855V14.0796H25.0613V15.0855C25.0613 18.0408 22.1983 21.6958 18.9343 22.9074C17.5061 23.4382 16.4922 23.4377 15.0607 22.9057C11.8031 21.6891 8.94568 18.0348 8.94568 15.0855ZM12.1627 27.7069C11.3604 26.6596 10.5879 25.2845 10.9592 23.2884C11.3011 23.178 11.6544 23.0773 12.0207 22.9883C12.8024 23.5617 13.6454 24.0321 14.5194 24.3585C14.8007 24.463 15.0714 24.5491 15.3362 24.6207L12.1627 27.7069ZM21.8437 27.7065L18.6682 24.6198C18.9296 24.5489 19.1967 24.4638 19.4741 24.3607C20.3524 24.0347 21.1995 23.5634 21.9848 22.9881C22.3467 23.0762 22.7005 23.1759 23.0458 23.2877C23.4179 25.281 22.6457 26.6575 21.8437 27.7065ZM36.8914 34.1005C35.9748 35.8113 33.828 38.4497 32.8541 38.4497C31.8802 38.4497 29.7335 35.8113 28.8163 34.0994C27.7919 32.1947 27.3716 30.6064 27.3488 28.4438C28.185 28.2846 29.0556 27.9726 29.9116 27.5368C29.9417 27.5237 29.971 27.5083 29.9998 27.491C30.9994 26.9715 31.977 26.2838 32.8538 25.4666C34.5047 27.0068 36.5146 28.093 38.3588 28.4438C38.3344 30.6068 37.9141 32.1954 36.8914 34.1005Z" fill="white"/>
<path d="M12.0896 36.5371C11.6615 36.5371 11.3145 36.8842 11.3145 37.3122C11.3145 37.7403 11.6615 38.0874 12.0896 38.0874H12.094C12.5221 38.0874 12.8669 37.7403 12.8669 37.3122C12.8669 36.8842 12.5177 36.5371 12.0896 36.5371Z" fill="white"/>
</g>
<defs>
<clipPath id="clip0_793_2235">
<rect width="40" height="40" fill="white"/>
</clipPath>
</defs>
</svg>
