<svg width="40" height="40" viewBox="0 0 40 40" fill="none" xmlns="http://www.w3.org/2000/svg">
<g clip-path="url(#clip0_793_2209)">
<path d="M15.3365 5.57117H11.7907C11.6457 5.57117 11.5066 5.62879 11.404 5.73135C11.3014 5.83391 11.2438 5.97301 11.2438 6.11805V8.7693C11.2438 8.91434 11.3014 9.05344 11.404 9.156C11.5066 9.25855 11.6457 9.31617 11.7907 9.31617H15.3365C15.4815 9.31617 15.6206 9.25855 15.7232 9.156C15.8257 9.05344 15.8834 8.91434 15.8834 8.7693V6.11805C15.8834 5.97301 15.8257 5.83391 15.7232 5.73135C15.6206 5.62879 15.4815 5.57117 15.3365 5.57117ZM14.7896 8.22242H12.3376V6.66492H14.7896V8.22242ZM15.3365 10.9966H11.7907C11.6457 10.9966 11.5066 11.0543 11.404 11.1568C11.3014 11.2594 11.2438 11.3985 11.2438 11.5435V14.1948C11.2438 14.3398 11.3014 14.4789 11.404 14.5815C11.5066 14.684 11.6457 14.7416 11.7907 14.7416H15.3365C15.4815 14.7416 15.6206 14.684 15.7232 14.5815C15.8257 14.4789 15.8834 14.3398 15.8834 14.1948V11.5435C15.8834 11.3985 15.8257 11.2594 15.7232 11.1568C15.6206 11.0543 15.4815 10.9966 15.3365 10.9966ZM14.7896 13.6479H12.3376V12.0904H14.7896V13.6479ZM15.3365 16.4221H11.7907C11.6457 16.4221 11.5066 16.4797 11.404 16.5823C11.3014 16.6848 11.2438 16.8239 11.2438 16.969V19.6202C11.2438 19.7652 11.3014 19.9043 11.404 20.0069C11.5066 20.1094 11.6457 20.167 11.7907 20.167H15.3365C15.4815 20.167 15.6206 20.1094 15.7232 20.0069C15.8257 19.9043 15.8834 19.7652 15.8834 19.6202V16.969C15.8834 16.8239 15.8257 16.6848 15.7232 16.5823C15.6206 16.4797 15.4815 16.4221 15.3365 16.4221ZM14.7896 19.0733H12.3376V17.5159H14.7896V19.0733ZM21.6047 5.57117H18.0588C17.9138 5.57117 17.7747 5.62879 17.6721 5.73135C17.5696 5.83391 17.512 5.97301 17.512 6.11805V8.7693C17.512 8.91434 17.5696 9.05344 17.6721 9.156C17.7747 9.25855 17.9138 9.31617 18.0588 9.31617H21.6047C21.7497 9.31617 21.8888 9.25855 21.9914 9.156C22.0939 9.05344 22.1516 8.91434 22.1516 8.7693V6.11805C22.1516 5.97301 22.0939 5.83391 21.9914 5.73135C21.8888 5.62879 21.7497 5.57117 21.6047 5.57117ZM21.0578 8.22242H18.6057V6.66492H21.0578V8.22242ZM21.6047 10.9966H18.0588C17.9138 10.9966 17.7747 11.0543 17.6721 11.1568C17.5696 11.2594 17.512 11.3985 17.512 11.5435V14.1948C17.512 14.3398 17.5696 14.4789 17.6721 14.5815C17.7747 14.684 17.9138 14.7416 18.0588 14.7416H21.6047C21.7497 14.7416 21.8888 14.684 21.9914 14.5815C22.0939 14.4789 22.1516 14.3398 22.1516 14.1948V11.5435C22.1516 11.3985 22.0939 11.2594 21.9914 11.1568C21.8888 11.0543 21.7497 10.9966 21.6047 10.9966ZM21.0578 13.6479H18.6057V12.0904H21.0578V13.6479ZM21.6047 16.4221H18.0588C17.9138 16.4221 17.7747 16.4797 17.6721 16.5823C17.5696 16.6848 17.512 16.8239 17.512 16.969V19.6202C17.512 19.7652 17.5696 19.9043 17.6721 20.0069C17.7747 20.1094 17.9138 20.167 18.0588 20.167H21.6047C21.7497 20.167 21.8888 20.1094 21.9914 20.0069C22.0939 19.9043 22.1516 19.7652 22.1516 19.6202V16.969C22.1516 16.8239 22.0939 16.6848 21.9914 16.5823C21.8888 16.4797 21.7497 16.4221 21.6047 16.4221ZM21.0578 19.0733H18.6057V17.5159H21.0578V19.0733ZM27.8727 5.57117H24.3269C24.1818 5.57117 24.0427 5.62879 23.9402 5.73135C23.8376 5.83391 23.78 5.97301 23.78 6.11805V8.7693C23.78 8.91434 23.8376 9.05344 23.9402 9.156C24.0427 9.25855 24.1818 9.31617 24.3269 9.31617H27.8727C28.0178 9.31617 28.1569 9.25855 28.2594 9.156C28.362 9.05344 28.4196 8.91434 28.4196 8.7693V6.11805C28.4196 5.97301 28.362 5.83391 28.2594 5.73135C28.1569 5.62879 28.0178 5.57117 27.8727 5.57117ZM27.3259 8.22242H24.8737V6.66492H27.3259V8.22242ZM27.8727 10.9966H24.3269C24.1818 10.9966 24.0427 11.0543 23.9402 11.1568C23.8376 11.2594 23.78 11.3985 23.78 11.5435V14.1948C23.78 14.3398 23.8376 14.4789 23.9402 14.5815C24.0427 14.684 24.1818 14.7416 24.3269 14.7416H27.8727C28.0178 14.7416 28.1569 14.684 28.2594 14.5815C28.362 14.4789 28.4196 14.3398 28.4196 14.1948V11.5435C28.4196 11.3985 28.362 11.2594 28.2594 11.1568C28.1569 11.0543 28.0178 10.9966 27.8727 10.9966ZM27.3259 13.6479H24.8737V12.0904H27.3259V13.6479ZM29.8088 24.6563C29.6933 24.723 29.5985 24.8203 29.5348 24.9376C29.4712 25.0548 29.4413 25.1873 29.4483 25.3205C29.4554 25.4537 29.4991 25.5824 29.5748 25.6922C29.6504 25.8021 29.755 25.8889 29.8769 25.943L31.9039 26.8422C32.0581 26.9105 32.2262 26.9414 32.3945 26.9325C32.5629 26.9235 32.7268 26.8749 32.8728 26.7906C33.0188 26.7063 33.1428 26.5887 33.2348 26.4473C33.3267 26.306 33.384 26.1449 33.4019 25.9773L33.6362 23.7724C33.6504 23.6398 33.6275 23.5058 33.5702 23.3854C33.5129 23.265 33.4234 23.1627 33.3116 23.09C33.1998 23.0173 33.07 22.9769 32.9367 22.9734C32.8034 22.9699 32.6717 23.0033 32.5562 23.07L32.52 23.0909L31.1724 20.756C31.045 20.5334 30.8573 20.3514 30.6309 20.2309C30.4046 20.1103 30.1488 20.0562 29.893 20.0748L27.9393 20.2154C27.7745 20.2214 27.6137 20.2681 27.4712 20.3513C27.3288 20.4345 27.2092 20.5517 27.123 20.6923L24.8365 24.3697C24.6998 24.5891 24.6559 24.8538 24.7144 25.1056C24.7729 25.3574 24.929 25.5756 25.1484 25.7123L26.1159 26.3152C26.2698 26.4117 26.4478 26.4629 26.6295 26.463C26.7044 26.4629 26.779 26.4543 26.8519 26.4373C26.9768 26.4086 27.0949 26.3554 27.1991 26.2807C27.3034 26.2061 27.3918 26.1115 27.4592 26.0024L29.103 23.3506L29.8452 24.6355L29.8088 24.6563ZM26.593 25.3238L25.8274 24.8472L27.9794 21.3859L28.4836 22.2738L26.593 25.3238ZM29.5953 22.0157L29.1462 21.2251L29.9684 21.166C30.0198 21.1626 30.071 21.1736 30.1164 21.1978C30.1618 21.222 30.1995 21.2584 30.2252 21.303L31.8466 24.1115C31.9079 24.2176 32.003 24.3001 32.1168 24.3457C32.2305 24.3913 32.3563 24.3974 32.4739 24.363L32.3177 25.8293L30.9698 25.2313C31.0584 25.1467 31.116 25.0347 31.1333 24.9134C31.1507 24.7921 31.1268 24.6685 31.0655 24.5623L29.5953 22.0157ZM37.3531 31.2423L35.3178 27.4197C35.1963 27.1917 34.9893 27.0212 34.7422 26.9456C34.4952 26.87 34.2282 26.8954 33.9999 27.0163L32.993 27.5513C32.7648 27.6729 32.5943 27.8801 32.5188 28.1274C32.4433 28.3747 32.469 28.6419 32.5902 28.8702L34.0602 31.6223L32.5763 31.6198V31.578C32.5765 31.4446 32.5398 31.3138 32.4703 31.2C32.4007 31.0863 32.3011 30.9939 32.1823 30.9333C32.0636 30.8726 31.9303 30.846 31.7974 30.8564C31.6645 30.8668 31.537 30.9137 31.4291 30.992L29.6347 32.2948C29.4983 32.3939 29.3872 32.5238 29.3105 32.6739C29.2339 32.8241 29.1937 32.9903 29.1935 33.1589C29.1932 33.3275 29.2327 33.4937 29.3089 33.6442C29.385 33.7946 29.4956 33.9249 29.6317 34.0245L31.4224 35.3334C31.5301 35.4121 31.6574 35.4594 31.7903 35.4702C31.9233 35.481 32.0566 35.4549 32.1756 35.3946C32.2945 35.3343 32.3945 35.2423 32.4644 35.1287C32.5343 35.0152 32.5714 34.8845 32.5716 34.7511V34.7093L35.2677 34.7139H35.2701C35.5262 34.7148 35.7773 34.6434 35.9946 34.5079C36.2119 34.3725 36.3867 34.1785 36.4987 33.9483L37.3729 32.152C37.4416 32.0096 37.4756 31.853 37.4722 31.6949C37.4688 31.5369 37.4281 31.3818 37.3534 31.2425L37.3531 31.2423ZM34.4078 28.038L36.3234 31.6356L35.3024 31.6267L33.6116 28.4611L34.4078 28.038ZM35.2694 33.6199H35.2689L32.026 33.6144C31.9541 33.6138 31.8829 33.6277 31.8164 33.6551C31.75 33.6824 31.6897 33.7229 31.6391 33.7739C31.5681 33.8447 31.5179 33.9336 31.494 34.0309L30.3039 33.1608L31.4973 32.2944C31.526 32.4135 31.594 32.5195 31.6902 32.5954C31.7865 32.6713 31.9054 32.7126 32.028 32.7128L34.9684 32.7178L35.8777 32.7256L35.5165 33.4666C35.4936 33.5125 35.4584 33.5512 35.4149 33.5783C35.3713 33.6054 35.3211 33.6199 35.2698 33.6202L35.2694 33.6199ZM27.4376 31.7441L24.3177 31.7141L25.0318 30.4131L25.0684 30.4333C25.1854 30.4975 25.3178 30.528 25.451 30.5216C25.5842 30.5152 25.7131 30.472 25.8233 30.3969C25.9335 30.3218 26.0208 30.2176 26.0754 30.096C26.1301 29.9743 26.15 29.8399 26.133 29.7076L25.8505 27.5083C25.829 27.3411 25.7683 27.1813 25.6733 27.042C25.5783 26.9027 25.4517 26.7878 25.3039 26.7066C25.1561 26.6255 24.9912 26.5805 24.8227 26.5752C24.6542 26.5699 24.4868 26.6044 24.3341 26.6761L22.327 27.6191C22.2064 27.6758 22.1037 27.7649 22.0305 27.8763C21.9573 27.9878 21.9163 28.1173 21.9122 28.2506C21.908 28.3839 21.9408 28.5158 22.007 28.6316C22.0731 28.7474 22.17 28.8426 22.2869 28.9068L22.3235 28.9269L21.0266 31.2903C20.9024 31.5147 20.8442 31.7697 20.8585 32.0258C20.8729 32.2818 20.9592 32.5287 21.1077 32.7378L22.264 34.367L22.2651 34.3662C22.357 34.4949 22.4781 34.6 22.6185 34.6729C22.7588 34.7458 22.9144 34.7844 23.0725 34.7857L27.4028 34.833H27.4148C27.6712 34.833 27.9172 34.7319 28.0996 34.5516C28.2819 34.3713 28.3859 34.1265 28.3889 33.8701L28.4025 32.7301C28.4051 32.4714 28.305 32.2223 28.1241 32.0374C27.9431 31.8526 27.6962 31.7471 27.4376 31.7441ZM21.9852 31.8167L23.5453 28.9738C23.6042 28.8663 23.6254 28.7422 23.6054 28.6213C23.5853 28.5004 23.5253 28.3898 23.4348 28.3071L24.7696 27.68L24.9575 29.1426C24.8392 29.1107 24.7136 29.1195 24.6008 29.1676C24.4881 29.2157 24.3948 29.3002 24.3359 29.4077L22.9195 31.9885L22.478 32.7796L22.0014 32.1077C21.9715 32.0657 21.9541 32.0161 21.9512 31.9646C21.9482 31.9131 21.9599 31.8618 21.9849 31.8167H21.9852ZM27.2959 33.7382L23.2205 33.6937L23.718 32.8021L27.3067 32.8366L27.2959 33.7382ZM30.6948 18.5538V4.39594C31.1542 4.31179 31.5656 4.05893 31.848 3.68701C32.1305 3.31508 32.2637 2.85099 32.2215 2.38587C32.1793 1.92075 31.9646 1.48823 31.6198 1.17326C31.275 0.858288 30.8248 0.683631 30.3578 0.683594H9.30523C8.83821 0.68365 8.38808 0.858321 8.04326 1.1733C7.69845 1.48828 7.48385 1.9208 7.44164 2.38591C7.39942 2.85102 7.53263 3.31511 7.81511 3.68702C8.09758 4.05893 8.5089 4.31179 8.96828 4.39594V20.807C7.83086 21.1284 6.97719 22.4294 6.97719 23.9818C6.97719 24.0045 6.9774 24.0274 6.97781 24.0505C6.92367 24.1008 6.87195 24.1546 6.82156 24.2099C6.80539 22.5359 5.73422 21.1804 4.41945 21.1804C3.09461 21.1804 2.0168 22.5566 2.0168 24.2484C2.0168 24.2643 2.0168 24.2804 2.0168 24.2966C1.40992 24.8677 1.04289 25.7853 1.04289 26.7693C1.04264 27.1379 1.09488 27.5046 1.19805 27.8584C0.707422 28.3612 0.441406 28.9701 0.441406 29.6057C0.441406 30.4338 0.880781 31.1995 1.67852 31.7612C2.33154 32.2039 3.08689 32.4723 3.87281 32.5409V34.668H2.31305C1.81666 34.668 1.3406 34.8652 0.989597 35.2162C0.638596 35.5672 0.441406 36.0433 0.441406 36.5397C0.441406 37.0361 0.638596 37.5121 0.989597 37.8631C1.3406 38.2141 1.81666 38.4113 2.31305 38.4113H24.8735C26.2094 39.0084 27.6565 39.3162 29.1198 39.3147C34.8763 39.3147 39.5597 34.6313 39.5597 28.8747C39.5597 23.6533 35.7068 19.3151 30.6948 18.5538ZM29.1198 18.435C28.8845 18.435 28.651 18.4436 28.4196 18.459V16.969C28.4196 16.8239 28.362 16.6848 28.2594 16.5823C28.1569 16.4797 28.0178 16.4221 27.8727 16.4221H24.3269C24.1818 16.4221 24.0427 16.4797 23.9402 16.5823C23.8376 16.6848 23.78 16.8239 23.78 16.969V19.6202C23.78 19.7074 23.801 19.7934 23.8412 19.8708C22.935 20.4041 22.114 21.0704 21.4055 21.8473H18.0588C17.9138 21.8473 17.7747 21.905 17.6721 22.0075C17.5696 22.1101 17.512 22.2492 17.512 22.3942V25.0459C17.512 25.191 17.5696 25.3301 17.6721 25.4326C17.7747 25.5352 17.9138 25.5928 18.0588 25.5928H19.2088C18.7097 27.0994 18.5611 28.7001 18.7743 30.2728C18.9875 31.8455 19.5569 33.3489 20.4391 34.6682H10.0623V32.8422C10.9521 32.758 11.7793 32.4703 12.4335 32.0095C13.2785 31.4146 13.7439 30.6049 13.7439 29.7295C13.7439 29.0781 13.477 28.4491 12.9849 27.9255C13.2215 27.1678 13.2364 26.3583 13.0277 25.5925H15.3365C15.4815 25.5925 15.6206 25.5349 15.7232 25.4323C15.8257 25.3298 15.8834 25.1907 15.8834 25.0456V22.3944C15.8834 22.2493 15.8257 22.1102 15.7232 22.0077C15.6206 21.9051 15.4815 21.8475 15.3365 21.8475H11.4277C11.0768 21.3319 10.6016 20.9594 10.0623 20.807V4.42687H29.6014V18.4461C29.4415 18.4388 29.2811 18.4346 29.1198 18.4346V18.435ZM25.5229 19.0737H24.8737V17.5159H27.3259V18.5894C26.7115 18.696 26.1081 18.858 25.5229 19.0733V19.0737ZM19.6424 24.4991H18.6057V22.9412H20.5348C20.1932 23.434 19.8946 23.9552 19.6424 24.4991ZM11.9194 22.9412H14.7896V24.4991H12.5209C12.387 24.3082 12.23 24.1347 12.0534 23.9826V23.9821C12.0538 23.6308 12.0087 23.281 11.9194 22.9412ZM8.52766 2.55523C8.5279 2.349 8.60994 2.15129 8.75577 2.00546C8.9016 1.85963 9.09931 1.77759 9.30555 1.77734H30.3578C30.46 1.77734 30.5611 1.79746 30.6555 1.83656C30.7499 1.87565 30.8356 1.93295 30.9079 2.00518C30.9801 2.07742 31.0374 2.16317 31.0765 2.25755C31.1156 2.35193 31.1357 2.45308 31.1357 2.55523C31.1357 2.65739 31.1156 2.75854 31.0765 2.85292C31.0374 2.9473 30.9801 3.03305 30.9079 3.10529C30.8356 3.17752 30.7499 3.23482 30.6555 3.27391C30.5611 3.313 30.46 3.33312 30.3578 3.33312H9.30523C9.09905 3.33279 8.90142 3.25072 8.75566 3.1049C8.6099 2.95908 8.5279 2.76141 8.52766 2.55523ZM7.85828 24.7403C7.93491 24.685 7.9959 24.6108 8.03532 24.525C8.07474 24.4391 8.09124 24.3445 8.0832 24.2503C8.07539 24.1566 8.07125 24.0684 8.07125 23.9818C8.07125 22.812 8.73266 21.8238 9.51547 21.8238C10.2983 21.8238 10.9596 22.812 10.9596 23.9818C10.9596 24.0555 10.9569 24.1316 10.9514 24.2084C10.9444 24.3057 10.9636 24.4031 11.007 24.4905C11.0504 24.5779 11.1163 24.6521 11.198 24.7054C11.734 25.0551 12.0802 25.8329 12.0802 26.687C12.0829 27.0875 12.0029 27.4843 11.8454 27.8525C11.7979 27.9605 11.7866 28.0809 11.8131 28.1959C11.8397 28.3109 11.9027 28.4141 11.9928 28.4903C12.2927 28.7439 12.6502 29.1648 12.6502 29.7299C12.6502 30.8385 11.2146 31.7752 9.51547 31.7752C7.81633 31.7752 6.38078 30.8381 6.38078 29.7295C6.38078 29.2719 6.63078 28.8182 7.08484 28.452C7.17718 28.3775 7.24278 28.275 7.27177 28.1599C7.30076 28.0449 7.29155 27.9236 7.24555 27.8142C7.09898 27.4565 7.02464 27.0732 7.0268 26.6866C7.02664 25.8688 7.35305 25.1048 7.85828 24.7403ZM1.53516 29.6055C1.53516 29.1905 1.76328 28.7779 2.1775 28.4438C2.26982 28.3693 2.33541 28.2668 2.3644 28.1518C2.39339 28.0368 2.38419 27.9154 2.3382 27.8061C2.20353 27.4771 2.13522 27.1248 2.13719 26.7693C2.13719 26.0187 2.43539 25.3184 2.89687 24.9854C2.9735 24.9301 3.03449 24.8559 3.07389 24.77C3.1133 24.6841 3.12978 24.5895 3.12172 24.4953C3.11445 24.4104 3.11078 24.3273 3.11078 24.2484C3.11078 23.178 3.71016 22.2741 4.41969 22.2741C5.12922 22.2741 5.72859 23.1782 5.72859 24.2484C5.72859 24.3161 5.72602 24.3861 5.72078 24.4564C5.7138 24.5537 5.733 24.6512 5.77636 24.7386C5.81973 24.826 5.8857 24.9002 5.96742 24.9535C6.06135 25.0161 6.14709 25.0902 6.22266 25.1741C6.02959 25.6549 5.9312 26.1684 5.93289 26.6866C5.93239 27.086 5.99 27.4834 6.10391 27.8663C5.57437 28.4015 5.28703 29.0515 5.28703 29.7298C5.2904 30.2753 5.47006 30.8052 5.79922 31.2403C5.35632 31.3974 4.8896 31.4766 4.41969 31.4747C2.85609 31.4747 1.53516 30.6188 1.53516 29.6055ZM4.96656 32.5404C5.55794 32.4836 6.134 32.3195 6.66648 32.056C7.35681 32.5049 8.14791 32.7751 8.96859 32.8423V34.668H4.96656V32.5404ZM2.31305 37.3174C2.10674 37.3174 1.90888 37.2355 1.763 37.0896C1.61711 36.9437 1.53516 36.7458 1.53516 36.5395C1.53516 36.3332 1.61711 36.1354 1.763 35.9895C1.90888 35.8436 2.10674 35.7616 2.31305 35.7616H21.2807C21.7905 36.3412 22.3625 36.8629 22.9864 37.3174H2.31305ZM29.1198 38.2208C27.2712 38.2208 25.4642 37.6727 23.9272 36.6457C22.3903 35.6187 21.1923 34.159 20.4849 32.4512C19.7775 30.7434 19.5924 28.8642 19.953 27.0512C20.3136 25.2382 21.2038 23.5729 22.5109 22.2658C23.818 20.9587 25.4833 20.0685 27.2963 19.7079C29.1093 19.3472 30.9885 19.5323 32.6963 20.2397C34.4041 20.9471 35.8638 22.145 36.8908 23.682C37.9178 25.219 38.4659 27.026 38.4659 28.8745C38.4631 31.3524 37.4775 33.728 35.7254 35.4802C33.9733 37.2323 31.5977 38.2179 29.1198 38.2208Z" fill="white"/>
</g>
<defs>
<clipPath id="clip0_793_2209">
<rect width="40" height="40" fill="white"/>
</clipPath>
</defs>
</svg>
