<svg width="40" height="40" viewBox="0 0 40 40" fill="none" xmlns="http://www.w3.org/2000/svg">
<path d="M5.76561 27.8416C5.68357 27.7001 5.54936 27.5964 5.39177 27.5527C5.23418 27.5091 5.06574 27.5289 4.92258 27.6079C4.77943 27.687 4.67294 27.819 4.62596 27.9756C4.57898 28.1323 4.59525 28.3011 4.67128 28.4459C11.1775 40.4456 28.824 40.4428 35.328 28.4456C35.4077 28.3005 35.4266 28.1297 35.3806 27.9706C35.3345 27.8116 35.2272 27.6774 35.0823 27.5973C34.9373 27.5173 34.7665 27.4981 34.6074 27.5439C34.4483 27.5897 34.3139 27.6968 34.2336 27.8416C32.8302 30.3883 30.7692 32.5118 28.2656 33.9907C25.7619 35.4696 22.9074 36.2498 19.9996 36.2498C17.0918 36.2498 14.2372 35.4696 11.7336 33.9907C9.23001 32.5118 7.16904 30.3883 5.76561 27.8416Z" fill="white"/>
<path d="M32.3241 9.42403C32.4328 9.54615 32.5851 9.62079 32.7483 9.63192C32.9114 9.64305 33.0725 9.58979 33.1968 9.48357C33.3212 9.37734 33.3989 9.22662 33.4134 9.06372C33.4279 8.90082 33.378 8.73874 33.2743 8.61223C26.5874 0.51694 13.4103 0.517534 6.72409 8.61247C6.62018 8.73895 6.57005 8.90115 6.58446 9.0642C6.59887 9.22725 6.67668 9.37814 6.80115 9.48443C6.92563 9.59073 7.08684 9.64395 7.25014 9.63264C7.41343 9.62134 7.56578 9.54643 7.67443 9.424C13.883 1.90892 26.1163 1.90971 32.3241 9.42403Z" fill="white"/>
<path d="M11.8268 8.9476C11.6972 9.04772 11.6122 9.19464 11.5898 9.3568C11.5675 9.51896 11.6097 9.68342 11.7073 9.81483C11.8049 9.94624 11.9501 10.0341 12.1118 10.0596C12.2735 10.085 12.4388 10.0461 12.572 9.95099C14.7235 8.36465 17.3263 7.50883 19.9994 7.50884C22.6725 7.50886 25.2753 8.36472 27.4267 9.95108C27.56 10.0459 27.7252 10.0846 27.8867 10.0591C28.0482 10.0335 28.1933 9.94563 28.2908 9.81432C28.3883 9.68302 28.4305 9.51872 28.4083 9.35668C28.3861 9.19465 28.3012 9.04778 28.1719 8.94758C25.8048 7.2017 22.9407 6.25976 19.9993 6.25977C17.058 6.25977 14.1939 7.20171 11.8268 8.9476Z" fill="white"/>
<path d="M20.0003 33.7509C22.074 33.7552 24.1214 33.2876 25.9875 32.3836C27.8537 31.4796 29.4898 30.1628 30.7718 28.533C30.8709 28.4027 30.9149 28.2387 30.8944 28.0763C30.8739 27.9139 30.7905 27.766 30.6622 27.6644C30.5339 27.5628 30.3708 27.5155 30.2081 27.5328C30.0453 27.55 29.8958 27.6304 29.7916 27.7567C24.9976 34.0424 15.0025 34.0417 10.2091 27.7565C10.1049 27.6303 9.95534 27.5501 9.7926 27.5329C9.62986 27.5157 9.46687 27.563 9.3386 27.6646C9.21033 27.7663 9.12701 27.9141 9.1065 28.0765C9.08599 28.2388 9.12993 28.4027 9.22889 28.5331C10.5109 30.1628 12.147 31.4796 14.0132 32.3836C15.8793 33.2876 17.9267 33.7552 20.0003 33.7509Z" fill="white"/>
<path d="M2.83081 21.6055C2.61102 22.0231 2.50215 22.4902 2.51464 22.962C2.52712 23.4338 2.66054 23.8945 2.90211 24.3C3.14368 24.7054 3.48531 25.042 3.89428 25.2776C4.30325 25.5132 4.76586 25.6398 5.23779 25.6453L12.1925 25.6454C12.1901 26.0579 12.2691 26.4668 12.4248 26.8488C12.5805 27.2308 12.81 27.5784 13.1001 27.8717C13.3902 28.1649 13.7353 28.3982 14.1156 28.558C14.4959 28.7179 14.904 28.8012 15.3165 28.8033L24.6854 28.8033C25.0984 28.8031 25.5073 28.721 25.8884 28.5618C26.2695 28.4025 26.6153 28.1694 26.9058 27.8757C27.1963 27.5821 27.4257 27.2338 27.5808 26.851C27.7358 26.4682 27.8135 26.0584 27.8093 25.6454H34.7641C35.236 25.6398 35.6986 25.5132 36.1076 25.2776C36.5166 25.042 36.8582 24.7054 37.0997 24.2999C37.3413 23.8945 37.4747 23.4338 37.4872 22.962C37.4997 22.4902 37.3908 22.0231 37.171 21.6054C36.3165 20.0224 34.9017 18.8156 33.2038 18.2214C33.6784 17.8559 34.0628 17.3864 34.3275 16.849C34.5922 16.3117 34.7301 15.7207 34.7306 15.1217C34.5442 9.92826 27.0675 9.9281 26.882 15.1218C26.8825 15.7209 27.0205 16.3119 27.2852 16.8494C27.55 17.3868 27.9346 17.8563 28.4094 18.2218C26.8775 18.7613 25.5729 19.8029 24.7076 21.1773C24.0591 20.7418 23.3532 20.3987 22.6102 20.1577C23.2034 19.7404 23.6876 19.1866 24.022 18.543C24.3564 17.8994 24.5313 17.1849 24.5319 16.4596C24.3202 10.4649 15.6823 10.4625 15.47 16.4597C15.4705 17.185 15.6454 17.8995 15.9798 18.543C16.3143 19.1866 16.7984 19.7404 17.3916 20.1577C16.6483 20.3988 15.9421 20.7421 15.2934 21.1778C14.4265 19.8049 13.1227 18.7637 11.5919 18.2222C12.0668 17.8567 12.4516 17.3872 12.7164 16.8496C12.9813 16.3121 13.1193 15.7209 13.1198 15.1217C12.9398 9.93325 5.45483 9.92536 5.27128 15.1217C5.27176 15.7207 5.40965 16.3117 5.67435 16.849C5.93904 17.3864 6.32348 17.8559 6.79808 18.2214C5.10013 18.8156 3.68528 20.0224 2.83081 21.6055ZM28.132 15.1217C28.1388 14.4169 28.4235 13.7432 28.9243 13.2472C29.4251 12.7511 30.1014 12.4729 30.8063 12.4729C31.5112 12.4729 32.1875 12.7512 32.6883 13.2472C33.1891 13.7432 33.4738 14.4169 33.4805 15.1218C33.4738 15.8266 33.1891 16.5003 32.6883 16.9963C32.1875 17.4923 31.5111 17.7706 30.8062 17.7706C30.1014 17.7706 29.425 17.4923 28.9242 16.9962C28.4234 16.5002 28.1387 15.8265 28.132 15.1217ZM30.8018 19.0457C31.883 19.0449 32.9442 19.3377 33.872 19.8928C34.7998 20.4478 35.5595 21.2444 36.07 22.1975C36.1897 22.4244 36.2492 22.6783 36.2427 22.9348C36.2362 23.1913 36.164 23.4418 36.0329 23.6624C35.9018 23.883 35.7163 24.0662 35.4942 24.1945C35.272 24.3229 35.0206 24.392 34.764 24.3953H27.5314C27.0818 23.4702 26.4583 22.6401 25.695 21.9505C26.2242 21.0677 26.9723 20.3364 27.867 19.8275C28.7617 19.3186 29.7726 19.0493 30.8018 19.0457ZM16.72 16.4596C16.8579 12.1237 23.1446 12.1247 23.2818 16.4597C23.144 20.7959 16.8571 20.7949 16.72 16.4596ZM26.3348 24.7787C26.4862 25.0652 26.5615 25.3858 26.5534 25.7098C26.5452 26.0337 26.454 26.3501 26.2884 26.6287C26.1228 26.9072 25.8884 27.1386 25.6077 27.3005C25.327 27.4624 25.0093 27.5494 24.6853 27.5533L15.3165 27.5534C14.9912 27.5527 14.6717 27.4676 14.3891 27.3065C14.1066 27.1453 13.8706 26.9137 13.7044 26.6341C13.5382 26.3545 13.4474 26.0365 13.4408 25.7113C13.4343 25.3861 13.5122 25.0648 13.667 24.7787C16.2864 19.7645 23.7161 19.765 26.3348 24.7787ZM6.5213 15.1217C6.52795 14.4168 6.81264 13.743 7.31344 13.2469C7.81424 12.7508 8.49066 12.4725 9.19559 12.4725C9.90051 12.4726 10.5769 12.7509 11.0777 13.247C11.5785 13.7431 11.8632 14.4169 11.8698 15.1217C11.8632 15.8266 11.5785 16.5004 11.0777 16.9965C10.5769 17.4926 9.90045 17.7709 9.19553 17.7709C8.49061 17.7709 7.8142 17.4926 7.3134 16.9965C6.81261 16.5003 6.52794 15.8266 6.5213 15.1217ZM9.18972 19.0456C10.2205 19.0485 11.2332 19.3174 12.1296 19.8264C13.026 20.3354 13.7758 21.0673 14.3064 21.951C13.5433 22.6406 12.92 23.4704 12.4703 24.3954H5.23773C4.98118 24.392 4.72979 24.3228 4.50762 24.1945C4.28546 24.0661 4.09997 23.8829 3.96892 23.6623C3.83787 23.4417 3.76565 23.1912 3.75917 22.9347C3.75269 22.6782 3.81217 22.4244 3.93192 22.1975C4.44159 21.2459 5.19967 20.4503 6.1255 19.8954C7.05133 19.3404 8.11029 19.0467 9.18972 19.0456Z" fill="white"/>
</svg>
