<svg width="80" height="80" viewBox="0 0 80 80" fill="none" xmlns="http://www.w3.org/2000/svg">
<g clip-path="url(#clip0_780_7007)">
<path d="M5.86505 34.6435C6.51926 35.3469 7.45299 35.7505 8.42688 35.7505H11.06C10.8565 37.1526 10.7537 38.5762 10.7537 39.9993C10.7537 40.6177 10.7732 41.2435 10.8117 41.859C10.8504 42.48 11.3664 42.9578 11.9803 42.9578C12.0048 42.9578 12.0295 42.9571 12.0545 42.9555C12.7004 42.9152 13.1913 42.3588 13.151 41.7129C13.1156 41.1458 13.0976 40.5694 13.0976 39.9995C13.0976 38.5745 13.2113 37.1498 13.4326 35.7506H18.2198C19.4197 36.8864 21.0299 38.0512 23.1665 38.0512C26.337 38.0512 28.1386 35.5172 28.3501 32.9663L33.0169 28.2993C35.568 28.0878 38.102 26.2863 38.102 23.1157C38.102 20.979 36.9372 19.3687 35.8014 18.1691V13.3816C37.2004 13.1604 38.6251 13.0466 40.0502 13.0466C40.6976 13.0466 41.2221 12.522 41.2221 11.8748C41.2221 11.2276 40.6976 10.7029 40.0502 10.7029C38.627 10.7029 37.2033 10.8057 35.8014 11.0092V8.37626C35.8014 7.40221 35.398 6.46848 34.6942 5.81427C31.129 2.49964 25.0494 0 20.5525 0C19.8436 0 19.0992 0.0681238 18.3406 0.202496C17.7033 0.315463 17.2781 0.923421 17.3911 1.56075C17.5039 2.19793 18.112 2.62277 18.7492 2.51027C19.3734 2.39965 19.9801 2.34371 20.5525 2.34371C22.3396 2.34371 24.4624 2.82151 26.5394 3.61744C28.5704 4.56789 27.8694 6.79582 27.704 7.24175C27.1817 8.6511 26.1831 9.26687 25.5189 9.04844L24.7844 8.80641C24.1693 8.60407 23.5071 8.93781 23.3046 9.55264C23.1019 10.1673 23.4361 10.8298 24.0507 11.0323L27.34 12.1162L27.5692 13.4887C21.3843 16.4007 16.4511 21.334 13.5393 27.5187L12.1668 27.2895L11.0828 24.0004C10.8803 23.3857 10.2183 23.0513 9.60296 23.2541C8.98828 23.4566 8.65422 24.1193 8.85688 24.7338L9.09906 25.4683C9.31765 26.1324 8.70172 27.1311 7.29237 27.6534C6.84676 27.8186 4.61851 28.52 3.66806 26.4888C2.87229 24.4118 2.39433 22.289 2.39433 20.5018C2.39433 18.493 3.07463 16.5449 3.62447 15.2982L5.27428 16.948C6.81879 18.4925 8.61454 19.2762 10.4506 19.2762C11.6332 19.2762 12.8331 18.9508 13.9923 18.2939C15.0846 18.662 16.6725 18.807 17.765 17.7145C18.8573 16.6221 18.7123 15.0344 18.3444 13.9418C20.0207 10.9829 19.5378 7.7633 16.9984 5.22397L14.203 2.42824C10.9706 -0.804205 5.71131 -0.804205 2.47871 2.42824C-0.54124 5.44819 -0.738736 10.2373 1.88466 13.4898C1.23092 14.7833 0.0507812 17.5295 0.0507812 20.5018C0.0507812 24.9989 2.55027 31.0785 5.86505 34.6435ZM23.6085 31.0785L31.1293 23.5579C31.2054 23.4818 31.3054 23.4437 31.4055 23.4437C31.5055 23.4437 31.6054 23.4818 31.6816 23.5579C32.0505 23.9268 32.2537 24.4172 32.2537 24.9389C32.2537 25.4606 32.0505 25.9511 31.6816 26.32L26.3706 31.631C25.6092 32.3927 24.3702 32.3924 23.6085 31.631C23.509 31.5315 23.4943 31.4154 23.4943 31.3549C23.4943 31.2945 23.509 31.178 23.6085 31.0785ZM29.9018 8.05611C30.2254 7.18316 30.3967 6.29895 30.3265 5.46865C31.3599 6.09771 32.3057 6.79379 33.0982 7.53065C33.3266 7.74299 33.4575 8.05126 33.4575 8.37642V18.6455C33.4575 18.9562 33.581 19.2544 33.8007 19.474C35.1727 20.846 35.758 21.9351 35.758 23.1157C35.758 24.2363 35.2369 24.9482 34.5745 25.3819C34.5894 25.2357 34.5974 25.088 34.5974 24.9389C34.5974 23.7913 34.1505 22.7123 33.3389 21.9007C32.7583 21.3201 31.9796 21.0582 31.2184 21.1099L29.5354 11.0318C29.4637 10.6023 29.16 10.2481 28.7464 10.1119L28.6197 10.0701C29.1434 9.5778 29.5846 8.91187 29.9018 8.05611ZM27.9719 15.8986L29.0454 22.3271L22.3777 28.9946L15.9493 27.9211C18.5608 22.7073 22.7579 18.5101 27.9719 15.8986ZM5.9549 30.242C6.69301 30.242 7.43143 30.1013 8.10689 29.851C8.96406 29.5334 9.63592 29.0973 10.1248 28.5811L10.1625 28.6954C10.2987 29.1089 10.6531 29.4128 11.0825 29.4845L21.1595 31.1673C21.1553 31.2295 21.1504 31.2916 21.1504 31.3546C21.1504 32.0851 21.4348 32.7716 21.9512 33.288C22.7888 34.1257 23.8891 34.5446 24.9896 34.5446C25.138 34.5446 25.2864 34.5363 25.4342 34.521C25.0008 35.1845 24.2883 35.7072 23.1662 35.7072C21.9857 35.7072 20.8967 35.1217 19.5243 33.7499C19.3047 33.5302 19.0067 33.4068 18.6958 33.4068H8.42688C8.10189 33.4068 7.79361 33.2758 7.58127 33.0475C6.83379 32.2435 6.12833 31.2815 5.49209 30.2303C5.63928 30.2382 5.79318 30.242 5.9549 30.242ZM15.986 14.3555C16.1949 14.7826 16.445 15.72 16.108 16.0572C15.7705 16.3944 14.8333 16.1441 14.4119 15.938C14.0357 15.7489 13.5874 15.7761 13.237 16.0088C11.61 17.0897 9.94092 17.2139 8.40501 16.4019C8.75969 16.2227 9.08781 15.9871 9.37687 15.6979C9.75998 15.3147 10.0512 14.8585 10.2387 14.3627C11.3534 14.4868 12.4937 14.1105 13.3276 13.2766C14.1615 12.4427 14.5369 11.3014 14.4135 10.1879C14.9094 10.0006 15.3655 9.70936 15.7488 9.32609C16.0378 9.03703 16.2733 8.70891 16.4525 8.35439C17.2644 9.8903 17.1402 11.5593 16.0596 13.1863C15.8291 13.533 15.803 13.9818 15.986 14.3555ZM4.13602 4.0854C6.45442 1.76684 10.2269 1.767 12.5456 4.0854L14.0905 5.63053C14.0907 5.63068 14.091 5.63099 14.0912 5.63131C14.3633 5.90349 14.5132 6.26536 14.5132 6.6502C14.5132 7.03503 14.3633 7.3969 14.0913 7.66908C13.7973 7.96299 13.3888 8.11454 12.9698 8.08517C12.5345 8.05564 12.116 8.26907 11.8876 8.64219C11.6592 9.01531 11.6576 9.48468 11.8835 9.8592C12.2262 10.4273 12.1384 11.1512 11.6701 11.6195C11.2015 12.0879 10.4776 12.176 9.90951 11.8332C9.53483 11.6073 9.06547 11.6089 8.6925 11.8373C8.31923 12.0657 8.10455 12.4831 8.13548 12.9195C8.16501 13.338 8.01345 13.7468 7.7194 14.0408C7.44737 14.313 7.08534 14.4629 6.70051 14.4629C6.31567 14.4629 5.9538 14.313 5.68162 14.0408C5.68146 14.0407 5.68146 14.0407 5.68131 14.0405L4.13587 12.4951C1.81763 10.1764 1.81763 6.40395 4.13602 4.0854Z" fill="#E6A135"/>
<path d="M76.4422 26.2198C76.2187 26.8273 76.5302 27.5007 77.1376 27.724C77.2711 27.7729 77.4076 27.7962 77.5419 27.7962C78.0192 27.7962 78.4676 27.5024 78.6418 27.0282C79.4963 24.704 79.9477 22.4478 79.9477 20.5036C79.9477 18.2877 79.2943 16.1967 78.6676 14.6992C79.5495 12.5911 79.9477 10.5102 79.9477 8.29196C79.9477 6.07763 79.0853 3.99579 77.5195 2.42988C75.9538 0.863969 73.8719 0.00195312 71.6576 0.00195312C69.4389 0.00195312 67.358 0.398509 65.2494 1.28068C63.7526 0.654598 61.6607 0.00195312 59.4459 0.00195312C54.9526 0.00195312 50.684 2.82862 44.7127 9.75866C44.1329 10.4316 43.7068 11.2385 43.4809 12.0922L39.6552 26.5571C39.1805 28.3285 40.3731 29.9488 41.682 30.7045C43.08 31.5116 44.6176 31.3981 45.6002 30.4156L48.0422 27.9736C49.7619 26.254 48.7217 24.3584 47.9566 23.0623L51.4022 15.5975C56.9491 18.2013 61.4034 22.5689 64.1126 28.0491L61.3821 28.5899C60.7414 27.7033 59.6553 26.5598 58.2266 26.3738C57.5724 26.2881 56.598 26.3816 55.6707 27.309L53.2287 29.751C52.2042 30.7755 51.9121 32.2436 52.4667 33.5821C53.0212 34.9207 54.2657 35.7524 55.7146 35.7524H66.566C66.7872 37.1519 66.9009 38.5767 66.9009 40.0013C66.9009 41.4259 66.7872 42.8506 66.5658 44.2501H55.7144C55.0552 44.2501 54.4393 44.4238 53.9104 44.7376L49.5753 40.4503C48.6614 39.5369 47.1749 39.5367 46.2607 40.4505L40.3973 46.314C39.9547 46.7566 39.711 47.3452 39.711 47.9711C39.711 48.597 39.9547 49.1856 40.402 49.633L44.721 53.9041C44.3845 54.446 44.197 55.0833 44.197 55.7675V71.6241C44.197 72.5983 44.6007 73.5324 45.3048 74.1867C48.8697 77.5011 54.9493 80.0004 59.4458 80.0004C62.4179 80.0004 65.1641 78.8201 66.4577 78.1664C67.9697 79.3859 69.8132 79.9965 71.6574 79.9965C73.7804 79.9965 75.9033 79.1884 77.5195 77.5722H77.5197C80.5396 74.5521 80.7371 69.7629 78.1137 66.5105C78.7675 65.2169 79.9477 62.4707 79.9477 59.4986C79.9477 55.0016 77.4481 48.922 74.1333 45.3569C73.4791 44.6534 72.5454 44.2499 71.5715 44.2499H68.9386C69.142 42.8476 69.2448 41.4239 69.2448 40.0011C69.2448 38.5783 69.142 37.1547 68.9386 35.7523H71.5715C72.5455 35.7523 73.4796 35.3485 74.1339 34.6446C74.9466 33.7704 75.7192 32.7434 76.4303 31.5919C76.7705 31.0413 76.5997 30.3191 76.0492 29.9791C75.4984 29.6389 74.7764 29.8097 74.4364 30.3603C73.8055 31.3819 73.1261 32.2864 72.4174 33.0489C72.2049 33.2775 71.8966 33.4086 71.5715 33.4086H66.693V29.9271L68.9504 29.4799C69.3651 29.3978 69.7034 29.0986 69.8357 28.6971L71.0545 24.9992C73.7607 22.2744 75.7664 19.8613 77.1829 17.5616C77.4301 18.4738 77.604 19.4794 77.604 20.5033C77.6042 22.1511 77.1914 24.1811 76.4422 26.2198ZM60.3176 62.0277L61.7288 63.439C61.657 64.035 61.7463 64.785 61.9995 65.6866C61.454 66.6236 61.1068 67.5959 60.9521 68.5643C59.8548 66.5767 59.5869 64.5652 60.3176 62.0277ZM63.386 61.7815L61.9649 60.3604C63.9443 59.7581 65.5675 59.729 67.0811 60.2515C67.6008 60.4309 68.1148 60.6784 68.6312 60.9853C67.6234 61.1296 66.6094 61.4842 65.6336 62.0521C64.7322 61.799 63.9821 61.7095 63.386 61.7815ZM51.9004 64.1652L51.4182 61.7302C52.4165 61.3129 53.1473 60.5539 53.4916 59.5443C53.5579 59.3503 53.6049 59.1514 53.6376 58.9508L58.8836 53.7046C58.945 53.6921 59.0064 53.6791 59.0675 53.6632C59.7344 53.4894 60.847 52.9746 61.5792 51.4514L64.1126 51.9531C61.4845 57.2708 57.218 61.5373 51.9004 64.1652ZM46.541 55.7675C46.541 55.041 47.0947 54.7552 47.2644 54.6849C47.4341 54.6146 48.028 54.4252 48.5414 54.9388L50.9834 57.3808C51.3161 57.7133 51.4379 58.3051 51.2732 58.7878C51.1004 59.2942 50.6462 59.6126 49.9612 59.7145H46.541V55.7675ZM55.7147 46.5938H59.662V49.9367C59.4044 50.7464 58.9866 51.2625 58.4762 51.3954C58.0842 51.4975 57.655 51.3631 57.3281 51.0362L54.8862 48.5942C54.3724 48.0805 54.5618 47.4869 54.6321 47.3172C54.7024 47.1475 54.9883 46.5938 55.7147 46.5938ZM47.9232 42.1123L52.4164 46.5558C51.9353 47.8574 52.2389 49.2614 53.2288 50.2515L55.6708 52.6935C55.826 52.8487 55.9916 52.9865 56.1644 53.1093L53.0496 56.2241C52.9288 56.0453 52.7935 55.8766 52.6407 55.7238L50.1987 53.2818C49.227 52.3101 47.8566 51.9987 46.5757 52.4421L42.055 47.9713L47.9232 42.1123ZM46.9007 72.4701C46.6721 72.2576 46.541 71.9493 46.541 71.6241V62.0582H49.0939L50.4694 69.0032C50.5515 69.4179 50.8506 69.7562 51.2522 69.8885L55.2138 71.194C55.8291 71.3965 56.4911 71.0624 56.6936 70.4477C56.8963 69.8331 56.5621 69.1706 55.9475 68.9681L52.6356 67.8767L52.3706 66.5391C54.261 65.6544 56.0344 64.5822 57.6694 63.3432C57.0558 68.2798 59.8145 71.5913 62.9998 74.7766L64.6496 76.4264C63.4029 76.9762 61.4549 77.6567 59.4461 77.6567C55.5397 77.6568 50.0291 75.3786 46.9007 72.4701ZM75.8625 75.9152C73.5436 78.2336 69.7714 78.2334 67.4528 75.9152L64.6571 73.1194C62.8776 71.3399 62.7221 68.8042 64.2513 66.5017C64.4501 66.2025 64.5007 65.8288 64.3885 65.4875C64.2419 65.0416 64.1218 64.5083 64.0716 64.124C64.4526 64.1736 64.9804 64.293 65.4347 64.4414C65.7757 64.5535 66.1497 64.5032 66.4489 64.3044C68.7514 62.7751 71.2871 62.9304 73.0666 64.7099L75.8625 67.5056C78.1809 69.824 78.1809 73.5966 75.8625 75.9152ZM72.4173 46.953C75.3258 50.0812 77.6042 55.5921 77.6042 59.4987C77.6042 61.5076 76.9237 63.4557 76.3739 64.7024C76.3739 64.7024 74.6925 63.0224 74.6869 63.0168C72.2874 60.6221 70.1884 58.8447 67.8462 58.0361C66.4211 57.5441 64.9614 57.4106 63.3516 57.6431C64.5654 56.0303 65.6164 54.2832 66.4867 52.4235L67.8242 52.6884L68.9156 56.0002C69.1181 56.6149 69.7803 56.9492 70.3954 56.7464C71.0101 56.5439 71.3441 55.8813 71.1415 55.2668L69.836 51.3051C69.7037 50.9036 69.3654 50.6045 68.9508 50.5223L62.0059 49.1469V46.5938H71.5718C71.8966 46.5938 72.2048 46.7247 72.4173 46.953ZM46.3849 26.3163L43.9429 28.7583C43.6142 29.0874 42.9781 28.7464 42.8539 28.6747C42.214 28.3054 41.7948 27.6274 41.92 27.1601L43.9029 19.6625L46.6096 20.3878L45.5715 22.6369C45.4119 22.9825 45.4302 23.3842 45.6205 23.7139C45.7029 23.8565 45.7865 23.9976 45.8693 24.1375C46.7733 25.6634 46.7733 25.9281 46.3849 26.3163ZM49.4284 14.2817L47.6066 18.2285L44.5024 17.3968L45.7468 12.6919C45.8824 12.1796 46.139 11.6942 46.4883 11.2886C53.2785 3.4083 56.8491 2.34582 59.4461 2.34582C60.469 2.34582 61.474 2.51941 62.3854 2.76597C60.034 4.21485 57.563 6.28278 54.7619 9.08304L49.6837 13.9248C49.5769 14.0266 49.4902 14.1476 49.4284 14.2817ZM57.1155 16.2503L60.1661 13.1997C60.5068 12.8589 60.8398 12.6055 61.1804 12.4208C61.3723 13.0675 61.6459 13.7051 61.9996 14.3151C61.5387 15.9568 61.6167 17.0996 62.2332 17.7163C62.8498 18.333 63.9927 18.4112 65.6346 17.9499C66.2438 18.303 66.8816 18.5787 67.528 18.7707C67.3434 19.1107 67.0902 19.4432 66.75 19.7835L63.6996 22.8339C61.8704 20.2996 59.6503 18.0794 57.1155 16.2503ZM64.2515 13.5006C63.9349 13.0239 63.688 12.5236 63.5118 12.0172C64.0565 12.055 64.6618 12.1466 65.3582 12.2602C65.9921 12.3635 66.6822 12.476 67.4102 12.5395C67.4737 13.2675 67.5862 13.9576 67.6895 14.5915C67.803 15.2881 67.8947 15.8934 67.9323 16.4381C67.4258 16.2617 66.9248 16.0142 66.4491 15.6981C66.1497 15.4993 65.7755 15.4487 65.4347 15.5609C64.9888 15.7075 64.4555 15.8276 64.071 15.8778C64.1207 15.4968 64.2401 14.969 64.3885 14.5148C64.5008 14.1737 64.4502 13.7998 64.2515 13.5006ZM64.3494 33.4087H55.7147C54.9883 33.4087 54.7024 32.855 54.6321 32.6853C54.5618 32.5156 54.3724 31.922 54.886 31.4083L57.3281 28.9663C57.6342 28.6604 57.8305 28.686 57.9241 28.698C58.4716 28.7693 59.2514 29.5028 59.8206 30.482C60.0722 30.9147 60.5707 31.14 61.0614 31.0427L64.3493 30.3914V33.4087H64.3494ZM69.1998 23.5404C69.0703 23.6701 68.9729 23.8283 68.9156 24.0023L67.8242 27.3141L66.4869 27.579C66.0438 26.6324 65.5536 25.7151 65.0186 24.8296L68.4073 21.441C70.7918 19.0565 70.3726 16.4842 70.0028 14.2147C69.8553 13.3088 69.7025 12.372 69.7025 11.4193C69.7025 10.7721 69.1779 10.2474 68.5306 10.2474C67.5778 10.2474 66.6409 10.0947 65.735 9.94709C63.4655 9.57725 60.8932 9.1582 58.5089 11.5425L55.1199 14.9314C54.483 14.5467 53.8296 14.1855 53.1607 13.8478L56.3894 10.7696C56.3961 10.7632 56.4027 10.7566 56.4094 10.75C62.4571 4.70203 66.7324 2.34582 71.6576 2.34582C73.2458 2.34582 74.7392 2.9644 75.8623 4.08751C76.9855 5.21061 77.604 6.70402 77.604 8.29228C77.6042 13.217 75.2478 17.4923 69.1998 23.5404Z" fill="#E6A135"/>
<path d="M40.8255 66.9408C40.8149 66.9408 40.804 66.941 40.7933 66.9413C38.6384 66.9991 36.4826 66.7991 34.3947 66.3538C34.3361 66.0827 34.2467 65.8158 34.1222 65.5602L30.5212 58.1699C33.2158 53.2546 33.3497 51.0369 31.181 48.868C29.134 46.8212 26.5938 46.9893 21.9199 49.5331L14.4862 45.9238C13.2568 45.327 11.7803 45.5004 10.7243 46.3657C1.90262 53.5948 0.0507812 57.4961 0.0507812 59.4961C0.0507812 62.4682 1.23092 65.2146 1.88466 66.5082C-0.73858 69.7606 -0.541083 74.5497 2.47886 77.5698C4.09508 79.1861 6.21786 79.994 8.34095 79.994C10.185 79.994 12.0287 79.3834 13.5407 78.164C14.8341 78.8176 17.5803 79.9979 20.5525 79.9979C22.5523 79.9979 26.4536 78.1465 33.6824 69.3265C33.8458 69.1272 33.9844 68.9126 34.098 68.6876C36.0462 69.0895 38.045 69.2948 40.0501 69.2948C40.3176 69.2948 40.5888 69.2912 40.8565 69.2839C41.5035 69.2665 42.0138 68.7278 41.9963 68.0809C41.9793 67.4449 41.4582 66.9408 40.8255 66.9408ZM28.4568 57.0593L25.4174 57.5083C25.3724 56.8089 25.5133 56.1941 25.8213 55.8846L30.2284 51.4775C30.5412 52.317 30.2907 53.7174 28.4568 57.0593ZM20.8581 56.6824C21.6121 56.916 22.3693 57.0111 23.0754 56.9747C23.0388 57.6735 23.1279 58.4217 23.3513 59.1683C23.4927 59.6406 23.8054 60.6517 24.1504 61.7604C21.9018 60.1155 19.9203 58.133 18.2766 55.8829L20.8581 56.6824ZM28.5143 49.877L24.1655 54.2257C23.8597 54.5316 23.2372 54.6718 22.5405 54.6266L23.0227 51.6011C26.1511 49.8967 27.6575 49.6541 28.5143 49.877ZM4.13602 75.9125C1.81747 73.594 1.81747 69.8215 4.13587 67.503L7.89877 63.7402C8.72438 64.6004 10.0345 66.0436 11.1026 67.5783C12.9331 70.2082 14.6693 73.789 12.5456 75.9125C10.2272 78.2309 6.45426 78.2309 4.13602 75.9125ZM15.7471 66.4991C17.1241 68.5726 17.1352 70.8354 15.8239 72.5645C15.6122 70.8715 14.8004 68.7884 13.0265 66.2396C12.2626 65.1421 11.4017 64.1046 10.6504 63.2615C11.6187 63.3263 12.6102 63.6779 13.5496 64.3018C13.8488 64.5005 14.2229 64.5508 14.5638 64.4388C15.0097 64.2923 15.543 64.1721 15.9275 64.1219C15.8778 64.5029 15.7585 65.0307 15.61 65.4849C15.4977 65.8261 15.5482 66.1999 15.7471 66.4991ZM31.8696 67.8409C26.9837 73.8022 22.5415 77.6542 20.5525 77.6542C18.5436 77.6542 16.5956 76.9738 15.3489 76.4239L16.9988 74.7741C19.4484 72.3245 19.8175 68.8073 17.9991 65.684C18.4598 64.0426 18.3817 62.9001 17.7653 62.2835C17.1488 61.6668 16.0058 61.5889 14.3649 62.0495C12.5002 60.9626 10.4747 60.6372 8.58235 61.1259C8.12329 60.7975 7.48331 60.8412 7.07316 61.2514L3.62462 64.6997C3.07479 63.4531 2.39449 61.505 2.39449 59.4961C2.39449 57.5069 6.24708 53.0645 12.2096 48.1783C12.5607 47.8905 13.0524 47.8332 13.4624 48.0321L20.6612 51.5273L20.2601 54.0437L14.6216 52.2972C14.243 52.1798 13.8307 52.2618 13.5262 52.5151L9.72483 55.6726C9.22687 56.0861 9.15859 56.8249 9.57202 57.3228C9.98561 57.8208 10.7245 57.8889 11.2223 57.4757L14.5351 54.724L14.7636 54.7948C17.305 59.1292 20.9171 62.7412 25.25 65.2824C25.2758 65.3644 25.3005 65.4433 25.323 65.5154L22.5729 68.8262C22.1595 69.3242 22.2277 70.0629 22.7257 70.4765C22.9444 70.6582 23.2099 70.7468 23.4738 70.7468C23.8102 70.7468 24.1441 70.6028 24.3758 70.3237L27.5333 66.5222C27.7873 66.2163 27.8689 65.8024 27.75 65.4229C27.7361 65.3785 26.6434 61.8937 25.9936 59.7923L28.5225 59.4187L32.0151 66.5867C32.2151 66.9969 32.1579 67.4892 31.8696 67.8409Z" fill="#E6A135"/>
</g>
<defs>
<clipPath id="clip0_780_7007">
<rect width="80" height="80" fill="white"/>
</clipPath>
</defs>
</svg>
