<svg width="80" height="80" viewBox="0 0 80 80" fill="none" xmlns="http://www.w3.org/2000/svg">
<g clip-path="url(#clip0_780_6932)">
<path d="M39.8607 10.1656C40.7298 10.1656 41.4343 9.46109 41.4343 8.59203V1.57359C41.4343 0.704531 40.7298 0 39.8607 0C38.9916 0 38.2871 0.704531 38.2871 1.57359V8.59203C38.2873 9.46109 38.9918 10.1656 39.8607 10.1656Z" fill="#E6A135"/>
<path d="M78.324 54.0616L75.5442 51.2895C74.5552 50.3019 73.2373 49.7578 71.8329 49.7578C70.9349 49.7578 70.0729 49.9813 69.309 50.3999L64.0706 45.1677L64.3257 44.9128C66.4509 42.7835 66.4501 39.3233 64.3256 37.2011C63.5663 36.4405 62.619 35.9333 61.5863 35.7199C61.7285 35.2291 61.8034 34.715 61.8034 34.1889C61.8034 32.7272 61.2355 31.3566 60.2077 30.333C59.4484 29.5724 58.5012 29.0652 57.4685 28.8517C57.6107 28.361 57.6856 27.847 57.6856 27.3208C57.6856 25.8589 57.1177 24.4885 56.0882 23.4633C55.3107 22.6867 54.3549 22.1952 53.3513 21.986C53.8882 20.1349 53.4295 18.0522 51.9732 16.5935C50.761 15.3864 49.1162 14.8677 47.531 15.0358L37.1506 13.071C35.5674 12.7706 33.5904 12.572 32.3424 13.7103C32.2637 13.7822 32.1834 13.8649 32.1043 13.9569C30.1693 13.2516 27.9124 13.6716 26.3629 15.2194C25.3349 16.2461 24.7687 17.6161 24.7687 19.077C24.7687 19.6033 24.8432 20.1172 24.9852 20.6081C23.9537 20.8214 23.0076 21.328 22.2509 22.0861C21.2209 23.1119 20.6529 24.4803 20.6518 25.9395C20.6513 26.467 20.7262 26.9827 20.869 27.4749C19.837 27.6877 18.8902 28.1933 18.1312 28.9514C17.1012 29.9803 16.534 31.3511 16.534 32.8113C16.534 33.9297 16.8679 34.9952 17.4866 35.8952C16.7054 36.16 15.9898 36.6008 15.3905 37.1994C13.264 39.3233 13.2632 42.7836 15.392 44.9161L15.6462 45.1692L10.4071 50.3988C8.46008 49.482 6.06117 49.8255 4.45445 51.4302L1.67289 54.2039C0.683516 55.1921 0.138828 56.5102 0.138672 57.9153C0.138672 59.3206 0.683516 60.6389 1.67289 61.6272L5.1443 65.0944C5.75914 65.7086 6.75555 65.708 7.36961 65.0931C7.98383 64.4783 7.9832 63.4819 7.36836 62.8678L3.89695 59.4006C3.50289 59.007 3.28586 58.4795 3.28586 57.9155C3.28586 57.3516 3.50289 56.8242 3.89602 56.4316L6.67773 53.6577C7.37274 52.9635 8.43648 52.86 9.2443 53.343C9.30117 53.4285 9.36695 53.5097 9.44227 53.5852C9.57711 53.7203 9.73102 53.8239 9.89445 53.8997L25.8465 69.8283C25.9223 69.9935 26.0263 70.1489 26.1621 70.2849C26.2943 70.4172 26.4451 70.5196 26.6051 70.5949C26.9424 70.9763 27.1288 71.4635 27.1288 71.9831C27.1288 72.5472 26.9118 73.0746 26.5177 73.4681L23.7388 76.2438C22.9177 77.0613 21.5821 77.0611 20.7635 76.2463L17.2921 72.7745C16.6776 72.16 15.6813 72.16 15.0668 72.7745C14.4523 73.3891 14.4523 74.3853 15.0668 74.9999L18.5407 78.4741C19.5632 79.4924 20.906 80.0013 22.2495 80.0013C23.5932 80.0013 24.9376 79.4916 25.9613 78.4724L28.742 75.695C29.7313 74.7067 30.2762 73.3886 30.2762 71.9831C30.2762 70.9802 29.9973 70.0224 29.4787 69.1964L35.3749 63.3074C35.3812 63.301 35.3874 63.2946 35.3938 63.2881C36.069 62.5902 37.9491 62.7208 39.7674 62.847C41.0593 62.9369 42.4996 63.0367 43.9068 62.8745L50.3637 69.3238C49.9454 70.0864 49.7221 70.9474 49.7221 71.8439C49.7221 73.2478 50.267 74.5652 51.2563 75.5535L54.0371 78.3308C55.0259 79.3185 56.3438 79.8625 57.7482 79.8625C59.1524 79.8625 60.4704 79.3186 61.4593 78.3308L78.3251 61.4855C79.3145 60.4974 79.8593 59.1792 79.8593 57.7739C79.8591 56.3688 79.3143 55.0506 78.324 54.0616ZM36.5646 16.1631L43.3907 17.4552L39.3049 21.5394C38.6729 21.2356 37.8066 20.6691 36.8563 19.76C35.5555 18.5156 34.6251 17.0789 34.5404 16.1828C34.5402 16.1824 34.5402 16.1819 34.5402 16.1814C34.5402 16.1813 34.5401 16.1811 34.5401 16.181C34.534 16.1166 34.5324 16.0652 34.5332 16.026C34.739 15.976 35.2856 15.9205 36.5646 16.1631ZM28.5868 17.4461C29.384 16.6497 30.6224 16.5578 31.5232 17.1678C32.0337 19.3081 33.8595 21.248 34.6809 22.0339C35.2896 22.6164 37.2429 24.3628 39.2145 24.8428C39.4812 25.2252 39.6263 25.681 39.6263 26.1619C39.6263 26.7814 39.3881 27.3606 38.9538 27.7944C38.5209 28.2281 37.9407 28.4669 37.3201 28.4669C36.6993 28.4669 36.1191 28.2281 35.6841 27.7924L35.684 27.7922L35.6832 27.7914L28.5866 20.7077C28.154 20.2756 27.9157 19.6964 27.9157 19.077C27.9159 18.4575 28.1541 17.8783 28.5868 17.4461ZM24.4749 24.3128C24.9079 23.8792 25.4874 23.6403 26.1071 23.6403C26.7276 23.6403 27.309 23.8797 27.7448 24.315L33.4591 30.018C34.359 30.9192 34.359 32.3858 33.4623 33.2839C33.027 33.7175 32.4448 33.9563 31.823 33.9563C31.2013 33.9563 30.6191 33.7175 30.1857 33.2858L30.1856 33.2856L25.8504 28.9514C25.8437 28.9447 25.8363 28.9385 25.8295 28.9316L24.4732 27.576C24.038 27.1413 23.7985 26.561 23.799 25.9419C23.7996 25.3249 24.0384 24.7475 24.4749 24.3128ZM20.3552 31.1781C20.7885 30.7455 21.3693 30.5072 21.9909 30.5072C22.6073 30.5072 23.1831 30.7421 23.6145 31.1672L27.9629 35.5136C28.3965 35.9455 28.6354 36.5241 28.6354 37.1428C28.6354 37.7614 28.3965 38.34 27.9612 38.7736C27.528 39.2061 26.9479 39.4444 26.3274 39.4444C25.706 39.4444 25.124 39.2055 24.6902 38.7736L23.1138 37.1991C23.1135 37.1986 23.113 37.1983 23.1127 37.198L20.3554 34.4439C19.9207 34.0097 19.6813 33.4297 19.6813 32.811C19.6813 32.1924 19.9207 31.6122 20.3552 31.1781ZM17.6146 39.426C18.0498 38.9913 18.6313 38.7519 19.2521 38.7519C19.8727 38.7519 20.4541 38.9911 20.8891 39.4255L22.4677 41.0022C22.9015 41.4341 23.1402 42.0127 23.1402 42.6314C23.1402 43.2502 22.9013 43.8286 22.4645 44.2639C22.0315 44.6975 21.4513 44.9364 20.8307 44.9364C20.2099 44.9364 19.6298 44.6977 19.1937 44.2608L18.996 44.0639C18.9934 44.0613 18.9913 44.0585 18.9888 44.056C18.9859 44.0531 18.9827 44.0506 18.9798 44.0478L17.6162 42.6896C16.7163 41.7878 16.7155 40.3239 17.6146 39.426ZM49.6824 57.31C49.0682 56.695 48.0718 56.6945 47.4571 57.3086L46.0571 58.7069C44.7268 60.0372 42.3163 59.8697 39.9852 59.708C37.4538 59.5321 34.8362 59.3505 33.1423 61.0895L27.3462 66.8786L12.852 52.4056L17.9813 47.2855C18.8291 47.8052 19.8074 48.0838 20.831 48.0838C22.2934 48.0838 23.6646 47.5169 24.6888 46.4908C25.7199 45.4639 26.2879 44.0935 26.2879 42.6316C26.2879 42.618 26.287 42.6045 26.287 42.591C26.3005 42.5911 26.3141 42.5919 26.3277 42.5919C27.788 42.5919 29.1582 42.0267 30.1838 41.0024C31.2149 39.9755 31.7829 38.6049 31.7829 37.1431C31.7829 37.1295 31.782 37.1161 31.782 37.1025C31.7957 37.1025 31.8095 37.1035 31.8234 37.1035C33.2832 37.1035 34.6541 36.5389 35.6866 35.5106C36.7585 34.437 37.2887 33.0236 37.2785 31.6131C37.2926 31.6133 37.3066 31.6141 37.3207 31.6141C38.7831 31.6139 40.1541 31.0472 41.1799 30.0196C42.2079 28.9928 42.7741 27.6228 42.7741 26.1619C42.7741 25.1402 42.4963 24.1635 41.9784 23.3174L46.4741 18.8235C46.8091 18.4899 47.2223 18.2805 47.6552 18.1941C47.7021 18.1891 47.7484 18.1816 47.7941 18.1725C48.4888 18.0767 49.2184 18.2911 49.7496 18.8202C50.6495 19.7216 50.6495 21.1881 49.7529 22.0863L48.3837 23.4499C48.3791 23.4544 48.3743 23.4585 48.3698 23.463L46.7927 25.0374C46.1777 25.6514 46.1771 26.6478 46.7913 27.2627C47.4057 27.8777 48.402 27.8781 49.0166 27.2641L50.3913 25.8913C50.3916 25.891 50.392 25.8906 50.3923 25.8903L50.6001 25.6833C51.5024 24.7892 52.9643 24.7911 53.8657 25.6913C54.2995 26.1231 54.5384 26.7017 54.5384 27.3205C54.5384 27.9391 54.2995 28.5177 53.8623 28.953L52.4852 30.3328C52.4851 30.333 52.4849 30.3331 52.4848 30.3335L50.9079 31.9039C50.2921 32.5172 50.2901 33.5136 50.9034 34.1292C51.5166 34.745 52.5129 34.7469 53.1287 34.1338L54.7127 32.5561C55.1457 32.1224 55.7259 31.8836 56.3465 31.8836C56.9673 31.8836 57.5476 32.1224 57.9837 32.5592C58.4174 32.9913 58.6562 33.5699 58.6562 34.1886C58.6562 34.8072 58.4174 35.3858 57.9812 35.8202L55.2359 38.5666C54.6215 39.1813 54.6216 40.1775 55.2362 40.7919C55.5435 41.0991 55.946 41.2525 56.3487 41.2525C56.7515 41.2525 57.1543 41.0988 57.4615 40.7914L58.807 39.4455C58.8146 39.4381 58.8229 39.4317 58.8306 39.4241C59.2635 38.9903 59.8437 38.7516 60.4643 38.7516C61.0851 38.7516 61.6652 38.9903 62.0998 39.4256C62.9987 40.3236 62.9979 41.7877 62.0998 42.6874L60.7318 44.0538C60.7313 44.0542 60.7307 44.0547 60.7302 44.0552C60.7298 44.0556 60.7293 44.0563 60.7288 44.0567L58.5576 46.2253C57.9427 46.8396 57.9421 47.836 58.5562 48.4508C58.8635 48.7585 59.2666 48.9124 59.6696 48.9124C60.072 48.9124 60.4745 48.7589 60.7816 48.4522L61.8437 47.3914L66.9338 52.4756L52.4409 66.951L47.2481 61.7644C47.6101 61.5316 47.9565 61.2578 48.2816 60.9327L49.6809 59.5352C50.296 58.9213 50.2966 57.9249 49.6824 57.31ZM76.1009 59.2588L59.2351 76.1041C58.8405 76.4981 58.3124 76.7152 57.7481 76.7152C57.1837 76.7152 56.6555 76.4981 56.2609 76.1039L53.4801 73.3266C53.086 72.9331 52.869 72.4066 52.869 71.8439C52.869 71.2814 53.086 70.7549 53.4801 70.3613L70.3459 53.516C70.7406 53.1217 71.2685 52.9047 71.8331 52.9047C72.3974 52.9047 72.9256 53.1217 73.3212 53.5169L76.101 56.2889C76.4951 56.6825 76.7121 57.2097 76.7121 57.7738C76.712 58.338 76.4949 58.8653 76.1009 59.2588Z" fill="#E6A135"/>
<path d="M18.9617 8.83596C19.2689 9.14252 19.6711 9.29565 20.0732 9.29565C20.4764 9.29565 20.8796 9.14158 21.187 8.83361C21.8009 8.21846 21.8 7.22221 21.1848 6.6083L15.4507 0.885645C14.8357 0.271739 13.8393 0.27252 13.2254 0.887833C12.6115 1.50299 12.6125 2.49924 13.2276 3.11315L18.9617 8.83596Z" fill="#E6A135"/>
<path d="M59.6439 9.29754C60.0462 9.29754 60.4487 9.1441 60.7559 8.83738L66.4856 3.11457C67.1004 2.50051 67.1011 1.5041 66.4868 0.889258C65.8728 0.274414 64.8765 0.273789 64.2615 0.888008L58.5318 6.61082C57.917 7.22488 57.9164 8.22129 58.5306 8.83613C58.8379 9.14379 59.2409 9.29754 59.6439 9.29754Z" fill="#E6A135"/>
<path d="M9.81861 67.6892C9.20939 68.3089 9.21783 69.3053 9.83767 69.9145L9.84221 69.9189C10.148 70.2195 10.545 70.3692 10.9419 70.3692C11.3492 70.3692 11.7566 70.2115 12.0652 69.8976C12.6744 69.2779 12.6636 68.2793 12.0439 67.6701C11.4244 67.0609 10.4281 67.0695 9.81861 67.6892Z" fill="#E6A135"/>
<path d="M53.5288 55.0428C53.7681 55.0428 54.0109 54.9883 54.2389 54.8735C55.0149 54.4821 55.3266 53.5358 54.9353 52.7599C54.5439 51.9839 53.5975 51.6721 52.8217 52.0635L52.813 52.0678C52.037 52.4592 51.7297 53.4033 52.1209 54.1792C52.3972 54.7274 52.9528 55.0428 53.5288 55.0428Z" fill="#E6A135"/>
</g>
<defs>
<clipPath id="clip0_780_6932">
<rect width="80" height="80" fill="white"/>
</clipPath>
</defs>
</svg>
