<svg width="80" height="80" viewBox="0 0 80 80" fill="none" xmlns="http://www.w3.org/2000/svg">
<path d="M68.2153 35.2917C67.302 34.5716 66.103 34.4748 65.0861 35.0405L61.383 37.1002C60.7262 37.4655 60.3083 38.1039 60.2361 38.8514C60.2291 38.9241 60.2283 38.9959 60.228 39.0678L58.4317 40.0669C55.9267 41.46 53.2422 41.7005 50.4523 40.7808C46.9286 39.6195 43.1551 40.2692 39.2364 42.7122L39.1311 42.7778C35.9737 40.777 33.1411 41.0222 30.3962 41.2603C27.5078 41.5109 24.5217 41.7698 20.6125 39.5709L19.775 39.0998C19.7758 39.0177 19.7739 38.9348 19.7658 38.8512C19.6933 38.1034 19.2751 37.4652 18.6187 37.1L14.9155 35.0402C13.8989 34.4752 12.6998 34.5713 11.7864 35.2916C5.72092 40.0756 2.34639 48.5778 3.76248 55.508C3.95201 56.4344 4.55967 57.1775 5.42967 57.5469L8.33342 58.78C8.62233 58.9025 8.92233 58.9633 9.21983 58.9633C9.64717 58.9633 10.0698 58.838 10.447 58.5913C10.5619 58.5161 10.6647 58.4298 10.7617 58.3389L17.6448 61.8873L19.6747 64.0717L19.5705 64.2522C19.0259 65.1955 18.882 66.2975 19.1653 67.3552C19.4487 68.4128 20.1244 69.2952 21.0678 69.8398C21.6834 70.1952 22.3672 70.3797 23.0625 70.3858C22.8319 71.1189 22.8139 71.9055 23.0184 72.6687C23.3019 73.7264 23.9775 74.6087 24.9209 75.1534C26.2281 75.9081 27.7833 75.8572 29.0073 75.1547C29.3517 75.9688 29.9464 76.6448 30.722 77.0927C31.6644 77.6366 32.7664 77.7803 33.8247 77.4966C34.2364 77.3862 34.6215 77.2167 34.9705 76.9952C35.3205 77.7633 35.8972 78.4013 36.6398 78.83C37.2661 79.1914 37.9626 79.3763 38.6701 79.3761C39.0273 79.3761 39.3875 79.3291 39.7425 79.2339C40.8008 78.9505 41.6834 78.2752 42.2275 77.3328L42.2522 77.2902L43.0434 77.7352C43.949 78.258 44.8022 78.4791 45.5697 78.4791C47.0309 78.4791 48.1806 77.6772 48.7848 76.6305C49.0858 76.1094 49.263 75.5022 49.2848 74.8788C50.8551 75.1344 52.4934 74.418 53.3351 72.9605C53.7722 72.2034 53.9283 71.3602 53.8366 70.5517C55.24 70.5295 56.5987 69.7941 57.3501 68.4925C57.8333 67.6556 57.9878 66.7181 57.8558 65.8292C58.1684 65.8183 58.4823 65.7739 58.7923 65.6906C59.8587 65.405 60.7486 64.7237 61.2976 63.7727C61.6794 63.1114 61.8639 62.3461 61.8403 61.5809L69.1141 58.2156C69.2422 58.3561 69.3889 58.4828 69.5548 58.5914C69.9317 58.838 70.354 58.9633 70.7817 58.9633C71.0794 58.9633 71.3794 58.9025 71.6684 58.78L74.572 57.5469C75.4419 57.1773 76.0497 56.4342 76.2392 55.5078C77.6553 48.5778 74.2809 40.0756 68.2153 35.2916V35.2917ZM9.24889 56.7609C9.22108 56.7791 9.21873 56.7795 9.18826 56.7664L6.28467 55.5333C6.07233 55.4431 5.95186 55.2958 5.90561 55.0698C4.64576 48.9052 7.68858 41.3095 13.1409 37.0091C13.2631 36.9127 13.3969 36.8641 13.5334 36.8641C13.6394 36.8641 13.7469 36.8933 13.8523 36.9519L17.5555 39.0116C17.5756 39.0228 17.5814 39.0303 17.5814 39.0303C17.5814 39.0303 17.5861 39.0389 17.5883 39.0616C17.5906 39.0844 17.5876 39.0934 17.5876 39.0934C17.5876 39.0934 17.5833 39.102 17.5653 39.117C12.2145 43.6219 9.34858 49.7047 9.2778 56.7073C9.27748 56.7406 9.27639 56.7428 9.24873 56.7608L9.24889 56.7609ZM22.1617 67.9453C21.7244 67.6928 21.4106 67.2822 21.2786 66.7889C21.1464 66.2958 21.2126 65.7831 21.4651 65.3459L23.6189 61.6153C23.8708 61.1789 24.2815 60.8658 24.7755 60.7333C25.2698 60.6006 25.782 60.6667 26.2183 60.9189C27.1269 61.4434 27.4394 62.6092 26.9151 63.518L24.7606 67.2495C24.2358 68.158 23.07 68.4698 22.1615 67.9453H22.1617ZM28.6145 72.5623C28.0895 73.4712 26.9231 73.7836 26.0147 73.2591C25.5773 73.0066 25.2636 72.5959 25.1315 72.1027C24.9994 71.6095 25.0656 71.0969 25.3181 70.6597L26.6148 68.4133L26.653 68.3472C26.6539 68.3458 26.6547 68.3442 26.6556 68.3427C26.6556 68.3425 26.6558 68.3422 26.6559 68.3419L28.8089 64.6128C28.8089 64.6128 28.8092 64.6125 28.8092 64.6122C29.0611 64.1756 29.472 63.8623 29.9659 63.73C30.4606 63.5972 30.9723 63.6634 31.4086 63.9155C32.3172 64.44 32.6297 65.6058 32.1055 66.5147C32.1055 66.5147 32.1055 66.515 32.1051 66.5152C32.105 66.5155 32.1048 66.5159 32.1045 66.5164L29.0787 71.7572L28.614 72.5623H28.6145ZM33.2587 75.3839C32.7642 75.5166 32.2522 75.4505 31.8159 75.1983C31.3786 74.9458 31.0648 74.5352 30.9328 74.0419C30.8006 73.5488 30.8669 73.0361 31.1194 72.5989C31.3719 72.1617 34.0033 67.6038 34.0033 67.6038C34.2555 67.1702 34.6648 66.8587 35.157 66.727C35.6506 66.5947 36.1634 66.6605 36.5997 66.9123C37.5078 67.4369 37.8206 68.602 37.2972 69.5106C37.2969 69.5111 37.2965 69.5117 37.2962 69.5122C37.2959 69.5127 37.2958 69.5133 37.2955 69.5137L34.8678 73.7186L34.4155 74.502C34.1636 74.9384 33.7526 75.2517 33.2587 75.3842V75.3839ZM40.3331 76.2394C40.0812 76.6758 39.6705 76.9889 39.1765 77.1214C38.6822 77.2541 38.17 77.188 37.7337 76.9358C37.2964 76.6833 36.9826 76.2727 36.8506 75.7794C36.7184 75.2862 36.7847 74.7736 37.0372 74.3364C37.0372 74.3363 37.0373 74.3359 37.0375 74.3358L39.1917 70.6044C39.7167 69.6969 40.882 69.385 41.7903 69.9094C42.2276 70.1619 42.5414 70.5725 42.6734 71.0658C42.8058 71.5591 42.7394 72.0717 42.4869 72.5089L40.3331 76.2394ZM59.4034 62.6791C59.1464 63.1242 58.7286 63.4434 58.2265 63.578C57.7244 63.7125 57.203 63.6453 56.7576 63.388L55.8431 62.86C55.8423 62.8595 55.8416 62.8591 55.8408 62.8586C55.8403 62.8584 55.84 62.8583 55.8395 62.858L53.5778 61.5522C53.0544 61.2505 52.3858 61.4295 52.0837 61.9525C51.7817 62.4756 51.9611 63.1445 52.4841 63.4466L54.7481 64.7538C55.6722 65.288 55.9897 66.4742 55.4559 67.3989C54.922 68.3239 53.735 68.6414 52.81 68.108L51.8987 67.5817C51.8969 67.5806 51.895 67.5794 51.8931 67.5783C51.8912 67.5772 50.8392 66.9698 50.8392 66.9698C50.3161 66.6677 49.6472 66.8469 49.3451 67.3702C49.043 67.8933 49.2222 68.5622 49.7455 68.8642L50.7994 69.4728C51.6362 69.9559 51.924 71.03 51.4408 71.8667C50.9575 72.7036 49.8836 72.9912 49.047 72.5083L47.3384 71.5217C46.8153 71.22 46.1464 71.3988 45.8444 71.922C45.5422 72.4452 45.7214 73.1141 46.2445 73.4161L46.2495 73.4191C47.2087 73.9759 47.2547 74.9067 46.8908 75.537C46.4944 76.2239 45.5626 76.6639 44.1267 75.8348L43.3464 75.3961L44.3817 73.6028C45.5095 71.6494 44.8378 69.1427 42.8844 68.0148C41.86 67.4236 40.6839 67.3272 39.6344 67.6503C39.3895 66.5795 38.7176 65.6094 37.6937 65.018C36.7512 64.4739 35.6494 64.3309 34.5909 64.6141C34.5419 64.6273 34.493 64.6414 34.4444 64.6562C34.2001 63.5844 33.528 62.613 32.503 62.0213C31.5606 61.4773 30.459 61.3344 29.4003 61.6173C29.3506 61.6308 29.3012 61.645 29.2523 61.6598C29.2408 61.6097 29.2284 61.5594 29.215 61.5094C28.9315 60.4516 28.2559 59.5692 27.3125 59.0245C26.3701 58.4806 25.2683 58.3367 24.2098 58.6206C23.1515 58.9041 22.2689 59.5794 21.7248 60.5217L20.8197 62.0897L19.1178 60.2583C19.0317 60.1656 18.9301 60.0887 18.8176 60.0308L11.4767 56.2464C11.6575 50.1384 14.0915 45.0177 18.7161 41.0139L19.5406 41.4777C24.0389 44.0075 27.517 43.7058 30.5856 43.4397C32.9345 43.2359 34.8795 43.0681 37.0155 44.0972L29.499 48.7836C28.5397 49.3817 27.9736 50.2753 27.9048 51.2997C27.83 52.4119 28.3725 53.5905 29.3203 54.3755C32.63 57.1158 35.6839 55.6237 38.3783 54.3073C40.0653 53.4833 41.8098 52.6309 43.7267 52.6195H43.7664C45.8612 52.6195 47.5612 53.603 49.3601 54.6437L58.6456 60.0048C59.2817 60.4709 59.4131 60.7647 59.605 61.2595C59.7191 61.7442 59.6469 62.2588 59.404 62.6792L59.4034 62.6791ZM59.7883 58.1386L50.4553 52.7502C48.472 51.6028 46.4251 50.4105 43.7136 50.432C41.2975 50.4464 39.2362 51.4533 37.4176 52.3419C34.5561 53.7398 32.8339 54.4452 30.7151 52.6905C30.3056 52.3514 30.059 51.863 30.087 51.4463C30.1083 51.1291 30.2944 50.8653 30.6559 50.64L40.3937 44.5686C43.7825 42.4558 46.8489 41.8961 49.7676 42.8584C53.1136 43.9611 56.4773 43.657 59.4951 41.9784L61.2639 40.9947C65.8609 44.965 68.3008 50.0355 68.5208 56.0803L61.1636 59.4842C60.9023 59.0838 60.5167 58.6562 59.8801 58.1981C59.8506 58.1767 59.8197 58.1569 59.7881 58.1386H59.7883ZM74.0961 55.0698C74.0498 55.2959 73.9295 55.4433 73.717 55.5334L70.8137 56.7664C70.7826 56.7798 70.7811 56.7795 70.753 56.7612C70.7251 56.7431 70.7241 56.7409 70.7237 56.708C70.653 49.705 67.787 43.6222 62.4359 39.1172C62.4209 39.1045 62.415 39.0958 62.4141 39.0939C62.4133 39.0917 62.4116 39.0814 62.4134 39.0619C62.4153 39.0423 62.4191 39.0325 62.4201 39.0306C62.4216 39.0288 62.4292 39.0212 62.4461 39.0119L66.1491 36.9523C66.2547 36.8936 66.3622 36.8645 66.4681 36.8645C66.6047 36.8645 66.7383 36.9131 66.8606 37.0095C72.313 41.3098 75.3558 48.9056 74.0959 55.0702L74.0961 55.0698ZM29.849 23.2894C31.2694 25.2708 32.4958 26.9819 32.4958 29.5066V32.5814C32.4958 34.3042 33.8031 35.7262 35.4776 35.9105V37.2297C35.4776 38.785 36.7431 40.0505 38.2984 40.0505H41.703C43.2583 40.0505 44.5237 38.785 44.5237 37.2297V35.9105C46.1983 35.7262 47.5056 34.3042 47.5056 32.5814V29.5066C47.5056 26.982 48.7322 25.2709 50.1523 23.2895C51.9169 20.8278 53.9169 18.0378 53.9169 13.2053C53.9169 9.31188 52.3887 6.03688 49.4975 3.73469C46.979 1.72938 43.6064 0.625 40.0008 0.625C36.3951 0.625 33.0225 1.72938 30.5042 3.73469C27.613 6.03688 26.0848 9.31188 26.0848 13.2053C26.0848 18.0378 28.0847 20.8278 29.849 23.2894ZM41.703 37.863H38.2984C37.9551 37.863 37.6651 37.5731 37.6651 37.2297V35.9317H42.3362V37.2297C42.3362 37.573 42.0464 37.863 41.703 37.863ZM44.1551 33.7444H35.8461C35.2048 33.7444 34.6833 33.2227 34.6833 32.5816V31.4636H45.318V32.5816C45.318 33.2228 44.7962 33.7444 44.1551 33.7444ZM41 29.2759H39.0012V21.2439C39.6565 21.3156 40.3448 21.3156 41 21.2439V29.2759ZM40.0006 2.8125C45.6494 2.8125 51.7292 6.06469 51.7292 13.2055C51.7292 17.335 50.0237 19.7142 48.3742 22.0153C46.9078 24.0611 45.3934 26.1753 45.3214 29.2761H43.1873V20.9964C43.1873 20.9009 43.1878 20.8066 43.1889 20.713C45.0411 19.9928 46.5406 18.6406 47.3789 16.8431C48.3726 14.7125 48.365 12.8034 47.358 11.7359C46.6956 11.0339 45.7275 10.842 44.7691 11.223C43.1556 11.8641 41.444 14.2486 41.0733 19.0231C40.7058 19.0828 40.3445 19.1106 40.0006 19.1106C39.6567 19.1106 39.2953 19.0828 38.928 19.0231C38.5572 14.2486 36.8456 11.8641 35.2322 11.223C34.2734 10.842 33.3053 11.0339 32.6433 11.7359C31.6364 12.8033 31.6286 14.7125 32.6223 16.8431C33.4606 18.6406 34.9603 19.9927 36.8123 20.713C36.8134 20.8067 36.8139 20.9009 36.8139 20.9964V29.2761H34.6798C34.6078 26.1753 33.0933 24.0609 31.627 22.0152C29.9776 19.7142 28.2722 17.335 28.2722 13.2055C28.2722 6.06484 34.3519 2.8125 40.0006 2.8125ZM43.3575 18.1931C43.7203 15.4256 44.6 13.8802 45.379 13.3623C45.562 13.2406 45.6817 13.2195 45.7286 13.2195C45.7395 13.2195 45.7465 13.2208 45.7497 13.222C45.7589 13.2259 45.8061 13.2681 45.8514 13.3877C46.0087 13.8023 45.9719 14.685 45.3965 15.9184C44.9167 16.9475 44.1858 17.6867 43.3575 18.1931ZM36.6436 18.1931C35.8151 17.6869 35.0845 16.9475 34.6045 15.9183C34.0292 14.6847 33.9923 13.8022 34.1497 13.3875C34.195 13.268 34.2423 13.2259 34.2514 13.2219C34.2545 13.2206 34.2614 13.2194 34.2725 13.2194C34.3195 13.2194 34.439 13.2405 34.622 13.3622C35.4009 13.88 36.2806 15.4256 36.6436 18.1931ZM53.6564 5.045C53.3544 4.52172 53.5337 3.85297 54.0567 3.55094L56.6155 2.07375C57.1387 1.77187 57.8075 1.95094 58.1095 2.47406C58.4115 2.99734 58.2322 3.66609 57.7092 3.96812L55.1505 5.44531C54.9781 5.54469 54.7901 5.59188 54.6047 5.59188C54.2266 5.59188 53.8591 5.39594 53.6564 5.045ZM57.0601 12.5723H60.0147C60.6187 12.5723 61.1084 13.062 61.1084 13.6661C61.1084 14.2702 60.6187 14.7598 60.0147 14.7598H57.0601C56.4561 14.7598 55.9664 14.2702 55.9664 13.6661C55.9664 13.062 56.4561 12.5723 57.0601 12.5723ZM57.7092 23.3639C58.2323 23.6661 58.4115 24.335 58.1095 24.858C57.9069 25.2089 57.5392 25.405 57.1612 25.405C56.9756 25.405 56.7876 25.3577 56.6155 25.2584L54.0567 23.7811C53.5336 23.4789 53.3544 22.81 53.6564 22.287C53.9586 21.7637 54.6275 21.5852 55.1505 21.8867L57.7092 23.3641V23.3639ZM21.8917 2.47391C22.1937 1.95094 22.8625 1.77172 23.3858 2.07359L25.9445 3.55078C26.4676 3.85297 26.6469 4.52172 26.3448 5.04484C26.1422 5.39563 25.7745 5.59188 25.3965 5.59188C25.2109 5.59188 25.023 5.54469 24.8508 5.44531L22.292 3.96812C21.7689 3.66594 21.5897 2.99703 21.8917 2.47391ZM18.893 13.6659C18.893 13.0619 19.3826 12.5722 19.9867 12.5722H22.9412C23.5453 12.5722 24.035 13.0619 24.035 13.6659C24.035 14.27 23.5453 14.7597 22.9412 14.7597H19.9867C19.3826 14.7597 18.893 14.27 18.893 13.6659ZM26.345 22.2869C26.647 22.81 26.4676 23.4789 25.9447 23.7809L23.3859 25.2583C23.2136 25.3577 23.0256 25.4048 22.8401 25.4048C22.462 25.4048 22.0945 25.2087 21.8919 24.8578C21.5898 24.3347 21.7692 23.6658 22.2922 23.3638L24.8509 21.8864C25.3744 21.5845 26.043 21.7636 26.345 22.2867V22.2869Z" fill="#E6A135"/>
</svg>
