<svg width="80" height="80" viewBox="0 0 80 80" fill="none" xmlns="http://www.w3.org/2000/svg">
<g clip-path="url(#clip0_780_7024)">
<path d="M48.889 22.4034C49.1942 22.7086 49.594 22.8611 49.9939 22.8611C50.3937 22.8611 50.7937 22.7086 51.0987 22.4034C51.7089 21.7932 51.7089 20.8039 51.0987 20.1936L51.0776 20.1725C50.4675 19.5623 49.4781 19.5623 48.8678 20.1725C48.2576 20.7826 48.2576 21.772 48.8678 22.3823L48.889 22.4034Z" fill="#E6A135"/>
<path d="M74.0963 37.1875L79.5423 31.7414C79.9892 31.2945 80.1228 30.6223 79.8809 30.0386C79.6391 29.4547 79.0694 29.0741 78.4373 29.0741H67.1481C65.6725 23.0334 62.5755 17.5292 58.1481 13.1017C51.7148 6.66812 43.1609 3.125 34.0625 3.125C24.9641 3.125 16.4102 6.66812 9.97672 13.1017C3.54313 19.5353 0 28.0891 0 37.1875C0 46.2859 3.54313 54.8398 9.97672 61.2733C11.8898 63.1864 13.9916 64.8417 16.2383 66.2264L11.5309 74.5428C11.2572 75.0266 11.2609 75.6194 11.5409 76.0994C11.8208 76.5797 12.3347 76.875 12.8906 76.875H20.9375C21.5005 76.875 22.02 76.5722 22.2973 76.0822L25.6258 70.2017C28.35 70.8928 31.1788 71.25 34.0625 71.25C36.9463 71.25 39.775 70.8928 42.4992 70.2017L45.8277 76.0822C46.105 76.5722 46.6245 76.875 47.1875 76.875H55.2344C55.7903 76.875 56.3042 76.5797 56.5842 76.0995C56.8642 75.6194 56.868 75.0266 56.5942 74.543L51.8869 66.2266C54.1336 64.8417 56.2353 63.1866 58.1484 61.2734C62.5741 56.8478 65.6727 51.3413 67.1481 45.3011H78.4375C79.0694 45.3011 79.6392 44.9203 79.8811 44.3366C80.123 43.7528 79.9892 43.0806 79.5425 42.6337L74.0963 37.1875ZM71.2392 35.625H60.3347L63.7606 32.1991H74.6653L71.2392 35.625ZM20.0264 73.75H15.5705L18.9714 67.7417C20.1386 68.3195 21.3369 68.8306 22.5628 69.2691L20.0264 73.75ZM52.5545 73.75H48.0986L45.5622 69.2691C46.7881 68.8306 47.9864 68.3195 49.1536 67.7417L52.5545 73.75ZM55.9386 59.0636C53.8745 61.1277 51.5692 62.8623 49.0877 64.2452C49.057 64.26 49.0261 64.2741 48.9959 64.2911C48.977 64.3019 48.9598 64.3142 48.9416 64.3256C47.038 65.3728 45.032 66.2136 42.9506 66.8345C42.8688 66.8508 42.7878 66.8748 42.708 66.9048C39.9339 67.7077 37.0305 68.125 34.0625 68.125C31.0945 68.125 28.1911 67.7077 25.417 66.905C25.337 66.875 25.2561 66.8509 25.1741 66.8347C23.0928 66.2137 21.0869 65.373 19.1834 64.3258C19.1652 64.3144 19.148 64.302 19.1291 64.2912C19.0989 64.2742 19.0681 64.2602 19.0375 64.2453C16.5559 62.8625 14.2506 61.1278 12.1866 59.0636C6.34313 53.2203 3.125 45.4512 3.125 37.1875C3.125 28.9237 6.34312 21.1547 12.1864 15.3114C18.0297 9.46812 25.7987 6.25 34.0625 6.25C42.3262 6.25 50.0953 9.46812 55.9386 15.3114C59.7781 19.1509 62.5166 23.8808 63.9227 29.0741H63.1136C62.6992 29.0741 62.3017 29.2388 62.0087 29.5317L57.8617 33.6788C57.4433 30.838 56.5248 28.0758 55.138 25.5638C54.7209 24.8083 53.7703 24.5342 53.0148 24.9511C52.2594 25.3681 51.9852 26.3187 52.4022 27.0742C53.8855 29.7608 54.7141 32.6817 54.9261 35.6252H48.0367C47.6889 32.4602 46.2903 29.5281 44.0063 27.2441C41.3502 24.5878 37.8187 23.125 34.0625 23.125C30.3062 23.125 26.7748 24.5878 24.1189 27.2437C21.4628 29.9 20 33.4312 20 37.1875C20 40.9437 21.4628 44.4752 24.1187 47.1311C26.7748 49.7872 30.3062 51.25 34.0625 51.25C37.8187 51.25 41.3502 49.7872 44.0061 47.1313C46.2902 44.8472 47.6887 41.9152 48.0366 38.75H54.9192C54.5466 43.6344 52.4855 48.3744 48.8675 51.9925C44.913 55.9472 39.655 58.125 34.0625 58.125C28.47 58.125 23.212 55.9472 19.2575 51.9925C15.3028 48.038 13.125 42.7802 13.125 37.1875C13.125 31.5948 15.3028 26.337 19.2575 22.3825C25.8172 15.8228 36.0641 14.3694 44.1759 18.848C44.9313 19.2648 45.8819 18.9908 46.2991 18.2353C46.7161 17.4798 46.4419 16.5294 45.6864 16.1122C41.2106 13.6411 35.9405 12.6562 30.8472 13.3397C25.5839 14.0456 20.812 16.4084 17.0478 20.1728C12.503 24.7177 10 30.7602 10 37.1875C10 43.6148 12.503 49.6575 17.0477 54.2022C21.5925 58.747 27.6352 61.25 34.0625 61.25C40.4898 61.25 46.5325 58.747 51.0772 54.2023C54.7702 50.5095 57.113 45.8469 57.8672 40.702L62.0086 44.8434C62.3016 45.1364 62.6991 45.3011 63.1134 45.3011H63.9222C62.5161 50.4941 59.7766 55.2256 55.9386 59.0636ZM39.1656 34.2412C38.7342 33.4937 37.7786 33.2378 37.0312 33.6694L33.2812 35.8344C32.7978 36.1134 32.5 36.6292 32.5 37.1875C32.5 37.7458 32.7978 38.2616 33.2812 38.5406L37.0312 40.7056C37.2773 40.8477 37.5459 40.9152 37.8111 40.9152C38.3511 40.9152 38.8763 40.635 39.1656 40.1337C39.4192 39.6947 39.4338 39.1842 39.2523 38.75H44.8886C44.5575 41.0786 43.4892 43.2288 41.7964 44.9214C39.7306 46.9873 36.9841 48.125 34.0625 48.125C31.1409 48.125 28.3944 46.9873 26.3284 44.9214C24.2627 42.8556 23.125 40.1091 23.125 37.1875C23.125 34.2659 24.2627 31.5194 26.3286 29.4534C28.3944 27.3877 31.1409 26.25 34.0625 26.25C36.9841 26.25 39.7306 27.3877 41.7966 29.4536C43.4892 31.1463 44.5577 33.2964 44.8887 35.625H39.2525C39.4338 35.1906 39.4192 34.6803 39.1656 34.2412ZM63.7606 42.1759L60.3347 38.75H71.2392L74.6653 42.1759H63.7606Z" fill="#E6A135"/>
</g>
<defs>
<clipPath id="clip0_780_7024">
<rect width="80" height="80" fill="white"/>
</clipPath>
</defs>
</svg>
