<svg width="80" height="80" viewBox="0 0 80 80" fill="none" xmlns="http://www.w3.org/2000/svg">
<path d="M30.625 33.75C31.4874 33.75 32.1875 33.0499 32.1875 32.1875C32.1875 31.3208 31.4801 30.625 30.625 30.625C29.7626 30.625 29.0625 31.3251 29.0625 32.1875C29.0625 33.0505 29.7626 33.75 30.625 33.75Z" fill="#E6A135"/>
<path d="M40 13.4375C40.863 13.4375 41.5625 12.738 41.5625 11.875V1.5625C41.5625 0.699463 40.863 0 40 0C39.137 0 38.4375 0.699463 38.4375 1.5625V11.875C38.4375 12.738 39.137 13.4375 40 13.4375Z" fill="#E6A135"/>
<path d="M38.4375 68.125V78.4375C38.4375 79.3005 39.137 80 40 80C40.863 80 41.5625 79.3005 41.5625 78.4375V68.125C41.5625 67.262 40.863 66.5625 40 66.5625C39.137 66.5625 38.4375 67.262 38.4375 68.125Z" fill="#E6A135"/>
<path d="M15.8823 21.2168C16.4927 21.8271 17.4814 21.8271 18.0924 21.2168C18.7021 20.6071 18.7021 19.6177 18.0924 19.0073L11.4622 12.3777C10.8524 11.7673 9.86304 11.7673 9.25269 12.3777C8.64233 12.988 8.64233 13.9774 9.25269 14.5872L15.8823 21.2168Z" fill="#E6A135"/>
<path d="M61.907 60.344C61.2966 60.9544 61.2966 61.9438 61.907 62.5541L68.5366 69.1837C69.1464 69.7935 70.1357 69.7941 70.7461 69.1837C71.3564 68.5734 71.3564 67.584 70.7461 66.9737L64.1165 60.344C63.5061 59.7343 62.5173 59.7343 61.907 60.344Z" fill="#E6A135"/>
<path d="M64.1165 21.2168L70.7461 14.5872C71.3564 13.9774 71.3564 12.988 70.7461 12.3777C70.1357 11.7673 69.147 11.7673 68.5366 12.3777L61.907 19.0073C61.2966 19.6177 61.2966 20.6071 61.907 21.2168C62.5173 21.8271 63.5061 21.8271 64.1165 21.2168Z" fill="#E6A135"/>
<path d="M15.8823 60.3445L9.25269 66.9741C8.64233 67.5839 8.64233 68.5732 9.25269 69.1836C9.86304 69.7939 10.8518 69.7939 11.4622 69.1836L18.0924 62.554C18.7021 61.9436 18.7021 60.9542 18.0924 60.3445C17.4821 59.7341 16.4927 59.7341 15.8823 60.3445Z" fill="#E6A135"/>
<path d="M14.0367 51.3495C22.1794 58.2355 31.1577 61.875 39.9998 61.875C48.8426 61.875 57.8203 58.2355 65.963 51.3495C72.0641 46.1902 75.5272 41.087 75.6712 40.8722C76.0258 40.3448 76.0258 39.6552 75.6712 39.1278C75.5272 38.9136 72.0641 33.8098 65.963 28.6505C57.8203 21.7645 48.8426 18.125 39.9998 18.125C31.1577 18.125 22.1794 21.7645 14.0367 28.6505C7.93625 33.8098 4.47311 38.913 4.32846 39.1278C3.97385 39.6552 3.97385 40.3448 4.32846 40.8722C4.47311 41.087 7.93625 46.1902 14.0367 51.3495ZM16.0545 31.037C21.3341 26.5723 29.774 21.25 39.9998 21.25C50.1945 21.25 58.6125 26.5417 63.8792 30.9808C68.2292 34.6478 71.2163 38.36 72.448 40.0012C71.226 41.6309 68.2719 45.304 63.9452 48.963C58.6656 53.4277 50.2257 58.75 39.9998 58.75C29.8051 58.75 21.3872 53.4583 16.1211 49.0192C11.7705 45.3522 8.78281 41.6394 7.55234 39.9994C8.77365 38.3691 11.7278 34.696 16.0545 31.037Z" fill="#E6A135"/>
<path d="M40 54.0625C47.8021 54.0625 54.0625 47.7301 54.0625 40C54.0625 32.2461 47.7539 25.9375 40 25.9375C38.3582 25.9375 36.5759 26.2384 34.967 26.8652C34.1626 27.1777 33.764 28.0835 34.0765 28.8879C34.3707 29.6448 35.1923 30.1257 36.2506 29.7223C37.4408 29.2767 38.7738 29.0625 40 29.0625C46.0309 29.0625 50.9375 33.9691 50.9375 40C50.9375 46.0132 46.062 50.9375 40 50.9375C33.9691 50.9375 29.0625 46.0309 29.0625 40C29.0625 39.2706 29.1272 38.7097 29.2432 38.0054C29.4037 37.1576 28.8464 36.3452 27.9987 36.1835C27.1533 36.0236 26.333 36.5833 26.1713 37.4304C26.0114 38.2788 25.9375 39.1748 25.9375 40C25.9375 47.7539 32.2461 54.0625 40 54.0625Z" fill="#E6A135"/>
<path d="M46.25 40C46.25 36.554 43.446 33.75 40 33.75C36.554 33.75 33.75 36.554 33.75 40C33.75 43.446 36.554 46.25 40 46.25C43.446 46.25 46.25 43.446 46.25 40ZM36.875 40C36.875 38.277 38.277 36.875 40 36.875C41.723 36.875 43.125 38.277 43.125 40C43.125 41.723 41.723 43.125 40 43.125C38.277 43.125 36.875 41.723 36.875 40Z" fill="#E6A135"/>
</svg>
