<svg width="80" height="80" viewBox="0 0 80 80" fill="none" xmlns="http://www.w3.org/2000/svg">
<path d="M40.0289 0C7.17877 0.308437 -5.82123 42.1259 20.9727 61.0442C20.5903 61.3291 20.3416 61.7833 20.3416 62.2967V78.4375C20.3416 79.3003 21.0411 80 21.9041 80H29.8088C30.6717 80 31.3713 79.3003 31.3713 78.4375V77.537H33.4721C33.9596 77.537 34.4283 77.6952 34.7853 77.9772C35.8727 78.8452 37.7036 79.8798 40.2508 79.8798H47.2574C50.4066 79.8798 52.9899 77.5245 53.2828 74.3942L54.3967 66.1831C54.4 66.1581 54.403 66.133 54.4052 66.108C54.4717 65.3389 54.3947 64.5834 54.1817 63.8656C86.3796 48.2839 75.842 0.558594 40.0289 0ZM23.4666 76.875V63.8591H28.246L28.2463 76.875H23.4666ZM51.2946 65.8042L50.1816 74.0083C50.1783 74.033 50.1755 74.0578 50.1733 74.0828C50.0403 75.6061 48.7869 76.755 47.2574 76.755H40.2508C38.608 76.755 37.4321 76.0916 36.7286 75.5302C35.0824 74.2017 33.3392 74.4164 31.3711 74.4122V63.6637C32.553 63.3336 33.4244 62.4556 34.0597 61.4419C34.4169 60.878 39.9091 52.1711 39.9091 52.1711L41.0042 52.7352C42.2905 53.4164 42.7574 54.9459 42.0999 56.2344L40.5758 58.9556C39.6821 60.5727 40.8816 62.6552 42.7561 62.6552H48.3764C50.0563 62.6552 51.421 64.1294 51.2946 65.8042ZM65.1113 50.6289C61.9427 55.2588 57.6102 58.8903 52.5336 61.185C51.4189 60.1294 49.9113 59.53 48.3761 59.53H43.8366L44.0352 59.1752C63.1586 56.5203 72.7042 32.9252 60.6885 17.7327C57.3158 13.3198 52.5339 10.0486 47.2235 8.52172C46.3935 8.28312 45.5285 8.76203 45.29 9.59156C45.0516 10.4209 45.5305 11.2866 46.3599 11.525C51.0305 12.8681 55.2372 15.7466 58.2056 19.6303C68.2817 32.3306 61.1346 52.1595 45.5052 55.6998C45.7883 53.3895 44.5575 51.0761 42.4964 49.9889L40.0697 48.735C39.3175 48.3461 38.4019 48.6488 37.9811 49.3691L34.0663 55.573C11.8481 49.238 11.5371 18.3127 33.6303 11.545C34.4588 11.3039 34.935 10.4369 34.6939 9.60812C34.4528 8.77953 33.5856 8.30297 32.7571 8.54437C8.09737 16.0659 7.83783 50.3923 32.3313 58.3223L31.2433 60.0464C30.8305 60.5842 30.5078 60.7244 29.796 60.7341H26.575C-1.96654 46.1386 7.92846 3.59938 40.0292 3.125C64.0744 2.81094 78.9397 30.9898 65.1113 50.6289Z" fill="#E6A135"/>
<path d="M40.029 16.6562C39.5057 16.6562 39.0172 16.9181 38.7277 17.3539L33.9068 24.6073L25.5185 26.9509C24.4629 27.2456 24.0316 28.5648 24.7143 29.4261L30.1229 36.2525L29.7597 44.9542C29.7141 46.0491 30.8347 46.8677 31.8652 46.4839L40.029 43.4495L48.1926 46.4839C49.2222 46.8673 50.3438 46.0495 50.2982 44.9542L49.9351 36.2525L55.3436 29.4261C56.0261 28.5647 55.5949 27.2456 54.5394 26.9509L46.1513 24.6073L41.3304 17.3539C41.0405 16.9181 40.5522 16.6562 40.029 16.6562ZM44.7512 27.4606L51.4343 29.328L47.1249 34.767C46.8922 35.0606 46.7729 35.4281 46.7885 35.8025L47.0779 42.7358L40.5735 40.3181C40.2221 40.1875 39.8357 40.1875 39.4847 40.3181L32.9802 42.7358L33.2696 35.8025C33.2852 35.4281 33.1658 35.0606 32.9332 34.767L28.6238 29.328L35.3071 27.4606C35.668 27.3598 35.9805 27.1327 36.1879 26.8206L40.0291 21.0414L43.8704 26.8206C44.0776 27.1328 44.3902 27.36 44.7512 27.4606Z" fill="#E6A135"/>
<path d="M38.5876 9.67206C39.1169 10.9439 40.984 10.9255 41.4846 9.63971C42.0054 8.3019 40.5098 7.00815 39.2601 7.71581C38.5837 8.09878 38.2877 8.95315 38.5876 9.67206Z" fill="#E6A135"/>
</svg>
