<svg width="56" height="56" viewBox="0 0 56 56" fill="none" xmlns="http://www.w3.org/2000/svg">
<g clip-path="url(#clip0_623_2633)">
<path d="M55.9985 11.7143C55.9949 11.2923 55.8175 10.8787 55.5201 10.58L45.4364 0.481359C45.1316 0.175766 44.7067 0.00021875 44.2754 0H12.5347C11.6287 0 10.8941 0.734562 10.8941 1.64062V10.5923C6.50807 14.8682 5.50313 21.3624 7.92087 26.6353L1.43865 33.1272C-0.476945 35.0455 -0.476945 38.167 1.43865 40.0853C2.36768 41.0157 3.60285 41.528 4.91655 41.528C6.23026 41.528 7.46543 41.0156 8.39435 40.0852L10.894 37.5818V54.3594C10.894 55.2654 11.6286 56 12.5346 56H54.3591C55.2651 56 55.9997 55.2654 55.9997 54.3594V11.7392C55.9997 11.7309 55.9986 11.7226 55.9985 11.7143ZM45.916 5.60558L50.4024 10.0986H45.916V5.60558ZM13.094 13.0298C17.1374 8.80972 24.4111 8.80994 28.4544 13.0298C32.6911 17.2728 32.6911 24.1768 28.4544 28.4198C24.4183 32.644 17.1179 32.6309 13.094 28.4198C8.85734 24.1768 8.85734 17.2729 13.094 13.0298ZM6.07243 37.7668C5.46321 38.4025 4.36979 38.4024 3.76046 37.7668C3.12149 37.1268 3.12149 36.0854 3.76046 35.4455L9.68355 29.5135C10.019 29.9374 10.3813 30.3468 10.7722 30.7382C11.1625 31.1291 11.5721 31.4935 11.998 31.8323L6.07243 37.7668ZM14.1754 52.7188V34.2957L14.869 33.601C16.6974 34.443 18.7016 34.8872 20.7743 34.8872C24.5528 34.8872 28.1048 33.4137 30.7764 30.7383C31.5221 29.9916 32.166 29.181 32.7099 28.3247H47.8063C48.7124 28.3247 49.4469 27.5902 49.4469 26.6841C49.4469 25.778 48.7124 25.0435 47.8063 25.0435H34.2422C35.7966 20.1551 34.6416 14.5823 30.7764 10.7114C28.1048 8.036 24.5528 6.5625 20.7743 6.5625C18.4362 6.5625 16.1851 7.12731 14.1754 8.19142V3.28125H42.6348V11.7392C42.6348 12.6453 43.3694 13.3798 44.2755 13.3798H52.7186V52.7188H14.1754Z" fill="#E6A135"/>
<path d="M47.8066 18.481H40C39.0939 18.481 38.3594 19.2155 38.3594 20.1216C38.3594 21.0276 39.0939 21.7622 40 21.7622H47.8066C48.7127 21.7622 49.4473 21.0276 49.4473 20.1216C49.4473 19.2155 48.7127 18.481 47.8066 18.481Z" fill="#E6A135"/>
<path d="M47.8056 31.606H36.7227C35.8166 31.606 35.082 32.3405 35.082 33.2466C35.082 34.1526 35.8166 34.8872 36.7227 34.8872H47.8056C48.7117 34.8872 49.4463 34.1526 49.4463 33.2466C49.4463 32.3405 48.7117 31.606 47.8056 31.606Z" fill="#E6A135"/>
<path d="M47.8067 44.8438H19.0879C18.1818 44.8438 17.4473 45.5783 17.4473 46.4844C17.4473 47.3904 18.1818 48.125 19.0879 48.125H47.8067C48.7128 48.125 49.4473 47.3904 49.4473 46.4844C49.4473 45.5783 48.7128 44.8438 47.8067 44.8438Z" fill="#E6A135"/>
<path d="M47.8056 38.2812H36.7227C35.8166 38.2812 35.082 39.0158 35.082 39.9219C35.082 40.8279 35.8166 41.5625 36.7227 41.5625H47.8056C48.7117 41.5625 49.4463 40.8279 49.4463 39.9219C49.4463 39.0158 48.7117 38.2812 47.8056 38.2812Z" fill="#E6A135"/>
<path d="M19.0879 41.5625H30.171C31.077 41.5625 31.8116 40.8279 31.8116 39.9219C31.8116 39.0158 31.077 38.2812 30.171 38.2812H19.0879C18.1818 38.2812 17.4473 39.0158 17.4473 39.9219C17.4473 40.8279 18.1818 41.5625 19.0879 41.5625Z" fill="#E6A135"/>
<path d="M18.3976 24.5209C18.718 24.8413 19.1379 25.0015 19.5576 25.0015C19.9774 25.0015 20.3974 24.8414 20.7177 24.5209L25.9897 19.249C26.6304 18.6082 26.6304 17.5695 25.9897 16.9288C25.3491 16.2881 24.3102 16.2881 23.6695 16.9288L19.5576 21.0406L17.8769 19.36C17.2363 18.7193 16.1974 18.7193 15.5567 19.36C14.916 20.0007 14.916 21.0394 15.5567 21.6801L18.3976 24.5209Z" fill="#E6A135"/>
</g>
<defs>
<clipPath id="clip0_623_2633">
<rect width="56" height="56" fill="white"/>
</clipPath>
</defs>
</svg>
