<svg width="56" height="56" viewBox="0 0 56 56" fill="none" xmlns="http://www.w3.org/2000/svg">
<g clip-path="url(#clip0_623_2643)">
<path d="M0.9 49.67C1.46 50.042 2.17 50.104 2.788 49.838L16 44.176L29.212 49.838C29.468 49.948 29.736 50 30 50C30.776 50 31.514 49.544 31.838 48.788C32.274 47.772 31.802 46.596 30.788 46.162L18 40.682V5.032L28 9.318V22C28 23.104 28.896 24 30 24C31.104 24 32 23.104 32 22V9.318L42 5.032V16C42 17.104 42.896 18 44 18C45.104 18 46 17.104 46 16V2C46 1.328 45.662 0.7 45.1 0.33C44.54 -0.0400003 43.83 -0.102 43.212 0.162L30 5.824L16.788 0.162C16.284 -0.054 15.716 -0.054 15.212 0.162L1.212 6.162C0.476 6.476 0 7.2 0 8V48C0 48.672 0.338 49.3 0.9 49.67ZM4 9.318L14 5.032V40.68L4 44.966V9.318Z" fill="#E6A135"/>
<path d="M42 20C34.28 20 28 26.28 28 34C28 42.582 39.298 54.126 40.586 55.414C40.976 55.804 41.488 56 42 56C42.512 56 43.024 55.804 43.414 55.414C44.702 54.126 56 42.582 56 34C56 26.28 49.72 20 42 20ZM42 51.102C38.294 47.062 32 39.132 32 34C32 28.486 36.486 24 42 24C47.514 24 52 28.486 52 34C52 39.132 45.706 47.064 42 51.102Z" fill="#E6A135"/>
<path d="M42 28C38.692 28 36 30.692 36 34C36 37.308 38.692 40 42 40C45.308 40 48 37.308 48 34C48 30.692 45.308 28 42 28ZM42 36C40.898 36 40 35.102 40 34C40 32.898 40.898 32 42 32C43.102 32 44 32.898 44 34C44 35.102 43.102 36 42 36Z" fill="#E6A135"/>
</g>
<defs>
<clipPath id="clip0_623_2643">
<rect width="56" height="56" fill="white"/>
</clipPath>
</defs>
</svg>
