<svg width="56" height="56" viewBox="0 0 56 56" fill="none" xmlns="http://www.w3.org/2000/svg">
<g clip-path="url(#clip0_623_2649)">
<path d="M55.5625 6.99988C55.5625 5.24646 54.8789 3.599 53.6399 2.35999C51.1619 -0.118042 46.8381 -0.118042 44.3601 2.35999L41.4168 5.30328C41.3175 5.29538 41.2256 5.24988 41.125 5.24988C40.4004 5.24988 39.8125 5.83777 39.8125 6.56238C39.8125 6.66428 39.8486 6.75421 39.8706 6.84949L34.4168 12.3033C34.3175 12.2954 34.2256 12.2499 34.125 12.2499C33.4004 12.2499 32.8125 12.8378 32.8125 13.5624C32.8125 13.6643 32.8486 13.7542 32.8706 13.8495L27.4168 19.3033C27.3175 19.2954 27.2256 19.2499 27.125 19.2499C26.4004 19.2499 25.8125 19.8378 25.8125 20.5624C25.8125 20.6643 25.8486 20.7542 25.8706 20.8495L20.4168 26.3033C20.3175 26.2954 20.2256 26.2499 20.125 26.2499C19.4004 26.2499 18.8125 26.8378 18.8125 27.5624C18.8125 27.6643 18.8486 27.7542 18.8706 27.8495L13.4168 33.3033C13.3175 33.2954 13.2256 33.2499 13.125 33.2499C12.4004 33.2499 11.8125 33.8378 11.8125 34.5624C11.8125 34.6643 11.8486 34.7542 11.8706 34.8495L2.36011 44.36C1.12109 45.599 0.4375 47.2465 0.4375 48.9999C0.4375 50.7533 1.12109 52.4008 2.36011 53.6398C3.59912 54.8788 5.24658 55.5624 7 55.5624C8.75342 55.5624 10.4009 54.8805 11.6399 53.6398L18.0879 47.1918C18.1832 47.2138 18.2731 47.2499 18.375 47.2499C19.0996 47.2499 19.6875 46.662 19.6875 45.9374C19.6875 45.8239 19.6725 45.721 19.6713 45.6084L25.0879 40.1918C25.1832 40.2138 25.2731 40.2499 25.375 40.2499C26.0996 40.2499 26.6875 39.662 26.6875 38.9374C26.6875 38.8239 26.6725 38.721 26.6713 38.6084L32.0879 33.1918C32.1832 33.2138 32.2731 33.2499 32.375 33.2499C33.0996 33.2499 33.6875 32.662 33.6875 31.9374C33.6875 31.8239 33.6725 31.721 33.6713 31.6084L39.0879 26.1918C39.1832 26.2138 39.2731 26.2499 39.375 26.2499C40.0996 26.2499 40.6875 25.662 40.6875 24.9374C40.6875 24.8239 40.6725 24.721 40.6713 24.6084L46.0879 19.1918C46.1832 19.2138 46.2731 19.2499 46.375 19.2499C47.0996 19.2499 47.6875 18.662 47.6875 17.9374C47.6875 17.8239 47.6725 17.721 47.6713 17.6084L53.6399 11.6398C54.8789 10.4008 55.5625 8.7533 55.5625 6.99988ZM16.9999 44.5678L13.4738 48.0939C13.2792 46.6866 12.6614 45.3815 11.6399 44.36C10.6092 43.3293 9.25629 42.7529 7.85236 42.5797L14.1119 36.3201C15.4204 37.3478 16.7536 40.2744 16.9999 44.5678ZM4.21606 51.7838C3.47266 51.0404 3.0625 50.0509 3.0625 48.9999C3.0625 47.9489 3.47266 46.9594 4.21606 46.2159C4.95947 45.4725 5.94897 45.0624 7 45.0624C8.05103 45.0624 9.04053 45.4725 9.78394 46.2159C10.5273 46.9594 10.9375 47.9489 10.9375 48.9999C10.9375 50.0509 10.5273 51.0404 9.78394 51.7838C8.29712 53.2706 5.70288 53.2706 4.21606 51.7838ZM15.97 34.462L21.1119 29.3201C22.4204 30.3478 23.7536 33.2744 23.9999 37.5678L19.3848 42.183C18.8604 38.7018 17.6339 35.9396 15.97 34.462ZM22.97 27.462L28.1119 22.3201C29.4204 23.3478 30.7536 26.2744 30.9999 30.5678L26.3848 35.183C25.8604 31.7018 24.6339 28.9396 22.97 27.462ZM29.97 20.462L35.1119 15.3201C36.4204 16.3478 37.7536 19.2744 37.9999 23.5678L33.3848 28.183C32.8604 24.7018 31.6339 21.9396 29.97 20.462ZM36.97 13.462L42.1119 8.32007C43.4204 9.34781 44.7536 12.2744 44.9999 16.5678L40.3848 21.183C39.8604 17.7018 38.6339 14.9396 36.97 13.462ZM51.7839 9.78381L47.3848 14.183C46.8604 10.7018 45.6339 7.93961 43.97 6.46198L46.2161 4.21594C47.7029 2.72913 50.2971 2.72913 51.7839 4.21594C52.5273 4.95935 52.9375 5.94885 52.9375 6.99988C52.9375 8.0509 52.5273 9.04041 51.7839 9.78381Z" fill="#E6A135"/>
</g>
<defs>
<clipPath id="clip0_623_2649">
<rect width="56" height="56" fill="white"/>
</clipPath>
</defs>
</svg>
