<svg width="56" height="56" viewBox="0 0 56 56" fill="none" xmlns="http://www.w3.org/2000/svg">
<g clip-path="url(#clip0_634_2762)">
<path d="M53.9608 40.1791L52.7284 39.2901C52.5905 39.1915 52.4494 39.1001 52.3053 39.0158C52.5392 38.4747 52.6609 37.8919 52.6632 37.3025C52.6693 36.3785 52.3586 35.4803 51.783 34.7576C51.051 33.882 50.0017 33.3322 48.8652 33.2287C47.7286 33.1252 46.5973 33.4765 45.7192 34.2054L35.4283 42.3845C35.4205 42.3906 35.4152 42.3985 35.4078 42.4046L33.7072 42.1771L34.7542 40.4687C34.9992 40.0695 35.1421 39.6161 35.1704 39.1485C35.1987 38.681 35.1115 38.2136 34.9165 37.7877C34.7215 37.3619 34.4246 36.9906 34.0521 36.7066C33.6796 36.4226 33.2429 36.2346 32.7806 36.1593L19.7295 34.0593C18.5198 33.8619 17.2791 33.9996 16.142 34.4574L10.5565 36.7062V36.5828C10.5565 36.2347 10.4182 35.9009 10.172 35.6547C9.92591 35.4086 9.59207 35.2703 9.24397 35.2703H2.18359C1.8355 35.2703 1.50166 35.4086 1.25552 35.6547C1.00937 35.9009 0.871094 36.2347 0.871094 36.5828V53.0823C0.871094 53.4304 1.00937 53.7642 1.25552 54.0103C1.50166 54.2565 1.8355 54.3948 2.18359 54.3948H9.24397C9.59207 54.3948 9.92591 54.2565 10.172 54.0103C10.4182 53.7642 10.5565 53.4304 10.5565 53.0823V52.2112L24.0078 54.9604C24.7533 55.1121 25.512 55.1891 26.2728 55.1901C27.0414 55.1904 27.8078 55.109 28.5592 54.9473C36.3243 53.2542 44.541 49.9756 53.6765 44.9246C54.0918 44.6953 54.4424 44.3646 54.6956 43.9634C54.9489 43.5622 55.0966 43.1035 55.125 42.6299C55.1533 42.1563 55.0615 41.6832 54.858 41.2546C54.6544 40.8261 54.3458 40.4564 53.9608 40.1791ZM47.3546 36.2604C47.688 35.9648 48.1245 35.8128 48.5694 35.8373C49.0143 35.8619 49.4314 36.0611 49.7302 36.3916C49.9339 36.6512 50.0431 36.9725 50.0395 37.3025C50.0353 37.6403 49.9345 37.9699 49.749 38.2523C48.8262 38.2036 47.9056 38.384 47.0693 38.7773L40.2562 42.0052C40.1634 42.0489 40.068 42.0866 39.974 42.1255L47.3546 36.2604ZM3.49609 51.7702V37.8958H7.93147V51.7702H3.49609ZM52.4086 42.6264C43.4967 47.5536 35.5123 50.7451 28.0031 52.3827C26.8583 52.6249 25.6758 52.627 24.5302 52.3888L10.5565 49.5328V39.5368L17.1242 36.8891C17.8177 36.6105 18.5743 36.5272 19.3117 36.6484L32.3623 38.7484C32.3994 38.754 32.4343 38.769 32.4639 38.792C32.4935 38.815 32.5167 38.8452 32.5312 38.8797C32.5479 38.9134 32.5555 38.9509 32.5532 38.9884C32.5509 39.026 32.5388 39.0622 32.5181 39.0936L30.863 41.7952L25.2525 41.0466C25.0807 41.0214 24.9056 41.0306 24.7373 41.0736C24.569 41.1165 24.411 41.1925 24.2723 41.297C24.1335 41.4015 24.017 41.5325 23.9292 41.6824C23.8415 41.8323 23.7845 41.9981 23.7613 42.1702C23.7381 42.3424 23.7494 42.5174 23.7943 42.6851C23.8393 42.8529 23.9171 43.01 24.0233 43.1475C24.1294 43.2849 24.2618 43.3999 24.4127 43.4859C24.5637 43.5718 24.7301 43.6269 24.9025 43.648C24.9025 43.648 35.9437 45.1316 36.0452 45.1464C37.8591 45.4303 39.7165 45.1628 41.3766 44.3786L48.1911 41.1512C48.671 40.924 49.203 40.8295 49.7319 40.8773C50.2607 40.9252 50.7671 41.1137 51.1985 41.4233L52.4235 42.3084C52.4505 42.3266 52.4721 42.3517 52.486 42.3811C52.4999 42.4105 52.5057 42.4431 52.5027 42.4755C52.5024 42.5068 52.4935 42.5375 52.477 42.5641C52.4605 42.5907 52.4365 42.6123 52.4086 42.6264Z" fill="#E6A135"/>
<path d="M28.919 17.7327C29.0593 17.7476 29.1923 17.8026 29.3022 17.891C29.3094 18.0237 29.2898 18.1565 29.2447 18.2814C29.1996 18.4064 29.1299 18.5211 29.0397 18.6186C28.9045 18.8286 28.7156 18.9987 28.4925 19.1111C28.2694 19.2235 28.0203 19.2741 27.771 19.2578C27.5352 19.2066 27.312 19.1088 27.1146 18.97C26.9172 18.8312 26.7496 18.6543 26.6217 18.4497L26.4904 18.2476C26.3029 17.9543 26.0065 17.7476 25.6665 17.6728C25.3265 17.5981 24.9707 17.6615 24.6774 17.849C24.3842 18.0366 24.1774 18.333 24.1027 18.673C24.0279 19.013 24.0913 19.3688 24.2789 19.662L24.4101 19.865C24.9469 20.7043 25.7485 21.3403 26.6877 21.6724V21.9252C26.6877 22.2733 26.826 22.6072 27.0722 22.8533C27.3183 23.0994 27.6521 23.2377 28.0002 23.2377C28.3483 23.2377 28.6822 23.0994 28.9283 22.8533C29.1745 22.6072 29.3127 22.2733 29.3127 21.9252V21.6312C29.9484 21.3664 30.5118 20.9539 30.9561 20.4278C31.4005 19.9018 31.713 19.2773 31.8677 18.6064C32.1547 17.2037 31.5204 15.595 29.4549 15.1632C27.0176 14.6535 26.8133 13.989 26.7367 13.7392C26.6974 13.6125 26.6837 13.4792 26.6967 13.3472C26.7096 13.2152 26.7488 13.0871 26.812 12.9705C26.8668 12.8683 26.9421 12.7784 27.0331 12.7065C27.1241 12.6345 27.2288 12.582 27.3409 12.5522C28.0007 12.3737 28.7816 12.9766 29.3193 13.5147C29.5654 13.7609 29.8992 13.8993 30.2474 13.8994C30.5955 13.8995 30.9294 13.7613 31.1756 13.5152C31.4218 13.2691 31.5602 12.9352 31.5603 12.5871C31.5604 12.239 31.4222 11.9051 31.1761 11.6589C30.6389 11.1013 30.0083 10.642 29.3127 10.3017V9.86816C29.3127 9.52007 29.1745 9.18623 28.9283 8.94009C28.6822 8.69394 28.3483 8.55566 28.0002 8.55566C27.6521 8.55566 27.3183 8.69394 27.0722 8.94009C26.826 9.18623 26.6877 9.52007 26.6877 9.86816V10.0108L26.6562 10.0187C26.2036 10.1395 25.7802 10.3509 25.4117 10.6402C25.0432 10.9295 24.7373 11.2907 24.5125 11.7017C24.2798 12.127 24.1345 12.5944 24.0852 13.0767C24.036 13.5589 24.0836 14.0461 24.2255 14.5096C24.8787 16.6332 27.0758 17.3477 28.919 17.7327Z" fill="#E6A135"/>
<path d="M14.6956 19.8187H17.5984C17.6824 20.0418 17.7735 20.262 17.8718 20.4793L15.8199 22.5312C15.4858 22.8654 15.298 23.3186 15.298 23.7912C15.298 24.2638 15.4858 24.717 15.8199 25.0512L18.8514 28.0853C19.1868 28.4155 19.639 28.6 20.1097 28.599C20.5804 28.5979 21.0317 28.4113 21.3657 28.0796L23.4184 26.0264C23.6351 26.1247 23.8549 26.2157 24.0778 26.2994V29.2035C24.0783 29.6758 24.2662 30.1286 24.6002 30.4626C24.9341 30.7966 25.3869 30.9844 25.8592 30.985H30.1415C30.6138 30.9844 31.0666 30.7966 31.4006 30.4626C31.7345 30.1286 31.9224 29.6758 31.923 29.2035V26.2981C32.1458 26.2144 32.3656 26.1234 32.5823 26.0251L34.6351 28.0778C34.9694 28.4119 35.4227 28.5996 35.8953 28.5996C36.3679 28.5996 36.8212 28.4119 37.1555 28.0778L40.1743 25.0565C40.3414 24.8915 40.4741 24.6951 40.565 24.4785C40.6558 24.262 40.7028 24.0296 40.7033 23.7948C40.7038 23.56 40.6579 23.3274 40.568 23.1104C40.4782 22.8935 40.3463 22.6965 40.1799 22.5308L38.1281 20.4785C38.2264 20.2612 38.3175 20.0411 38.4015 19.8183H41.3043C41.7767 19.8178 42.2295 19.63 42.5635 19.296C42.8975 18.962 43.0854 18.5091 43.0858 18.0368V13.7567C43.0852 13.2844 42.8974 12.8316 42.5634 12.4976C42.2294 12.1637 41.7766 11.9758 41.3043 11.9752H38.4006C38.3172 11.7527 38.2262 11.5326 38.1276 11.315L40.1747 9.26795C40.3417 9.10304 40.4744 8.9067 40.5652 8.69025C40.6559 8.4738 40.703 8.24153 40.7035 8.00682C40.7041 7.77211 40.6582 7.53961 40.5685 7.32273C40.4788 7.10584 40.347 6.90886 40.1808 6.74314L37.1546 3.71433C36.8202 3.38096 36.3673 3.19377 35.8951 3.19377C35.4229 3.19377 34.9699 3.38096 34.6355 3.71433L32.5823 5.76751C32.3656 5.66922 32.1458 5.57822 31.923 5.49451V2.59126C31.9225 2.11881 31.7346 1.66583 31.4006 1.33176C31.0665 0.997678 30.6135 0.809789 30.1411 0.809326H25.8588C25.3865 0.809905 24.9337 0.997784 24.5997 1.33175C24.2658 1.66573 24.0779 2.11852 24.0773 2.59083V5.49495C23.8545 5.57866 23.6347 5.66966 23.418 5.76795L21.3644 3.71433C21.0291 3.38232 20.5764 3.19606 20.1046 3.19606C19.6328 3.19606 19.18 3.38232 18.8448 3.71433L15.8199 6.74226C15.4858 7.07644 15.298 7.52967 15.298 8.00226C15.298 8.47485 15.4858 8.92809 15.8199 9.26226L17.8723 11.3146C17.774 11.5322 17.683 11.7522 17.5993 11.9748H14.6956C14.2233 11.9753 13.7705 12.1632 13.4365 12.4972C13.1025 12.8312 12.9146 13.284 12.9141 13.7563V18.0363C12.9143 18.5088 13.102 18.9619 13.4361 19.2961C13.7701 19.6303 14.2231 19.8182 14.6956 19.8187ZM15.5391 14.6006H18.5534C18.8421 14.601 19.1228 14.5063 19.3522 14.331C19.5816 14.1558 19.7468 13.9098 19.8222 13.6311C20.0049 12.9586 20.2717 12.3119 20.6163 11.7061C20.7578 11.4564 20.8136 11.1671 20.775 10.8826C20.7365 10.5982 20.6057 10.3342 20.4027 10.1311L18.2734 8.00183L20.1066 6.16695L22.2376 8.29801C22.4414 8.50177 22.7067 8.63277 22.9923 8.67081C23.278 8.70884 23.5683 8.65178 23.8183 8.50845C24.421 8.16351 25.0653 7.89681 25.7354 7.71483C26.0139 7.63923 26.2597 7.47397 26.4348 7.24462C26.6099 7.01528 26.7045 6.73462 26.7041 6.44608V3.43433H29.2998V6.4487C29.2993 6.73719 29.3938 7.0178 29.5688 7.24714C29.7439 7.47648 29.9896 7.64177 30.2679 7.71745C30.9381 7.89956 31.5823 8.16624 32.1851 8.51108C32.435 8.6543 32.7252 8.7113 33.0108 8.67327C33.2964 8.63523 33.5615 8.50429 33.7653 8.30064L35.8951 6.1687L37.7286 8.00358L35.5993 10.1316C35.3964 10.3346 35.2656 10.5986 35.2271 10.8831C35.1885 11.1676 35.2443 11.4568 35.3858 11.7066C35.7304 12.3123 35.9972 12.9591 36.1799 13.6316C36.2553 13.9102 36.4205 14.1562 36.6499 14.3315C36.8792 14.5067 37.16 14.6015 37.4486 14.6011H40.463V17.1937H37.4499C37.1618 17.1931 36.8814 17.2873 36.6521 17.4618C36.4229 17.6363 36.2574 17.8814 36.1812 18.1593C35.9964 18.8315 35.7286 19.4782 35.3841 20.0843C35.2425 20.334 35.1867 20.6233 35.2253 20.9078C35.2639 21.1922 35.3946 21.4562 35.5976 21.6593L37.7264 23.7886L35.8933 25.623L33.764 23.4937C33.5602 23.29 33.2951 23.1591 33.0095 23.1211C32.7239 23.083 32.4337 23.14 32.1838 23.2833C31.5809 23.6283 30.9365 23.895 30.2662 24.0769C29.9878 24.1526 29.7421 24.3179 29.5671 24.5472C29.3921 24.7765 29.2975 25.0572 29.298 25.3456V28.36H26.7023V25.3443C26.7028 25.0558 26.6081 24.7751 26.433 24.5458C26.2579 24.3164 26.0122 24.1512 25.7337 24.0756C25.0634 23.8936 24.419 23.6269 23.8161 23.282C23.5661 23.1387 23.276 23.0817 22.9904 23.1198C22.7048 23.1578 22.4397 23.2887 22.2359 23.4924L20.1053 25.6235L18.2721 23.789L20.401 21.6597C20.6039 21.4567 20.7347 21.1927 20.7733 20.9082C20.8118 20.6237 20.7561 20.3344 20.6145 20.0847C20.2699 19.4786 20.0021 18.832 19.8174 18.1597C19.7413 17.8819 19.5761 17.6369 19.347 17.4623C19.118 17.2878 18.8379 17.1934 18.5499 17.1937H15.5391V14.6006Z" fill="#E6A135"/>
</g>
<defs>
<clipPath id="clip0_634_2762">
<rect width="56" height="56" fill="white"/>
</clipPath>
</defs>
</svg>
