<svg width="56" height="56" viewBox="0 0 56 56" fill="none" xmlns="http://www.w3.org/2000/svg">
<g clip-path="url(#clip0_634_2767)">
<path d="M23.0781 21.4375C23.0781 16.9143 19.3982 13.2344 14.875 13.2344C10.3518 13.2344 6.67188 16.9143 6.67188 21.4375C6.67188 25.9607 10.3518 29.6406 14.875 29.6406C19.3982 29.6406 23.0781 25.9607 23.0781 21.4375ZM14.875 26.3594C12.1611 26.3594 9.95312 24.1514 9.95312 21.4375C9.95312 18.7236 12.1611 16.5156 14.875 16.5156C17.5889 16.5156 19.7969 18.7236 19.7969 21.4375C19.7969 24.1514 17.5889 26.3594 14.875 26.3594Z" fill="#E6A135"/>
<path d="M54.3594 26.3594H42.7656V4.92188C42.7656 4.01581 42.0311 3.28125 41.125 3.28125H32.9219V1.64062C32.9219 0.734562 32.1873 0 31.2812 0C30.3752 0 29.6406 0.734562 29.6406 1.64062V3.28125H23.0781V1.64062C23.0781 0.734562 22.3436 0 21.4375 0C20.5314 0 19.7969 0.734562 19.7969 1.64062V3.28125H13.2344V1.64062C13.2344 0.734562 12.4998 0 11.5938 0C10.6877 0 9.95312 0.734562 9.95312 1.64062V3.28125H1.64062C0.734562 3.28125 0 4.01581 0 4.92188V54.3594C0 55.2654 0.734562 56 1.64062 56H47.6875C52.2221 56 56 52.3321 56 47.7969V28C56 27.0939 55.2654 26.3594 54.3594 26.3594ZM3.28125 6.5625H9.95312V8.20312C9.95312 9.10919 10.6877 9.84375 11.5938 9.84375C12.4998 9.84375 13.2344 9.10919 13.2344 8.20312V6.5625H19.7969V8.20312C19.7969 9.10919 20.5314 9.84375 21.4375 9.84375C22.3436 9.84375 23.0781 9.10919 23.0781 8.20312V6.5625H29.6406V8.20312C29.6406 9.10919 30.3752 9.84375 31.2812 9.84375C32.1873 9.84375 32.9219 9.10919 32.9219 8.20312V6.5625H39.4844V26.3594H28C27.0939 26.3594 26.3594 27.0939 26.3594 28V32.9219H21.4375C18.7236 32.9219 16.5156 35.1298 16.5156 37.8438V41.125C16.5156 45.6596 20.1835 49.4375 24.7188 49.4375H26.5244C26.7714 50.6492 27.2864 51.7645 28.0045 52.7188H3.28125V6.5625ZM24.7188 46.1562C22.0508 46.1562 19.7969 43.8523 19.7969 41.125V37.8438C19.7969 36.9391 20.5329 36.2031 21.4375 36.2031H26.3594V46.1562H24.7188ZM52.7188 47.7969C52.7188 50.4649 50.4148 52.7188 47.6875 52.7188H34.5625C31.8486 52.7188 29.6406 50.5108 29.6406 47.7969V29.6406H52.7188V47.7969Z" fill="#E6A135"/>
<path d="M32.9219 41.125C32.9219 45.6596 36.5898 49.4375 41.125 49.4375C45.6595 49.4375 49.3281 45.6602 49.3281 41.125C49.3281 36.6018 45.6482 32.9219 41.125 32.9219C36.6018 32.9219 32.9219 36.6018 32.9219 41.125ZM46.0469 41.125C46.0469 43.8523 43.793 46.1562 41.125 46.1562C38.457 46.1562 36.2031 43.8523 36.2031 41.125C36.2031 38.4111 38.4111 36.2031 41.125 36.2031C43.8389 36.2031 46.0469 38.4111 46.0469 41.125Z" fill="#E6A135"/>
<path d="M28 16.5156H34.5625C35.4686 16.5156 36.2031 15.7811 36.2031 14.875C36.2031 13.9689 35.4686 13.2344 34.5625 13.2344H28C27.0939 13.2344 26.3594 13.9689 26.3594 14.875C26.3594 15.7811 27.0939 16.5156 28 16.5156Z" fill="#E6A135"/>
<path d="M28 23.0781H34.5625C35.4686 23.0781 36.2031 22.3436 36.2031 21.4375C36.2031 20.5314 35.4686 19.7969 34.5625 19.7969H28C27.0939 19.7969 26.3594 20.5314 26.3594 21.4375C26.3594 22.3436 27.0939 23.0781 28 23.0781Z" fill="#E6A135"/>
</g>
<defs>
<clipPath id="clip0_634_2767">
<rect width="56" height="56" fill="white"/>
</clipPath>
</defs>
</svg>
