<svg width="56" height="56" viewBox="0 0 56 56" fill="none" xmlns="http://www.w3.org/2000/svg">
<g clip-path="url(#clip0_635_2775)">
<path d="M54.6026 21.5734L47.873 20.886C47.6299 20.1998 47.3505 19.5256 47.0373 18.8689L51.3102 13.6241C51.8537 12.9571 51.8041 11.9873 51.1957 11.3789L44.6212 4.80439C44.0128 4.19599 43.043 4.14686 42.3761 4.69032L37.9703 8.27962C37.4678 8.68892 36.771 8.78377 36.1506 8.52571L36.1113 8.50948C35.4944 8.25441 35.0701 7.696 35.0043 7.05128L34.4267 1.39753C34.3391 0.541322 33.6188 -0.109375 32.7583 -0.109375H23.4606C22.6001 -0.109375 21.8793 0.541322 21.7922 1.39753L21.2145 7.05128C21.1487 7.696 20.7245 8.25441 20.1041 8.51076L20.0665 8.52614C19.4474 8.78334 18.751 8.68849 18.249 8.27962L13.8428 4.68989C13.1759 4.14686 12.206 4.19599 11.5976 4.80439L5.02314 11.3789C4.41474 11.9873 4.36518 12.9571 4.90864 13.6241L8.49794 18.0302C8.90724 18.5327 9.00209 19.2291 8.74617 19.8452L8.7278 19.8888C8.47316 20.5057 7.91432 20.93 7.26961 20.9958L1.61585 21.5734C0.760072 21.6606 0.109375 22.3813 0.109375 23.2418V32.5396C0.109375 33.4 0.760072 34.1208 1.61585 34.208L7.27003 34.7856C7.91432 34.8514 8.47316 35.2756 8.72823 35.8939L8.74489 35.9336C9.00209 36.5523 8.90724 37.2487 8.49794 37.7511L4.90864 42.1573C4.36518 42.8242 4.41474 43.7941 5.02314 44.4025L11.5976 50.977C12.206 51.5854 13.1754 51.6345 13.8428 51.0915L18.2486 47.5017C18.751 47.0924 19.4474 46.998 20.0661 47.2548L20.1075 47.2719C20.7245 47.527 21.1487 48.0854 21.2145 48.7301L21.7917 54.3838C21.8793 55.2396 22.6001 55.8907 23.4601 55.8907H32.7583C33.6184 55.8907 34.3391 55.2396 34.4267 54.3838L35.0039 48.7301C35.0697 48.0854 35.494 47.527 36.1122 47.2715L36.1524 47.2552C36.771 46.9976 37.4674 47.0924 37.9699 47.5017L42.3756 51.0915C43.0426 51.6345 44.0128 51.5854 44.6208 50.977L51.1957 44.4025C51.8037 43.7941 51.8533 42.8242 51.3098 42.1573L47.7205 37.7511C47.3112 37.2487 47.2168 36.5523 47.4744 35.9315L47.4906 35.8926C47.7457 35.2756 48.3041 34.8514 48.9488 34.7856L54.6026 34.208C55.4584 34.1208 56.1091 33.4 56.1091 32.5396V23.2418C56.1095 22.3813 55.4584 21.6606 54.6026 21.5734ZM52.7552 31.025L48.6083 31.4484C46.7336 31.6402 45.1173 32.8523 44.391 34.6113L44.3764 34.6467C43.645 36.4074 43.93 38.4086 45.1203 39.8698L47.753 43.1015L43.3203 47.5342L40.0886 44.9015C38.6274 43.7112 36.6262 43.4262 34.8681 44.1564L34.8313 44.1718C33.0711 44.8985 31.859 46.5144 31.6675 48.3891L31.2437 52.5364H24.9751L24.5513 48.3896C24.3599 46.5144 23.1478 44.8985 21.391 44.1735L21.3529 44.1573C19.5927 43.4262 17.5915 43.7112 16.1303 44.9015L12.8986 47.5342L8.4659 43.1015L11.0986 39.8698C12.2889 38.4086 12.5739 36.4074 11.8433 34.6493L11.8283 34.6126C11.1016 32.8523 9.48531 31.6402 7.61055 31.4484L3.46369 31.025V24.7564L7.61055 24.333C9.48531 24.1412 11.1016 22.9291 11.8275 21.1701L11.8424 21.1346C12.5739 19.3739 12.2889 17.3727 11.0986 15.912L8.4659 12.6798L12.8986 8.24715L16.1303 10.8803C17.5915 12.0702 19.5927 12.3551 21.3529 11.6241L21.3876 11.6096C23.1474 10.8828 24.3599 9.26699 24.5513 7.39223L24.9751 3.24494H31.2437L31.6675 7.3918C31.859 9.26656 33.0711 10.8828 34.83 11.6092L34.8659 11.6241C36.6262 12.3551 38.6274 12.0702 40.0886 10.8798L43.3203 8.24715L47.753 12.6798L43.7462 17.5983C43.3156 18.1268 43.2476 18.8634 43.5745 19.4615C44.1722 20.5553 44.6537 21.7178 45.0058 22.9162C45.198 23.5699 45.7667 24.0425 46.4447 24.1117L52.7552 24.7564V31.025Z" fill="#E6A135"/>
<path d="M31.6399 23.6895L26.7941 28.5349L24.5801 26.3209C23.9251 25.6659 22.863 25.6659 22.208 26.3209C21.5531 26.9754 21.5531 28.0376 22.208 28.6925L25.6081 32.0926C25.9358 32.4203 26.3647 32.5839 26.7941 32.5839C27.223 32.5839 27.6524 32.4198 27.9797 32.0926L34.0111 26.0611C34.6661 25.4061 34.6661 24.3444 34.0111 23.6895C33.3566 23.0345 32.2949 23.0345 31.6399 23.6895Z" fill="#E6A135"/>
<path d="M28.1103 14.4917C20.7219 14.4917 14.7109 20.5026 14.7109 27.891C14.7109 35.2794 20.7219 41.2908 28.1103 41.2908C35.4986 41.2908 41.5096 35.2794 41.5096 27.891C41.5096 20.5026 35.4986 14.4917 28.1103 14.4917ZM28.1103 37.9364C22.5714 37.9364 18.0648 33.4298 18.0648 27.891C18.0648 22.3518 22.5714 17.8456 28.1103 17.8456C33.6491 17.8456 38.1553 22.3518 38.1553 27.891C38.1553 33.4298 33.6491 37.9364 28.1103 37.9364Z" fill="#E6A135"/>
</g>
<defs>
<clipPath id="clip0_635_2775">
<rect width="56" height="56" fill="white"/>
</clipPath>
</defs>
</svg>
