<svg width="56" height="56" viewBox="0 0 56 56" fill="none" xmlns="http://www.w3.org/2000/svg">
<path d="M36.2031 1.75H32.9219V5.03125H20.4452C19.3087 3.07169 17.1893 1.75 14.7656 1.75C11.1471 1.75 8.20312 4.69394 8.20312 8.3125C8.20312 11.9311 11.1471 14.875 14.7656 14.875C18.3842 14.875 21.3281 11.9311 21.3281 8.3125H52.7188V34.5625H22.9688V24.7188H36.2031V14.875H8.20312C3.67992 14.875 0 18.5549 0 23.0781V37.8438H6.5625V54.25H22.9688V37.8438H32.1392L26.4766 52L29.5232 53.2187L34.5625 40.6207L39.6017 53.2187L42.6483 52L36.9858 37.8438H56V5.03125H36.2031V1.75ZM14.7656 11.5938C12.9563 11.5938 11.4844 10.1218 11.4844 8.3125C11.4844 6.50322 12.9563 5.03125 14.7656 5.03125C16.5749 5.03125 18.0469 6.50322 18.0469 8.3125C18.0469 10.1218 16.5749 11.5938 14.7656 11.5938ZM19.6875 50.9688H16.4062V34.5625H13.125V50.9688H9.84375C9.84375 49.3743 9.84375 23.0305 9.84375 21.4375H6.5625V34.5625H3.28125V23.0781C3.28125 20.3642 5.4892 18.1562 8.20312 18.1562H32.9219V21.4375H19.6875V50.9688Z" fill="#E6A135"/>
</svg>
