<svg width="76" height="76" viewBox="0 0 76 76" fill="none" xmlns="http://www.w3.org/2000/svg">
<g clip-path="url(#clip0_983_1987)">
<path d="M71.5469 49.3697V6.67969C71.5469 2.99651 68.5504 0 64.8672 0H15.7344C12.0512 0 9.05469 2.99651 9.05469 6.67969V9.05469H6.67969C2.99651 9.05469 0 12.0512 0 15.7344C0 19.4176 2.99651 22.4141 6.67969 22.4141H9.05469V31.3203H6.67969C2.99651 31.3203 0 34.3168 0 38C0 41.6832 2.99651 44.6797 6.67969 44.6797H9.05469V53.5859H6.67969C2.99651 53.5859 0 56.5824 0 60.2656C0 63.9488 2.99651 66.9453 6.67969 66.9453H9.05469V69.1719C9.05469 70.9464 9.73705 72.6374 10.9761 73.9336C12.25 75.2661 13.9399 76 15.7344 76H60.4141C69.0081 76 76 68.9417 76 60.2656C76 56.0288 74.2998 52.182 71.5469 49.3697ZM6.67969 17.9609C5.45196 17.9609 4.45312 16.9621 4.45312 15.7344C4.45312 14.5066 5.45196 13.5078 6.67969 13.5078H11.2812C12.509 13.5078 13.5078 14.5066 13.5078 15.7344C13.5078 16.9621 12.509 17.9609 11.2812 17.9609H6.67969ZM6.67969 40.2266C5.45196 40.2266 4.45312 39.2277 4.45312 38C4.45312 36.7723 5.45196 35.7734 6.67969 35.7734H11.2812C12.509 35.7734 13.5078 36.7723 13.5078 38C13.5078 39.2277 12.509 40.2266 11.2812 40.2266H6.67969ZM11.2812 62.4922H6.67969C5.45196 62.4922 4.45312 61.4934 4.45312 60.2656C4.45312 59.0379 5.45196 58.0391 6.67969 58.0391H11.2812C12.509 58.0391 13.5078 59.0379 13.5078 60.2656C13.5078 61.4934 12.509 62.4922 11.2812 62.4922ZM15.7344 71.5469C14.5484 71.5469 13.5078 70.437 13.5078 69.1719V66.5623C16.0994 65.6432 17.9609 63.1683 17.9609 60.2656C17.9609 57.3629 16.0994 54.888 13.5078 53.9689V44.2967C16.0994 43.3776 17.9609 40.9027 17.9609 38C17.9609 35.0973 16.0994 32.6224 13.5078 31.7033V22.0311C16.0994 21.112 17.9609 18.6371 17.9609 15.7344C17.9609 12.8317 16.0994 10.3568 13.5078 9.43766V6.67969C13.5078 5.45196 14.5066 4.45312 15.7344 4.45312H64.8672C66.0949 4.45312 67.0938 5.45196 67.0938 6.67969V46.1856C65.0682 45.2207 62.8032 44.6797 60.4141 44.6797C51.82 44.6797 44.8281 51.6715 44.8281 60.2656C44.8281 64.6861 46.644 68.6859 49.5612 71.5469H15.7344ZM60.4141 71.5469C54.2754 71.5469 49.2812 66.4862 49.2812 60.2656C49.2812 54.127 54.2754 49.1328 60.4141 49.1328C66.5527 49.1328 71.5469 54.127 71.5469 60.2656C71.5469 66.4862 66.5527 71.5469 60.4141 71.5469Z" fill="#E6A135"/>
<path d="M60.4141 17.9609H47.0547C45.825 17.9609 44.8281 18.9578 44.8281 20.1875C44.8281 21.4172 45.825 22.4141 47.0547 22.4141H60.4141C61.6437 22.4141 62.6406 21.4172 62.6406 20.1875C62.6406 18.9578 61.6437 17.9609 60.4141 17.9609Z" fill="#E6A135"/>
<path d="M60.4141 35.7734H47.0547C45.825 35.7734 44.8281 36.7703 44.8281 38C44.8281 39.2297 45.825 40.2266 47.0547 40.2266H60.4141C61.6437 40.2266 62.6406 39.2297 62.6406 38C62.6406 36.7703 61.6437 35.7734 60.4141 35.7734Z" fill="#E6A135"/>
<path d="M64.8672 58.0391H62.6406V55.8125C62.6406 54.5828 61.6437 53.5859 60.4141 53.5859C59.1844 53.5859 58.1875 54.5828 58.1875 55.8125V60.2656C58.1875 61.4953 59.1844 62.4922 60.4141 62.4922H64.8672C66.0968 62.4922 67.0938 61.4953 67.0938 60.2656C67.0938 59.036 66.0968 58.0391 64.8672 58.0391Z" fill="#E6A135"/>
<path d="M39.5734 14.16C38.704 13.2904 37.2942 13.2904 36.4248 14.1601L29.0928 21.4919L25.5881 17.9871C24.7187 17.1176 23.3088 17.1176 22.4393 17.9871C21.5697 18.8567 21.5697 20.2664 22.4393 21.1359L27.5185 26.2152C27.9531 26.6499 28.523 26.8672 29.0928 26.8672C29.6627 26.8672 30.2325 26.6499 30.6672 26.215L39.5734 17.3088C40.443 16.4392 40.443 15.0295 39.5734 14.16Z" fill="#E6A135"/>
<path d="M39.5734 31.9725C38.704 31.1029 37.2942 31.1029 36.4248 31.9726L29.0928 39.3044L25.5881 35.7996C24.7187 34.9301 23.3088 34.9301 22.4393 35.7996C21.5697 36.6692 21.5697 38.0789 22.4393 38.9484L27.5185 44.0277C27.9531 44.4624 28.523 44.6797 29.0928 44.6797C29.6627 44.6797 30.2325 44.4624 30.6672 44.0275L39.5734 35.1213C40.443 34.2517 40.443 32.842 39.5734 31.9725Z" fill="#E6A135"/>
<path d="M39.5734 49.785C38.704 48.9154 37.2942 48.9154 36.4248 49.7851L29.0928 57.1169L25.5881 53.6121C24.7187 52.7426 23.3088 52.7426 22.4393 53.6121C21.5697 54.4817 21.5697 55.8914 22.4393 56.7609L27.5185 61.8402C27.9531 62.2749 28.523 62.4922 29.0928 62.4922C29.6627 62.4922 30.2325 62.2749 30.6672 61.84L39.5734 52.9338C40.443 52.0642 40.443 50.6545 39.5734 49.785Z" fill="#E6A135"/>
</g>
<defs>
<clipPath id="clip0_983_1987">
<rect width="76" height="76" fill="white"/>
</clipPath>
</defs>
</svg>
