<svg width="76" height="76" viewBox="0 0 76 76" fill="none" xmlns="http://www.w3.org/2000/svg">
<path d="M48.6584 0.644055C30.4116 -3.15908 13.9333 10.3731 13.5158 28.2575C11.9225 30.6476 6.74919 38.4075 4.97548 41.0683C4.6212 41.5995 4.51219 42.2576 4.67628 42.8745C4.83979 43.492 5.26075 44.0092 5.83247 44.2951L13.5077 48.133V55.6633C13.5077 59.3464 16.5049 62.343 20.188 62.343H31.3214V73.7733C31.3214 75.0031 32.3181 75.9998 33.5479 75.9998H60.2679C61.4977 75.9998 62.4933 75.0031 62.4933 73.7733C62.4933 73.7704 62.4933 72.9256 62.4933 71.6354C62.4927 61.8577 64.805 51.0896 69.3631 39.6292C76.026 22.8743 65.8708 4.23091 48.6584 0.644055ZM65.2248 37.9836C60.4714 49.9351 58.0546 61.2268 58.0413 71.5467H35.7745V60.1164C35.7745 58.8866 34.7778 57.8899 33.5479 57.8899H20.188C18.9599 57.8899 17.9614 56.8908 17.9614 55.6633V46.7565C17.9614 45.9128 17.4848 45.1422 16.7304 44.7648L10.0798 41.44C10.746 40.4409 16.8081 31.3468 17.5874 30.1785C17.831 29.8126 17.9614 29.3829 17.9614 28.9434C17.9614 13.5442 32.0433 1.73008 47.7498 5.00325C62.2115 8.01722 70.8817 23.7597 65.2248 37.9836Z" fill="#E6A135"/>
<path d="M44.2391 10.7724C43.3572 9.5919 41.5661 9.57624 40.6731 10.7701L28.2177 27.4003C27.8374 27.9088 27.6912 28.5554 27.8182 29.1781C27.944 29.8003 28.3302 30.3395 28.8793 30.659L30.2466 31.4557C33.6571 33.4428 35.7753 37.1288 35.7753 41.0757V51.21C35.7753 52.4399 36.7726 53.4372 38.0018 53.4372H46.9087C48.1385 53.4372 49.1352 52.4399 49.1352 51.21C49.1352 49.6839 49.1352 42.3305 49.1352 41.2253C49.1352 37.2013 51.316 33.4799 54.8263 31.5131L56.0689 30.8167C56.6278 30.503 57.025 29.9638 57.1584 29.337C57.2918 28.7096 57.148 28.0555 56.7641 27.5418L44.2391 10.7724ZM44.6821 48.9835H40.2284V44.5304H44.6821V48.9835ZM44.7262 40.0772H40.1959C39.8822 35.2374 37.3049 30.7779 33.264 28.0909L40.2284 18.7921V31.1704C40.2284 32.4002 41.2257 33.397 42.455 33.397C43.6848 33.397 44.6821 32.4002 44.6821 31.1704V18.8066L51.701 28.2046C47.6636 30.8614 45.0828 35.2588 44.7262 40.0772Z" fill="#E6A135"/>
</svg>
