<svg width="76" height="76" viewBox="0 0 76 76" fill="none" xmlns="http://www.w3.org/2000/svg">
<g clip-path="url(#clip0_983_2024)">
<path d="M71.2843 29.7222C68.5752 29.7222 66.8816 27.9641 66.2001 26.319C65.5187 24.6737 65.473 22.233 67.3887 20.3171C69.2272 18.4787 69.2272 15.4872 67.3887 13.6488L62.3506 8.61071C60.5122 6.77216 57.5207 6.77216 55.6823 8.61071C53.7664 10.5264 51.3257 10.4807 49.6804 9.79925C48.0351 9.11777 46.277 7.42425 46.277 4.71512C46.277 2.11523 44.1618 0 41.5619 0H34.4372C31.8373 0 29.7222 2.11523 29.7222 4.71512C29.7222 7.42425 27.9641 9.11777 26.3189 9.79925C24.6736 10.4809 22.2328 10.5264 20.3169 8.61071C18.4785 6.77216 15.4871 6.77216 13.6487 8.61071L8.61071 13.649C6.77216 15.4874 6.77216 18.4788 8.61071 20.3172C10.5264 22.233 10.4807 24.6737 9.79925 26.3192C9.11777 27.9643 7.42425 29.7224 4.71512 29.7224C2.11523 29.7224 0 31.8376 0 34.4375V41.5622C0 44.1621 2.11523 46.2773 4.71512 46.2773C7.42425 46.2773 9.11777 48.0354 9.79925 49.6805C10.4807 51.326 10.5264 53.7667 8.61071 55.6825C6.77216 57.5209 6.77216 60.5123 8.61071 62.3507L13.6488 67.3888C15.4872 69.2274 18.4787 69.2274 20.3171 67.3888C22.2362 65.4698 24.677 65.5138 26.3214 66.1947C27.9655 66.8757 29.7224 68.5704 29.7224 71.2846C29.7224 73.8845 31.8376 75.9997 34.4374 75.9997H41.562C44.1619 75.9997 46.2772 73.8845 46.2772 71.2846C46.2772 68.5754 48.0353 66.8819 49.6804 66.2005C51.3257 65.5191 53.7666 65.4733 55.6823 67.389C57.5207 69.2275 60.5122 69.2275 62.3506 67.389L67.3887 62.3509C69.2272 60.5125 69.2272 57.521 67.3887 55.6826C65.473 53.7669 65.5187 51.3261 66.2001 49.6807C66.8816 48.0354 68.5752 46.2773 71.2843 46.2773C73.8842 46.2773 75.9994 44.1621 75.9994 41.5622V34.4375C75.9994 31.8375 73.8842 29.7222 71.2843 29.7222ZM71.2494 41.5272C67.04 41.5404 63.4259 43.9654 61.8116 47.8626C60.1973 51.76 61.0379 56.0303 64.0052 59.0164L59.0164 64.0054C56.0304 61.0382 51.7599 60.1973 47.8626 61.8117C43.9657 63.4259 41.5407 67.0402 41.5272 71.2494H34.4724C34.4592 67.036 32.035 63.4198 28.1391 61.8061C24.2434 60.1924 19.9721 61.0353 16.9832 64.0054L11.9942 59.0164C14.9613 56.0306 15.8022 51.76 14.1878 47.8626C12.5737 43.9657 8.95939 41.5407 4.75015 41.5272V34.4722C8.95954 34.459 12.5737 32.034 14.188 28.1368C15.8022 24.2395 14.9615 19.9691 11.9942 16.9832L16.9832 11.9942C19.969 14.9613 24.2397 15.8022 28.1369 14.1878C32.0341 12.5735 34.4592 8.95969 34.4725 4.75H41.5273C41.5405 8.95939 43.9656 12.5735 47.8628 14.1878C51.7602 15.8021 56.0304 14.9615 59.0165 11.9942L64.0055 16.983C61.0384 19.969 60.1975 24.2394 61.8119 28.1368C63.4262 32.034 67.04 34.459 71.2497 34.4722V41.5272H71.2494ZM37.9997 18.0804C27.0161 18.0804 18.0804 27.0162 18.0804 37.9997C18.0804 48.9833 27.0162 57.919 37.9997 57.919C48.9832 57.919 57.919 48.9832 57.919 37.9997C57.919 27.0162 48.9832 18.0804 37.9997 18.0804ZM37.9997 53.169C29.6353 53.169 22.8304 46.364 22.8304 37.9997C22.8304 29.6354 29.6354 22.8304 37.9997 22.8304C46.364 22.8304 53.169 29.6354 53.169 37.9997C53.169 46.3642 46.364 53.169 37.9997 53.169ZM47.8695 31.2335C48.7207 32.2313 48.6021 33.7303 47.6042 34.5818L35.3574 45.031C34.9121 45.4109 34.3634 45.5993 33.8161 45.5993C33.2187 45.5993 32.6227 45.375 32.1637 44.9305L28.2848 41.1745C27.3425 40.262 27.3181 38.7585 28.2306 37.8161C29.143 36.8737 30.6466 36.8495 31.589 37.7619L33.9169 40.0161L44.5212 30.9682C45.519 30.1171 47.018 30.2357 47.8695 31.2335Z" fill="#E6A135"/>
</g>
<defs>
<clipPath id="clip0_983_2024">
<rect width="76" height="76" fill="white"/>
</clipPath>
</defs>
</svg>
