<svg width="76" height="76" viewBox="0 0 76 76" fill="none" xmlns="http://www.w3.org/2000/svg">
<g clip-path="url(#clip0_983_2014)">
<path d="M73.7734 23.75H69.3203C68.0907 23.75 67.0938 24.7469 67.0938 25.9766C67.0938 27.2062 68.0907 28.2031 69.3203 28.2031H73.7734C75.0031 28.2031 76 27.2062 76 25.9766C76 24.7469 75.0031 23.75 73.7734 23.75Z" fill="#E6A135"/>
<path d="M68.9495 15.2879L72.8061 13.0613C73.871 12.4465 74.2358 11.0847 73.621 10.0198C73.0062 8.95495 71.6444 8.59009 70.5795 9.20492L66.723 11.4315C65.6581 12.0463 65.2932 13.4081 65.908 14.473C66.5229 15.5379 67.8846 15.9027 68.9495 15.2879Z" fill="#E6A135"/>
<path d="M72.8061 38.8924L68.9495 36.6659C67.8846 36.051 66.5229 36.4159 65.908 37.4808C65.2932 38.5457 65.6581 39.9074 66.723 40.5223L70.5795 42.7488C71.6444 43.3637 73.0062 42.9988 73.621 41.9339C74.2358 40.869 73.871 39.5072 72.8061 38.8924Z" fill="#E6A135"/>
<path d="M6.67969 28.2031C7.90934 28.2031 8.90625 27.2062 8.90625 25.9766C8.90625 24.7469 7.90934 23.75 6.67969 23.75H2.22656C0.996906 23.75 0 24.7469 0 25.9766C0 27.2062 0.996906 28.2031 2.22656 28.2031H6.67969Z" fill="#E6A135"/>
<path d="M9.27679 11.4315L5.42023 9.20492C4.35534 8.59009 2.99357 8.95495 2.37875 10.0198C1.76392 11.0847 2.12878 12.4465 3.19367 13.0613L7.05022 15.2879C8.11511 15.9027 9.47688 15.5379 10.0917 14.473C10.7065 13.4081 10.3417 12.0463 9.27679 11.4315Z" fill="#E6A135"/>
<path d="M7.05022 36.6659L3.19367 38.8924C2.12878 39.5072 1.76392 40.869 2.37875 41.9339C2.99357 42.9988 4.35534 43.3637 5.42023 42.7488L9.27679 40.5223C10.3417 39.9074 10.7065 38.5457 10.0917 37.4808C9.47688 36.4159 8.11511 36.051 7.05022 36.6659Z" fill="#E6A135"/>
<path d="M38 0C23.6765 0 12.0234 11.6531 12.0234 25.9766C12.0234 33.3977 15.2153 40.4795 20.7807 45.406C23.7053 47.995 25.3828 51.734 25.3828 55.6641V61.8984C25.3828 63.9668 26.5979 65.7562 28.3516 66.5914V69.3203C28.3516 73.0035 31.3481 76 35.0312 76H40.9688C44.6519 76 47.6484 73.0035 47.6484 69.3203V66.5914C49.4021 65.756 50.6172 63.9668 50.6172 61.8984V55.6641C50.6172 51.734 52.2947 47.995 55.2193 45.406C60.7847 40.4795 63.9766 33.3977 63.9766 25.9766C63.9766 11.6531 52.3235 0 38 0ZM43.1953 69.3203C43.1953 70.548 42.1965 71.5469 40.9688 71.5469H35.0312C33.8035 71.5469 32.8047 70.548 32.8047 69.3203V67.0938H43.1953V69.3203ZM46.1641 61.8984C46.1641 62.3077 45.8311 62.6406 45.4219 62.6406H30.5781C30.1689 62.6406 29.8359 62.3077 29.8359 61.8984V57.8906H46.1641V61.8984ZM35.7734 40.0781H35.0312C31.3481 40.0781 28.3516 37.0816 28.3516 33.3984V32.6562H29.0938C32.7769 32.6562 35.7734 35.6528 35.7734 39.3359V40.0781ZM38.5249 24.2529L38 24.7778L37.4751 24.2529C34.8708 21.6486 34.8708 17.4107 37.4751 14.8063L38 14.2816L38.5249 14.8065C41.1292 17.4108 41.1292 21.6486 38.5249 24.2529ZM40.2266 39.3359C40.2266 35.6528 43.2231 32.6562 46.9062 32.6562H47.6484V33.3984C47.6484 37.0816 44.6519 40.0781 40.9688 40.0781H40.2266V39.3359ZM52.2677 42.0716C48.9468 45.0113 46.8399 49.0659 46.302 53.4375H40.2266V44.5312H40.9688C47.1074 44.5312 52.1016 39.5371 52.1016 33.3984V30.4297C52.1016 29.2 51.1047 28.2031 49.875 28.2031H46.9062C44.402 28.2031 42.0886 29.0348 40.2266 30.4358V28.849L41.6737 27.4019C46.0141 23.0611 46.0141 15.9984 41.6737 11.6577L39.5743 9.55848C38.7049 8.68909 37.2951 8.68909 36.4255 9.55848L34.3262 11.6578C29.9857 15.9986 29.9857 23.0612 34.3262 27.402L35.7733 28.8491V30.4359C33.9114 29.0348 31.598 28.2031 29.0938 28.2031H26.125C24.8953 28.2031 23.8984 29.2 23.8984 30.4297V33.3984C23.8984 39.5371 28.8926 44.5312 35.0312 44.5312H35.7734V53.4375H29.698C29.1601 49.0659 27.0532 45.0114 23.7323 42.0716C19.1211 37.9898 16.4766 32.1234 16.4766 25.9766C16.4766 14.1085 26.132 4.45312 38 4.45312C49.868 4.45312 59.5234 14.1085 59.5234 25.9766C59.5234 32.1234 56.8789 37.9898 52.2677 42.0716Z" fill="#E6A135"/>
</g>
<defs>
<clipPath id="clip0_983_2014">
<rect width="76" height="76" fill="white"/>
</clipPath>
</defs>
</svg>
