<svg width="76" height="76" viewBox="0 0 76 76" fill="none" xmlns="http://www.w3.org/2000/svg">
<g clip-path="url(#clip0_983_2010)">
<path d="M70.2782 71.4324H68.3572V22.284C68.3572 21.0228 67.3344 20 66.0732 20H54.2429C52.9818 20 51.9589 21.0228 51.9589 22.284V71.4324H46.3351V39.3885C46.3351 38.1273 45.3129 37.1045 44.0517 37.1045H32.2208C30.9597 37.1045 29.9374 38.1273 29.9374 39.3885V71.4324H24.313V35.1934C24.313 33.9323 23.2902 32.91 22.0291 32.91H10.1987C8.93698 32.91 7.91473 33.9323 7.91473 35.1934V71.4324H5.9949C4.73318 71.4324 3.71094 72.4547 3.71094 73.7158C3.71094 74.9775 4.73318 75.9998 5.9949 75.9998H70.2782C71.5393 75.9998 72.5622 74.9775 72.5622 73.7158C72.5622 72.4547 71.5393 71.4324 70.2782 71.4324ZM56.5263 24.5674H63.7899V71.4324H56.5263V24.5674ZM34.5048 41.6719H41.7678V71.4324H34.5048V41.6719ZM12.4821 37.4774H19.7451V71.4324H12.4821V37.4774Z" fill="#E6A135"/>
<path d="M19.648 26.1644C19.7152 26.1644 19.7836 26.1615 19.8515 26.1557C20.0579 26.1372 24.9842 25.6814 31.9775 23.2038C38.3986 20.9285 47.8818 16.4302 56.5979 7.91879C56.6414 7.87646 56.6808 7.83182 56.7202 7.78659V11.301C56.7202 12.5627 57.7425 13.5849 59.0036 13.5849C60.2647 13.5849 61.2876 12.5627 61.2876 11.301V2.28397C61.2876 1.02225 60.2647 0 59.0036 0H49.986C48.7249 0 47.7026 1.02225 47.7026 2.28397C47.7026 3.5451 48.7249 4.56735 49.986 4.56735H53.5021C53.4702 4.59518 53.4372 4.62128 53.4065 4.65143C51.0564 6.94641 48.6454 8.92654 46.2623 10.6359C40.4599 14.7956 34.8181 17.3394 30.6022 18.8452C29.7255 19.1583 28.8841 19.436 28.0822 19.6842C22.9536 21.2712 19.4868 21.6023 19.4473 21.6064C18.1926 21.7183 17.2654 22.8263 17.3762 24.0817C17.4811 25.2697 18.4778 26.1644 19.648 26.1644Z" fill="#E6A135"/>
</g>
<defs>
<clipPath id="clip0_983_2010">
<rect width="76" height="76" fill="white"/>
</clipPath>
</defs>
</svg>
