<svg width="62" height="62" viewBox="0 0 62 62" fill="none" xmlns="http://www.w3.org/2000/svg">
<g clip-path="url(#clip0_782_7459)">
<path d="M31.1029 21.6298C31.9562 21.6298 32.6473 20.9383 32.6473 20.0854C32.6473 19.2326 31.9562 18.541 31.1029 18.541C24.2796 18.541 18.748 24.0725 18.748 30.8963C18.748 37.7197 24.2796 43.2512 31.1029 43.2512C37.9267 43.2512 43.4582 37.7197 43.4582 30.8963C43.4582 30.043 42.7667 29.3519 41.9138 29.3519C41.061 29.3519 40.3694 30.043 40.3694 30.8963C40.3694 36.014 36.221 40.1628 31.1029 40.1628C25.9853 40.1628 21.8364 36.014 21.8364 30.8963C21.8364 25.7782 25.9853 21.6298 31.1029 21.6298Z" fill="white"/>
<path d="M60.5709 21.7236C60.3027 20.9133 59.4286 20.4738 58.6178 20.742C57.826 21.0041 57.3851 21.847 57.6211 22.6469C62.2397 37.3546 54.0612 53.0215 39.3535 57.6401C24.6463 62.2587 8.97936 54.0801 4.36077 39.3725C-0.258286 24.6648 7.92073 8.99785 22.6279 4.37926C28.0724 2.66976 33.9095 2.66976 39.3535 4.37926C40.1709 4.62571 41.0332 4.16309 41.2797 3.34571C41.5223 2.54063 41.0772 1.68966 40.2773 1.4295C23.9462 -3.69427 6.55323 5.39106 1.42946 21.7226C-3.69432 38.0537 5.39149 55.4467 21.7226 60.5705C38.0541 65.6942 55.4467 56.6089 60.5704 40.2774C62.4654 34.2378 62.4654 27.7631 60.5709 21.7236Z" fill="white"/>
<path d="M34.045 11.0341C34.0531 10.1547 33.3776 9.41966 32.5006 9.35391C32.0394 9.31465 31.5777 9.27539 31.1042 9.27539C19.1628 9.27539 9.48242 18.9558 9.48242 30.8972C9.48242 42.8382 19.1628 52.5186 31.1042 52.5186C43.0452 52.5186 52.7256 42.8382 52.7256 30.8972C52.7256 30.3386 52.6915 29.7804 52.623 29.226C52.4995 28.3784 51.7124 27.7914 50.8647 27.9148C50.0171 28.0378 49.4301 28.8254 49.553 29.673C49.5578 29.7052 49.5635 29.7369 49.5701 29.7691C49.6037 30.1432 49.6368 30.5141 49.6368 30.8963C49.6372 41.132 41.34 49.4293 31.1047 49.4302C20.869 49.4307 12.5717 41.1329 12.5713 30.8977C12.5708 20.6624 20.8676 12.3647 31.1033 12.3642H31.1038C31.4869 12.3642 31.8582 12.3973 32.2315 12.4304L32.521 12.4546C33.3279 12.4891 34.01 11.8628 34.0441 11.0558C34.0446 11.0483 34.0446 11.0412 34.045 11.0341Z" fill="white"/>
<path d="M40.3707 13.9081V19.4462L30.0125 29.8045C29.399 30.3972 29.382 31.3749 29.9747 31.9884C30.5674 32.6019 31.5451 32.6189 32.1586 32.0263C32.1714 32.014 32.1841 32.0012 32.1964 31.9884L42.5547 21.6302H48.0928C48.5024 21.6302 48.8951 21.4675 49.185 21.1775L58.451 11.911C59.0541 11.3079 59.0541 10.3302 58.451 9.72706C58.1616 9.43757 57.7689 9.27485 57.3593 9.27485H52.7261V4.6416C52.7261 3.78874 52.0345 3.09718 51.1812 3.09766C50.772 3.09766 50.3794 3.26038 50.0899 3.54987L40.8234 12.8164C40.5334 13.1059 40.3707 13.4985 40.3707 13.9081ZM43.4596 14.5476L49.6372 8.36996V10.8193C49.6372 11.6721 50.3288 12.3637 51.1816 12.3637H53.631L47.4533 18.5413H43.4596V14.5476Z" fill="white"/>
</g>
<defs>
<clipPath id="clip0_782_7459">
<rect width="62" height="62" fill="white"/>
</clipPath>
</defs>
</svg>
