<svg width="62" height="62" viewBox="0 0 62 62" fill="none" xmlns="http://www.w3.org/2000/svg">
<path d="M23.7344 26.1562C24.4028 26.1562 24.9453 25.6137 24.9453 24.9453C24.9453 24.2736 24.3971 23.7344 23.7344 23.7344C23.066 23.7344 22.5234 24.2769 22.5234 24.9453C22.5234 25.6142 23.066 26.1562 23.7344 26.1562Z" fill="white"/>
<path d="M31 10.4141C31.6689 10.4141 32.2109 9.87198 32.2109 9.20312V1.21094C32.2109 0.542084 31.6689 0 31 0C30.3311 0 29.7891 0.542084 29.7891 1.21094V9.20312C29.7891 9.87198 30.3311 10.4141 31 10.4141Z" fill="white"/>
<path d="M29.7891 52.7969V60.7891C29.7891 61.4579 30.3311 62 31 62C31.6689 62 32.2109 61.4579 32.2109 60.7891V52.7969C32.2109 52.128 31.6689 51.5859 31 51.5859C30.3311 51.5859 29.7891 52.128 29.7891 52.7969Z" fill="white"/>
<path d="M12.3091 16.4434C12.7822 16.9164 13.5485 16.9164 14.022 16.4434C14.4945 15.9708 14.4945 15.204 14.022 14.731L8.88351 9.59305C8.41096 9.12003 7.6442 9.12003 7.17117 9.59305C6.69815 10.0661 6.69815 10.8328 7.17117 11.3054L12.3091 16.4434Z" fill="white"/>
<path d="M47.9788 46.7665C47.5058 47.2395 47.5058 48.0063 47.9788 48.4793L53.1168 53.6173C53.5893 54.0899 54.3561 54.0903 54.8291 53.6173C55.3021 53.1443 55.3021 52.3775 54.8291 51.9045L49.6911 46.7665C49.2181 46.294 48.4518 46.294 47.9788 46.7665Z" fill="white"/>
<path d="M49.6911 16.4434L54.8291 11.3054C55.3021 10.8328 55.3021 10.0661 54.8291 9.59305C54.3561 9.12003 53.5898 9.12003 53.1168 9.59305L47.9788 14.731C47.5058 15.204 47.5058 15.9708 47.9788 16.4434C48.4518 16.9164 49.2181 16.9164 49.6911 16.4434Z" fill="white"/>
<path d="M12.3091 46.7669L7.17117 51.9048C6.69815 52.3774 6.69815 53.1442 7.17117 53.6172C7.6442 54.0902 8.41049 54.0902 8.88351 53.6172L14.022 48.4792C14.4945 48.0062 14.4945 47.2394 14.022 46.7669C13.5489 46.2939 12.7822 46.2939 12.3091 46.7669Z" fill="white"/>
<path d="M10.8785 39.7959C17.189 45.1325 24.1472 47.9531 30.9999 47.9531C37.853 47.9531 44.8107 45.1325 51.1213 39.7959C55.8496 35.7974 58.5336 31.8425 58.6452 31.6759C58.92 31.2673 58.92 30.7327 58.6452 30.3241C58.5336 30.158 55.8496 26.2026 51.1213 22.2041C44.8107 16.8675 37.853 14.0469 30.9999 14.0469C24.1472 14.0469 17.189 16.8675 10.8785 22.2041C6.15059 26.2026 3.46666 30.1575 3.35456 30.3241C3.07973 30.7327 3.07973 31.2673 3.35456 31.6759C3.46666 31.8425 6.15059 35.7974 10.8785 39.7959ZM12.4423 24.0537C16.5339 20.5935 23.0749 16.4688 30.9999 16.4688C38.9008 16.4688 45.4247 20.5699 49.5064 24.0101C52.8776 26.8521 55.1926 29.729 56.1472 31.0009C55.2002 32.2639 52.9108 35.1106 49.5575 37.9463C45.4659 41.4065 38.9249 45.5312 30.9999 45.5312C23.099 45.5312 16.5751 41.4301 12.4938 37.9899C9.12212 35.1479 6.80667 32.2705 5.85306 30.9995C6.79958 29.7361 9.08901 26.8894 12.4423 24.0537Z" fill="white"/>
<path d="M31 41.8984C37.0466 41.8984 41.8984 36.9908 41.8984 31C41.8984 24.9907 37.0093 20.1016 31 20.1016C29.7276 20.1016 28.3463 20.3348 27.0995 20.8206C26.476 21.0627 26.1671 21.7647 26.4093 22.3882C26.6373 22.9747 27.274 23.3474 28.0942 23.0348C29.0166 22.6895 30.0497 22.5234 31 22.5234C35.6739 22.5234 39.4766 26.3261 39.4766 31C39.4766 35.6602 35.6981 39.4766 31 39.4766C26.3261 39.4766 22.5234 35.6739 22.5234 31C22.5234 30.4347 22.5736 30 22.6635 29.4542C22.7879 28.7971 22.356 28.1675 21.699 28.0422C21.0438 27.9183 20.4081 28.352 20.2827 29.0086C20.1588 29.6661 20.1016 30.3605 20.1016 31C20.1016 37.0093 24.9907 41.8984 31 41.8984Z" fill="white"/>
<path d="M35.8438 31C35.8438 28.3293 33.6707 26.1562 31 26.1562C28.3293 26.1562 26.1562 28.3293 26.1562 31C26.1562 33.6707 28.3293 35.8438 31 35.8438C33.6707 35.8438 35.8438 33.6707 35.8438 31ZM28.5781 31C28.5781 29.6647 29.6647 28.5781 31 28.5781C32.3353 28.5781 33.4219 29.6647 33.4219 31C33.4219 32.3353 32.3353 33.4219 31 33.4219C29.6647 33.4219 28.5781 32.3353 28.5781 31Z" fill="white"/>
</svg>
