<svg width="512" height="512" viewBox="0 0 512 512" fill="none" xmlns="http://www.w3.org/2000/svg">
<g clip-path="url(#clip0_683_98)">
<path d="M256 512C397.385 512 512 397.385 512 256C512 114.615 397.385 0 256 0C114.615 0 0 114.615 0 256C0 397.385 114.615 512 256 512Z" fill="#29A71A"/>
<path d="M368.872 143.127C342.238 116.227 306.867 99.7297 269.14 96.6115C231.413 93.4933 193.814 103.959 163.124 126.122C132.434 148.284 110.675 180.684 101.769 217.477C92.8645 254.271 97.4005 293.035 114.559 326.778L97.7158 408.553C97.5411 409.367 97.5361 410.208 97.7013 411.024C97.8665 411.84 98.1982 412.613 98.6758 413.294C99.3755 414.329 100.374 415.126 101.539 415.578C102.703 416.03 103.978 416.117 105.192 415.825L185.338 396.829C218.986 413.554 257.477 417.798 293.961 408.807C330.445 399.816 362.556 378.173 384.58 347.728C406.604 317.284 417.113 280.013 414.237 242.548C411.36 205.083 395.286 169.853 368.872 143.127ZM343.883 342.574C325.455 360.951 301.724 373.082 276.036 377.257C250.348 381.432 223.997 377.442 200.698 365.847L189.527 360.32L140.392 371.956L140.538 371.345L150.719 321.891L145.25 311.098C133.345 287.717 129.146 261.168 133.253 235.254C137.36 209.339 149.564 185.39 168.116 166.836C191.427 143.533 223.038 130.442 255.999 130.442C288.961 130.442 320.572 143.533 343.883 166.836C344.082 167.064 344.295 167.278 344.523 167.476C367.545 190.84 380.397 222.357 380.277 255.157C380.157 287.957 367.075 319.38 343.883 342.574Z" fill="white"/>
<path d="M339.519 306.298C333.497 315.782 323.984 327.389 312.028 330.269C291.082 335.331 258.937 330.444 218.937 293.149L218.442 292.713C183.271 260.102 174.137 232.96 176.348 211.433C177.57 199.215 187.751 188.16 196.333 180.946C197.69 179.788 199.299 178.963 201.031 178.538C202.764 178.113 204.571 178.099 206.31 178.498C208.049 178.897 209.67 179.697 211.044 180.834C212.418 181.971 213.507 183.414 214.224 185.047L227.17 214.138C228.011 216.025 228.323 218.104 228.071 220.154C227.82 222.204 227.016 224.147 225.744 225.775L219.199 234.269C217.794 236.023 216.947 238.157 216.765 240.397C216.584 242.637 217.077 244.879 218.181 246.837C221.846 253.266 230.631 262.72 240.377 271.477C251.315 281.367 263.446 290.415 271.126 293.498C273.181 294.338 275.44 294.543 277.613 294.086C279.785 293.63 281.771 292.534 283.315 290.938L290.908 283.287C292.373 281.843 294.195 280.812 296.188 280.301C298.181 279.79 300.274 279.817 302.253 280.378L333.002 289.106C334.699 289.626 336.253 290.527 337.548 291.741C338.842 292.954 339.842 294.447 340.471 296.106C341.1 297.765 341.341 299.546 341.176 301.313C341.011 303.079 340.444 304.784 339.519 306.298Z" fill="white"/>
</g>
<defs>
<clipPath id="clip0_683_98">
<rect width="512" height="512" fill="white"/>
</clipPath>
</defs>
</svg>
