<svg width="232" height="150" viewBox="0 0 232 150" fill="none" xmlns="http://www.w3.org/2000/svg">
<g clip-path="url(#clip0_691_20812)">
<path d="M193.152 58.8584C194.248 62.9033 198.368 65.2849 202.413 64.2264C206.458 63.1301 208.84 59.0097 207.781 54.9648C206.685 50.9199 202.564 48.5384 198.52 49.5969C194.475 50.6931 192.093 54.8514 193.152 58.8584ZM182.869 66.986C185.629 66.2299 187.254 63.4325 186.536 60.673C185.78 57.9134 182.983 56.2879 180.223 57.0061C177.464 57.7622 175.838 60.5596 176.556 63.3191C177.275 66.0787 180.11 67.7042 182.869 66.986ZM167.711 69.6321C169.714 69.1029 170.924 67.0238 170.395 64.9824C169.865 62.9789 167.786 61.7692 165.745 62.2985C163.741 62.8277 162.532 64.9068 163.061 66.9482C163.59 68.9517 165.669 70.1614 167.711 69.6321Z" fill="#2B4C87"/>
<path d="M155.879 71.3718C157.164 71.0315 157.92 69.7085 157.58 68.4232C157.24 67.1379 155.916 66.3819 154.631 66.7221C153.346 67.0623 152.59 68.3854 152.93 69.6707C153.27 70.9559 154.593 71.712 155.879 71.3718Z" fill="#2E4E88"/>
<path d="M187.519 43.5109C189.41 46.7997 193.643 47.9338 196.932 46.0437C200.221 44.1535 201.355 39.9197 199.465 36.6309C197.575 33.342 193.341 32.208 190.052 34.0981C186.726 36.026 185.629 40.2221 187.519 43.5109ZM172.323 52.2811C173.646 54.587 176.594 55.3809 178.9 54.0578C181.206 52.7347 182 49.7861 180.677 47.4801C179.354 45.1742 176.405 44.3803 174.1 45.7034C171.756 47.0265 170.962 49.9751 172.323 52.2811ZM161.474 54.5492C159.81 55.4943 159.281 57.6112 160.226 59.2367C161.171 60.9 163.288 61.4292 164.914 60.4842C166.577 59.5391 167.106 57.4222 166.161 55.7967C165.254 54.1712 163.137 53.6041 161.474 54.5492ZM151.796 61.5426C150.738 62.1475 150.36 63.5084 150.964 64.6046C151.569 65.6631 152.968 66.0411 154.026 65.4363C155.085 64.8315 155.463 63.4328 154.858 62.3743C154.253 61.278 152.892 60.9378 151.796 61.5426Z" fill="#1E3E70"/>
<path d="M186.725 29.9773C189.145 27.5579 189.145 23.6265 186.725 21.2071C184.306 18.7877 180.374 18.7877 177.955 21.2071C175.536 23.6265 175.536 27.5579 177.955 29.9773C180.374 32.3966 184.306 32.3966 186.725 29.9773ZM171.642 36.3281C169.903 34.5892 167.068 34.5892 165.329 36.3281C163.59 38.067 163.59 40.9022 165.329 42.6411C167.068 44.38 169.903 44.38 171.642 42.6411C173.381 40.9022 173.381 38.067 171.642 36.3281ZM155.463 48.1224C154.253 49.3321 154.253 51.2978 155.463 52.5075C156.672 53.7172 158.638 53.7172 159.848 52.5075C161.057 51.2978 161.057 49.3321 159.848 48.1224C158.638 46.9127 156.672 46.9127 155.463 48.1224ZM147.789 60.1814C148.583 60.9752 149.906 60.9752 150.7 60.1814C151.493 59.3875 151.493 58.0645 150.7 57.2706C149.906 56.4768 148.583 56.4768 147.789 57.2706C146.957 58.0645 146.957 59.3497 147.789 60.1814Z" fill="#184D89"/>
<path d="M164.951 19.5808C167.748 21.2063 171.34 20.2234 172.927 17.426C174.553 14.6286 173.57 11.0374 170.773 9.44972C167.975 7.82421 164.384 8.80708 162.796 11.6045C161.171 14.4018 162.154 17.9553 164.951 19.5808ZM154.48 29.4472C153.346 31.4129 154.026 33.9457 155.992 35.0798C157.958 36.2138 160.49 35.5334 161.624 33.5677C162.758 31.6019 162.078 29.0692 160.112 27.9351C158.147 26.801 155.614 27.4815 154.48 29.4472ZM151.758 42.3756C150.435 41.6196 148.772 42.0732 147.978 43.3963C147.222 44.7194 147.675 46.3827 148.998 47.1765C150.321 47.9326 151.985 47.479 152.741 46.1559C153.535 44.8328 153.081 43.1695 151.758 42.3756ZM145.407 53.4139C144.5 52.8847 143.328 53.1871 142.837 54.0944C142.307 55.0016 142.61 56.1735 143.517 56.6649C144.424 57.1942 145.596 56.8918 146.088 55.9845C146.617 55.115 146.314 53.9432 145.407 53.4139Z" fill="#3569A4"/>
<path d="M149.566 12.8536C152.515 13.6474 155.539 11.9085 156.295 8.95994C157.089 6.01135 155.35 2.98716 152.401 2.23111C149.453 1.43726 146.429 3.17617 145.672 6.12476C144.879 9.07335 146.655 12.0975 149.566 12.8536ZM144.954 30.1671C146.958 30.6963 149.037 29.5245 149.604 27.4831C150.133 25.4796 148.961 23.4005 146.92 22.8334C144.916 22.3042 142.837 23.4761 142.27 25.5174C141.741 27.5587 142.913 29.6379 144.954 30.1671ZM141.287 43.8138C142.648 44.1918 144.085 43.3601 144.463 41.9993C144.841 40.6384 144.009 39.2019 142.648 38.8239C141.287 38.4458 139.851 39.2775 139.473 40.6384C139.095 41.9993 139.927 43.4357 141.287 43.8138ZM137.205 52.3193C136.978 53.2266 137.507 54.1716 138.414 54.4363C139.322 54.7009 140.267 54.1338 140.531 53.2266C140.758 52.3193 140.229 51.3743 139.322 51.1096C138.414 50.8828 137.469 51.4121 137.205 52.3193Z" fill="#4B8DCB"/>
<path d="M132.895 10.3579C135.73 10.3579 138.074 8.05192 138.074 5.17893C138.074 2.34375 135.768 0 132.895 0C130.06 0 127.716 2.30595 127.716 5.17893C127.754 8.05192 130.06 10.3579 132.895 10.3579ZM132.895 21.3584C131.005 21.3584 129.455 22.9083 129.455 24.7984C129.455 26.6885 131.005 28.2384 132.895 28.2384C134.785 28.2384 136.335 26.6885 136.335 24.7984C136.335 22.9083 134.823 21.3584 132.895 21.3584ZM135.314 40.1462C135.314 38.8231 134.218 37.7268 132.895 37.7268C131.572 37.7268 130.475 38.8231 130.475 40.1462C130.475 41.4693 131.572 42.5655 132.895 42.5655C134.256 42.5277 135.314 41.4693 135.314 40.1462ZM132.895 50.4662C132.025 50.4662 131.345 51.1467 131.345 52.0161C131.345 52.8856 132.025 53.566 132.895 53.566C133.764 53.566 134.445 52.8856 134.445 52.0161C134.445 51.1467 133.764 50.4662 132.895 50.4662Z" fill="#3398B3"/>
<path d="M116.073 12.2474C118.643 11.567 120.155 8.92083 119.475 6.35027C118.795 3.7797 116.148 2.26761 113.578 2.94805C111.007 3.62849 109.495 6.27466 110.176 8.84523C110.856 11.4158 113.502 12.9279 116.073 12.2474ZM116.904 27.3306C117.358 28.9939 119.059 29.9768 120.685 29.5231C122.348 29.0695 123.331 27.3684 122.877 25.7429C122.424 24.0796 120.722 23.0967 119.097 23.5504C117.434 24.004 116.451 25.7051 116.904 27.3306ZM121.705 41.9223C122.008 43.132 123.255 43.8125 124.427 43.51C125.637 43.2076 126.317 41.9601 126.015 40.7505C125.712 39.5408 124.465 38.8603 123.293 39.1628C122.083 39.503 121.403 40.7127 121.705 41.9223ZM125.599 53.1875C125.788 53.9057 126.544 54.3593 127.3 54.1703C128.018 53.9813 128.472 53.2253 128.283 52.4692C128.094 51.751 127.338 51.2973 126.582 51.4864C125.864 51.6754 125.41 52.4314 125.599 53.1875Z" fill="#02A496"/>
<path d="M100.196 18.4863C102.351 17.2389 103.069 14.5171 101.821 12.3624C100.574 10.2076 97.8521 9.48937 95.6973 10.7368C93.5426 11.9843 92.8243 14.7061 94.0718 16.8608C95.3193 18.9778 98.0789 19.696 100.196 18.4863ZM109.155 33.9853C110.478 33.2293 110.932 31.5282 110.176 30.2429C109.42 28.9198 107.718 28.4662 106.395 29.2222C105.072 29.9783 104.619 31.6794 105.375 33.0025C106.169 34.2878 107.832 34.7414 109.155 33.9853ZM116.489 46.6492C117.472 46.0821 117.812 44.7968 117.245 43.814C116.678 42.8311 115.392 42.4909 114.41 43.0579C113.427 43.625 113.086 44.8724 113.653 45.8931C114.22 46.876 115.506 47.2162 116.489 46.6492ZM122.424 54.5499C122.083 53.9828 121.365 53.7938 120.76 54.0962C120.193 54.4364 120.004 55.1547 120.307 55.7595C120.647 56.3266 121.365 56.5156 121.97 56.2132C122.575 55.8351 122.764 55.1169 122.424 54.5499Z" fill="#00AA75"/>
<path d="M86.4359 28.6547C88.0614 27.0292 88.0614 24.4208 86.4359 22.7953C84.8104 21.1698 82.2021 21.1698 80.5765 22.7953C78.951 24.4208 78.951 27.0292 80.5765 28.6547C82.2021 30.2424 84.8104 30.2424 86.4359 28.6547ZM99.0997 37.8785C98.1547 36.9334 96.6426 36.9334 95.6975 37.8785C94.7525 38.8235 94.7525 40.3356 95.6975 41.2807C96.6426 42.2257 98.1547 42.2257 99.0997 41.2807C100.045 40.3734 100.045 38.8235 99.0997 37.8785ZM109.571 49.068C108.815 48.3119 107.643 48.3119 106.887 49.068C106.131 49.824 106.131 50.9959 106.887 51.752C107.643 52.508 108.815 52.508 109.571 51.752C110.289 51.0337 110.289 49.824 109.571 49.068ZM117.358 58.1028C116.942 57.6869 116.3 57.6869 115.884 58.1028C115.468 58.5186 115.468 59.1612 115.884 59.5771C116.3 59.9929 116.942 59.9929 117.358 59.5771C117.774 59.1612 117.774 58.4808 117.358 58.1028Z" fill="#4FBA69"/>
<path d="M70.4079 43.3603C72.2224 44.4187 74.5284 43.7761 75.5868 41.9616C76.6453 40.1471 76.0027 37.8411 74.1881 36.7827C72.3736 35.7242 70.0677 36.3668 69.0092 38.1813C67.9508 39.9959 68.5934 42.3018 70.4079 43.3603ZM90.4432 48.2368C89.4603 47.6698 88.175 48.01 87.608 48.9928C87.041 49.9757 87.3812 51.261 88.3641 51.828C89.3469 52.3951 90.6322 52.0548 91.1992 51.072C91.7663 50.0513 91.4261 48.8038 90.4432 48.2368ZM103.561 56.1753C102.729 55.6839 101.671 55.9863 101.217 56.8179C100.725 57.6496 101.028 58.7081 101.86 59.1617C102.691 59.6531 103.75 59.3507 104.203 58.519C104.657 57.7252 104.354 56.6667 103.561 56.1753Z" fill="#7EC45F"/>
<path d="M202.867 66.7207C198.293 66.7207 194.588 70.4253 194.588 74.9994C194.588 79.5735 198.293 83.2782 202.867 83.2782C207.441 83.2782 211.146 79.5735 211.146 74.9994C211.146 70.4253 207.441 66.7207 202.867 66.7207ZM189.182 74.9994C189.182 71.7484 186.536 69.0644 183.247 69.0644C179.959 69.0644 177.312 71.7106 177.312 74.9994C177.312 78.2504 179.959 80.9344 183.247 80.9344C186.536 80.9344 189.182 78.2882 189.182 74.9994ZM167.937 70.9546C165.707 70.9546 163.893 72.7691 163.893 74.9994C163.893 77.2298 165.707 79.0443 167.937 79.0443C170.168 79.0443 171.982 77.2298 171.982 74.9994C171.982 72.7691 170.168 70.9546 167.937 70.9546Z" fill="#4C609B"/>
<path d="M158.676 74.9997C158.676 73.5632 157.504 72.3535 156.03 72.3535C154.593 72.3535 153.384 73.5254 153.384 74.9997C153.384 76.4362 154.556 77.6459 156.03 77.6459C157.504 77.6459 158.676 76.4362 158.676 74.9997Z" fill="#54669F"/>
<path d="M202.451 85.773C198.406 84.6767 194.248 87.0961 193.19 91.1409C192.093 95.1858 194.513 99.3441 198.558 100.403C202.602 101.499 206.761 99.0794 207.819 95.0346C208.878 90.9897 206.458 86.8692 202.451 85.773ZM180.186 92.9932C182.945 93.7493 185.78 92.086 186.499 89.3264C187.255 86.5668 185.591 83.7317 182.832 83.0134C180.072 82.2574 177.237 83.9207 176.519 86.6802C175.801 89.4398 177.426 92.2372 180.186 92.9932ZM165.745 87.7009C167.749 88.2301 169.828 87.0583 170.395 85.0169C170.924 83.0134 169.752 80.9343 167.711 80.3672C165.707 79.838 163.628 81.0099 163.061 83.0512C162.532 85.0925 163.704 87.1717 165.745 87.7009ZM154.631 83.278C155.916 83.6182 157.24 82.8622 157.58 81.5769C157.92 80.2916 157.164 78.9685 155.879 78.6283C154.593 78.2881 153.27 79.0441 152.93 80.3294C152.59 81.6147 153.346 82.9378 154.631 83.278Z" fill="#746FA8"/>
<path d="M196.933 103.957C193.644 102.067 189.448 103.201 187.52 106.49C185.63 109.779 186.764 113.975 190.053 115.903C193.341 117.793 197.575 116.659 199.465 113.37C201.355 110.081 200.221 105.885 196.933 103.957ZM180.64 102.521C181.963 100.215 181.169 97.266 178.863 95.9429C176.557 94.6199 173.608 95.4137 172.285 97.7197C170.962 100.026 171.756 102.974 174.062 104.297C176.368 105.62 179.317 104.827 180.64 102.521ZM166.199 94.1662C167.144 92.5029 166.577 90.4238 164.952 89.4787C163.288 88.5337 161.209 89.1007 160.264 90.7262C159.319 92.3895 159.886 94.4686 161.512 95.4137C163.137 96.3966 165.254 95.8295 166.199 94.1662ZM154.858 87.6264C155.463 86.5679 155.123 85.1692 154.027 84.5644C152.968 83.9596 151.57 84.2998 150.965 85.3961C150.36 86.4545 150.7 87.8154 151.796 88.4581C152.893 89.0629 154.254 88.7227 154.858 87.6264Z" fill="#99558E"/>
<path d="M177.955 120.023C175.536 122.443 175.536 126.374 177.955 128.794C180.374 131.213 184.306 131.213 186.725 128.794C189.145 126.374 189.145 122.443 186.725 120.023C184.306 117.604 180.374 117.604 177.955 120.023ZM171.642 113.673C173.381 111.934 173.381 109.099 171.642 107.36C169.903 105.621 167.068 105.621 165.329 107.36C163.59 109.099 163.59 111.934 165.329 113.673C167.068 115.449 169.903 115.449 171.642 113.673ZM159.848 101.878C161.057 100.669 161.057 98.7029 159.848 97.4932C158.638 96.2835 156.672 96.2835 155.463 97.4932C154.253 98.7029 154.253 100.669 155.463 101.878C156.672 103.088 158.638 103.088 159.848 101.878ZM147.789 92.7679C148.583 93.5617 149.906 93.5617 150.7 92.7679C151.493 91.974 151.493 90.651 150.7 89.8571C149.906 89.0633 148.583 89.0633 147.789 89.8571C146.957 90.651 146.957 91.9362 147.789 92.7679Z" fill="#AF3579"/>
<path d="M164.951 130.419C162.154 132.045 161.209 135.598 162.796 138.395C164.422 141.193 167.975 142.138 170.773 140.55C173.57 138.925 174.515 135.371 172.927 132.574C171.302 129.776 167.748 128.794 164.951 130.419ZM161.624 116.432C160.49 114.466 157.958 113.786 155.992 114.92C154.026 116.054 153.346 118.587 154.48 120.553C155.614 122.518 158.147 123.199 160.112 122.065C162.078 120.931 162.758 118.398 161.624 116.432ZM151.758 107.624C153.081 106.868 153.535 105.167 152.779 103.844C152.023 102.521 150.321 102.067 149.036 102.823C147.713 103.579 147.259 105.28 148.016 106.566C148.772 107.927 150.435 108.38 151.758 107.624ZM143.517 93.2971C142.61 93.8263 142.307 94.9604 142.837 95.8677C143.366 96.7749 144.5 97.0773 145.407 96.5481C146.314 96.0189 146.617 94.8848 146.088 93.9775C145.558 93.1081 144.424 92.7679 143.517 93.2971Z" fill="#BE266A"/>
<path d="M149.565 137.148C146.617 137.942 144.878 140.966 145.672 143.877C146.466 146.825 149.49 148.564 152.401 147.77C155.349 146.977 157.088 143.952 156.294 141.042C155.538 138.093 152.514 136.354 149.565 137.148ZM146.919 127.168C148.923 126.639 150.132 124.56 149.603 122.518C149.074 120.515 146.995 119.305 144.953 119.834C142.95 120.364 141.74 122.443 142.269 124.484C142.799 126.488 144.878 127.697 146.919 127.168ZM144.462 108.04C144.084 106.679 142.685 105.848 141.287 106.226C139.926 106.604 139.094 108.002 139.472 109.401C139.85 110.762 141.249 111.594 142.647 111.215C144.008 110.837 144.802 109.401 144.462 108.04ZM140.531 96.775C140.266 95.8677 139.359 95.3007 138.414 95.5653C137.506 95.7921 136.939 96.775 137.204 97.6822C137.469 98.5895 138.376 99.1565 139.321 98.8919C140.228 98.6273 140.795 97.6822 140.531 96.775Z" fill="#D4535C"/>
<path d="M132.895 139.642C130.06 139.642 127.716 141.948 127.716 144.821C127.716 147.656 130.022 150 132.895 150C135.73 150 138.074 147.694 138.074 144.821C138.074 141.948 135.768 139.642 132.895 139.642ZM129.455 125.201C129.455 127.091 131.005 128.641 132.895 128.641C134.785 128.641 136.335 127.091 136.335 125.201C136.335 123.311 134.785 121.761 132.895 121.761C131.005 121.761 129.455 123.273 129.455 125.201ZM132.895 112.273C134.218 112.273 135.314 111.177 135.314 109.853C135.314 108.53 134.218 107.434 132.895 107.434C131.572 107.434 130.475 108.53 130.475 109.853C130.513 111.214 131.572 112.273 132.895 112.273ZM132.895 96.4336C132.025 96.4336 131.345 97.114 131.345 97.9835C131.345 98.8529 132.025 99.5334 132.895 99.5334C133.764 99.5334 134.445 98.8529 134.445 97.9835C134.445 97.1518 133.764 96.4336 132.895 96.4336Z" fill="#E06550"/>
<path d="M116.073 137.751C113.502 137.071 110.856 138.583 110.176 141.154C109.495 143.724 111.007 146.37 113.578 147.051C116.148 147.731 118.795 146.219 119.475 143.649C120.155 141.078 118.643 138.432 116.073 137.751ZM120.722 120.476C119.059 120.022 117.358 121.005 116.942 122.668C116.489 124.332 117.471 126.033 119.135 126.449C120.798 126.902 122.499 125.919 122.915 124.256C123.331 122.593 122.348 120.892 120.722 120.476ZM124.465 106.489C123.255 106.186 122.046 106.867 121.743 108.077C121.441 109.286 122.121 110.496 123.331 110.836C124.541 111.139 125.75 110.458 126.053 109.248C126.355 108.039 125.637 106.829 124.465 106.489ZM128.283 97.5297C128.472 96.8114 128.056 96.0554 127.3 95.8286C126.582 95.6396 125.826 96.0554 125.599 96.8114C125.41 97.5297 125.826 98.2857 126.582 98.5125C127.338 98.7016 128.094 98.2857 128.283 97.5297Z" fill="#F57F28"/>
<path d="M100.195 131.553C98.0406 130.306 95.3188 131.062 94.0713 133.179C92.8239 135.333 93.5799 138.055 95.6968 139.303C97.8516 140.55 100.573 139.794 101.821 137.677C103.068 135.522 102.35 132.763 100.195 131.553ZM109.154 116.016C107.831 115.26 106.168 115.714 105.374 117.037C104.618 118.36 105.072 120.023 106.395 120.779C107.718 121.535 109.381 121.082 110.175 119.759C110.931 118.473 110.478 116.772 109.154 116.016ZM114.409 106.944C115.392 107.511 116.677 107.17 117.244 106.188C117.811 105.205 117.471 103.919 116.488 103.352C115.505 102.785 114.22 103.126 113.653 104.108C113.086 105.091 113.426 106.377 114.409 106.944ZM122.007 93.8262C121.44 93.486 120.684 93.675 120.344 94.2798C120.004 94.8469 120.193 95.6029 120.798 95.9432C121.365 96.2834 122.121 96.0944 122.461 95.4895C122.763 94.8847 122.574 94.1664 122.007 93.8262Z" fill="#F89829"/>
<path d="M80.5765 121.383C78.951 123.008 78.951 125.617 80.5765 127.242C82.2021 128.868 84.8104 128.868 86.4359 127.242C88.0614 125.617 88.0614 123.008 86.4359 121.383C84.8104 119.757 82.2021 119.757 80.5765 121.383ZM95.6975 108.719C94.7525 109.664 94.7525 111.176 95.6975 112.121C96.6426 113.066 98.1547 113.066 99.0997 112.121C100.045 111.176 100.045 109.664 99.0997 108.719C98.1547 107.774 96.6426 107.774 95.6975 108.719ZM106.887 98.2476C106.131 99.0037 106.131 100.176 106.887 100.932C107.643 101.688 108.815 101.688 109.571 100.932C110.327 100.176 110.327 99.0037 109.571 98.2476C108.815 97.4916 107.643 97.4916 106.887 98.2476ZM117.358 90.4603C116.942 90.0445 116.3 90.0445 115.884 90.4603C115.468 90.8761 115.468 91.5188 115.884 91.9346C116.3 92.3504 116.942 92.3504 117.358 91.9346C117.774 91.5188 117.774 90.8383 117.358 90.4603Z" fill="#FDC126"/>
<path d="M70.521 106.526C68.7065 107.585 68.1016 109.891 69.1223 111.705C70.1808 113.52 72.4867 114.125 74.3012 113.104C76.1158 112.045 76.7206 109.739 75.6999 107.925C74.6415 106.11 72.3355 105.468 70.521 106.526ZM88.4015 98.2097C87.4187 98.7768 87.0785 100.062 87.6455 101.045C88.2125 102.028 89.4978 102.368 90.4807 101.801C91.4635 101.234 91.8038 99.9486 91.2367 98.9658C90.6319 97.9829 89.3844 97.6427 88.4015 98.2097ZM101.821 90.8383C100.99 91.3297 100.725 92.3504 101.179 93.182C101.67 94.0137 102.691 94.2783 103.522 93.8246C104.354 93.3332 104.619 92.3126 104.165 91.4809C103.712 90.6492 102.653 90.3468 101.821 90.8383Z" fill="#FED626"/>
<path d="M62.8096 62.9784H68.8958V86.3403H62.8096V62.9784ZM66.552 52.5449C64.6619 52.0535 62.734 53.1498 62.2425 55.0399C61.7511 56.93 62.8474 58.8579 64.7375 59.3494C66.6276 59.8408 68.5555 58.7445 69.047 56.8544C69.5384 54.9643 68.4043 53.0364 66.552 52.5449ZM87.6836 86.8317C86.0959 86.8317 84.6594 86.5671 83.4119 86.0001C82.1266 85.433 81.1059 84.6014 80.3499 83.5051V98.0212H74.4149V62.9784H80.3121V66.2294C81.1059 65.0575 82.1266 64.1503 83.3741 63.5076C84.6594 62.8272 86.0581 62.5248 87.6458 62.5248C89.1201 62.5248 90.5187 62.7894 91.8796 63.3564C93.2405 63.9235 94.4502 64.7173 95.4709 65.8136C96.4915 66.8721 97.3232 68.1573 97.9658 69.6694C98.5707 71.1815 98.9109 72.8448 98.9109 74.6972C98.9109 76.5873 98.6085 78.2506 97.9658 79.7249C97.3232 81.1992 96.4915 82.4845 95.4709 83.5429C94.4502 84.6014 93.2405 85.433 91.9174 86.0001C90.5187 86.5671 89.12 86.8317 87.6836 86.8317ZM86.4739 81.1992C87.3811 81.1992 88.2128 81.0102 88.9688 80.6699C89.7627 80.3297 90.4431 79.8383 91.0102 79.2712C91.615 78.6664 92.0686 77.986 92.4089 77.1921C92.7491 76.3983 92.9003 75.5288 92.9003 74.6216C92.9003 73.7143 92.7491 72.8448 92.4089 72.051C92.0686 71.2571 91.615 70.5767 91.0102 69.9719C90.4053 69.367 89.7249 68.9134 88.9688 68.5732C88.175 68.2329 87.3433 68.0439 86.4739 68.0439C85.5666 68.0439 84.6972 68.2329 83.9033 68.5732C83.1095 68.9134 82.429 69.4048 81.862 69.9719C81.295 70.5767 80.8413 71.2571 80.5011 72.0888C80.1609 72.8826 80.0097 73.7521 80.0097 74.6594C80.0097 75.5666 80.1609 76.4361 80.5011 77.2299C80.8413 78.0238 81.295 78.7042 81.862 79.3091C82.429 79.9139 83.1095 80.3675 83.9033 80.7077C84.6594 81.048 85.5288 81.1992 86.4739 81.1992ZM103.183 62.9784H109.08V66.5696C109.647 65.171 110.516 64.1503 111.612 63.5076C112.709 62.865 114.032 62.5248 115.544 62.5248C116.338 62.5248 117.056 62.6004 117.736 62.7894C118.417 62.9784 118.984 63.1674 119.475 63.432L117.321 69.3292C117.018 69.1024 116.565 68.9134 116.035 68.7622C115.468 68.611 114.864 68.5354 114.221 68.5354C112.709 68.5354 111.461 68.9512 110.554 69.8206C109.647 70.6901 109.155 72.0888 109.155 74.0545V86.3781H103.22L103.183 62.9784ZM132.668 86.8317C130.892 86.8317 129.266 86.5293 127.792 85.8867C126.28 85.244 124.995 84.3746 123.86 83.2783C122.764 82.182 121.895 80.859 121.252 79.4225C120.647 77.9482 120.307 76.3605 120.307 74.6972C120.307 73.0339 120.609 71.4462 121.252 69.9719C121.857 68.4976 122.726 67.2123 123.86 66.116C124.957 65.0197 126.28 64.1503 127.792 63.5076C129.304 62.865 130.93 62.5626 132.668 62.5626C134.407 62.5626 136.033 62.865 137.545 63.5076C139.057 64.1503 140.38 65.0197 141.476 66.116C142.573 67.2123 143.442 68.4976 144.085 69.9719C144.727 71.4462 145.03 73.0339 145.03 74.6972C145.03 76.3605 144.727 77.9482 144.085 79.4225C143.442 80.8968 142.573 82.182 141.476 83.2783C140.38 84.3746 139.057 85.244 137.545 85.8867C136.071 86.5293 134.445 86.8317 132.668 86.8317ZM132.744 81.1614C133.651 81.1614 134.483 80.9724 135.239 80.6321C136.033 80.2919 136.713 79.8383 137.28 79.2335C137.847 78.6664 138.301 77.986 138.641 77.1921C138.981 76.3983 139.133 75.5288 139.133 74.6216C139.133 73.7143 138.981 72.8826 138.641 72.051C138.301 71.2571 137.847 70.5389 137.28 69.9719C136.713 69.4048 136.033 68.9512 135.239 68.5732C134.445 68.2329 133.614 68.0439 132.744 68.0439C131.837 68.0439 131.005 68.2329 130.249 68.5732C129.455 68.9134 128.775 69.367 128.208 69.9719C127.641 70.5389 127.187 71.2571 126.847 72.051C126.507 72.8448 126.355 73.7143 126.355 74.6216C126.355 75.5288 126.507 76.3983 126.847 77.1921C127.187 77.986 127.641 78.6664 128.208 79.2335C128.775 79.8005 129.455 80.2541 130.249 80.6321C131.005 81.0102 131.837 81.1614 132.744 81.1614ZM20.6221 62.9784H26.6705L31.3958 77.9104L36.9149 62.9784H42.2451L47.6886 77.9104L52.5651 62.9784H58.6135L50.7128 86.3403H45.0802L39.5233 71.1059L33.8907 86.3403H28.1826L20.6221 62.9784Z" fill="#341D55"/>
</g>
<defs>
<clipPath id="clip0_691_20812">
<rect width="231.768" height="150" fill="white"/>
</clipPath>
</defs>
</svg>
