<svg width="27" height="27" viewBox="0 0 27 27" fill="none" xmlns="http://www.w3.org/2000/svg">
<g clip-path="url(#clip0_932_39)">
<path d="M26.4012 6.15393C26.3995 5.96103 26.3184 5.77193 26.1825 5.63538L21.5728 1.01888C21.4334 0.879178 21.2392 0.798928 21.042 0.798828H6.53201C6.11781 0.798828 5.78201 1.13463 5.78201 1.54883V5.64103C3.77696 7.59573 3.31756 10.5645 4.42281 12.975L1.45951 15.9427C0.583809 16.8196 0.583809 18.2466 1.45951 19.1235C1.88421 19.5489 2.44886 19.7831 3.04941 19.7831C3.64996 19.7831 4.21461 19.5488 4.63926 19.1235L5.78196 17.9791V25.6488C5.78196 26.063 6.11776 26.3988 6.53196 26.3988H25.6517C26.0659 26.3988 26.4017 26.063 26.4017 25.6488V6.16533C26.4017 6.16153 26.4012 6.15773 26.4012 6.15393ZM21.792 3.36138L23.843 5.41533H21.792V3.36138ZM6.78766 6.75533C8.63606 4.82613 11.9612 4.82623 13.8096 6.75533C15.7464 8.69498 15.7464 11.8511 13.8096 13.7907C11.9645 15.7218 8.62716 15.7158 6.78766 13.7907C4.85091 11.8511 4.85091 8.69503 6.78766 6.75533ZM3.57781 18.0636C3.29931 18.3543 2.79946 18.3542 2.52091 18.0636C2.22881 17.7711 2.22881 17.295 2.52091 17.0025L5.22861 14.2907C5.38196 14.4845 5.54756 14.6716 5.72626 14.8506C5.90471 15.0293 6.09196 15.1959 6.28666 15.3507L3.57781 18.0636ZM7.28201 24.8988V16.4769L7.59911 16.1593C8.43496 16.5442 9.35116 16.7473 10.2987 16.7473C12.026 16.7473 13.6498 16.0737 14.8711 14.8506C15.212 14.5093 15.5063 14.1387 15.755 13.7473H22.6562C23.0704 13.7473 23.4062 13.4115 23.4062 12.9973C23.4062 12.5831 23.0704 12.2473 22.6562 12.2473H16.4554C17.166 10.0126 16.638 7.46503 14.8711 5.69548C13.6498 4.47243 12.026 3.79883 10.2987 3.79883C9.22981 3.79883 8.20076 4.05703 7.28201 4.54348V2.29883H20.2921V6.16533C20.2921 6.57953 20.6279 6.91533 21.0421 6.91533H24.9018V24.8988H7.28201Z" fill="#E6A135"/>
<path d="M22.6547 9.24805H19.0859C18.6717 9.24805 18.3359 9.58385 18.3359 9.99805C18.3359 10.4122 18.6717 10.748 19.0859 10.748H22.6547C23.0689 10.748 23.4047 10.4122 23.4047 9.99805C23.4047 9.58385 23.0689 9.24805 22.6547 9.24805Z" fill="#E6A135"/>
<path d="M22.6544 15.248H17.5879C17.1737 15.248 16.8379 15.5838 16.8379 15.998C16.8379 16.4122 17.1737 16.748 17.5879 16.748H22.6544C23.0686 16.748 23.4044 16.4122 23.4044 15.998C23.4044 15.5838 23.0686 15.248 22.6544 15.248Z" fill="#E6A135"/>
<path d="M22.6579 21.2988H9.5293C9.1151 21.2988 8.7793 21.6346 8.7793 22.0488C8.7793 22.463 9.1151 22.7988 9.5293 22.7988H22.6579C23.0721 22.7988 23.4079 22.463 23.4079 22.0488C23.4079 21.6346 23.0721 21.2988 22.6579 21.2988Z" fill="#E6A135"/>
<path d="M22.6544 18.2988H17.5879C17.1737 18.2988 16.8379 18.6346 16.8379 19.0488C16.8379 19.463 17.1737 19.7988 17.5879 19.7988H22.6544C23.0686 19.7988 23.4044 19.463 23.4044 19.0488C23.4044 18.6346 23.0686 18.2988 22.6544 18.2988Z" fill="#E6A135"/>
<path d="M9.5293 19.7988H14.5958C15.01 19.7988 15.3458 19.463 15.3458 19.0488C15.3458 18.6346 15.01 18.2988 14.5958 18.2988H9.5293C9.1151 18.2988 8.7793 18.6346 8.7793 19.0488C8.7793 19.463 9.1151 19.7988 9.5293 19.7988Z" fill="#E6A135"/>
<path d="M9.21173 12.0087C9.35818 12.1552 9.55013 12.2284 9.74203 12.2284C9.93393 12.2284 10.1259 12.1552 10.2723 12.0087L12.6824 9.59868C12.9753 9.30578 12.9753 8.83093 12.6824 8.53803C12.3895 8.24513 11.9146 8.24513 11.6217 8.53803L9.74203 10.4177L8.97369 9.64943C8.68084 9.35653 8.20593 9.35653 7.91303 9.64943C7.62013 9.94233 7.62013 10.4172 7.91303 10.7101L9.21173 12.0087Z" fill="#E6A135"/>
</g>
<defs>
<clipPath id="clip0_932_39">
<rect width="25.6" height="25.6" fill="white" transform="translate(0.800781 0.800781)"/>
</clipPath>
</defs>
</svg>
